<?xml version="1.0" encoding="UTF-8"?>
<svg xmlns="http://www.w3.org/2000/svg" xmlns:xlink="http://www.w3.org/1999/xlink" width="400" zoomAndPan="magnify" viewBox="0 0 300 299.999988" height="400" preserveAspectRatio="xMidYMid meet" version="1.0">
  <defs>
    <clipPath id="79876005ec">
      <path d="M 95 80 L 289.582031 80 L 289.582031 229 L 95 229 Z M 95 80 " clip-rule="nonzero"></path>
    </clipPath>
    <clipPath id="8622330f08">
      <path d="M 45 228 L 289.582031 228 L 289.582031 242.996094 L 45 242.996094 Z M 45 228 " clip-rule="nonzero"></path>
    </clipPath>
    <clipPath id="965426a4bb">
      <path d="M 10.582031 152 L 48 152 L 48 174 L 10.582031 174 Z M 10.582031 152 " clip-rule="nonzero"></path>
    </clipPath>
    <clipPath id="6fb1a7b135">
      <path d="M 21 233 L 51 233 L 51 242.996094 L 21 242.996094 Z M 21 233 " clip-rule="nonzero"></path>
    </clipPath>
    <clipPath id="3599c87255">
      <path d="M 66 232 L 97 232 L 97 242.996094 L 66 242.996094 Z M 66 232 " clip-rule="nonzero"></path>
    </clipPath>
  </defs>
  <g clip-path="url(#79876005ec)">
    <path fill="#ffffff" d="M 280.339844 80.519531 L 104.507812 80.519531 C 99.527344 80.519531 95.488281 84.554688 95.488281 89.535156 L 95.488281 219.445312 C 95.488281 224.421875 99.527344 228.457031 104.507812 228.457031 L 289.371094 228.457031 L 289.371094 89.535156 C 289.359375 84.554688 285.324219 80.519531 280.339844 80.519531 Z M 280.339844 80.519531 " fill-opacity="1" fill-rule="nonzero"></path>
    <path fill="#000000" d="M 289.359375 228.691406 L 104.5 228.691406 C 99.402344 228.691406 95.253906 224.546875 95.253906 219.453125 L 95.253906 89.535156 C 95.253906 84.441406 99.402344 80.296875 104.5 80.296875 L 280.328125 80.296875 C 285.425781 80.296875 289.574219 84.441406 289.574219 89.535156 L 289.574219 228.457031 C 289.582031 228.589844 289.492188 228.691406 289.359375 228.691406 Z M 104.507812 80.742188 C 99.65625 80.742188 95.710938 84.6875 95.710938 89.535156 L 95.710938 219.445312 C 95.710938 224.292969 99.65625 228.234375 104.507812 228.234375 L 289.136719 228.234375 L 289.136719 89.535156 C 289.136719 84.6875 285.191406 80.742188 280.339844 80.742188 Z M 104.507812 80.742188 " fill-opacity="1" fill-rule="nonzero"></path>
  </g>
  <g clip-path="url(#8622330f08)">
    <path fill="#ffffff" d="M 278.722656 242.753906 L 56.238281 242.753906 C 50.363281 242.753906 45.601562 238 45.601562 232.125 L 45.601562 228.273438 L 289.359375 228.273438 L 289.359375 232.125 C 289.359375 238 284.601562 242.753906 278.722656 242.753906 Z M 278.722656 242.753906 " fill-opacity="1" fill-rule="nonzero"></path>
    <path fill="#000000" d="M 278.722656 242.980469 L 56.238281 242.980469 C 50.25 242.980469 45.378906 238.113281 45.378906 232.125 L 45.378906 228.273438 C 45.378906 228.152344 45.480469 228.050781 45.601562 228.050781 L 289.359375 228.050781 C 289.480469 228.050781 289.582031 228.152344 289.582031 228.273438 L 289.582031 232.125 C 289.582031 238.113281 284.710938 242.980469 278.722656 242.980469 Z M 45.835938 228.5 L 45.835938 232.125 C 45.835938 237.867188 50.503906 242.53125 56.25 242.53125 L 278.734375 242.53125 C 284.476562 242.53125 289.144531 237.867188 289.144531 232.125 L 289.144531 228.5 Z M 45.835938 228.5 " fill-opacity="1" fill-rule="nonzero"></path>
  </g>
  <path fill="#ffffff" d="M 104.140625 175.492188 L 195.800781 175.492188 L 195.800781 219.699219 L 104.140625 219.699219 Z M 104.140625 175.492188 " fill-opacity="1" fill-rule="nonzero"></path>
  <path fill="#000000" d="M 195.800781 219.921875 L 104.140625 219.921875 C 104.019531 219.921875 103.917969 219.820312 103.917969 219.699219 L 103.917969 175.492188 C 103.917969 175.371094 104.019531 175.269531 104.140625 175.269531 L 195.800781 175.269531 C 195.921875 175.269531 196.023438 175.371094 196.023438 175.492188 L 196.023438 219.699219 C 196.023438 219.820312 195.921875 219.921875 195.800781 219.921875 Z M 104.367188 219.476562 L 195.578125 219.476562 L 195.578125 175.71875 L 104.367188 175.71875 Z M 104.367188 219.476562 " fill-opacity="1" fill-rule="nonzero"></path>
  <path fill="#000000" d="M 172.289062 212.695312 L 112.867188 212.695312 C 112.746094 212.695312 112.644531 212.59375 112.644531 212.472656 L 112.644531 195.003906 C 112.644531 194.882812 112.746094 194.78125 112.867188 194.78125 C 112.988281 194.78125 113.089844 194.882812 113.089844 195.003906 L 113.089844 212.25 L 172.289062 212.25 C 172.414062 212.25 172.515625 212.351562 172.515625 212.472656 C 172.515625 212.59375 172.414062 212.695312 172.289062 212.695312 Z M 172.289062 212.695312 " fill-opacity="1" fill-rule="nonzero"></path>
  <path fill="#000000" d="M 118.734375 210.21875 C 118.613281 210.21875 118.511719 210.117188 118.511719 209.992188 L 118.511719 197.453125 C 118.511719 197.332031 118.613281 197.230469 118.734375 197.230469 C 118.855469 197.230469 118.957031 197.332031 118.957031 197.453125 L 118.957031 209.992188 C 118.957031 210.117188 118.855469 210.21875 118.734375 210.21875 Z M 118.734375 210.21875 " fill-opacity="1" fill-rule="nonzero"></path>
  <path fill="#000000" d="M 124.601562 210.21875 C 124.480469 210.21875 124.378906 210.117188 124.378906 209.992188 L 124.378906 199.914062 C 124.378906 199.789062 124.480469 199.6875 124.601562 199.6875 C 124.722656 199.6875 124.824219 199.789062 124.824219 199.914062 L 124.824219 209.992188 C 124.824219 210.117188 124.722656 210.21875 124.601562 210.21875 Z M 124.601562 210.21875 " fill-opacity="1" fill-rule="nonzero"></path>
  <path fill="#000000" d="M 130.46875 210.21875 C 130.347656 210.21875 130.246094 210.117188 130.246094 209.992188 L 130.246094 189.832031 C 130.246094 189.710938 130.347656 189.609375 130.46875 189.609375 C 130.589844 189.609375 130.691406 189.710938 130.691406 189.832031 L 130.691406 209.992188 C 130.691406 210.117188 130.589844 210.21875 130.46875 210.21875 Z M 130.46875 210.21875 " fill-opacity="1" fill-rule="nonzero"></path>
  <path fill="#000000" d="M 136.335938 210.21875 C 136.214844 210.21875 136.113281 210.117188 136.113281 209.992188 L 136.113281 191.589844 C 136.113281 191.46875 136.214844 191.367188 136.335938 191.367188 C 136.457031 191.367188 136.558594 191.46875 136.558594 191.589844 L 136.558594 209.992188 C 136.558594 210.117188 136.457031 210.21875 136.335938 210.21875 Z M 136.335938 210.21875 " fill-opacity="1" fill-rule="nonzero"></path>
  <path fill="#000000" d="M 142.203125 210.21875 C 142.082031 210.21875 141.980469 210.117188 141.980469 209.992188 L 141.980469 182.71875 C 141.980469 182.597656 142.082031 182.496094 142.203125 182.496094 C 142.324219 182.496094 142.425781 182.597656 142.425781 182.71875 L 142.425781 209.992188 C 142.425781 210.117188 142.324219 210.21875 142.203125 210.21875 Z M 142.203125 210.21875 " fill-opacity="1" fill-rule="nonzero"></path>
  <path fill="#000000" d="M 148.070312 210.21875 C 147.949219 210.21875 147.847656 210.117188 147.847656 209.992188 L 147.847656 197.453125 C 147.847656 197.332031 147.949219 197.230469 148.070312 197.230469 C 148.191406 197.230469 148.292969 197.332031 148.292969 197.453125 L 148.292969 209.992188 C 148.292969 210.117188 148.203125 210.21875 148.070312 210.21875 Z M 148.070312 210.21875 " fill-opacity="1" fill-rule="nonzero"></path>
  <path fill="#000000" d="M 153.945312 210.21875 C 153.824219 210.21875 153.722656 210.117188 153.722656 209.992188 L 153.722656 199.914062 C 153.722656 199.789062 153.824219 199.6875 153.945312 199.6875 C 154.070312 199.6875 154.171875 199.789062 154.171875 199.914062 L 154.171875 209.992188 C 154.171875 210.117188 154.070312 210.21875 153.945312 210.21875 Z M 153.945312 210.21875 " fill-opacity="1" fill-rule="nonzero"></path>
  <path fill="#000000" d="M 159.8125 210.21875 C 159.691406 210.21875 159.589844 210.117188 159.589844 209.992188 L 159.589844 189.832031 C 159.589844 189.710938 159.691406 189.609375 159.8125 189.609375 C 159.9375 189.609375 160.039062 189.710938 160.039062 189.832031 L 160.039062 209.992188 C 160.039062 210.117188 159.9375 210.21875 159.8125 210.21875 Z M 159.8125 210.21875 " fill-opacity="1" fill-rule="nonzero"></path>
  <path fill="#000000" d="M 165.679688 210.21875 C 165.558594 210.21875 165.457031 210.117188 165.457031 209.992188 L 165.457031 191.589844 C 165.457031 191.46875 165.558594 191.367188 165.679688 191.367188 C 165.804688 191.367188 165.90625 191.46875 165.90625 191.589844 L 165.90625 209.992188 C 165.90625 210.117188 165.804688 210.21875 165.679688 210.21875 Z M 165.679688 210.21875 " fill-opacity="1" fill-rule="nonzero"></path>
  <path fill="#000000" d="M 171.546875 210.21875 C 171.425781 210.21875 171.324219 210.117188 171.324219 209.992188 L 171.324219 182.71875 C 171.324219 182.597656 171.425781 182.496094 171.546875 182.496094 C 171.671875 182.496094 171.773438 182.597656 171.773438 182.71875 L 171.773438 209.992188 C 171.773438 210.117188 171.671875 210.21875 171.546875 210.21875 Z M 171.546875 210.21875 " fill-opacity="1" fill-rule="nonzero"></path>
  <path fill="#ffffff" d="M 133.671875 95.03125 L 223.804688 95.03125 L 223.804688 169.640625 L 133.671875 169.640625 Z M 133.671875 95.03125 " fill-opacity="1" fill-rule="nonzero"></path>
  <path fill="#000000" d="M 223.804688 169.855469 L 133.671875 169.855469 C 133.550781 169.855469 133.449219 169.753906 133.449219 169.628906 L 133.449219 95.03125 C 133.449219 94.910156 133.550781 94.808594 133.671875 94.808594 L 223.804688 94.808594 C 223.925781 94.808594 224.027344 94.910156 224.027344 95.03125 L 224.027344 169.640625 C 224.027344 169.753906 223.925781 169.855469 223.804688 169.855469 Z M 133.894531 169.40625 L 223.578125 169.40625 L 223.578125 95.253906 L 133.894531 95.253906 Z M 133.894531 169.40625 " fill-opacity="1" fill-rule="nonzero"></path>
  <path fill="#ffffff" d="M 146.027344 107.671875 L 207.472656 107.671875 L 207.472656 144.316406 L 146.027344 144.316406 Z M 146.027344 107.671875 " fill-opacity="1" fill-rule="nonzero"></path>
  <path fill="#000000" d="M 207.472656 144.539062 L 146.027344 144.539062 C 145.902344 144.539062 145.800781 144.4375 145.800781 144.316406 L 145.800781 107.671875 C 145.800781 107.550781 145.902344 107.449219 146.027344 107.449219 L 207.472656 107.449219 C 207.59375 107.449219 207.695312 107.550781 207.695312 107.671875 L 207.695312 144.316406 C 207.695312 144.4375 207.59375 144.539062 207.472656 144.539062 Z M 146.25 144.09375 L 207.25 144.09375 L 207.25 107.894531 L 146.25 107.894531 Z M 146.25 144.09375 " fill-opacity="1" fill-rule="nonzero"></path>
  <path fill="#000000" d="M 160.476562 112.042969 C 160.351562 112.042969 160.25 111.941406 160.25 111.820312 C 160.25 111.695312 160.351562 111.59375 160.476562 111.59375 C 162.8125 111.59375 164.714844 109.695312 164.714844 107.359375 C 164.714844 105.019531 162.8125 103.121094 160.476562 103.121094 C 158.136719 103.121094 156.234375 105.019531 156.234375 107.359375 C 156.234375 107.480469 156.132812 107.582031 156.011719 107.582031 C 155.890625 107.582031 155.789062 107.480469 155.789062 107.359375 C 155.789062 104.777344 157.890625 102.671875 160.476562 102.671875 C 163.058594 102.671875 165.164062 104.777344 165.164062 107.359375 C 165.164062 109.949219 163.058594 112.042969 160.476562 112.042969 Z M 160.476562 112.042969 " fill-opacity="1" fill-rule="nonzero"></path>
  <path fill="#000000" d="M 176.746094 112.042969 C 176.621094 112.042969 176.519531 111.941406 176.519531 111.820312 C 176.519531 111.695312 176.621094 111.59375 176.746094 111.59375 C 179.082031 111.59375 180.984375 109.695312 180.984375 107.359375 C 180.984375 105.019531 179.082031 103.121094 176.746094 103.121094 C 174.40625 103.121094 172.503906 105.019531 172.503906 107.359375 C 172.503906 107.480469 172.402344 107.582031 172.28125 107.582031 C 172.160156 107.582031 172.058594 107.480469 172.058594 107.359375 C 172.058594 104.777344 174.160156 102.671875 176.746094 102.671875 C 179.328125 102.671875 181.433594 104.777344 181.433594 107.359375 C 181.433594 109.949219 179.328125 112.042969 176.746094 112.042969 Z M 176.746094 112.042969 " fill-opacity="1" fill-rule="nonzero"></path>
  <path fill="#000000" d="M 193.015625 112.042969 C 192.890625 112.042969 192.789062 111.941406 192.789062 111.820312 C 192.789062 111.695312 192.890625 111.59375 193.015625 111.59375 C 195.351562 111.59375 197.253906 109.695312 197.253906 107.359375 C 197.253906 105.019531 195.351562 103.121094 193.015625 103.121094 C 190.675781 103.121094 188.773438 105.019531 188.773438 107.359375 C 188.773438 107.480469 188.671875 107.582031 188.550781 107.582031 C 188.429688 107.582031 188.328125 107.480469 188.328125 107.359375 C 188.328125 104.777344 190.429688 102.671875 193.015625 102.671875 C 195.597656 102.671875 197.703125 104.777344 197.703125 107.359375 C 197.703125 109.949219 195.597656 112.042969 193.015625 112.042969 Z M 193.015625 112.042969 " fill-opacity="1" fill-rule="nonzero"></path>
  <path fill="#e2eaff" d="M 152.738281 115.292969 L 162.640625 115.292969 L 162.640625 125.191406 L 152.738281 125.191406 Z M 152.738281 115.292969 " fill-opacity="1" fill-rule="nonzero"></path>
  <path fill="#e2eaff" d="M 164.9375 115.292969 L 174.84375 115.292969 L 174.84375 125.191406 L 164.9375 125.191406 Z M 164.9375 115.292969 " fill-opacity="1" fill-rule="nonzero"></path>
  <path fill="#e2eaff" d="M 177.140625 115.292969 L 187.046875 115.292969 L 187.046875 125.191406 L 177.140625 125.191406 Z M 177.140625 115.292969 " fill-opacity="1" fill-rule="nonzero"></path>
  <path fill="#e2eaff" d="M 189.34375 115.292969 L 199.246094 115.292969 L 199.246094 125.191406 L 189.34375 125.191406 Z M 189.34375 115.292969 " fill-opacity="1" fill-rule="nonzero"></path>
  <path fill="#e2eaff" d="M 201.554688 115.292969 L 211.460938 115.292969 L 211.460938 125.191406 L 201.554688 125.191406 Z M 201.554688 115.292969 " fill-opacity="1" fill-rule="nonzero"></path>
  <path fill="#e2eaff" d="M 152.738281 127.011719 L 162.640625 127.011719 L 162.640625 136.910156 L 152.738281 136.910156 Z M 152.738281 127.011719 " fill-opacity="1" fill-rule="nonzero"></path>
  <path fill="#e2eaff" d="M 164.9375 127.011719 L 174.84375 127.011719 L 174.84375 136.910156 L 164.9375 136.910156 Z M 164.9375 127.011719 " fill-opacity="1" fill-rule="nonzero"></path>
  <path fill="#e2eaff" d="M 177.140625 127.011719 L 187.046875 127.011719 L 187.046875 136.910156 L 177.140625 136.910156 Z M 177.140625 127.011719 " fill-opacity="1" fill-rule="nonzero"></path>
  <path fill="#e2eaff" d="M 189.34375 127.011719 L 199.246094 127.011719 L 199.246094 136.910156 L 189.34375 136.910156 Z M 189.34375 127.011719 " fill-opacity="1" fill-rule="nonzero"></path>
  <path fill="#5479f7" d="M 201.554688 127.011719 L 211.460938 127.011719 L 211.460938 136.910156 L 201.554688 136.910156 Z M 201.554688 127.011719 " fill-opacity="1" fill-rule="nonzero"></path>
  <path fill="#e2eaff" d="M 152.738281 138.738281 L 162.640625 138.738281 L 162.640625 148.636719 L 152.738281 148.636719 Z M 152.738281 138.738281 " fill-opacity="1" fill-rule="nonzero"></path>
  <path fill="#e2eaff" d="M 164.9375 138.738281 L 174.84375 138.738281 L 174.84375 148.636719 L 164.9375 148.636719 Z M 164.9375 138.738281 " fill-opacity="1" fill-rule="nonzero"></path>
  <path fill="#e2eaff" d="M 177.140625 138.738281 L 187.046875 138.738281 L 187.046875 148.636719 L 177.140625 148.636719 Z M 177.140625 138.738281 " fill-opacity="1" fill-rule="nonzero"></path>
  <path fill="#ffffff" d="M 231.289062 67.148438 L 281.96875 67.148438 L 281.96875 130.792969 L 231.289062 130.792969 Z M 231.289062 67.148438 " fill-opacity="1" fill-rule="nonzero"></path>
  <path fill="#000000" d="M 281.96875 131.015625 L 231.289062 131.015625 C 231.164062 131.015625 231.0625 130.914062 231.0625 130.792969 L 231.0625 67.148438 C 231.0625 67.023438 231.164062 66.921875 231.289062 66.921875 L 281.96875 66.921875 C 282.089844 66.921875 282.191406 67.023438 282.191406 67.148438 L 282.191406 130.792969 C 282.191406 130.914062 282.089844 131.015625 281.96875 131.015625 Z M 231.511719 130.566406 L 281.742188 130.566406 L 281.742188 67.378906 L 231.511719 67.378906 Z M 231.511719 130.566406 " fill-opacity="1" fill-rule="nonzero"></path>
  <path fill="#5479f7" d="M 272.5625 90.386719 C 272.5625 81.597656 265.433594 74.464844 256.628906 74.464844 C 247.832031 74.464844 240.695312 81.585938 240.695312 90.386719 C 240.695312 97.175781 244.945312 102.957031 250.921875 105.253906 L 250.921875 112.316406 L 262.332031 112.316406 L 262.332031 105.253906 C 268.3125 102.96875 272.5625 97.175781 272.5625 90.386719 Z M 272.5625 90.386719 " fill-opacity="1" fill-rule="nonzero"></path>
  <path fill="#5479f7" d="M 256.503906 122.507812 C 255.894531 122.507812 255.316406 122.386719 254.796875 122.152344 C 253.039062 121.351562 252.488281 119.5 252.46875 119.429688 C 252.449219 119.359375 252.457031 119.289062 252.507812 119.238281 C 252.550781 119.175781 252.621094 119.144531 252.691406 119.144531 L 262.027344 119.144531 L 262.027344 115.902344 L 251.003906 115.902344 C 250.882812 115.902344 250.78125 115.800781 250.78125 115.679688 C 250.78125 115.558594 250.882812 115.457031 251.003906 115.457031 L 262.238281 115.457031 C 262.363281 115.457031 262.464844 115.558594 262.464844 115.679688 L 262.464844 119.367188 C 262.464844 119.492188 262.363281 119.59375 262.238281 119.59375 L 252.996094 119.59375 C 253.210938 120.109375 253.800781 121.21875 254.980469 121.757812 C 256.140625 122.285156 257.59375 122.144531 259.292969 121.351562 C 259.402344 121.300781 259.535156 121.351562 259.585938 121.460938 C 259.636719 121.574219 259.585938 121.707031 259.472656 121.757812 C 258.40625 122.253906 257.410156 122.507812 256.503906 122.507812 Z M 256.503906 122.507812 " fill-opacity="1" fill-rule="nonzero"></path>
  <path fill="#ffffff" d="M 255.722656 108.019531 C 255.621094 108.019531 255.527344 107.945312 255.5 107.835938 L 251.023438 85.914062 C 251.003906 85.792969 251.074219 85.671875 251.199219 85.652344 C 251.320312 85.632812 251.441406 85.703125 251.460938 85.824219 L 255.9375 107.742188 C 255.957031 107.867188 255.886719 107.988281 255.761719 108.007812 C 255.753906 108.019531 255.734375 108.019531 255.722656 108.019531 Z M 255.722656 108.019531 " fill-opacity="1" fill-rule="nonzero"></path>
  <path fill="#ffffff" d="M 257.53125 108.019531 C 257.523438 108.019531 257.5 108.019531 257.492188 108.019531 C 257.371094 107.996094 257.289062 107.875 257.320312 107.753906 L 261.792969 85.835938 C 261.8125 85.710938 261.933594 85.632812 262.058594 85.660156 C 262.179688 85.683594 262.261719 85.804688 262.230469 85.925781 L 257.757812 107.84375 C 257.726562 107.945312 257.632812 108.019531 257.53125 108.019531 Z M 257.53125 108.019531 " fill-opacity="1" fill-rule="nonzero"></path>
  <path fill="#ffffff" d="M 256.109375 88 C 256.097656 88 256.089844 88 256.078125 88 C 255.976562 87.988281 255.894531 87.90625 255.886719 87.816406 L 255.296875 84.21875 L 254.277344 86.261719 C 254.238281 86.34375 254.167969 86.382812 254.074219 86.382812 L 252.785156 86.382812 C 252.660156 86.382812 252.558594 86.28125 252.558594 86.160156 C 252.558594 86.039062 252.660156 85.9375 252.785156 85.9375 L 253.933594 85.9375 L 255.195312 83.394531 C 255.234375 83.304688 255.335938 83.261719 255.425781 83.273438 C 255.519531 83.285156 255.601562 83.363281 255.609375 83.457031 L 256.191406 86.972656 L 257.5 83.863281 C 257.542969 83.78125 257.613281 83.730469 257.714844 83.730469 C 257.808594 83.730469 257.886719 83.792969 257.917969 83.882812 L 258.652344 85.9375 L 260.289062 85.9375 C 260.410156 85.9375 260.511719 86.039062 260.511719 86.160156 C 260.511719 86.28125 260.410156 86.382812 260.289062 86.382812 L 258.488281 86.382812 C 258.398438 86.382812 258.304688 86.324219 258.273438 86.230469 L 257.683594 84.5625 L 256.292969 87.855469 C 256.28125 87.9375 256.199219 88 256.109375 88 Z M 256.109375 88 " fill-opacity="1" fill-rule="nonzero"></path>
  <path fill="#ffffff" d="M 190.390625 148.625 L 281.96875 148.625 L 281.96875 208.203125 L 190.390625 208.203125 Z M 190.390625 148.625 " fill-opacity="1" fill-rule="nonzero"></path>
  <path fill="#000000" d="M 281.96875 208.429688 L 190.390625 208.429688 C 190.269531 208.429688 190.167969 208.328125 190.167969 208.203125 L 190.167969 148.625 C 190.167969 148.503906 190.269531 148.402344 190.390625 148.402344 L 281.96875 148.402344 C 282.089844 148.402344 282.191406 148.503906 282.191406 148.625 L 282.191406 208.203125 C 282.191406 208.328125 282.089844 208.429688 281.96875 208.429688 Z M 190.613281 207.980469 L 281.742188 207.980469 L 281.742188 148.847656 L 190.613281 148.847656 Z M 190.613281 207.980469 " fill-opacity="1" fill-rule="nonzero"></path>
  <path fill="#ffffff" d="M 241.863281 153.960938 L 271.390625 153.960938 C 273.75 153.960938 275.652344 155.871094 275.652344 158.21875 L 275.652344 186.429688 C 275.652344 190.929688 273.121094 195.066406 269.113281 197.109375 L 256.097656 203.753906 L 243.894531 197.167969 C 240.011719 195.074219 237.59375 191.019531 237.59375 186.609375 L 237.59375 158.226562 C 237.59375 155.871094 239.503906 153.960938 241.863281 153.960938 Z M 241.863281 153.960938 " fill-opacity="1" fill-rule="nonzero"></path>
  <path fill="#000000" d="M 256.109375 203.988281 C 256.066406 203.988281 256.039062 203.976562 256.007812 203.957031 L 243.804688 197.371094 C 239.847656 195.238281 237.390625 191.113281 237.390625 186.621094 L 237.390625 158.226562 C 237.390625 155.757812 239.402344 153.738281 241.882812 153.738281 L 271.410156 153.738281 C 273.882812 153.738281 275.90625 155.75 275.90625 158.226562 L 275.90625 186.4375 C 275.90625 191.050781 273.355469 195.21875 269.246094 197.320312 L 256.230469 203.96875 C 256.167969 203.976562 256.140625 203.988281 256.109375 203.988281 Z M 241.863281 154.183594 C 239.636719 154.183594 237.824219 155.992188 237.824219 158.21875 L 237.824219 186.609375 C 237.824219 190.941406 240.195312 194.914062 244.007812 196.976562 L 256.109375 203.511719 L 269.011719 196.914062 C 272.96875 194.894531 275.429688 190.878906 275.429688 186.429688 L 275.429688 158.226562 C 275.429688 156.003906 273.617188 154.195312 271.390625 154.195312 L 241.863281 154.195312 Z M 241.863281 154.183594 " fill-opacity="1" fill-rule="nonzero"></path>
  <path fill="#e2eaff" d="M 267.445312 193.855469 C 270.253906 192.421875 271.992188 189.578125 271.992188 186.4375 L 271.992188 158.226562 C 271.992188 157.902344 271.726562 157.628906 271.390625 157.628906 L 241.863281 157.628906 C 241.539062 157.628906 241.261719 157.894531 241.261719 158.226562 L 241.261719 186.621094 C 241.261719 189.691406 242.941406 192.496094 245.636719 193.957031 L 256.148438 199.628906 Z M 267.445312 193.855469 " fill-opacity="1" fill-rule="nonzero"></path>
  <path fill="#ffffff" d="M 256.839844 185.839844 C 256.808594 185.847656 256.78125 185.847656 256.75 185.859375 C 255.957031 185.980469 255.152344 185.714844 254.582031 185.136719 L 248.6875 179.140625 C 247.71875 178.15625 247.730469 176.570312 248.714844 175.605469 C 249.703125 174.640625 251.289062 174.648438 252.253906 175.636719 L 255.722656 179.160156 L 261.488281 167.882812 C 262.117188 166.652344 263.625 166.164062 264.851562 166.796875 C 266.082031 167.425781 266.570312 168.929688 265.941406 170.160156 L 258.589844 184.515625 C 258.242188 185.207031 257.59375 185.695312 256.839844 185.839844 Z M 256.839844 185.839844 " fill-opacity="1" fill-rule="nonzero"></path>
  <path fill="#000000" d="M 229.925781 157.851562 L 199.246094 157.851562 C 199.125 157.851562 199.023438 157.75 199.023438 157.628906 C 199.023438 157.507812 199.125 157.40625 199.246094 157.40625 L 229.925781 157.40625 C 230.046875 157.40625 230.148438 157.507812 230.148438 157.628906 C 230.148438 157.75 230.058594 157.851562 229.925781 157.851562 Z M 229.925781 157.851562 " fill-opacity="1" fill-rule="nonzero"></path>
  <path fill="#000000" d="M 229.925781 162.660156 L 199.246094 162.660156 C 199.125 162.660156 199.023438 162.558594 199.023438 162.433594 C 199.023438 162.3125 199.125 162.210938 199.246094 162.210938 L 229.925781 162.210938 C 230.046875 162.210938 230.148438 162.3125 230.148438 162.433594 C 230.148438 162.558594 230.058594 162.660156 229.925781 162.660156 Z M 229.925781 162.660156 " fill-opacity="1" fill-rule="nonzero"></path>
  <path fill="#000000" d="M 229.925781 167.457031 L 199.246094 167.457031 C 199.125 167.457031 199.023438 167.355469 199.023438 167.230469 C 199.023438 167.109375 199.125 167.007812 199.246094 167.007812 L 229.925781 167.007812 C 230.046875 167.007812 230.148438 167.109375 230.148438 167.230469 C 230.148438 167.355469 230.058594 167.457031 229.925781 167.457031 Z M 229.925781 167.457031 " fill-opacity="1" fill-rule="nonzero"></path>
  <path fill="#000000" d="M 229.925781 172.261719 L 199.246094 172.261719 C 199.125 172.261719 199.023438 172.160156 199.023438 172.039062 C 199.023438 171.917969 199.125 171.816406 199.246094 171.816406 L 229.925781 171.816406 C 230.046875 171.816406 230.148438 171.917969 230.148438 172.039062 C 230.148438 172.160156 230.058594 172.261719 229.925781 172.261719 Z M 229.925781 172.261719 " fill-opacity="1" fill-rule="nonzero"></path>
  <path fill="#5479f7" d="M 219.269531 180.960938 L 219.269531 179.132812 C 219.269531 178.195312 218.515625 177.445312 217.582031 177.445312 L 207.585938 177.445312 C 206.648438 177.445312 205.898438 178.195312 205.898438 179.132812 L 205.898438 180.960938 L 178.738281 180.960938 L 178.738281 209.382812 C 178.738281 211.132812 180.160156 212.554688 181.910156 212.554688 L 223.976562 212.554688 L 223.976562 180.972656 L 219.269531 180.972656 Z M 219.269531 180.960938 " fill-opacity="1" fill-rule="nonzero"></path>
  <path fill="#5479f7" d="M 80.683594 57.015625 L 154.738281 57.015625 L 154.738281 113.191406 L 80.683594 113.191406 Z M 80.683594 57.015625 " fill-opacity="1" fill-rule="nonzero"></path>
  <path fill="#ffffff" d="M 95.582031 73.730469 C 95.683594 73.832031 95.785156 73.933594 95.894531 74.027344 C 95.101562 75.265625 94.511719 76.597656 94.125 77.980469 C 93.984375 77.960938 93.839844 77.9375 93.699219 77.9375 C 91.738281 77.878906 90.101562 79.433594 90.039062 81.394531 C 89.976562 83.355469 91.535156 84.992188 93.496094 85.050781 C 93.636719 85.050781 93.789062 85.050781 93.933594 85.03125 C 94.238281 86.433594 94.757812 87.796875 95.480469 89.078125 C 95.367188 89.15625 95.253906 89.25 95.144531 89.351562 C 93.71875 90.703125 93.648438 92.949219 95 94.378906 C 96.351562 95.804688 98.601562 95.875 100.035156 94.523438 C 100.136719 94.421875 100.238281 94.320312 100.328125 94.207031 C 101.570312 95 102.902344 95.589844 104.285156 95.976562 C 104.265625 96.117188 104.242188 96.261719 104.242188 96.402344 C 104.183594 98.363281 105.738281 100 107.703125 100.0625 C 109.664062 100.121094 111.300781 98.566406 111.363281 96.605469 C 111.363281 96.464844 111.363281 96.3125 111.339844 96.167969 C 112.746094 95.863281 114.105469 95.347656 115.386719 94.625 C 115.46875 94.738281 115.5625 94.847656 115.664062 94.960938 C 117.015625 96.382812 119.261719 96.453125 120.695312 95.101562 C 122.121094 93.75 122.191406 91.503906 120.839844 90.070312 C 120.738281 89.96875 120.636719 89.867188 120.523438 89.777344 C 121.316406 88.539062 121.90625 87.207031 122.292969 85.824219 C 122.433594 85.84375 122.578125 85.863281 122.71875 85.863281 C 124.683594 85.925781 126.320312 84.371094 126.378906 82.410156 C 126.441406 80.449219 124.886719 78.8125 122.921875 78.75 C 122.78125 78.75 122.628906 78.75 122.484375 78.773438 C 122.179688 77.371094 121.664062 76.007812 120.941406 74.726562 C 121.050781 74.644531 121.164062 74.554688 121.277344 74.453125 C 122.699219 73.101562 122.769531 70.855469 121.417969 69.421875 C 120.066406 68 117.820312 67.929688 116.386719 69.28125 C 116.285156 69.382812 116.179688 69.484375 116.089844 69.59375 C 114.847656 68.804688 113.515625 68.214844 112.132812 67.828125 C 112.15625 67.683594 112.175781 67.542969 112.175781 67.402344 C 112.234375 65.441406 110.679688 63.804688 108.71875 63.742188 C 106.753906 63.679688 105.117188 65.234375 105.058594 67.199219 C 105.058594 67.339844 105.058594 67.492188 105.078125 67.632812 C 103.675781 67.9375 102.3125 68.457031 101.03125 69.179688 C 100.949219 69.066406 100.859375 68.957031 100.757812 68.84375 C 99.402344 67.421875 97.15625 67.351562 95.722656 68.703125 C 94.300781 70.054688 94.238281 72.296875 95.582031 73.730469 Z M 113 77.371094 C 115.5 80.023438 115.386719 84.199219 112.734375 86.699219 C 110.082031 89.199219 105.902344 89.085938 103.398438 86.433594 C 100.898438 83.78125 101.011719 79.605469 103.664062 77.105469 C 106.316406 74.59375 110.496094 74.71875 113 77.371094 Z M 113 77.371094 " fill-opacity="1" fill-rule="nonzero"></path>
  <path fill="#ffffff" d="M 129.238281 90.09375 C 129.289062 90.144531 129.351562 90.195312 129.402344 90.246094 C 128.984375 90.886719 128.679688 91.574219 128.484375 92.296875 C 128.414062 92.289062 128.332031 92.277344 128.261719 92.277344 C 127.246094 92.246094 126.390625 93.050781 126.359375 94.066406 C 126.328125 95.082031 127.132812 95.933594 128.148438 95.964844 C 128.222656 95.964844 128.300781 95.964844 128.375 95.957031 C 128.535156 96.6875 128.800781 97.390625 129.175781 98.058594 C 129.117188 98.101562 129.054688 98.152344 129.003906 98.203125 C 128.261719 98.902344 128.230469 100.070312 128.933594 100.8125 C 129.632812 101.554688 130.804688 101.585938 131.546875 100.882812 C 131.597656 100.832031 131.648438 100.773438 131.699219 100.722656 C 132.339844 101.136719 133.03125 101.441406 133.753906 101.636719 C 133.742188 101.707031 133.730469 101.789062 133.730469 101.859375 C 133.703125 102.875 134.503906 103.730469 135.523438 103.761719 C 136.539062 103.789062 137.394531 102.988281 137.421875 101.972656 C 137.421875 101.902344 137.421875 101.820312 137.414062 101.75 C 138.144531 101.585938 138.847656 101.320312 139.519531 100.945312 C 139.558594 101.007812 139.609375 101.066406 139.660156 101.117188 C 140.363281 101.859375 141.53125 101.890625 142.273438 101.1875 C 143.015625 100.488281 143.046875 99.320312 142.34375 98.578125 C 142.292969 98.527344 142.234375 98.476562 142.183594 98.425781 C 142.597656 97.785156 142.902344 97.09375 143.097656 96.371094 C 143.167969 96.382812 143.25 96.394531 143.320312 96.394531 C 144.335938 96.421875 145.191406 95.621094 145.222656 94.605469 C 145.253906 93.589844 144.449219 92.734375 143.433594 92.703125 C 143.363281 92.703125 143.28125 92.703125 143.210938 92.714844 C 143.046875 91.984375 142.78125 91.28125 142.40625 90.609375 C 142.46875 90.570312 142.527344 90.519531 142.578125 90.46875 C 143.320312 89.765625 143.351562 88.597656 142.648438 87.855469 C 141.949219 87.113281 140.777344 87.085938 140.035156 87.785156 C 139.984375 87.835938 139.933594 87.898438 139.882812 87.949219 C 139.242188 87.53125 138.550781 87.226562 137.832031 87.035156 C 137.839844 86.960938 137.851562 86.882812 137.851562 86.808594 C 137.882812 85.792969 137.078125 84.941406 136.0625 84.910156 C 135.042969 84.878906 134.191406 85.683594 134.160156 86.699219 C 134.160156 86.769531 134.160156 86.851562 134.167969 86.921875 C 133.4375 87.085938 132.734375 87.347656 132.066406 87.726562 C 132.023438 87.664062 131.972656 87.601562 131.921875 87.550781 C 131.21875 86.808594 130.050781 86.78125 129.308594 87.480469 C 128.566406 88.183594 128.535156 89.351562 129.238281 90.09375 Z M 138.289062 91.992188 C 139.589844 93.375 139.527344 95.539062 138.144531 96.839844 C 136.761719 98.140625 134.597656 98.078125 133.296875 96.699219 C 131.992188 95.316406 132.054688 93.152344 133.4375 91.851562 C 134.808594 90.550781 136.984375 90.609375 138.289062 91.992188 Z M 138.289062 91.992188 " fill-opacity="1" fill-rule="nonzero"></path>
  <path fill="#ffffff" d="M 58.761719 103.179688 L 57.976562 100.804688 C 57.976562 100.804688 55.507812 100.144531 50.492188 100.621094 C 45.828125 101.066406 41.71875 103.871094 39.632812 108.058594 C 34.609375 118.148438 24.828125 138.339844 21.421875 149.46875 L 36.125 149.46875 L 51.988281 110.476562 Z M 58.761719 103.179688 " fill-opacity="1" fill-rule="nonzero"></path>
  <path fill="#000000" d="M 36.125 149.691406 L 21.421875 149.691406 C 21.351562 149.691406 21.28125 149.660156 21.238281 149.601562 C 21.199219 149.539062 21.1875 149.46875 21.207031 149.398438 C 24.574219 138.390625 34.070312 118.707031 39.429688 107.957031 C 41.566406 103.679688 45.695312 100.84375 50.472656 100.398438 C 55.457031 99.917969 57.925781 100.558594 58.027344 100.578125 C 58.101562 100.601562 58.160156 100.652344 58.179688 100.722656 L 58.964844 103.101562 C 58.996094 103.179688 58.972656 103.261719 58.914062 103.324219 L 52.171875 110.597656 L 36.320312 149.550781 C 36.296875 149.640625 36.21875 149.691406 36.125 149.691406 Z M 21.726562 149.246094 L 35.972656 149.246094 L 51.785156 110.394531 C 51.796875 110.375 51.804688 110.34375 51.824219 110.324219 L 58.507812 103.121094 L 57.804688 100.984375 C 57.265625 100.875 54.824219 100.425781 50.515625 100.84375 C 45.886719 101.28125 41.902344 104.023438 39.835938 108.160156 C 34.53125 118.808594 25.164062 138.21875 21.726562 149.246094 Z M 21.726562 149.246094 " fill-opacity="1" fill-rule="nonzero"></path>
  <g clip-path="url(#965426a4bb)">
    <path fill="#000000" d="M 47.421875 173.359375 L 10.582031 173.359375 L 16.398438 152.273438 L 47.421875 152.273438 Z M 47.421875 173.359375 " fill-opacity="1" fill-rule="nonzero"></path>
  </g>
  <path fill="#ffffff" d="M 20.660156 152.273438 L 26.488281 152.273438 C 28.816406 152.273438 30.839844 154 31.042969 156.316406 C 31.0625 156.492188 31.0625 156.664062 31.0625 156.835938 C 30.980469 159.273438 33.96875 159.507812 34.367188 156.835938 C 34.761719 154.164062 34.996094 152.273438 34.996094 152.273438 L 36.136719 149.46875 C 32.058594 148.238281 27.015625 148.453125 21.433594 149.46875 C 21.105469 150.484375 20.851562 151.417969 20.660156 152.273438 Z M 20.660156 152.273438 " fill-opacity="1" fill-rule="nonzero"></path>
  <path fill="#000000" d="M 32.578125 158.980469 C 32.527344 158.980469 32.476562 158.980469 32.433594 158.96875 C 31.632812 158.898438 30.789062 158.199219 30.828125 156.824219 C 30.839844 156.664062 30.828125 156.5 30.816406 156.339844 C 30.625 154.183594 28.722656 152.496094 26.488281 152.496094 L 20.660156 152.496094 C 20.589844 152.496094 20.527344 152.464844 20.488281 152.414062 C 20.445312 152.363281 20.425781 152.292969 20.445312 152.222656 C 20.640625 151.398438 20.894531 150.453125 21.21875 149.40625 C 21.238281 149.328125 21.3125 149.265625 21.390625 149.253906 C 27.605469 148.128906 32.445312 148.128906 36.195312 149.265625 C 36.257812 149.285156 36.308594 149.328125 36.339844 149.386719 C 36.371094 149.449219 36.371094 149.507812 36.351562 149.570312 L 35.222656 152.34375 C 35.191406 152.597656 34.957031 154.417969 34.589844 156.886719 C 34.355469 158.339844 33.410156 158.980469 32.578125 158.980469 Z M 20.933594 152.050781 L 26.476562 152.050781 C 28.9375 152.050781 31.042969 153.917969 31.253906 156.296875 C 31.277344 156.480469 31.277344 156.664062 31.277344 156.847656 C 31.246094 157.933594 31.855469 158.472656 32.476562 158.535156 C 33.148438 158.59375 33.949219 158.074219 34.144531 156.804688 C 34.53125 154.164062 34.773438 152.261719 34.773438 152.242188 C 34.773438 152.222656 34.785156 152.203125 34.785156 152.183594 L 35.832031 149.609375 C 32.199219 148.574219 27.542969 148.59375 21.605469 149.660156 C 21.332031 150.535156 21.105469 151.339844 20.933594 152.050781 Z M 20.933594 152.050781 " fill-opacity="1" fill-rule="nonzero"></path>
  <g clip-path="url(#6fb1a7b135)">
    <path fill="#ffffff" d="M 21.574219 238.292969 C 21.097656 240.589844 22.855469 242.753906 25.214844 242.753906 L 49.019531 242.753906 C 50.136719 242.753906 50.789062 241.476562 50.117188 240.582031 L 47.433594 236.953125 C 42.308594 231.769531 31.785156 234.332031 21.972656 236.394531 Z M 21.574219 238.292969 " fill-opacity="1" fill-rule="nonzero"></path>
    <path fill="#000000" d="M 49.007812 242.980469 L 25.207031 242.980469 C 24.015625 242.980469 22.90625 242.449219 22.15625 241.527344 C 21.402344 240.601562 21.105469 239.414062 21.351562 238.242188 L 21.746094 236.34375 C 21.769531 236.253906 21.828125 236.191406 21.921875 236.171875 C 22.410156 236.070312 22.886719 235.96875 23.375 235.867188 C 32.839844 233.855469 42.625 231.78125 47.585938 236.789062 C 47.597656 236.800781 47.597656 236.8125 47.605469 236.8125 L 50.289062 240.4375 C 50.644531 240.925781 50.707031 241.554688 50.433594 242.09375 C 50.160156 242.644531 49.621094 242.980469 49.007812 242.980469 Z M 22.15625 236.585938 L 21.789062 238.34375 C 21.574219 239.371094 21.839844 240.4375 22.5 241.25 C 23.160156 242.066406 24.148438 242.53125 25.207031 242.53125 L 49.007812 242.53125 C 49.445312 242.53125 49.832031 242.296875 50.027344 241.902344 C 50.230469 241.503906 50.1875 241.058594 49.925781 240.714844 L 47.25 237.105469 C 42.460938 232.289062 32.8125 234.332031 23.464844 236.3125 C 23.027344 236.40625 22.59375 236.496094 22.15625 236.585938 Z M 21.574219 238.292969 Z M 21.574219 238.292969 " fill-opacity="1" fill-rule="nonzero"></path>
  </g>
  <g clip-path="url(#3599c87255)">
    <path fill="#ffffff" d="M 92.773438 236.953125 C 86.023438 230.265625 68.707031 231.222656 66.742188 236.953125 L 67.210938 239.25 C 67.628906 241.292969 69.417969 242.753906 71.5 242.753906 L 95.398438 242.753906 C 96.433594 242.753906 96.972656 241.527344 96.273438 240.765625 Z M 92.773438 236.953125 " fill-opacity="1" fill-rule="nonzero"></path>
    <path fill="#000000" d="M 95.398438 242.980469 L 71.5 242.980469 C 69.324219 242.980469 67.425781 241.433594 66.988281 239.289062 L 66.519531 236.992188 C 66.507812 236.953125 66.507812 236.914062 66.53125 236.871094 C 67.179688 234.972656 69.449219 233.476562 72.90625 232.675781 C 79.21875 231.203125 88.433594 232.339844 92.925781 236.789062 C 92.925781 236.789062 92.925781 236.800781 92.9375 236.800781 L 96.433594 240.613281 C 96.820312 241.027344 96.914062 241.617188 96.6875 242.136719 C 96.453125 242.652344 95.96875 242.980469 95.398438 242.980469 Z M 66.976562 236.972656 L 67.433594 239.210938 C 67.832031 241.140625 69.539062 242.53125 71.511719 242.53125 L 95.40625 242.53125 C 95.792969 242.53125 96.128906 242.308594 96.292969 241.953125 C 96.445312 241.597656 96.382812 241.199219 96.121094 240.917969 L 92.621094 237.105469 C 88.230469 232.765625 79.210938 231.667969 73.015625 233.113281 C 69.742188 233.882812 67.597656 235.246094 66.976562 236.972656 Z M 66.976562 236.972656 " fill-opacity="1" fill-rule="nonzero"></path>
  </g>
  <path fill="#5479f7" d="M 70.808594 130.792969 L 43.722656 130.792969 L 21.847656 236.953125 L 47.421875 236.953125 L 54.613281 177.300781 L 66.742188 236.953125 L 92.773438 236.953125 Z M 70.808594 130.792969 " fill-opacity="1" fill-rule="nonzero"></path>
  <path fill="#000000" d="M 54.613281 177.007812 C 54.5 177.007812 54.410156 176.925781 54.386719 176.816406 L 50.484375 150.34375 C 50.289062 149.0625 49.4375 147.953125 48.246094 147.445312 L 46.699219 146.796875 C 46.589844 146.746094 46.539062 146.613281 46.578125 146.5 C 46.628906 146.390625 46.761719 146.339844 46.875 146.378906 L 48.417969 147.03125 C 49.75 147.597656 50.71875 148.839844 50.921875 150.273438 L 54.824219 176.742188 C 54.847656 176.867188 54.753906 176.976562 54.632812 176.996094 C 54.632812 177.007812 54.621094 177.007812 54.613281 177.007812 Z M 54.613281 177.007812 " fill-opacity="1" fill-rule="nonzero"></path>
  <path fill="#000000" d="M 71.269531 89.15625 C 70.546875 89.15625 69.785156 88.546875 69.4375 87.621094 C 69.246094 87.09375 69.203125 86.546875 69.335938 86.066406 C 69.46875 85.558594 69.773438 85.203125 70.191406 85.050781 C 70.605469 84.898438 71.074219 84.972656 71.5 85.265625 C 71.910156 85.539062 72.242188 85.988281 72.4375 86.515625 C 72.628906 87.042969 72.671875 87.59375 72.539062 88.070312 C 72.40625 88.578125 72.101562 88.933594 71.683594 89.085938 C 71.550781 89.136719 71.410156 89.15625 71.269531 89.15625 Z M 70.617188 85.40625 C 70.527344 85.40625 70.433594 85.429688 70.34375 85.457031 C 70.066406 85.558594 69.863281 85.8125 69.761719 86.179688 C 69.660156 86.566406 69.691406 87.023438 69.855469 87.460938 C 70.179688 88.34375 70.933594 88.882812 71.53125 88.660156 C 71.808594 88.558594 72.011719 88.304688 72.113281 87.9375 C 72.214844 87.550781 72.183594 87.09375 72.019531 86.65625 C 71.859375 86.21875 71.582031 85.855469 71.246094 85.621094 C 71.035156 85.488281 70.820312 85.40625 70.617188 85.40625 Z M 70.617188 85.40625 " fill-opacity="1" fill-rule="nonzero"></path>
  <path fill="#ffffff" d="M 67.230469 82.796875 C 67.300781 82.96875 72.347656 88.007812 72.101562 92.246094 C 72.101562 92.246094 67.6875 93.597656 64.660156 88.355469 C 61.636719 83.101562 67.230469 82.796875 67.230469 82.796875 Z M 67.230469 82.796875 " fill-opacity="1" fill-rule="nonzero"></path>
  <path fill="#000000" d="M 70.820312 92.613281 C 69.222656 92.613281 66.507812 92.011719 64.464844 88.457031 C 63.488281 86.769531 63.285156 85.378906 63.84375 84.339844 C 64.71875 82.726562 67.121094 82.574219 67.222656 82.5625 C 67.300781 82.5625 67.382812 82.601562 67.425781 82.675781 C 67.445312 82.703125 67.546875 82.816406 67.636719 82.929688 C 70.890625 86.597656 72.457031 89.738281 72.316406 92.246094 C 72.304688 92.339844 72.242188 92.417969 72.152344 92.449219 C 72.152344 92.460938 71.625 92.613281 70.820312 92.613281 Z M 67.128906 83.03125 C 66.660156 83.082031 64.902344 83.34375 64.242188 84.5625 C 63.753906 85.457031 63.96875 86.699219 64.851562 88.242188 C 67.476562 92.785156 71.085938 92.257812 71.878906 92.074219 C 71.9375 89.707031 70.402344 86.730469 67.300781 83.234375 C 67.230469 83.140625 67.171875 83.070312 67.128906 83.03125 Z M 67.128906 83.03125 " fill-opacity="1" fill-rule="nonzero"></path>
  <path fill="#000000" d="M 65.542969 96.777344 C 65.542969 96.777344 69.449219 98.222656 71.523438 95.761719 C 73.597656 93.304688 72.113281 91.148438 72.113281 91.148438 C 72.113281 91.148438 69.601562 92.289062 67.941406 90.335938 C 66.285156 88.386719 64.710938 86.789062 66.964844 85.316406 C 69.222656 83.84375 70.230469 81.273438 67.941406 78.546875 C 66.234375 76.515625 62.25 77.167969 60.429688 78.882812 C 58.609375 80.609375 60.429688 83.648438 60.429688 83.648438 C 60.429688 83.648438 57 83.800781 55.710938 85.976562 C 54.417969 88.152344 55.730469 91.199219 58.394531 91.046875 C 58.394531 91.046875 57.429688 94.269531 61.789062 93.578125 L 63.347656 97.644531 Z M 65.542969 96.777344 " fill-opacity="1" fill-rule="nonzero"></path>
  <path fill="#ffffff" d="M 58.761719 100.449219 L 61.789062 93.589844 C 61.789062 93.589844 62.726562 95.792969 64.730469 93.589844 C 64.730469 93.589844 61.894531 91.960938 63.101562 90.398438 C 64.324219 88.820312 65.929688 89.898438 66.042969 91.109375 C 66.265625 93.640625 67.933594 94.65625 67.933594 94.65625 L 65.941406 99.726562 Z M 58.761719 100.449219 " fill-opacity="1" fill-rule="nonzero"></path>
  <path fill="#000000" d="M 58.761719 100.671875 C 58.691406 100.671875 58.617188 100.640625 58.578125 100.578125 C 58.527344 100.519531 58.527344 100.425781 58.558594 100.355469 L 61.585938 93.496094 C 61.628906 93.414062 61.71875 93.363281 61.789062 93.363281 C 61.882812 93.363281 61.964844 93.414062 61.996094 93.496094 C 61.996094 93.507812 62.320312 94.226562 62.929688 94.328125 C 63.355469 94.402344 63.84375 94.167969 64.382812 93.628906 C 63.894531 93.304688 62.808594 92.492188 62.613281 91.523438 C 62.523438 91.078125 62.636719 90.652344 62.929688 90.253906 C 63.488281 89.535156 64.222656 89.238281 64.933594 89.453125 C 65.644531 89.65625 66.203125 90.347656 66.273438 91.089844 C 66.488281 93.464844 68.042969 94.453125 68.054688 94.460938 C 68.144531 94.523438 68.1875 94.636719 68.144531 94.738281 L 66.152344 99.796875 C 66.121094 99.878906 66.050781 99.929688 65.96875 99.9375 L 58.78125 100.660156 C 58.769531 100.671875 58.769531 100.671875 58.761719 100.671875 Z M 61.820312 94.074219 L 59.117188 100.183594 L 65.789062 99.511719 L 67.65625 94.738281 C 67.222656 94.402344 66.019531 93.304688 65.816406 91.128906 C 65.765625 90.570312 65.339844 90.042969 64.800781 89.890625 C 64.261719 89.738281 63.722656 89.960938 63.277344 90.539062 C 63.050781 90.824219 62.980469 91.117188 63.042969 91.445312 C 63.246094 92.480469 64.820312 93.394531 64.832031 93.394531 C 64.890625 93.425781 64.933594 93.488281 64.941406 93.558594 C 64.953125 93.628906 64.933594 93.691406 64.890625 93.742188 C 64.171875 94.53125 63.488281 94.878906 62.847656 94.777344 C 62.359375 94.6875 62.023438 94.351562 61.820312 94.074219 Z M 61.820312 94.074219 " fill-opacity="1" fill-rule="nonzero"></path>
  <path fill="#000000" d="M 65.492188 93.914062 C 65.480469 93.914062 65.472656 93.914062 65.460938 93.914062 L 64.75 93.8125 C 64.628906 93.792969 64.546875 93.679688 64.558594 93.558594 C 64.578125 93.4375 64.6875 93.355469 64.8125 93.363281 L 65.523438 93.464844 C 65.644531 93.488281 65.726562 93.597656 65.714844 93.71875 C 65.695312 93.832031 65.605469 93.914062 65.492188 93.914062 Z M 65.492188 93.914062 " fill-opacity="1" fill-rule="nonzero"></path>
  <path fill="#000000" d="M 65.492188 92.746094 C 65.410156 92.746094 65.328125 92.695312 65.289062 92.621094 C 65.125 92.289062 64.800781 92.042969 64.445312 91.984375 C 64.324219 91.960938 64.242188 91.851562 64.261719 91.726562 C 64.28125 91.605469 64.394531 91.523438 64.515625 91.546875 C 65.023438 91.625 65.472656 91.972656 65.695312 92.429688 C 65.746094 92.542969 65.707031 92.671875 65.59375 92.722656 C 65.554688 92.746094 65.523438 92.746094 65.492188 92.746094 Z M 65.492188 92.746094 " fill-opacity="1" fill-rule="nonzero"></path>
  <path fill="#000000" d="M 66.386719 90.347656 C 66.316406 90.347656 66.246094 90.304688 66.203125 90.246094 C 66.132812 90.144531 66.164062 90 66.265625 89.941406 C 67.046875 89.433594 68.136719 88.78125 69.195312 88.160156 C 70.242188 87.542969 71.328125 86.902344 72.101562 86.394531 C 72.203125 86.324219 72.347656 86.351562 72.40625 86.453125 C 72.476562 86.554688 72.449219 86.699219 72.347656 86.757812 C 71.5625 87.265625 70.476562 87.917969 69.417969 88.539062 C 68.371094 89.15625 67.28125 89.796875 66.507812 90.304688 C 66.480469 90.335938 66.4375 90.347656 66.386719 90.347656 Z M 66.386719 90.347656 " fill-opacity="1" fill-rule="nonzero"></path>
  <path fill="#ffffff" d="M 48.550781 100.945312 L 42.175781 129.296875 C 41.910156 130.476562 42.804688 131.605469 44.027344 131.605469 L 72.488281 131.605469 C 73.503906 131.605469 74.390625 130.914062 74.632812 129.925781 L 76.839844 120.945312 C 76.839844 120.945312 82.117188 125.800781 89.621094 129.855469 C 95.152344 132.84375 102.046875 130.585938 104.730469 124.90625 C 107.253906 119.550781 110.285156 112.640625 112.347656 106.363281 C 112.347656 106.363281 118.226562 103.964844 119.101562 102.226562 C 119.972656 100.488281 116.984375 101.789062 116.984375 101.789062 C 116.984375 101.789062 116.507812 100.804688 114.636719 101.597656 C 112.753906 102.386719 108.6875 103.507812 104.964844 103.507812 C 101.246094 103.507812 100.320312 104.460938 99.75 105.34375 C 99.179688 106.238281 93.890625 114.308594 93.890625 114.308594 C 93.890625 114.308594 83.613281 103.679688 80.46875 101.28125 C 77.308594 98.894531 75.621094 96.320312 48.550781 100.945312 Z M 48.550781 100.945312 " fill-opacity="1" fill-rule="nonzero"></path>
  <path fill="#000000" d="M 44.027344 131.828125 C 43.375 131.828125 42.777344 131.542969 42.371094 131.035156 C 41.960938 130.527344 41.808594 129.875 41.953125 129.246094 L 45.765625 112.296875 C 46.101562 110.792969 45.855469 109.238281 45.085938 107.90625 C 45.023438 107.804688 45.054688 107.664062 45.164062 107.601562 C 45.265625 107.539062 45.410156 107.570312 45.46875 107.683594 C 46.304688 109.105469 46.570312 110.78125 46.203125 112.398438 L 42.390625 129.347656 C 42.277344 129.847656 42.398438 130.363281 42.714844 130.761719 C 43.03125 131.15625 43.507812 131.390625 44.015625 131.390625 C 44.136719 131.390625 44.242188 131.492188 44.242188 131.613281 C 44.25 131.726562 44.148438 131.828125 44.027344 131.828125 Z M 44.027344 131.828125 " fill-opacity="1" fill-rule="nonzero"></path>
  <path fill="#000000" d="M 72.488281 131.828125 L 70.972656 131.828125 C 70.851562 131.828125 70.75 131.726562 70.75 131.605469 C 70.75 131.480469 70.851562 131.378906 70.972656 131.378906 L 72.488281 131.378906 C 73.402344 131.378906 74.195312 130.761719 74.410156 129.867188 L 76.617188 120.882812 C 76.636719 120.800781 76.699219 120.742188 76.769531 120.71875 C 76.839844 120.699219 76.933594 120.71875 76.984375 120.769531 C 77.035156 120.820312 82.320312 125.660156 89.714844 129.652344 C 92.335938 131.074219 95.335938 131.339844 98.171875 130.414062 C 101 129.492188 103.246094 127.5 104.507812 124.804688 C 106.390625 120.820312 107.964844 117.417969 109.714844 112.875 C 109.753906 112.765625 109.886719 112.703125 110 112.742188 C 110.109375 112.785156 110.171875 112.917969 110.132812 113.027344 C 108.371094 117.582031 106.796875 120.996094 104.914062 124.988281 C 103.59375 127.792969 101.253906 129.867188 98.304688 130.832031 C 95.355469 131.796875 92.234375 131.523438 89.5 130.039062 C 83.023438 126.542969 78.140625 122.398438 76.953125 121.339844 L 74.835938 129.96875 C 74.582031 131.066406 73.605469 131.828125 72.488281 131.828125 Z M 72.488281 131.828125 " fill-opacity="1" fill-rule="nonzero"></path>
  <path fill="#000000" d="M 80.449219 101.503906 C 80.398438 101.503906 80.359375 101.492188 80.316406 101.464844 C 80.175781 101.351562 80.03125 101.238281 79.890625 101.128906 C 77.023438 98.894531 74.308594 96.769531 48.59375 101.167969 C 48.46875 101.1875 48.359375 101.109375 48.339844 100.984375 C 48.316406 100.863281 48.398438 100.753906 48.519531 100.730469 C 74.429688 96.300781 77.214844 98.476562 80.164062 100.773438 C 80.308594 100.882812 80.449219 100.996094 80.59375 101.109375 C 80.695312 101.179688 80.714844 101.320312 80.632812 101.421875 C 80.582031 101.472656 80.519531 101.503906 80.449219 101.503906 Z M 80.449219 101.503906 " fill-opacity="1" fill-rule="nonzero"></path>
  <path fill="#000000" d="M 76.984375 120.507812 C 76.972656 120.507812 76.960938 120.507812 76.953125 120.507812 C 76.828125 120.496094 76.738281 120.386719 76.757812 120.261719 C 77.035156 117.875 77.613281 115.527344 78.476562 113.28125 C 78.519531 113.171875 78.648438 113.109375 78.761719 113.148438 C 78.875 113.191406 78.933594 113.324219 78.894531 113.433594 C 78.050781 115.648438 77.480469 117.957031 77.207031 120.3125 C 77.1875 120.414062 77.09375 120.507812 76.984375 120.507812 Z M 76.984375 120.507812 " fill-opacity="1" fill-rule="nonzero"></path>
  <path fill="#000000" d="M 96.179688 117.621094 C 96.097656 117.621094 96.027344 117.582031 95.988281 117.507812 C 95.4375 116.585938 93.609375 114.269531 92.835938 113.503906 C 92.742188 113.414062 92.742188 113.28125 92.835938 113.191406 C 92.925781 113.097656 93.058594 113.097656 93.148438 113.191406 C 93.945312 113.960938 95.804688 116.332031 96.375 117.285156 C 96.433594 117.386719 96.402344 117.53125 96.292969 117.589844 C 96.261719 117.609375 96.222656 117.621094 96.179688 117.621094 Z M 96.179688 117.621094 " fill-opacity="1" fill-rule="nonzero"></path>
  <path fill="#000000" d="M 108.800781 113.414062 C 108.769531 113.414062 108.75 113.414062 108.71875 113.394531 L 97.835938 109.167969 C 97.726562 109.125 97.664062 108.992188 97.707031 108.882812 C 97.746094 108.769531 97.878906 108.710938 98 108.75 L 108.878906 112.976562 C 108.992188 113.019531 109.054688 113.148438 109.011719 113.261719 C 108.972656 113.363281 108.890625 113.414062 108.800781 113.414062 Z M 108.800781 113.414062 " fill-opacity="1" fill-rule="nonzero"></path>
  <path fill="#000000" d="M 111.574219 104.605469 C 111.472656 104.605469 111.382812 104.53125 111.351562 104.421875 C 111.332031 104.296875 111.402344 104.175781 111.523438 104.15625 C 113.253906 103.800781 114.953125 103.101562 116.425781 102.132812 C 116.527344 102.0625 116.667969 102.09375 116.742188 102.195312 C 116.8125 102.296875 116.78125 102.4375 116.679688 102.5 C 115.15625 103.507812 113.40625 104.226562 111.625 104.59375 C 111.605469 104.605469 111.59375 104.605469 111.574219 104.605469 Z M 111.574219 104.605469 " fill-opacity="1" fill-rule="nonzero"></path>
  <path fill="#000000" d="M 93.882812 114.53125 C 93.839844 114.53125 93.800781 114.523438 93.761719 114.492188 C 93.660156 114.421875 93.628906 114.289062 93.699219 114.1875 L 94.789062 112.519531 C 94.859375 112.417969 94.992188 112.386719 95.09375 112.457031 C 95.195312 112.53125 95.222656 112.664062 95.152344 112.765625 L 94.066406 114.429688 C 94.023438 114.492188 93.953125 114.53125 93.882812 114.53125 Z M 93.882812 114.53125 " fill-opacity="1" fill-rule="nonzero"></path>
</svg>
