<?xml version="1.0" encoding="UTF-8"?>
<svg xmlns="http://www.w3.org/2000/svg" xmlns:xlink="http://www.w3.org/1999/xlink" width="400" zoomAndPan="magnify" viewBox="0 0 300 299.999988" height="400" preserveAspectRatio="xMidYMid meet" version="1.0">
  <defs>
    <clipPath id="c1aff5a7ba">
      <path d="M 160 52.316406 L 174 52.316406 L 174 105 L 160 105 Z M 160 52.316406 " clip-rule="nonzero"></path>
    </clipPath>
    <clipPath id="fdbd7b6594">
      <path d="M 181 52.316406 L 194 52.316406 L 194 105 L 181 105 Z M 181 52.316406 " clip-rule="nonzero"></path>
    </clipPath>
    <clipPath id="e3cc3483d1">
      <path d="M 202 52.316406 L 215 52.316406 L 215 105 L 202 105 Z M 202 52.316406 " clip-rule="nonzero"></path>
    </clipPath>
    <clipPath id="f802471d3b">
      <path d="M 222 52.316406 L 235 52.316406 L 235 105 L 222 105 Z M 222 52.316406 " clip-rule="nonzero"></path>
    </clipPath>
    <clipPath id="598f7c61a2">
      <path d="M 243 52.316406 L 256 52.316406 L 256 105 L 243 105 Z M 243 52.316406 " clip-rule="nonzero"></path>
    </clipPath>
    <clipPath id="60dbf8f269">
      <path d="M 263 52.316406 L 277 52.316406 L 277 105 L 263 105 Z M 263 52.316406 " clip-rule="nonzero"></path>
    </clipPath>
    <clipPath id="4786884cd0">
      <path d="M 47 52.316406 L 72 52.316406 L 72 81 L 47 81 Z M 47 52.316406 " clip-rule="nonzero"></path>
    </clipPath>
  </defs>
  <path fill="#ffffff" d="M 160.910156 124.859375 L 247.957031 124.859375 L 247.957031 174.0625 L 160.910156 174.0625 Z M 160.910156 124.859375 " fill-opacity="1" fill-rule="nonzero"></path>
  <path fill="#000000" d="M 247.945312 174.304688 L 160.898438 174.304688 C 160.769531 174.304688 160.664062 174.199219 160.664062 174.070312 L 160.664062 124.867188 C 160.664062 124.742188 160.769531 124.632812 160.898438 124.632812 L 247.945312 124.632812 C 248.074219 124.632812 248.179688 124.742188 248.179688 124.867188 L 248.179688 174.070312 C 248.179688 174.199219 248.074219 174.304688 247.945312 174.304688 Z M 161.144531 173.835938 L 247.722656 173.835938 L 247.722656 125.101562 L 161.144531 125.101562 Z M 161.144531 173.835938 " fill-opacity="1" fill-rule="nonzero"></path>
  <path fill="#e2eaff" d="M 176.933594 169.199219 L 167.800781 169.199219 L 172.367188 151.15625 Z M 176.933594 169.199219 " fill-opacity="1" fill-rule="nonzero"></path>
  <path fill="#e2eaff" d="M 186.070312 169.199219 L 176.933594 169.199219 L 181.5 137.71875 Z M 186.070312 169.199219 " fill-opacity="1" fill-rule="nonzero"></path>
  <path fill="#e2eaff" d="M 195.191406 169.199219 L 186.070312 169.199219 L 190.636719 136.324219 Z M 195.191406 169.199219 " fill-opacity="1" fill-rule="nonzero"></path>
  <path fill="#e2eaff" d="M 204.324219 169.199219 L 195.191406 169.199219 L 199.757812 128.824219 Z M 204.324219 169.199219 " fill-opacity="1" fill-rule="nonzero"></path>
  <path fill="#e2eaff" d="M 213.460938 169.199219 L 204.324219 169.199219 L 208.894531 157.816406 Z M 213.460938 169.199219 " fill-opacity="1" fill-rule="nonzero"></path>
  <path fill="#e2eaff" d="M 222.59375 169.199219 L 213.460938 169.199219 L 218.027344 138.976562 Z M 222.59375 169.199219 " fill-opacity="1" fill-rule="nonzero"></path>
  <path fill="#e2eaff" d="M 231.726562 169.199219 L 222.59375 169.199219 L 227.160156 146.445312 Z M 231.726562 169.199219 " fill-opacity="1" fill-rule="nonzero"></path>
  <path fill="#e2eaff" d="M 240.859375 169.199219 L 231.726562 169.199219 L 236.292969 146.445312 Z M 240.859375 169.199219 " fill-opacity="1" fill-rule="nonzero"></path>
  <path fill="#e2eaff" d="M 100.960938 69.441406 L 150.183594 69.441406 L 150.183594 85.3125 L 100.960938 85.3125 Z M 100.960938 69.441406 " fill-opacity="1" fill-rule="nonzero"></path>
  <path fill="#000000" d="M 129.046875 80.921875 C 128.984375 80.921875 128.929688 80.898438 128.875 80.855469 C 128.78125 80.761719 128.78125 80.613281 128.875 80.527344 L 132.035156 77.378906 L 128.875 74.226562 C 128.78125 74.132812 128.78125 73.984375 128.875 73.898438 C 128.972656 73.804688 129.121094 73.804688 129.207031 73.898438 L 132.535156 77.21875 C 132.578125 77.261719 132.601562 77.324219 132.601562 77.386719 C 132.601562 77.453125 132.578125 77.503906 132.535156 77.558594 L 129.207031 80.878906 C 129.164062 80.898438 129.101562 80.921875 129.046875 80.921875 Z M 129.046875 80.921875 " fill-opacity="1" fill-rule="nonzero"></path>
  <path fill="#000000" d="M 122.101562 80.921875 C 122.035156 80.921875 121.984375 80.898438 121.929688 80.855469 L 118.601562 77.535156 C 118.558594 77.496094 118.535156 77.429688 118.535156 77.367188 C 118.535156 77.304688 118.558594 77.25 118.601562 77.195312 L 121.929688 73.878906 C 122.027344 73.78125 122.175781 73.78125 122.261719 73.878906 C 122.355469 73.972656 122.355469 74.121094 122.261719 74.207031 L 119.101562 77.355469 L 122.261719 80.503906 C 122.355469 80.601562 122.355469 80.75 122.261719 80.835938 C 122.21875 80.898438 122.152344 80.921875 122.101562 80.921875 Z M 122.101562 80.921875 " fill-opacity="1" fill-rule="nonzero"></path>
  <path fill="#000000" d="M 123.796875 81.003906 C 123.765625 81.003906 123.722656 80.996094 123.691406 80.984375 C 123.574219 80.921875 123.53125 80.78125 123.582031 80.664062 L 127.050781 73.867188 C 127.117188 73.75 127.253906 73.707031 127.371094 73.761719 C 127.488281 73.824219 127.53125 73.960938 127.476562 74.078125 L 124.011719 80.878906 C 123.96875 80.960938 123.882812 81.003906 123.796875 81.003906 Z M 123.796875 81.003906 " fill-opacity="1" fill-rule="nonzero"></path>
  <g clip-path="url(#c1aff5a7ba)">
    <path fill="#ffffff" d="M 160.910156 52.84375 L 173.179688 52.84375 L 173.179688 104.589844 L 160.910156 104.589844 Z M 160.910156 52.84375 " fill-opacity="1" fill-rule="nonzero"></path>
    <path fill="#000000" d="M 172.710938 53.3125 L 172.710938 104.121094 L 161.378906 104.121094 L 161.378906 53.3125 Z M 173.179688 52.84375 L 160.910156 52.84375 L 160.910156 104.589844 L 173.179688 104.589844 Z M 173.179688 52.84375 " fill-opacity="1" fill-rule="nonzero"></path>
  </g>
  <g clip-path="url(#fdbd7b6594)">
    <path fill="#ffffff" d="M 181.480469 52.84375 L 193.75 52.84375 L 193.75 104.589844 L 181.480469 104.589844 Z M 181.480469 52.84375 " fill-opacity="1" fill-rule="nonzero"></path>
    <path fill="#000000" d="M 193.28125 53.3125 L 193.28125 104.121094 L 181.949219 104.121094 L 181.949219 53.3125 Z M 193.75 52.84375 L 181.480469 52.84375 L 181.480469 104.589844 L 193.75 104.589844 Z M 193.75 52.84375 " fill-opacity="1" fill-rule="nonzero"></path>
  </g>
  <g clip-path="url(#e3cc3483d1)">
    <path fill="#ffffff" d="M 202.054688 52.84375 L 214.324219 52.84375 L 214.324219 104.589844 L 202.054688 104.589844 Z M 202.054688 52.84375 " fill-opacity="1" fill-rule="nonzero"></path>
    <path fill="#000000" d="M 213.855469 53.3125 L 213.855469 104.121094 L 202.523438 104.121094 L 202.523438 53.3125 Z M 214.324219 52.84375 L 202.054688 52.84375 L 202.054688 104.589844 L 214.324219 104.589844 Z M 214.324219 52.84375 " fill-opacity="1" fill-rule="nonzero"></path>
  </g>
  <g clip-path="url(#f802471d3b)">
    <path fill="#ffffff" d="M 222.625 52.84375 L 234.894531 52.84375 L 234.894531 104.589844 L 222.625 104.589844 Z M 222.625 52.84375 " fill-opacity="1" fill-rule="nonzero"></path>
    <path fill="#000000" d="M 234.425781 53.3125 L 234.425781 104.121094 L 223.09375 104.121094 L 223.09375 53.3125 Z M 234.894531 52.84375 L 222.625 52.84375 L 222.625 104.589844 L 234.894531 104.589844 Z M 234.894531 52.84375 " fill-opacity="1" fill-rule="nonzero"></path>
  </g>
  <g clip-path="url(#598f7c61a2)">
    <path fill="#ffffff" d="M 243.199219 52.84375 L 255.46875 52.84375 L 255.46875 104.589844 L 243.199219 104.589844 Z M 243.199219 52.84375 " fill-opacity="1" fill-rule="nonzero"></path>
    <path fill="#000000" d="M 255.007812 53.3125 L 255.007812 104.121094 L 243.679688 104.121094 L 243.679688 53.3125 Z M 255.480469 52.84375 L 243.207031 52.84375 L 243.207031 104.589844 L 255.480469 104.589844 Z M 255.480469 52.84375 " fill-opacity="1" fill-rule="nonzero"></path>
  </g>
  <g clip-path="url(#60dbf8f269)">
    <path fill="#ffffff" d="M 263.78125 52.84375 L 276.050781 52.84375 L 276.050781 104.589844 L 263.78125 104.589844 Z M 263.78125 52.84375 " fill-opacity="1" fill-rule="nonzero"></path>
    <path fill="#000000" d="M 275.582031 53.3125 L 275.582031 104.121094 L 264.25 104.121094 L 264.25 53.3125 Z M 276.050781 52.84375 L 263.78125 52.84375 L 263.78125 104.589844 L 276.050781 104.589844 Z M 276.050781 52.84375 " fill-opacity="1" fill-rule="nonzero"></path>
  </g>
  <path fill="#e2eaff" d="M 160.910156 76.058594 L 173.179688 76.058594 L 173.179688 97.730469 L 160.910156 97.730469 Z M 160.910156 76.058594 " fill-opacity="1" fill-rule="nonzero"></path>
  <path fill="#ffffff" d="M 173.414062 97.964844 L 160.671875 97.964844 L 160.671875 75.824219 L 173.414062 75.824219 Z M 161.144531 97.496094 L 172.945312 97.496094 L 172.945312 76.292969 L 161.144531 76.292969 Z M 161.144531 97.496094 " fill-opacity="1" fill-rule="nonzero"></path>
  <path fill="#e2eaff" d="M 181.480469 69.472656 L 193.75 69.472656 L 193.75 97.730469 L 181.480469 97.730469 Z M 181.480469 69.472656 " fill-opacity="1" fill-rule="nonzero"></path>
  <path fill="#ffffff" d="M 193.984375 97.964844 L 181.246094 97.964844 L 181.246094 69.238281 L 193.984375 69.238281 Z M 181.714844 97.496094 L 193.515625 97.496094 L 193.515625 69.707031 L 181.714844 69.707031 Z M 181.714844 97.496094 " fill-opacity="1" fill-rule="nonzero"></path>
  <path fill="#e2eaff" d="M 202.054688 59.707031 L 214.324219 59.707031 L 214.324219 97.730469 L 202.054688 97.730469 Z M 202.054688 59.707031 " fill-opacity="1" fill-rule="nonzero"></path>
  <path fill="#ffffff" d="M 214.558594 97.964844 L 201.816406 97.964844 L 201.816406 59.472656 L 214.558594 59.472656 Z M 202.289062 97.496094 L 214.089844 97.496094 L 214.089844 59.941406 L 202.289062 59.941406 Z M 202.289062 97.496094 " fill-opacity="1" fill-rule="nonzero"></path>
  <path fill="#e2eaff" d="M 222.625 76.058594 L 234.894531 76.058594 L 234.894531 97.730469 L 222.625 97.730469 Z M 222.625 76.058594 " fill-opacity="1" fill-rule="nonzero"></path>
  <path fill="#ffffff" d="M 235.132812 97.964844 L 222.390625 97.964844 L 222.390625 75.824219 L 235.132812 75.824219 Z M 222.859375 97.496094 L 234.660156 97.496094 L 234.660156 76.292969 L 222.859375 76.292969 Z M 222.859375 97.496094 " fill-opacity="1" fill-rule="nonzero"></path>
  <path fill="#e2eaff" d="M 243.199219 68.027344 L 255.46875 68.027344 L 255.46875 97.730469 L 243.199219 97.730469 Z M 243.199219 68.027344 " fill-opacity="1" fill-rule="nonzero"></path>
  <path fill="#ffffff" d="M 255.714844 97.964844 L 242.972656 97.964844 L 242.972656 67.792969 L 255.714844 67.792969 Z M 243.433594 97.496094 L 255.234375 97.496094 L 255.234375 68.261719 L 243.433594 68.261719 Z M 243.433594 97.496094 " fill-opacity="1" fill-rule="nonzero"></path>
  <path fill="#e2eaff" d="M 263.78125 74.460938 L 276.050781 74.460938 L 276.050781 97.730469 L 263.78125 97.730469 Z M 263.78125 74.460938 " fill-opacity="1" fill-rule="nonzero"></path>
  <path fill="#ffffff" d="M 276.285156 97.964844 L 263.546875 97.964844 L 263.546875 74.226562 L 276.285156 74.226562 Z M 264.015625 97.496094 L 275.816406 97.496094 L 275.816406 74.695312 L 264.015625 74.695312 Z M 264.015625 97.496094 " fill-opacity="1" fill-rule="nonzero"></path>
  <path fill="#000000" d="M 297.296875 114.273438 L 134.222656 114.273438 C 134.09375 114.273438 133.988281 114.164062 133.988281 114.039062 C 133.988281 113.910156 134.09375 113.804688 134.222656 113.804688 L 297.0625 113.804688 L 297.0625 60.109375 L 281.921875 60.109375 C 281.792969 60.109375 281.683594 60.003906 281.683594 59.875 C 281.683594 59.75 281.792969 59.644531 281.921875 59.644531 L 297.296875 59.644531 C 297.425781 59.644531 297.53125 59.75 297.53125 59.875 L 297.53125 114.039062 C 297.53125 114.175781 297.425781 114.273438 297.296875 114.273438 Z M 297.296875 114.273438 " fill-opacity="1" fill-rule="nonzero"></path>
  <path fill="#ffffff" d="M 160.910156 185.199219 L 200.335938 185.199219 L 200.335938 235.011719 L 160.910156 235.011719 Z M 160.910156 185.199219 " fill-opacity="1" fill-rule="nonzero"></path>
  <path fill="#000000" d="M 200.335938 235.253906 L 160.910156 235.253906 C 160.78125 235.253906 160.671875 235.148438 160.671875 235.019531 L 160.671875 185.210938 C 160.671875 185.082031 160.78125 184.976562 160.910156 184.976562 L 200.335938 184.976562 C 200.464844 184.976562 200.570312 185.082031 200.570312 185.210938 L 200.570312 235.019531 C 200.570312 235.148438 200.464844 235.253906 200.335938 235.253906 Z M 161.144531 234.785156 L 200.101562 234.785156 L 200.101562 185.445312 L 161.144531 185.445312 Z M 161.144531 234.785156 " fill-opacity="1" fill-rule="nonzero"></path>
  <path fill="#e2eaff" d="M 168.378906 190.753906 L 192.867188 190.753906 L 192.867188 208.0625 L 168.378906 208.0625 Z M 168.378906 190.753906 " fill-opacity="1" fill-rule="nonzero"></path>
  <path fill="#000000" d="M 192.855469 214.050781 L 168.367188 214.050781 C 168.238281 214.050781 168.132812 213.945312 168.132812 213.816406 C 168.132812 213.691406 168.238281 213.582031 168.367188 213.582031 L 192.855469 213.582031 C 192.984375 213.582031 193.089844 213.691406 193.089844 213.816406 C 193.089844 213.945312 192.992188 214.050781 192.855469 214.050781 Z M 192.855469 214.050781 " fill-opacity="1" fill-rule="nonzero"></path>
  <path fill="#000000" d="M 192.855469 219.371094 L 168.367188 219.371094 C 168.238281 219.371094 168.132812 219.265625 168.132812 219.136719 C 168.132812 219.007812 168.238281 218.902344 168.367188 218.902344 L 192.855469 218.902344 C 192.984375 218.902344 193.089844 219.007812 193.089844 219.136719 C 193.089844 219.265625 192.992188 219.371094 192.855469 219.371094 Z M 192.855469 219.371094 " fill-opacity="1" fill-rule="nonzero"></path>
  <path fill="#000000" d="M 192.855469 224.691406 L 168.367188 224.691406 C 168.238281 224.691406 168.132812 224.585938 168.132812 224.457031 C 168.132812 224.328125 168.238281 224.222656 168.367188 224.222656 L 192.855469 224.222656 C 192.984375 224.222656 193.089844 224.328125 193.089844 224.457031 C 193.089844 224.585938 192.992188 224.691406 192.855469 224.691406 Z M 192.855469 224.691406 " fill-opacity="1" fill-rule="nonzero"></path>
  <path fill="#ffffff" d="M 209.382812 185.199219 L 248.808594 185.199219 L 248.808594 235.011719 L 209.382812 235.011719 Z M 209.382812 185.199219 " fill-opacity="1" fill-rule="nonzero"></path>
  <path fill="#000000" d="M 248.808594 235.253906 L 209.382812 235.253906 C 209.253906 235.253906 209.148438 235.148438 209.148438 235.019531 L 209.148438 185.210938 C 209.148438 185.082031 209.253906 184.976562 209.382812 184.976562 L 248.808594 184.976562 C 248.9375 184.976562 249.046875 185.082031 249.046875 185.210938 L 249.046875 235.019531 C 249.046875 235.148438 248.9375 235.253906 248.808594 235.253906 Z M 209.617188 234.785156 L 248.574219 234.785156 L 248.574219 185.445312 L 209.617188 185.445312 Z M 209.617188 234.785156 " fill-opacity="1" fill-rule="nonzero"></path>
  <path fill="#e2eaff" d="M 216.851562 190.753906 L 241.339844 190.753906 L 241.339844 208.0625 L 216.851562 208.0625 Z M 216.851562 190.753906 " fill-opacity="1" fill-rule="nonzero"></path>
  <path fill="#000000" d="M 241.339844 214.050781 L 216.851562 214.050781 C 216.726562 214.050781 216.617188 213.945312 216.617188 213.816406 C 216.617188 213.691406 216.726562 213.582031 216.851562 213.582031 L 241.339844 213.582031 C 241.46875 213.582031 241.574219 213.691406 241.574219 213.816406 C 241.574219 213.945312 241.46875 214.050781 241.339844 214.050781 Z M 241.339844 214.050781 " fill-opacity="1" fill-rule="nonzero"></path>
  <path fill="#000000" d="M 241.339844 219.371094 L 216.851562 219.371094 C 216.726562 219.371094 216.617188 219.265625 216.617188 219.136719 C 216.617188 219.007812 216.726562 218.902344 216.851562 218.902344 L 241.339844 218.902344 C 241.46875 218.902344 241.574219 219.007812 241.574219 219.136719 C 241.574219 219.265625 241.46875 219.371094 241.339844 219.371094 Z M 241.339844 219.371094 " fill-opacity="1" fill-rule="nonzero"></path>
  <path fill="#000000" d="M 241.339844 224.691406 L 216.851562 224.691406 C 216.726562 224.691406 216.617188 224.585938 216.617188 224.457031 C 216.617188 224.328125 216.726562 224.222656 216.851562 224.222656 L 241.339844 224.222656 C 241.46875 224.222656 241.574219 224.328125 241.574219 224.457031 C 241.574219 224.585938 241.46875 224.691406 241.339844 224.691406 Z M 241.339844 224.691406 " fill-opacity="1" fill-rule="nonzero"></path>
  <path fill="#ffffff" d="M 257.871094 185.199219 L 297.296875 185.199219 L 297.296875 235.011719 L 257.871094 235.011719 Z M 257.871094 185.199219 " fill-opacity="1" fill-rule="nonzero"></path>
  <path fill="#000000" d="M 297.296875 235.253906 L 257.871094 235.253906 C 257.742188 235.253906 257.632812 235.148438 257.632812 235.019531 L 257.632812 185.210938 C 257.632812 185.082031 257.742188 184.976562 257.871094 184.976562 L 297.296875 184.976562 C 297.425781 184.976562 297.53125 185.082031 297.53125 185.210938 L 297.53125 235.019531 C 297.53125 235.148438 297.425781 235.253906 297.296875 235.253906 Z M 258.105469 234.785156 L 297.0625 234.785156 L 297.0625 185.445312 L 258.105469 185.445312 Z M 258.105469 234.785156 " fill-opacity="1" fill-rule="nonzero"></path>
  <path fill="#e2eaff" d="M 265.339844 190.753906 L 289.828125 190.753906 L 289.828125 208.0625 L 265.339844 208.0625 Z M 265.339844 190.753906 " fill-opacity="1" fill-rule="nonzero"></path>
  <path fill="#000000" d="M 289.816406 214.050781 L 265.328125 214.050781 C 265.199219 214.050781 265.09375 213.945312 265.09375 213.816406 C 265.09375 213.691406 265.199219 213.582031 265.328125 213.582031 L 289.816406 213.582031 C 289.945312 213.582031 290.050781 213.691406 290.050781 213.816406 C 290.050781 213.945312 289.953125 214.050781 289.816406 214.050781 Z M 289.816406 214.050781 " fill-opacity="1" fill-rule="nonzero"></path>
  <path fill="#000000" d="M 289.816406 219.371094 L 265.328125 219.371094 C 265.199219 219.371094 265.09375 219.265625 265.09375 219.136719 C 265.09375 219.007812 265.199219 218.902344 265.328125 218.902344 L 289.816406 218.902344 C 289.945312 218.902344 290.050781 219.007812 290.050781 219.136719 C 290.050781 219.265625 289.953125 219.371094 289.816406 219.371094 Z M 289.816406 219.371094 " fill-opacity="1" fill-rule="nonzero"></path>
  <path fill="#000000" d="M 289.816406 224.691406 L 265.328125 224.691406 C 265.199219 224.691406 265.09375 224.585938 265.09375 224.457031 C 265.09375 224.328125 265.199219 224.222656 265.328125 224.222656 L 289.816406 224.222656 C 289.945312 224.222656 290.050781 224.328125 290.050781 224.457031 C 290.050781 224.585938 289.953125 224.691406 289.816406 224.691406 Z M 289.816406 224.691406 " fill-opacity="1" fill-rule="nonzero"></path>
  <path fill="#5479f7" d="M 290.585938 133.351562 C 291.117188 133.878906 291.621094 134.429688 292.09375 135.007812 C 292.570312 135.585938 293.015625 136.183594 293.429688 136.804688 C 293.847656 137.425781 294.230469 138.0625 294.582031 138.722656 C 294.9375 139.378906 295.257812 140.054688 295.542969 140.742188 C 295.828125 141.433594 296.082031 142.132812 296.296875 142.847656 C 296.515625 143.5625 296.695312 144.285156 296.84375 145.019531 C 296.988281 145.75 297.097656 146.488281 297.171875 147.230469 C 297.246094 147.972656 297.28125 148.71875 297.28125 149.464844 C 297.28125 150.210938 297.246094 150.953125 297.171875 151.699219 C 297.097656 152.441406 296.988281 153.175781 296.84375 153.910156 C 296.695312 154.640625 296.515625 155.363281 296.296875 156.078125 C 296.082031 156.792969 295.828125 157.496094 295.542969 158.183594 C 295.257812 158.875 294.9375 159.546875 294.582031 160.207031 C 294.230469 160.863281 293.847656 161.503906 293.429688 162.125 C 293.015625 162.746094 292.570312 163.34375 292.09375 163.921875 C 291.621094 164.496094 291.117188 165.050781 290.589844 165.578125 C 290.058594 166.105469 289.503906 166.605469 288.925781 167.078125 C 288.347656 167.554688 287.746094 167.996094 287.125 168.410156 C 286.503906 168.828125 285.859375 169.210938 285.199219 169.5625 C 284.539062 169.914062 283.863281 170.230469 283.171875 170.515625 C 282.480469 170.804688 281.777344 171.054688 281.0625 171.269531 C 280.34375 171.488281 279.621094 171.667969 278.886719 171.8125 C 278.152344 171.960938 277.414062 172.070312 276.667969 172.140625 C 275.921875 172.214844 275.175781 172.253906 274.425781 172.253906 C 273.679688 172.253906 272.933594 172.214844 272.1875 172.140625 C 271.441406 172.070312 270.703125 171.960938 269.96875 171.8125 C 269.234375 171.667969 268.507812 171.488281 267.792969 171.269531 C 267.074219 171.054688 266.371094 170.804688 265.679688 170.519531 C 264.988281 170.230469 264.3125 169.914062 263.652344 169.5625 C 262.992188 169.210938 262.351562 168.828125 261.730469 168.410156 C 261.105469 167.996094 260.507812 167.554688 259.925781 167.078125 C 259.347656 166.605469 258.792969 166.105469 258.265625 165.578125 C 257.734375 165.050781 257.234375 164.496094 256.757812 163.921875 C 256.285156 163.34375 255.839844 162.746094 255.421875 162.125 C 255.007812 161.503906 254.621094 160.863281 254.269531 160.207031 C 253.917969 159.546875 253.597656 158.875 253.3125 158.183594 C 253.023438 157.496094 252.773438 156.792969 252.554688 156.078125 C 252.335938 155.367188 252.15625 154.640625 252.011719 153.910156 C 251.863281 153.179688 251.753906 152.441406 251.679688 151.699219 C 251.609375 150.957031 251.570312 150.210938 251.570312 149.464844 C 251.570312 148.71875 251.609375 147.972656 251.679688 147.230469 C 251.753906 146.488281 251.863281 145.75 252.011719 145.019531 C 252.15625 144.285156 252.335938 143.5625 252.554688 142.851562 C 252.773438 142.136719 253.023438 141.433594 253.308594 140.742188 C 253.597656 140.054688 253.917969 139.378906 254.269531 138.722656 C 254.621094 138.0625 255.007812 137.425781 255.421875 136.804688 C 255.839844 136.183594 256.285156 135.585938 256.757812 135.007812 C 257.234375 134.429688 257.734375 133.878906 258.265625 133.351562 C 258.792969 132.824219 259.347656 132.324219 259.925781 131.847656 C 260.503906 131.375 261.105469 130.933594 261.726562 130.515625 C 262.351562 130.101562 262.992188 129.71875 263.652344 129.367188 C 264.3125 129.015625 264.988281 128.695312 265.679688 128.410156 C 266.371094 128.125 267.074219 127.875 267.792969 127.65625 C 268.507812 127.441406 269.234375 127.261719 269.96875 127.113281 C 270.703125 126.96875 271.441406 126.859375 272.1875 126.785156 C 272.929688 126.714844 273.675781 126.675781 274.425781 126.675781 C 275.175781 126.675781 275.921875 126.710938 276.667969 126.785156 C 277.410156 126.859375 278.152344 126.96875 278.886719 127.113281 C 279.621094 127.257812 280.34375 127.441406 281.0625 127.65625 C 281.777344 127.875 282.480469 128.125 283.171875 128.410156 C 283.863281 128.695312 284.539062 129.015625 285.199219 129.367188 C 285.859375 129.71875 286.5 130.101562 287.125 130.515625 C 287.746094 130.929688 288.347656 131.375 288.925781 131.847656 C 289.503906 132.320312 290.058594 132.824219 290.585938 133.351562 Z M 290.585938 133.351562 " fill-opacity="1" fill-rule="nonzero"></path>
  <path fill="#5479f7" d="M 274.441406 172.496094 C 271.824219 172.496094 269.210938 172.050781 266.671875 171.144531 C 260.855469 169.082031 256.203125 164.890625 253.558594 159.328125 C 250.914062 153.773438 250.59375 147.519531 252.664062 141.730469 C 254.730469 135.933594 258.9375 131.292969 264.515625 128.65625 C 270.085938 126.015625 276.359375 125.699219 282.164062 127.761719 C 287.980469 129.824219 292.632812 134.015625 295.28125 139.582031 C 297.925781 145.136719 298.246094 151.390625 296.175781 157.179688 L 295.953125 157.101562 L 296.175781 157.179688 C 294.105469 162.976562 289.902344 167.613281 284.320312 170.253906 C 281.183594 171.753906 277.824219 172.496094 274.441406 172.496094 Z M 274.410156 126.898438 C 271.101562 126.898438 267.804688 127.632812 264.71875 129.089844 C 259.257812 131.675781 255.136719 136.21875 253.109375 141.902344 C 251.082031 147.570312 251.390625 153.699219 253.984375 159.144531 C 256.578125 164.59375 261.132812 168.699219 266.832031 170.722656 C 272.519531 172.742188 278.664062 172.433594 284.128906 169.847656 C 289.59375 167.261719 293.710938 162.71875 295.738281 157.039062 C 297.765625 151.367188 297.457031 145.242188 294.863281 139.792969 C 292.269531 134.347656 287.714844 130.242188 282.015625 128.21875 C 279.539062 127.335938 276.96875 126.898438 274.410156 126.898438 Z M 274.410156 126.898438 " fill-opacity="1" fill-rule="nonzero"></path>
  <path fill="#ffffff" d="M 291.03125 163.71875 C 289.464844 163.71875 287.875 162.804688 287.148438 161.445312 C 286.371094 159.976562 286.648438 158.070312 287.820312 156.921875 C 288.066406 156.675781 288.355469 156.464844 288.621094 156.253906 C 289.164062 155.835938 289.675781 155.453125 289.878906 154.890625 C 290.230469 153.902344 289.464844 152.785156 288.515625 152.175781 C 287.875 151.773438 287.171875 151.519531 286.421875 151.253906 C 285.996094 151.101562 285.558594 150.945312 285.144531 150.761719 C 281.128906 149.007812 278.707031 144.230469 279.625 139.890625 C 280.457031 135.933594 283.863281 132.484375 288.289062 131.125 C 288.417969 131.082031 288.546875 131.15625 288.589844 131.285156 C 288.632812 131.410156 288.558594 131.539062 288.429688 131.582031 C 284.160156 132.902344 280.886719 136.199219 280.085938 139.996094 C 279.210938 144.125 281.515625 148.675781 285.335938 150.347656 C 285.738281 150.527344 286.167969 150.675781 286.582031 150.828125 C 287.328125 151.09375 288.085938 151.359375 288.769531 151.792969 C 289.878906 152.496094 290.765625 153.835938 290.328125 155.0625 C 290.074219 155.753906 289.484375 156.210938 288.910156 156.636719 C 288.640625 156.835938 288.375 157.039062 288.152344 157.261719 C 287.128906 158.273438 286.882812 159.945312 287.566406 161.242188 C 288.257812 162.550781 289.835938 163.390625 291.34375 163.261719 C 291.46875 163.253906 291.585938 163.347656 291.597656 163.476562 C 291.609375 163.601562 291.511719 163.71875 291.386719 163.730469 C 291.265625 163.71875 291.148438 163.71875 291.03125 163.71875 Z M 291.03125 163.71875 " fill-opacity="1" fill-rule="nonzero"></path>
  <path fill="#ffffff" d="M 262.265625 168.09375 C 262.148438 168.09375 262.050781 168.007812 262.03125 167.890625 C 262.007812 167.761719 262.105469 167.644531 262.234375 167.625 C 266.660156 167.007812 270.992188 165.105469 274.441406 162.261719 C 276.425781 160.625 277.40625 158.984375 277.363281 157.410156 C 277.320312 155.859375 276.234375 154.347656 274.601562 153.5625 C 273.265625 152.921875 271.582031 152.710938 269.585938 152.953125 C 268.570312 153.070312 267.535156 153.292969 266.542969 153.507812 C 265.851562 153.65625 265.136719 153.804688 264.429688 153.921875 C 263.523438 154.070312 262.371094 154.167969 261.59375 153.476562 C 260.578125 152.59375 260.8125 151.019531 261.328125 149.945312 C 261.476562 149.636719 261.648438 149.328125 261.808594 149.027344 C 262.210938 148.292969 262.597656 147.601562 262.671875 146.828125 C 262.839844 145.058594 261.242188 143.527344 259.597656 143.058594 C 257.816406 142.558594 255.863281 142.921875 254.144531 143.25 C 254.015625 143.273438 253.898438 143.1875 253.867188 143.058594 C 253.847656 142.933594 253.933594 142.816406 254.058594 142.785156 C 255.832031 142.453125 257.835938 142.070312 259.726562 142.601562 C 261.5625 143.125 263.34375 144.859375 263.140625 146.859375 C 263.054688 147.730469 262.628906 148.496094 262.210938 149.242188 C 262.050781 149.527344 261.882812 149.835938 261.742188 150.136719 C 261.273438 151.136719 261.132812 152.445312 261.902344 153.113281 C 262.53125 153.667969 263.546875 153.582031 264.355469 153.445312 C 265.0625 153.328125 265.765625 153.175781 266.449219 153.027344 C 267.453125 152.816406 268.484375 152.59375 269.519531 152.476562 C 271.613281 152.230469 273.382812 152.445312 274.792969 153.125 C 276.585938 153.984375 277.769531 155.667969 277.824219 157.390625 C 277.875 159.125 276.832031 160.878906 274.726562 162.613281 C 271.164062 165.5625 266.863281 167.445312 262.285156 168.082031 C 262.285156 168.09375 262.277344 168.09375 262.265625 168.09375 Z M 262.265625 168.09375 " fill-opacity="1" fill-rule="nonzero"></path>
  <path fill="#ffffff" d="M 263.941406 137.058594 C 263.472656 137.058594 263.011719 136.984375 262.5625 136.835938 C 260.730469 136.199219 259.480469 134.261719 259.660156 132.324219 C 259.671875 132.199219 259.789062 132.101562 259.917969 132.113281 C 260.046875 132.125 260.140625 132.242188 260.132812 132.367188 C 259.972656 134.058594 261.113281 135.824219 262.722656 136.390625 C 264.335938 136.953125 266.332031 136.273438 267.257812 134.847656 C 267.570312 134.378906 267.78125 133.824219 267.996094 133.292969 C 268.335938 132.410156 268.699219 131.496094 269.480469 130.890625 C 270.214844 130.316406 271.1875 130.144531 272.113281 130.058594 L 272.390625 130.039062 C 273.160156 129.964844 273.949219 129.890625 274.621094 129.558594 C 275.304688 129.21875 275.933594 128.476562 275.796875 127.699219 C 275.773438 127.570312 275.859375 127.453125 275.988281 127.433594 C 276.117188 127.410156 276.234375 127.496094 276.253906 127.625 C 276.4375 128.675781 275.644531 129.589844 274.824219 129.984375 C 274.066406 130.359375 273.234375 130.433594 272.421875 130.507812 L 272.144531 130.527344 C 271.292969 130.613281 270.40625 130.761719 269.757812 131.261719 C 269.082031 131.792969 268.765625 132.601562 268.421875 133.464844 C 268.199219 134.015625 267.972656 134.601562 267.644531 135.101562 C 266.84375 136.335938 265.390625 137.058594 263.941406 137.058594 Z M 263.941406 137.058594 " fill-opacity="1" fill-rule="nonzero"></path>
  <path fill="#5479f7" d="M 5.109375 217.648438 L 5.101562 231.011719 C 5.089844 235.0625 9.796875 239.117188 19.226562 242.253906 C 38.09375 248.53125 68.886719 248.796875 88.605469 242.925781 C 88.925781 242.828125 89.246094 242.734375 89.566406 242.628906 C 99.554688 239.488281 104.578125 235.320312 104.578125 231.136719 L 104.589844 217.777344 C 104.578125 221.957031 99.566406 226.125 89.578125 229.265625 C 89.257812 229.359375 88.9375 229.46875 88.617188 229.5625 C 68.898438 235.4375 38.105469 235.167969 19.238281 228.894531 C 9.804688 225.742188 5.109375 221.691406 5.109375 217.648438 Z M 5.109375 217.648438 " fill-opacity="1" fill-rule="nonzero"></path>
  <path fill="#5479f7" d="M 55.070312 247.382812 C 54.578125 247.382812 54.085938 247.382812 53.597656 247.371094 C 40.527344 247.246094 28.296875 245.511719 19.152344 242.46875 C 9.933594 239.402344 4.867188 235.328125 4.867188 231 L 4.875 217.648438 C 4.875 217.648438 4.875 217.648438 4.875 217.636719 L 5.347656 217.636719 C 5.347656 221.742188 10.308594 225.660156 19.3125 228.660156 C 28.992188 231.882812 42.050781 233.511719 55.089844 233.511719 C 67.125 233.511719 79.164062 232.125 88.542969 229.328125 C 88.863281 229.234375 89.183594 229.136719 89.503906 229.03125 C 98.933594 226.074219 104.34375 221.96875 104.355469 217.765625 L 104.824219 217.765625 L 104.816406 231.125 C 104.804688 235.605469 99.414062 239.765625 89.628906 242.839844 C 89.308594 242.9375 88.992188 243.042969 88.671875 243.136719 C 79.460938 245.882812 67.574219 247.382812 55.070312 247.382812 Z M 5.347656 219.914062 L 5.335938 231 C 5.324219 235.105469 10.285156 239.019531 19.300781 242.019531 C 28.980469 245.246094 42.042969 246.871094 55.082031 246.871094 C 67.117188 246.871094 79.152344 245.488281 88.53125 242.691406 C 88.851562 242.59375 89.171875 242.5 89.492188 242.394531 C 98.925781 239.4375 104.34375 235.328125 104.34375 231.125 L 104.355469 220.042969 C 102.851562 223.648438 97.75 226.933594 89.640625 229.476562 C 89.320312 229.574219 89 229.679688 88.679688 229.777344 C 79.109375 232.628906 66.65625 234.128906 53.597656 234.011719 C 40.527344 233.882812 28.296875 232.148438 19.152344 229.105469 C 11.578125 226.585938 6.796875 223.382812 5.347656 219.914062 Z M 5.347656 219.914062 " fill-opacity="1" fill-rule="nonzero"></path>
  <path fill="#ffffff" d="M 21.09375 205.859375 C 20.765625 205.957031 20.453125 206.050781 20.136719 206.15625 C 0.457031 212.328125 0.0625 222.507812 19.238281 228.894531 C 38.105469 235.167969 68.898438 235.4375 88.617188 229.5625 C 88.9375 229.46875 89.257812 229.371094 89.578125 229.265625 C 109.242188 223.09375 109.648438 212.914062 90.472656 206.53125 C 71.609375 200.253906 40.824219 199.988281 21.09375 205.859375 Z M 21.09375 205.859375 " fill-opacity="1" fill-rule="nonzero"></path>
  <path fill="#5479f7" d="M 55.082031 234.019531 C 54.589844 234.019531 54.097656 234.019531 53.609375 234.011719 C 40.535156 233.882812 28.308594 232.148438 19.164062 229.105469 C 9.914062 226.03125 4.84375 221.945312 4.875 217.59375 C 4.917969 213.125 10.308594 208.988281 20.058594 205.925781 C 20.378906 205.828125 20.699219 205.722656 21.03125 205.625 C 30.601562 202.773438 43.054688 201.273438 56.105469 201.402344 C 69.175781 201.53125 81.402344 203.265625 90.539062 206.308594 C 99.789062 209.382812 104.855469 213.476562 104.824219 217.816406 C 104.78125 222.285156 99.394531 226.425781 89.640625 229.488281 C 89.320312 229.585938 89 229.691406 88.679688 229.785156 C 79.472656 232.53125 67.585938 234.019531 55.082031 234.019531 Z M 54.621094 201.914062 C 42.585938 201.914062 30.558594 203.296875 21.167969 206.09375 C 20.851562 206.191406 20.53125 206.285156 20.210938 206.390625 C 10.671875 209.382812 5.386719 213.371094 5.355469 217.617188 C 5.324219 221.742188 10.277344 225.667969 19.3125 228.679688 C 28.992188 231.902344 42.050781 233.53125 55.089844 233.53125 C 67.125 233.53125 79.164062 232.148438 88.542969 229.351562 C 88.863281 229.253906 89.183594 229.160156 89.503906 229.050781 C 99.042969 226.0625 104.324219 222.074219 104.355469 217.828125 C 104.386719 213.699219 99.4375 209.773438 90.386719 206.765625 C 80.722656 203.53125 67.671875 201.914062 54.621094 201.914062 Z M 21.09375 205.859375 Z M 21.09375 205.859375 " fill-opacity="1" fill-rule="nonzero"></path>
  <path fill="#5479f7" d="M 5.046875 200.445312 L 5.035156 213.808594 C 5.027344 217.859375 9.730469 221.914062 19.164062 225.050781 C 38.027344 231.328125 68.824219 231.59375 88.542969 225.722656 C 88.863281 225.625 89.183594 225.53125 89.503906 225.425781 C 99.488281 222.285156 104.515625 218.117188 104.515625 213.933594 L 104.527344 200.574219 C 104.515625 204.753906 99.5 208.925781 89.511719 212.0625 C 89.191406 212.160156 88.871094 212.265625 88.554688 212.359375 C 68.835938 218.234375 38.039062 217.96875 19.175781 211.691406 C 9.730469 208.550781 5.035156 204.5 5.046875 200.445312 Z M 5.046875 200.445312 " fill-opacity="1" fill-rule="nonzero"></path>
  <path fill="#5479f7" d="M 54.996094 230.191406 C 54.503906 230.191406 54.011719 230.191406 53.523438 230.179688 C 40.449219 230.050781 28.222656 228.316406 19.078125 225.277344 C 9.859375 222.210938 4.789062 218.136719 4.789062 213.808594 L 4.800781 200.445312 L 5.269531 200.445312 C 5.269531 204.550781 10.234375 208.464844 19.238281 211.464844 C 28.917969 214.691406 41.976562 216.316406 55.015625 216.316406 C 67.050781 216.316406 79.089844 214.933594 88.46875 212.136719 C 88.789062 212.042969 89.109375 211.945312 89.429688 211.839844 C 98.859375 208.882812 104.269531 204.773438 104.28125 200.574219 L 104.75 200.574219 L 104.738281 213.933594 C 104.730469 218.414062 99.339844 222.574219 89.554688 225.648438 C 89.234375 225.742188 88.914062 225.851562 88.59375 225.945312 C 79.398438 228.691406 67.511719 230.191406 54.996094 230.191406 Z M 5.28125 202.722656 L 5.269531 213.808594 C 5.261719 217.914062 10.222656 221.828125 19.238281 224.828125 C 28.917969 228.050781 41.976562 229.679688 55.015625 229.679688 C 67.050781 229.679688 79.089844 228.296875 88.46875 225.5 C 88.789062 225.402344 89.109375 225.308594 89.429688 225.203125 C 98.859375 222.242188 104.28125 218.136719 104.28125 213.933594 L 104.292969 202.847656 C 102.785156 206.457031 97.6875 209.742188 89.578125 212.285156 C 89.257812 212.382812 88.9375 212.488281 88.617188 212.582031 C 79.046875 215.433594 66.59375 216.933594 53.53125 216.816406 C 40.460938 216.691406 28.234375 214.957031 19.089844 211.914062 C 11.503906 209.390625 6.734375 206.191406 5.28125 202.722656 Z M 5.28125 202.722656 " fill-opacity="1" fill-rule="nonzero"></path>
  <path fill="#ffffff" d="M 21.03125 188.667969 C 20.699219 188.765625 20.390625 188.859375 20.070312 188.964844 C 0.394531 195.136719 0 205.316406 19.175781 211.699219 C 38.039062 217.976562 68.835938 218.242188 88.554688 212.371094 C 88.871094 212.273438 89.191406 212.179688 89.511719 212.074219 C 109.179688 205.902344 109.585938 195.722656 90.410156 189.339844 C 71.542969 183.0625 40.75 182.796875 21.03125 188.667969 Z M 21.03125 188.667969 " fill-opacity="1" fill-rule="nonzero"></path>
  <path fill="#5479f7" d="M 55.003906 216.828125 C 54.515625 216.828125 54.023438 216.828125 53.53125 216.816406 C 40.460938 216.691406 28.234375 214.957031 19.089844 211.914062 C 9.839844 208.839844 4.769531 204.753906 4.800781 200.402344 C 4.84375 195.933594 10.234375 191.796875 19.984375 188.730469 C 20.304688 188.636719 20.625 188.53125 20.957031 188.433594 C 30.527344 185.582031 42.992188 184.082031 56.03125 184.210938 C 69.101562 184.339844 81.328125 186.074219 90.464844 189.113281 C 99.714844 192.191406 104.78125 196.285156 104.75 200.625 C 104.707031 205.09375 99.320312 209.234375 89.566406 212.296875 C 89.246094 212.390625 88.925781 212.5 88.605469 212.59375 C 79.398438 215.339844 67.523438 216.828125 55.003906 216.828125 Z M 21.09375 188.890625 C 20.773438 188.988281 20.453125 189.082031 20.136719 189.1875 C 10.59375 192.179688 5.3125 196.167969 5.28125 200.414062 C 5.25 204.539062 10.199219 208.464844 19.238281 211.476562 C 28.917969 214.699219 41.976562 216.328125 55.015625 216.328125 C 67.050781 216.328125 79.089844 214.945312 88.46875 212.148438 C 88.789062 212.050781 89.109375 211.957031 89.429688 211.851562 C 98.96875 208.859375 104.25 204.871094 104.28125 200.625 C 104.3125 196.5 99.363281 192.574219 90.3125 189.5625 C 71.714844 183.371094 40.664062 183.070312 21.09375 188.890625 Z M 21.09375 188.890625 " fill-opacity="1" fill-rule="nonzero"></path>
  <path fill="#5479f7" d="M 5.164062 182.957031 L 5.152344 196.316406 C 5.144531 200.371094 9.847656 204.425781 19.28125 207.5625 C 38.144531 213.839844 68.941406 214.105469 88.660156 208.234375 C 88.980469 208.136719 89.300781 208.042969 89.621094 207.933594 C 99.605469 204.796875 104.632812 200.625 104.632812 196.445312 L 104.644531 183.082031 C 104.632812 187.265625 99.617188 191.433594 89.628906 194.574219 C 89.308594 194.667969 88.992188 194.773438 88.671875 194.871094 C 68.953125 200.742188 38.15625 200.476562 19.292969 194.199219 C 9.847656 191.0625 5.152344 186.996094 5.164062 182.957031 Z M 5.164062 182.957031 " fill-opacity="1" fill-rule="nonzero"></path>
  <path fill="#5479f7" d="M 55.113281 212.691406 C 54.621094 212.691406 54.128906 212.691406 53.640625 212.679688 C 40.570312 212.550781 28.339844 210.816406 19.195312 207.773438 C 9.976562 204.710938 4.910156 200.636719 4.910156 196.308594 L 4.929688 182.957031 C 4.929688 182.957031 4.929688 182.957031 4.929688 182.945312 L 5.398438 182.945312 C 5.386719 187.050781 10.351562 190.964844 19.367188 193.964844 C 29.042969 197.191406 42.105469 198.816406 55.144531 198.816406 C 67.179688 198.816406 79.214844 197.433594 88.59375 194.636719 C 88.914062 194.539062 89.234375 194.445312 89.554688 194.339844 C 98.988281 191.382812 104.398438 187.273438 104.410156 183.070312 L 104.878906 183.070312 L 104.867188 196.433594 C 104.855469 200.914062 99.46875 205.074219 89.683594 208.148438 C 89.363281 208.242188 89.042969 208.347656 88.722656 208.445312 C 79.515625 211.191406 67.628906 212.691406 55.113281 212.691406 Z M 5.398438 185.222656 L 5.386719 196.308594 C 5.378906 200.414062 10.339844 204.328125 19.355469 207.328125 C 29.035156 210.550781 42.09375 212.179688 55.132812 212.179688 C 67.167969 212.179688 79.207031 210.796875 88.585938 208 C 88.90625 207.902344 89.226562 207.808594 89.546875 207.699219 C 98.976562 204.742188 104.386719 200.636719 104.398438 196.433594 L 104.410156 185.347656 C 102.90625 188.957031 97.804688 192.242188 89.695312 194.785156 C 89.375 194.882812 89.054688 194.988281 88.734375 195.082031 C 79.164062 197.933594 66.710938 199.433594 53.648438 199.316406 C 40.578125 199.191406 28.351562 197.457031 19.207031 194.414062 C 11.628906 191.890625 6.851562 188.6875 5.398438 185.222656 Z M 5.398438 185.222656 " fill-opacity="1" fill-rule="nonzero"></path>
  <path fill="#ffffff" d="M 21.148438 171.167969 C 20.816406 171.261719 20.507812 171.359375 20.1875 171.464844 C 0.511719 177.636719 0.117188 187.816406 19.292969 194.199219 C 38.15625 200.476562 68.953125 200.742188 88.671875 194.871094 C 88.992188 194.773438 89.308594 194.679688 89.628906 194.574219 C 109.296875 188.402344 109.703125 178.222656 90.527344 171.835938 C 71.660156 165.5625 40.867188 165.296875 21.148438 171.167969 Z M 21.148438 171.167969 " fill-opacity="1" fill-rule="nonzero"></path>
  <path fill="#5479f7" d="M 55.121094 199.328125 C 54.632812 199.328125 54.140625 199.328125 53.648438 199.316406 C 40.578125 199.191406 28.351562 197.457031 19.207031 194.414062 C 9.957031 191.339844 4.886719 187.253906 4.917969 182.902344 C 4.960938 178.433594 10.351562 174.296875 20.101562 171.230469 C 20.421875 171.136719 20.742188 171.027344 21.074219 170.933594 C 30.644531 168.082031 43.097656 166.582031 56.148438 166.710938 C 69.21875 166.835938 81.445312 168.570312 90.582031 171.613281 C 99.832031 174.6875 104.898438 178.785156 104.867188 183.125 C 104.824219 187.59375 99.4375 191.730469 89.683594 194.796875 C 89.363281 194.890625 89.042969 195 88.722656 195.09375 C 79.527344 197.839844 67.640625 199.328125 55.121094 199.328125 Z M 54.664062 167.21875 C 42.628906 167.21875 30.601562 168.605469 21.210938 171.402344 C 20.890625 171.496094 20.574219 171.59375 20.253906 171.699219 C 10.714844 174.6875 5.429688 178.679688 5.398438 182.921875 C 5.367188 187.050781 10.316406 190.976562 19.355469 193.988281 C 29.035156 197.210938 42.09375 198.839844 55.132812 198.839844 C 67.167969 198.839844 79.207031 197.457031 88.585938 194.65625 C 88.90625 194.5625 89.226562 194.464844 89.546875 194.359375 C 99.085938 191.371094 104.367188 187.378906 104.398438 183.136719 C 104.429688 179.007812 99.480469 175.082031 90.429688 172.070312 C 80.761719 168.847656 67.714844 167.21875 54.664062 167.21875 Z M 21.148438 171.167969 Z M 21.148438 171.167969 " fill-opacity="1" fill-rule="nonzero"></path>
  <path fill="#5479f7" d="M 5.164062 165.113281 L 5.152344 178.476562 C 5.144531 182.519531 9.847656 186.582031 19.28125 189.722656 C 38.144531 196 68.941406 196.265625 88.660156 190.390625 C 88.980469 190.296875 89.300781 190.199219 89.621094 190.09375 C 99.605469 186.957031 104.632812 182.785156 104.632812 178.605469 L 104.644531 165.242188 C 104.632812 169.421875 99.617188 173.59375 89.628906 176.730469 C 89.308594 176.828125 88.992188 176.933594 88.671875 177.03125 C 68.953125 182.902344 38.15625 182.636719 19.292969 176.359375 C 9.847656 173.210938 5.152344 169.15625 5.164062 165.113281 Z M 5.164062 165.113281 " fill-opacity="1" fill-rule="nonzero"></path>
  <path fill="#5479f7" d="M 55.113281 194.847656 C 54.621094 194.847656 54.128906 194.847656 53.640625 194.839844 C 40.570312 194.710938 28.339844 192.976562 19.195312 189.933594 C 9.976562 186.871094 4.910156 182.796875 4.910156 178.464844 L 4.917969 165.113281 C 4.917969 165.113281 4.917969 165.113281 4.917969 165.105469 L 5.386719 165.105469 C 5.378906 169.210938 10.339844 173.125 19.355469 176.125 C 29.035156 179.347656 42.09375 180.976562 55.132812 180.976562 C 67.167969 180.976562 79.207031 179.59375 88.585938 176.796875 C 88.90625 176.699219 89.226562 176.605469 89.546875 176.496094 C 98.976562 173.539062 104.386719 169.433594 104.398438 165.230469 L 104.867188 165.230469 L 104.855469 178.59375 C 104.847656 183.070312 99.457031 187.230469 89.671875 190.304688 C 89.351562 190.402344 89.03125 190.507812 88.714844 190.605469 C 79.515625 193.347656 67.628906 194.847656 55.113281 194.847656 Z M 5.398438 167.378906 L 5.386719 178.464844 C 5.378906 182.570312 10.339844 186.488281 19.355469 189.488281 C 29.035156 192.710938 42.09375 194.339844 55.132812 194.339844 C 67.167969 194.339844 79.207031 192.957031 88.585938 190.15625 C 88.90625 190.0625 89.226562 189.964844 89.546875 189.859375 C 98.976562 186.902344 104.386719 182.796875 104.398438 178.59375 L 104.410156 167.507812 C 102.90625 171.113281 97.804688 174.402344 89.695312 176.945312 C 89.375 177.039062 89.054688 177.144531 88.734375 177.242188 C 79.164062 180.09375 66.710938 181.59375 53.648438 181.476562 C 40.578125 181.347656 28.351562 179.613281 19.207031 176.570312 C 11.628906 174.050781 6.851562 170.847656 5.398438 167.378906 Z M 5.398438 167.378906 " fill-opacity="1" fill-rule="nonzero"></path>
  <path fill="#ffffff" d="M 21.148438 153.328125 C 20.816406 153.421875 20.507812 153.519531 20.1875 153.625 C 0.511719 159.792969 0.117188 169.976562 19.292969 176.359375 C 38.15625 182.636719 68.953125 182.902344 88.671875 177.03125 C 88.992188 176.933594 89.308594 176.839844 89.628906 176.730469 C 109.296875 170.5625 109.703125 160.378906 90.527344 153.996094 C 71.660156 147.71875 40.867188 147.453125 21.148438 153.328125 Z M 21.148438 153.328125 " fill-opacity="1" fill-rule="nonzero"></path>
  <path fill="#5479f7" d="M 55.121094 181.488281 C 54.632812 181.488281 54.140625 181.488281 53.648438 181.476562 C 40.578125 181.347656 28.351562 179.613281 19.207031 176.570312 C 9.957031 173.496094 4.886719 169.414062 4.917969 165.0625 C 4.960938 160.59375 10.351562 156.453125 20.101562 153.390625 C 20.421875 153.292969 20.742188 153.1875 21.074219 153.09375 C 30.644531 150.242188 43.097656 148.742188 56.148438 148.867188 C 69.21875 148.996094 81.445312 150.730469 90.582031 153.773438 C 99.832031 156.847656 104.898438 160.945312 104.867188 165.285156 C 104.824219 169.753906 99.4375 173.890625 89.683594 176.953125 C 89.363281 177.050781 89.042969 177.15625 88.722656 177.253906 C 79.527344 179.996094 67.640625 181.488281 55.121094 181.488281 Z M 54.664062 149.378906 C 42.628906 149.378906 30.601562 150.761719 21.210938 153.5625 C 20.890625 153.65625 20.574219 153.753906 20.253906 153.859375 C 10.714844 156.847656 5.429688 160.835938 5.398438 165.082031 C 5.367188 169.210938 10.316406 173.136719 19.355469 176.144531 C 29.035156 179.371094 42.09375 180.996094 55.132812 180.996094 C 67.167969 180.996094 79.207031 179.613281 88.585938 176.816406 C 88.90625 176.722656 89.226562 176.625 89.546875 176.519531 C 99.085938 173.53125 104.367188 169.539062 104.398438 165.296875 C 104.429688 161.167969 99.480469 157.242188 90.429688 154.230469 C 80.761719 151.007812 67.714844 149.378906 54.664062 149.378906 Z M 21.148438 153.328125 Z M 21.148438 153.328125 " fill-opacity="1" fill-rule="nonzero"></path>
  <g clip-path="url(#4786884cd0)">
    <path fill="#000000" d="M 49.585938 71.898438 C 48.921875 67.984375 46 64.652344 47.984375 59.292969 C 49.394531 55.484375 53.371094 54.207031 57.332031 53.269531 C 61.289062 52.335938 65.804688 52.855469 68.84375 55.546875 C 72.429688 58.738281 72.613281 60.792969 70.550781 65.121094 C 63.179688 80.558594 52.039062 86.484375 49.585938 71.898438 Z M 49.585938 71.898438 " fill-opacity="1" fill-rule="nonzero"></path>
  </g>
  <path fill="#ffffff" d="M 125.332031 122.890625 L 84.199219 128.570312 L 53.746094 128.433594 C 48.570312 146.835938 108.421875 153.804688 108.421875 153.804688 L 84.242188 184.039062 C 81.925781 186.945312 81.597656 190.957031 83.429688 194.179688 C 88.511719 203.0625 99.265625 217.277344 104.78125 224.402344 C 106.148438 226.167969 108.953125 225.5625 109.464844 223.394531 L 112.367188 211.0625 L 146.183594 154.144531 C 155.113281 139.132812 142.671875 120.496094 125.332031 122.890625 Z M 125.332031 122.890625 " fill-opacity="1" fill-rule="nonzero"></path>
  <path fill="#000000" d="M 94.113281 210.425781 C 94.039062 210.425781 93.960938 210.390625 93.921875 210.328125 C 93.183594 209.316406 92.46875 208.316406 91.785156 207.359375 C 91.710938 207.253906 91.734375 207.105469 91.839844 207.03125 C 91.945312 206.957031 92.09375 206.976562 92.171875 207.082031 C 92.851562 208.042969 93.566406 209.042969 94.292969 210.050781 C 94.367188 210.15625 94.347656 210.308594 94.238281 210.382812 C 94.207031 210.414062 94.164062 210.425781 94.113281 210.425781 Z M 94.113281 210.425781 " fill-opacity="1" fill-rule="nonzero"></path>
  <path fill="#000000" d="M 84.734375 196.613281 C 84.660156 196.613281 84.574219 196.574219 84.53125 196.5 C 84.050781 195.722656 83.613281 194.976562 83.226562 194.296875 C 82.757812 193.488281 82.429688 192.605469 82.226562 191.691406 C 82.195312 191.5625 82.277344 191.433594 82.40625 191.414062 C 82.535156 191.382812 82.664062 191.464844 82.683594 191.59375 C 82.875 192.457031 83.195312 193.296875 83.632812 194.0625 C 84.019531 194.742188 84.457031 195.476562 84.9375 196.253906 C 85 196.359375 84.96875 196.507812 84.859375 196.574219 C 84.816406 196.605469 84.777344 196.613281 84.734375 196.613281 Z M 84.734375 196.613281 " fill-opacity="1" fill-rule="nonzero"></path>
  <path fill="#000000" d="M 106.875 225.679688 C 105.988281 225.679688 105.15625 225.277344 104.601562 224.5625 C 103.425781 223.050781 102.253906 221.519531 101.101562 220 C 101.027344 219.890625 101.046875 219.742188 101.144531 219.667969 C 101.25 219.59375 101.398438 219.617188 101.476562 219.710938 C 102.628906 221.222656 103.800781 222.765625 104.972656 224.277344 C 105.550781 225.019531 106.480469 225.359375 107.398438 225.160156 C 108.3125 224.957031 109.027344 224.265625 109.242188 223.351562 L 112.144531 211.019531 C 112.15625 211 112.15625 210.976562 112.167969 210.957031 L 145.980469 154.039062 C 150.054688 147.175781 149.84375 138.785156 145.402344 132.132812 C 140.964844 125.484375 133.28125 122.039062 125.34375 123.132812 L 84.210938 128.816406 C 84.199219 128.816406 84.199219 128.816406 84.179688 128.816406 L 53.90625 128.675781 C 53.320312 130.941406 53.734375 133.15625 55.144531 135.25 C 63.882812 148.25 107.996094 153.527344 108.433594 153.582031 C 108.515625 153.59375 108.589844 153.644531 108.625 153.71875 C 108.65625 153.792969 108.644531 153.890625 108.589844 153.953125 L 91.96875 174.742188 C 91.882812 174.839844 91.742188 174.859375 91.636719 174.773438 C 91.53125 174.6875 91.519531 174.550781 91.59375 174.445312 L 107.953125 153.976562 C 105.808594 153.710938 95.753906 152.378906 84.957031 149.773438 C 68.640625 145.835938 58.472656 141.039062 54.75 135.496094 C 53.222656 133.230469 52.808594 130.824219 53.5 128.359375 C 53.53125 128.25 53.617188 128.1875 53.726562 128.1875 L 84.167969 128.324219 L 125.28125 122.644531 C 133.398438 121.527344 141.253906 125.050781 145.789062 131.847656 C 150.324219 138.644531 150.546875 147.230469 146.375 154.253906 L 112.59375 211.15625 L 109.703125 223.457031 C 109.445312 224.550781 108.601562 225.371094 107.503906 225.617188 C 107.289062 225.660156 107.085938 225.679688 106.875 225.679688 Z M 106.875 225.679688 " fill-opacity="1" fill-rule="nonzero"></path>
  <path fill="#000000" d="M 109.734375 210.53125 C 109.667969 210.53125 109.605469 210.507812 109.5625 210.457031 C 101.304688 201.242188 94.773438 190.753906 90.175781 179.285156 C 90.121094 179.167969 90.183594 179.03125 90.304688 178.976562 C 90.421875 178.933594 90.558594 178.988281 90.613281 179.105469 C 95.191406 190.53125 101.6875 200.964844 109.914062 210.136719 C 110 210.234375 109.988281 210.382812 109.894531 210.464844 C 109.839844 210.507812 109.785156 210.53125 109.734375 210.53125 Z M 109.734375 210.53125 " fill-opacity="1" fill-rule="nonzero"></path>
  <path fill="#000000" d="M 108.421875 177.167969 L 97.195312 177.125 C 97.066406 177.125 96.960938 177.019531 96.960938 176.890625 C 96.960938 176.761719 97.066406 176.65625 97.195312 176.65625 L 108.421875 176.699219 C 108.550781 176.699219 108.65625 176.804688 108.65625 176.933594 C 108.65625 177.0625 108.550781 177.167969 108.421875 177.167969 Z M 108.421875 177.167969 " fill-opacity="1" fill-rule="nonzero"></path>
  <path fill="#ffffff" d="M 65.941406 141.902344 L 98.09375 141.09375 C 114.953125 140.667969 130.402344 150.421875 137.230469 165.796875 C 148.433594 191.007812 165.914062 228.011719 178.289062 243.160156 C 179.742188 244.945312 178.269531 247.574219 175.984375 247.277344 L 141.007812 242.703125 C 135.363281 241.96875 130.390625 238.617188 127.585938 233.679688 L 95.425781 176.878906 C 95.425781 176.878906 45.691406 173.453125 44.761719 173.390625 C 44.761719 173.390625 11.714844 171.210938 21.449219 132.613281 L 63.734375 124.859375 L 73.582031 126.644531 Z M 65.941406 141.902344 " fill-opacity="1" fill-rule="nonzero"></path>
  <path fill="#000000" d="M 176.335938 247.53125 C 176.210938 247.53125 176.082031 247.519531 175.953125 247.511719 L 140.976562 242.9375 C 135.289062 242.191406 130.199219 238.777344 127.382812 233.796875 L 95.296875 177.105469 C 92.5 176.914062 45.660156 173.6875 44.761719 173.625 C 44.632812 173.613281 31.703125 172.65625 24.414062 162.667969 C 19.101562 155.390625 18.03125 145.261719 21.246094 132.558594 C 21.265625 132.476562 21.339844 132.398438 21.425781 132.390625 L 63.710938 124.632812 C 63.746094 124.632812 63.765625 124.632812 63.796875 124.632812 L 73.644531 126.421875 C 73.773438 126.441406 73.859375 126.570312 73.839844 126.699219 C 73.816406 126.824219 73.6875 126.910156 73.5625 126.890625 L 63.753906 125.113281 L 21.660156 132.835938 C 18.535156 145.328125 19.589844 155.285156 24.796875 162.402344 C 31.957031 172.210938 44.675781 173.167969 44.804688 173.167969 C 45.722656 173.222656 94.964844 176.613281 95.46875 176.65625 C 95.542969 176.667969 95.617188 176.710938 95.660156 176.773438 L 127.820312 233.574219 C 130.574219 238.425781 135.523438 241.753906 141.0625 242.476562 L 176.039062 247.054688 C 177 247.179688 177.882812 246.734375 178.355469 245.894531 C 178.824219 245.054688 178.738281 244.0625 178.128906 243.320312 C 166.007812 228.46875 149.097656 193.019531 137.039062 165.902344 C 130.21875 150.5625 114.941406 140.921875 98.125 141.347656 L 65.972656 142.15625 C 65.847656 142.167969 65.738281 142.058594 65.730469 141.933594 C 65.730469 141.804688 65.824219 141.699219 65.953125 141.6875 L 98.101562 140.878906 C 106.425781 140.667969 114.535156 142.902344 121.566406 147.347656 C 128.597656 151.785156 134.09375 158.136719 137.464844 165.71875 C 149.5 192.816406 166.394531 228.222656 178.492188 243.03125 C 179.230469 243.9375 179.335938 245.117188 178.769531 246.136719 C 178.238281 247.011719 177.339844 247.53125 176.335938 247.53125 Z M 176.335938 247.53125 " fill-opacity="1" fill-rule="nonzero"></path>
  <path fill="#000000" d="M 166.542969 235.242188 C 160.429688 235.242188 145.882812 234.433594 125.503906 228.179688 C 125.375 228.136719 125.3125 228.011719 125.34375 227.882812 C 125.386719 227.753906 125.515625 227.691406 125.644531 227.722656 C 152.839844 236.074219 169.5625 234.691406 169.722656 234.667969 C 169.851562 234.660156 169.96875 234.753906 169.976562 234.882812 C 169.988281 235.011719 169.894531 235.128906 169.765625 235.136719 C 169.722656 235.148438 168.613281 235.242188 166.542969 235.242188 Z M 166.542969 235.242188 " fill-opacity="1" fill-rule="nonzero"></path>
  <path fill="#5479f7" d="M 25.714844 142.1875 L 31.945312 114.675781 L 13.058594 110.464844 C 13.058594 110.464844 17.679688 91.6875 25.800781 86.101562 C 35.554688 79.398438 65.601562 83.195312 72.996094 87.792969 C 82.054688 93.441406 84.316406 111.304688 84.316406 111.304688 L 72.417969 111.539062 C 72.417969 111.539062 72.695312 126.125 72.878906 129.464844 Z M 25.714844 142.1875 " fill-opacity="1" fill-rule="nonzero"></path>
  <path fill="#ffffff" d="M 83.71875 111.316406 C 85.875 120.199219 87.1875 127.996094 87.1875 127.996094 L 72.878906 127.996094 L 72.335938 111.316406 Z M 83.71875 111.316406 " fill-opacity="1" fill-rule="nonzero"></path>
  <path fill="#ffffff" d="M 83.71875 111.316406 C 85.875 120.199219 87.1875 127.996094 87.1875 127.996094 L 72.878906 127.996094 Z M 83.71875 111.316406 " fill-opacity="1" fill-rule="nonzero"></path>
  <path fill="#000000" d="M 87.1875 128.230469 L 72.878906 128.230469 C 72.75 128.230469 72.644531 128.125 72.644531 127.996094 C 72.644531 127.867188 72.75 127.761719 72.878906 127.761719 L 86.898438 127.761719 C 86.644531 126.304688 85.394531 119.230469 83.484375 111.378906 C 83.453125 111.25 83.527344 111.125 83.65625 111.089844 C 83.785156 111.058594 83.910156 111.132812 83.941406 111.261719 C 86.078125 120.050781 87.402344 127.878906 87.410156 127.953125 C 87.421875 128.015625 87.402344 128.089844 87.359375 128.144531 C 87.316406 128.199219 87.25 128.230469 87.1875 128.230469 Z M 87.1875 128.230469 " fill-opacity="1" fill-rule="nonzero"></path>
  <path fill="#000000" d="M 122.269531 129.476562 L 56.703125 129.476562 L 56.703125 127.507812 C 56.703125 125.773438 58.109375 124.367188 59.851562 124.367188 L 126.878906 124.367188 L 126.347656 126.359375 C 125.84375 128.199219 124.179688 129.476562 122.269531 129.476562 Z M 122.269531 129.476562 " fill-opacity="1" fill-rule="nonzero"></path>
  <path fill="#000000" d="M 124.136719 127.167969 L 84.582031 127.167969 C 82.898438 127.167969 81.648438 125.582031 82.054688 123.953125 L 89.535156 93.898438 C 89.824219 92.738281 90.867188 91.929688 92.0625 91.929688 L 131.617188 91.929688 C 133.304688 91.929688 134.550781 93.515625 134.148438 95.144531 L 126.667969 125.199219 C 126.378906 126.359375 125.332031 127.167969 124.136719 127.167969 Z M 124.136719 127.167969 " fill-opacity="1" fill-rule="nonzero"></path>
  <path fill="#5479f7" d="M 112.015625 103.515625 C 112.015625 104.238281 111.429688 104.8125 110.714844 104.8125 C 109.988281 104.8125 109.414062 104.230469 109.414062 103.515625 C 109.414062 102.792969 110 102.21875 110.714844 102.21875 C 111.441406 102.21875 112.015625 102.804688 112.015625 103.515625 Z M 112.015625 103.515625 " fill-opacity="1" fill-rule="nonzero"></path>
  <path fill="#ffffff" d="M 34.699219 110.941406 C 31.96875 120.175781 29.042969 128.101562 29.042969 128.101562 C 29.042969 128.101562 43.109375 119.335938 52.96875 115.699219 C 62.828125 112.046875 70.050781 124.378906 70.050781 124.378906 L 58.613281 127.175781 C 55.324219 127.167969 34.464844 149.050781 26.140625 148.902344 C 17.820312 148.75 5.484375 135.902344 13.347656 110.582031 C 21.148438 109.1875 34.699219 110.941406 34.699219 110.941406 Z M 34.699219 110.941406 " fill-opacity="1" fill-rule="nonzero"></path>
  <path fill="#000000" d="M 26.21875 149.125 C 26.183594 149.125 26.152344 149.125 26.132812 149.125 C 22.363281 149.058594 18.363281 146.601562 15.429688 142.550781 C 12.21875 138.132812 7.660156 128.089844 13.125 110.496094 C 13.167969 110.367188 13.296875 110.304688 13.421875 110.335938 C 13.550781 110.378906 13.617188 110.507812 13.582031 110.632812 C 8.183594 128.039062 12.664062 137.933594 15.824219 142.285156 C 18.628906 146.15625 22.589844 148.59375 26.152344 148.65625 C 26.183594 148.65625 26.207031 148.65625 26.238281 148.65625 C 30.558594 148.65625 38.507812 142.558594 45.722656 136.582031 C 45.816406 136.496094 45.96875 136.515625 46.054688 136.613281 C 46.136719 136.710938 46.117188 136.859375 46.019531 136.941406 C 38.371094 143.273438 30.6875 149.125 26.21875 149.125 Z M 26.21875 149.125 " fill-opacity="1" fill-rule="nonzero"></path>
  <path fill="#000000" d="M 61.171875 125.632812 C 61.078125 125.632812 60.980469 125.570312 60.949219 125.476562 C 60.308594 123.644531 58.867188 122.089844 57.085938 121.316406 C 56.96875 121.261719 56.914062 121.125 56.96875 121.007812 C 57.023438 120.890625 57.160156 120.835938 57.277344 120.890625 C 59.175781 121.71875 60.714844 123.378906 61.386719 125.324219 C 61.429688 125.441406 61.363281 125.582031 61.238281 125.625 C 61.226562 125.625 61.203125 125.632812 61.171875 125.632812 Z M 61.171875 125.632812 " fill-opacity="1" fill-rule="nonzero"></path>
  <path fill="#000000" d="M 64.769531 124.910156 C 64.671875 124.910156 64.578125 124.847656 64.542969 124.742188 C 63.871094 122.507812 62.207031 120.582031 60.09375 119.589844 C 59.976562 119.539062 59.925781 119.398438 59.976562 119.28125 C 60.03125 119.164062 60.167969 119.113281 60.289062 119.164062 C 62.527344 120.207031 64.277344 122.25 64.992188 124.613281 C 65.023438 124.742188 64.960938 124.867188 64.832031 124.898438 C 64.820312 124.910156 64.789062 124.910156 64.769531 124.910156 Z M 64.769531 124.910156 " fill-opacity="1" fill-rule="nonzero"></path>
  <path fill="#000000" d="M 56.703125 129.476562 L 56.703125 127.507812 C 56.703125 125.773438 58.109375 124.367188 59.851562 124.367188 L 72.878906 124.367188 Z M 56.703125 129.476562 " fill-opacity="1" fill-rule="nonzero"></path>
  <path fill="#ffffff" d="M 53.960938 70.121094 L 49.316406 81.855469 C 48.625 83.613281 49.210938 85.621094 50.757812 86.695312 C 52.445312 87.867188 55.039062 89.15625 58.613281 89.632812 C 65.761719 90.589844 59.679688 84.632812 59.679688 84.632812 L 63.136719 74.78125 Z M 53.960938 70.121094 " fill-opacity="1" fill-rule="nonzero"></path>
  <path fill="#ffffff" d="M 59.667969 84.621094 L 63.125 74.769531 L 53.960938 70.121094 L 49.0625 82.484375 Z M 59.667969 84.621094 " fill-opacity="1" fill-rule="nonzero"></path>
  <path fill="#000000" d="M 59.667969 84.855469 C 59.648438 84.855469 59.613281 84.855469 59.59375 84.84375 C 59.476562 84.804688 59.402344 84.664062 59.445312 84.546875 L 62.828125 74.898438 L 54.078125 70.453125 L 49.277344 82.570312 C 49.234375 82.6875 49.09375 82.75 48.964844 82.695312 C 48.847656 82.652344 48.785156 82.515625 48.839844 82.386719 L 53.726562 70.027344 C 53.746094 69.960938 53.800781 69.917969 53.863281 69.886719 C 53.925781 69.867188 53.992188 69.867188 54.054688 69.898438 L 63.222656 74.546875 C 63.328125 74.601562 63.371094 74.71875 63.339844 74.835938 L 59.882812 84.6875 C 59.859375 84.792969 59.773438 84.855469 59.667969 84.855469 Z M 59.667969 84.855469 " fill-opacity="1" fill-rule="nonzero"></path>
  <path fill="#ffffff" d="M 70.230469 68.960938 C 70.019531 71.144531 69.410156 73.335938 68.140625 75.121094 C 66.871094 76.910156 64.886719 78.261719 62.699219 78.460938 C 60.800781 78.632812 58.878906 77.921875 57.394531 76.738281 C 55.902344 75.558594 54.8125 73.929688 54.035156 72.195312 C 52.039062 72.324219 50.054688 70.953125 49.46875 69.058594 C 49.125 67.960938 49.277344 66.664062 50.042969 65.824219 C 50.8125 64.972656 52.273438 64.75 53.136719 65.503906 C 53.628906 65.929688 53.886719 66.601562 54.398438 67.003906 C 54.960938 67.460938 55.785156 67.515625 56.476562 67.292969 C 57.171875 67.070312 57.757812 66.589844 58.269531 66.070312 C 59.882812 64.429688 60.851562 62.183594 60.96875 59.898438 C 60.960938 60.109375 61.953125 60.726562 62.132812 60.84375 C 62.570312 61.144531 63.039062 61.410156 63.519531 61.632812 C 64.480469 62.070312 65.503906 62.34375 66.550781 62.460938 C 67.085938 62.515625 67.617188 62.527344 68.152344 62.492188 C 68.578125 62.460938 69.175781 62.25 69.582031 62.355469 C 70.433594 62.589844 70.253906 64.21875 70.285156 64.878906 C 70.347656 66.226562 70.359375 67.601562 70.230469 68.960938 Z M 70.230469 68.960938 " fill-opacity="1" fill-rule="nonzero"></path>
  <path fill="#000000" d="M 62.144531 78.71875 C 60.457031 78.71875 58.699219 78.078125 57.234375 76.917969 C 55.871094 75.835938 54.738281 74.335938 53.875 72.429688 C 51.835938 72.484375 49.832031 71.058594 49.234375 69.109375 C 48.839844 67.835938 49.082031 66.503906 49.863281 65.644531 C 50.757812 64.652344 52.359375 64.492188 53.289062 65.300781 C 53.542969 65.527344 53.734375 65.800781 53.929688 66.070312 C 54.121094 66.34375 54.300781 66.601562 54.535156 66.792969 C 55.003906 67.164062 55.71875 67.261719 56.402344 67.035156 C 56.96875 66.855469 57.503906 66.484375 58.101562 65.878906 C 59.65625 64.28125 60.617188 62.078125 60.726562 59.855469 C 60.734375 59.726562 60.84375 59.632812 60.96875 59.632812 C 61.085938 59.644531 61.171875 59.726562 61.195312 59.835938 C 61.246094 59.910156 61.449219 60.101562 62.132812 60.546875 C 62.1875 60.578125 62.230469 60.609375 62.261719 60.632812 C 62.6875 60.917969 63.136719 61.175781 63.617188 61.398438 C 64.542969 61.824219 65.546875 62.101562 66.570312 62.207031 C 67.09375 62.261719 67.617188 62.269531 68.128906 62.238281 C 68.257812 62.226562 68.429688 62.195312 68.589844 62.164062 C 68.953125 62.089844 69.3125 62.027344 69.632812 62.109375 C 70.519531 62.34375 70.507812 63.601562 70.507812 64.429688 C 70.507812 64.589844 70.507812 64.726562 70.507812 64.835938 C 70.59375 66.472656 70.585938 67.78125 70.464844 68.984375 C 70.230469 71.484375 69.507812 73.601562 68.332031 75.261719 C 66.933594 77.226562 64.84375 78.503906 62.71875 78.695312 C 62.527344 78.707031 62.335938 78.71875 62.144531 78.71875 Z M 54.023438 71.953125 C 54.121094 71.953125 54.207031 72.003906 54.238281 72.089844 C 55.089844 73.984375 56.191406 75.484375 57.535156 76.546875 C 59.070312 77.769531 60.949219 78.378906 62.675781 78.226562 C 64.660156 78.046875 66.636719 76.84375 67.949219 74.996094 C 69.078125 73.410156 69.761719 71.367188 69.996094 68.953125 C 70.105469 67.78125 70.125 66.484375 70.039062 64.878906 C 70.027344 64.761719 70.027344 64.609375 70.039062 64.441406 C 70.039062 63.792969 70.050781 62.71875 69.515625 62.570312 C 69.304688 62.515625 68.972656 62.578125 68.683594 62.632812 C 68.503906 62.664062 68.320312 62.707031 68.160156 62.71875 C 67.617188 62.75 67.074219 62.738281 66.53125 62.683594 C 65.453125 62.570312 64.40625 62.292969 63.425781 61.835938 C 62.921875 61.601562 62.441406 61.335938 62.003906 61.027344 C 61.984375 61.003906 61.941406 60.984375 61.886719 60.953125 C 61.578125 60.75 61.34375 60.589844 61.164062 60.453125 C 60.925781 62.601562 59.957031 64.675781 58.441406 66.226562 C 57.789062 66.898438 57.191406 67.300781 56.550781 67.503906 C 55.71875 67.769531 54.835938 67.652344 54.246094 67.175781 C 53.960938 66.941406 53.746094 66.644531 53.542969 66.355469 C 53.363281 66.101562 53.203125 65.855469 52.976562 65.675781 C 52.253906 65.035156 50.929688 65.183594 50.203125 65.972656 C 49.542969 66.695312 49.339844 67.878906 49.679688 68.984375 C 50.234375 70.769531 52.125 72.078125 54.003906 71.960938 C 54.011719 71.953125 54.011719 71.953125 54.023438 71.953125 Z M 61.195312 59.886719 Z M 61.195312 59.886719 " fill-opacity="1" fill-rule="nonzero"></path>
  <path fill="#000000" d="M 53.960938 70.355469 C 53.84375 70.355469 53.746094 70.269531 53.726562 70.164062 C 53.566406 69.21875 52.808594 68.410156 51.878906 68.195312 C 51.75 68.164062 51.675781 68.035156 51.699219 67.917969 C 51.730469 67.792969 51.859375 67.71875 51.976562 67.738281 C 53.09375 67.992188 54.003906 68.960938 54.183594 70.089844 C 54.207031 70.21875 54.121094 70.335938 53.992188 70.355469 C 53.980469 70.355469 53.96875 70.355469 53.960938 70.355469 Z M 53.960938 70.355469 " fill-opacity="1" fill-rule="nonzero"></path>
</svg>
