<svg xmlns="http://www.w3.org/2000/svg" xmlns:xlink="http://www.w3.org/1999/xlink" width="400" viewBox="0 0 300 299.999988" height="400" preserveAspectRatio="xMidYMid meet"><defs><clipPath id="4e7f3ef32d"><path d="M 30 4.324219 L 271.5 4.324219 L 271.5 295.324219 L 30 295.324219 Z M 30 4.324219 " clip-rule="nonzero"></path></clipPath><clipPath id="e9ef386e9f"><path d="M 219 93 L 271.5 93 L 271.5 292 L 219 292 Z M 219 93 " clip-rule="nonzero"></path></clipPath><clipPath id="b5161604ec"><path d="M 92 144 L 138 144 L 138 295.324219 L 92 295.324219 Z M 92 144 " clip-rule="nonzero"></path></clipPath><clipPath id="00ad4fae46"><path d="M 35 4.324219 L 270 4.324219 L 270 135 L 35 135 Z M 35 4.324219 " clip-rule="nonzero"></path></clipPath></defs><g clip-path="url(#4e7f3ef32d)"><path fill="#0f17d6" d="M 219.796875 193.464844 C 219.796875 186.386719 219.75 181.449219 219.8125 176.515625 C 219.875 171.519531 219.929688 166.519531 220.226562 161.539062 C 220.394531 158.730469 220.414062 155.925781 220.488281 153.121094 C 220.550781 150.8125 220.699219 148.507812 220.769531 146.203125 C 220.957031 140.148438 220.464844 134.097656 220.34375 128.042969 C 220.269531 124.363281 220.039062 120.667969 220.234375 117.003906 C 220.464844 112.695312 220.320312 108.382812 220.609375 104.089844 C 220.785156 101.480469 220.605469 98.847656 221.121094 96.253906 C 221.304688 95.320312 221.707031 95.046875 222.589844 94.957031 C 230.113281 94.207031 237.65625 94.140625 245.210938 94.085938 C 248.195312 94.0625 251.207031 93.585938 254.175781 93.917969 C 257.363281 94.269531 260.53125 94.179688 263.714844 94.191406 C 264.277344 94.191406 264.839844 94.152344 265.398438 94.171875 C 266.875 94.226562 267.28125 94.605469 267.285156 96.101562 C 267.289062 97.46875 267.359375 98.84375 267.101562 100.210938 C 266.867188 101.453125 267.265625 102.695312 267.273438 103.9375 C 267.316406 110.246094 267.539062 116.570312 267.25 122.867188 C 266.925781 129.925781 266.816406 136.984375 267.101562 144.027344 C 267.3125 149.253906 267.617188 154.484375 268.015625 159.707031 C 268.066406 160.390625 268.058594 161.078125 268.0625 161.765625 C 268.085938 166.015625 268.050781 170.265625 268.136719 174.515625 C 268.273438 181.5 268.597656 188.476562 269.144531 195.441406 C 269.296875 197.367188 269.253906 199.316406 269.222656 201.25 C 269.085938 209.433594 269.628906 217.609375 269.566406 225.789062 C 269.507812 233.226562 269.941406 240.648438 270.109375 248.074219 C 270.210938 252.378906 270.15625 256.695312 270.464844 260.988281 C 270.8125 265.847656 270.648438 270.71875 271.058594 275.574219 C 271.355469 279.128906 270.808594 282.675781 270.683594 286.230469 C 270.601562 288.503906 269.574219 289.472656 266.984375 289.859375 C 262.421875 290.542969 257.863281 291.097656 253.21875 291.101562 C 248.164062 291.109375 243.105469 291.648438 238.054688 291.316406 C 233.625 291.027344 229.195312 291.070312 224.765625 291.050781 C 223.011719 291.046875 223.011719 291.007812 222.644531 289.1875 C 222.21875 287.101562 222.140625 284.972656 222.046875 282.867188 C 221.675781 274.441406 221.667969 266.011719 221.527344 257.582031 C 221.425781 251.652344 221.414062 245.714844 221.132812 239.792969 C 220.960938 236.238281 221.003906 232.675781 220.789062 229.128906 C 220.433594 223.335938 220.300781 217.53125 220.003906 211.742188 C 219.652344 204.929688 219.953125 198.128906 219.796875 193.464844 Z M 200.300781 218.28125 C 200.300781 223.976562 200.355469 229.847656 200.289062 235.722656 C 200.175781 245.96875 200.464844 256.210938 200.753906 266.449219 C 200.964844 274.066406 200.960938 281.683594 201.023438 289.300781 C 201.027344 289.671875 201.042969 290.050781 201.007812 290.421875 C 200.898438 291.621094 200.464844 292.089844 199.253906 292.179688 C 197.386719 292.320312 195.519531 292.453125 193.648438 292.488281 C 190.152344 292.554688 186.632812 292.34375 183.15625 292.632812 C 178.671875 293.007812 174.175781 292.722656 169.691406 293.179688 C 167.03125 293.449219 164.324219 293.285156 161.636719 293.238281 C 160.089844 293.210938 159.777344 292.828125 159.332031 291.308594 C 158.78125 289.429688 158.882812 287.476562 158.667969 285.5625 C 157.75 277.484375 157.855469 269.363281 157.847656 261.25 C 157.839844 248.875 157.816406 236.5 157.957031 224.128906 C 158.015625 219.199219 158.097656 214.261719 158.363281 209.339844 C 158.519531 206.402344 158.664062 203.464844 158.53125 200.542969 C 157.996094 188.679688 158.585938 176.804688 158.144531 164.941406 C 157.988281 160.699219 158.019531 156.449219 157.769531 152.21875 C 157.257812 143.613281 157.027344 135.003906 157.128906 126.386719 C 157.132812 126.011719 157.113281 125.636719 157.136719 125.261719 C 157.21875 124.109375 157.429688 123.886719 158.621094 123.816406 C 159.371094 123.773438 160.121094 123.785156 160.871094 123.800781 C 165.371094 123.894531 169.871094 123.609375 174.347656 123.304688 C 178.28125 123.035156 182.203125 123.054688 186.136719 122.964844 C 188.503906 122.914062 190.871094 122.746094 193.242188 122.660156 C 194.238281 122.621094 195.242188 122.632812 196.238281 122.664062 C 198.699219 122.746094 199.015625 123.050781 199.046875 125.542969 C 199.105469 130.292969 198.9375 135.054688 199.214844 139.789062 C 199.625 146.84375 199.332031 153.90625 199.597656 160.953125 C 199.890625 168.636719 199.589844 176.324219 199.960938 183.996094 C 200.511719 195.363281 199.933594 206.734375 200.300781 218.28125 Z M 137.246094 180.054688 C 137.246094 184.433594 137.335938 187.6875 137.226562 190.933594 C 137.019531 197.050781 136.921875 203.167969 136.761719 209.285156 C 136.566406 216.585938 136.289062 223.890625 136.023438 231.1875 C 135.832031 236.433594 135.90625 241.683594 135.664062 246.921875 C 135.191406 257.164062 135.691406 267.414062 135.285156 277.652344 C 135.167969 280.515625 135.054688 283.382812 134.75 286.242188 C 134.542969 288.160156 134.628906 290.113281 134.628906 292.046875 C 134.628906 293.855469 134.488281 294.09375 132.679688 294.289062 C 131.191406 294.449219 129.6875 294.617188 128.207031 294.648438 C 121.96875 294.789062 115.769531 295.722656 109.511719 295.53125 C 104.824219 295.386719 100.1875 294.851562 95.578125 294.027344 C 94.609375 293.855469 94.164062 293.328125 94.117188 292.390625 C 94.09375 291.890625 94.058594 291.390625 94.050781 290.890625 C 93.964844 284.710938 93.730469 278.53125 93.621094 272.347656 C 93.464844 263.546875 93.015625 254.75 92.964844 245.941406 C 92.855469 226.816406 92.886719 207.691406 93.152344 188.574219 C 93.269531 180.261719 93.210938 171.953125 93.355469 163.648438 C 93.425781 159.527344 93.917969 155.433594 94.285156 151.332031 C 94.433594 149.71875 94.546875 148.097656 94.75 146.492188 C 94.917969 145.128906 94.964844 145.125 96.34375 145.101562 C 104.214844 144.972656 112.085938 144.890625 119.957031 144.714844 C 124.765625 144.605469 129.570312 144.402344 134.382812 144.414062 C 136.355469 144.417969 136.382812 144.410156 136.445312 146.347656 C 136.613281 151.652344 136.707031 156.960938 136.933594 162.265625 C 137.199219 168.570312 137.347656 174.875 137.246094 180.054688 Z M 248.378906 44.316406 C 247.863281 44.359375 247.609375 44.753906 247.292969 45.035156 C 243.226562 48.660156 238.851562 51.875 234.3125 54.875 C 227.804688 59.183594 221.347656 63.566406 214.828125 67.863281 C 203.765625 75.15625 192.304688 81.761719 180.277344 87.335938 C 165.273438 94.292969 150.207031 101.101562 134.980469 107.550781 C 117.597656 114.914062 99.675781 120.660156 81.5 125.699219 C 71.632812 128.4375 61.769531 131.136719 51.6875 132.964844 C 47.207031 133.773438 42.742188 134.707031 38.167969 134.902344 C 36.152344 134.988281 36.066406 134.957031 35.953125 132.910156 C 35.886719 131.726562 35.90625 130.539062 35.867188 129.351562 C 35.839844 128.457031 36.207031 127.9375 37.132812 127.835938 C 38.125 127.726562 39.109375 127.523438 40.101562 127.457031 C 43.9375 127.210938 47.566406 126 51.257812 125.105469 C 58.066406 123.457031 64.554688 120.828125 71.15625 118.546875 C 81.949219 114.824219 92.796875 111.269531 103.390625 106.980469 C 118.027344 101.050781 132.484375 94.722656 146.632812 87.703125 C 164.261719 78.957031 180.804688 68.519531 196.121094 56.132812 C 204.574219 49.292969 212.757812 42.136719 221.230469 35.328125 C 224.585938 32.628906 227.738281 29.671875 230.8125 26.644531 C 233.011719 24.484375 233.007812 24.472656 230.511719 22.585938 C 225.828125 19.046875 221.136719 15.511719 216.773438 11.570312 C 216.03125 10.902344 215.300781 10.210938 214.625 9.480469 C 214.167969 8.984375 213.609375 8.402344 213.839844 7.679688 C 214.089844 6.902344 214.933594 6.949219 215.59375 6.867188 C 216.210938 6.789062 216.839844 6.792969 217.464844 6.804688 C 222.847656 6.882812 228.183594 6.234375 233.539062 5.894531 C 244.886719 5.175781 256.230469 4.347656 267.613281 4.550781 C 269.070312 4.578125 269.472656 4.980469 269.453125 6.484375 C 269.445312 7.355469 269.363281 8.234375 269.234375 9.097656 C 268.34375 15.222656 267.941406 21.394531 267.476562 27.558594 C 266.90625 35.109375 265.667969 42.554688 264.226562 49.976562 C 263.558594 53.40625 263.039062 56.863281 262.453125 60.3125 C 262.347656 60.925781 262.253906 61.542969 262.148438 62.160156 C 262.070312 62.621094 261.855469 62.988281 261.363281 63.101562 C 260.8125 63.222656 260.390625 63.019531 260.09375 62.539062 C 259.832031 62.113281 259.59375 61.671875 259.292969 61.273438 C 255.667969 56.484375 252.527344 51.382812 249.601562 46.144531 C 249.242188 45.507812 248.945312 44.808594 248.378906 44.316406 Z M 30.386719 271.8125 C 30.386719 267.375 30.226562 262.933594 30.425781 258.507812 C 30.695312 252.648438 30.546875 246.78125 30.84375 240.9375 C 31.007812 237.699219 30.851562 234.441406 31.191406 231.234375 C 31.550781 227.867188 31.21875 224.488281 31.566406 221.152344 C 32.015625 216.789062 31.570312 212.414062 31.949219 208.074219 C 32.269531 204.394531 31.976562 200.710938 32.320312 197.058594 C 32.601562 194.128906 32.359375 191.1875 32.699219 188.292969 C 33.070312 185.113281 32.734375 181.925781 33.050781 178.773438 C 33.542969 173.914062 33.261719 169.054688 33.359375 164.195312 C 33.390625 162.660156 33.59375 162.523438 35.089844 162.410156 C 36.972656 162.269531 38.796875 162.808594 40.671875 162.796875 C 45.667969 162.765625 50.667969 162.886719 55.660156 162.777344 C 59.847656 162.6875 63.996094 163.289062 68.179688 163.183594 C 69.816406 163.144531 70.113281 163.542969 70.128906 165.191406 C 70.160156 168.683594 69.996094 172.164062 69.816406 175.648438 C 69.585938 180.136719 69.914062 184.648438 69.691406 189.136719 C 69.476562 193.496094 69.621094 197.871094 69.28125 202.210938 C 68.996094 205.828125 69.132812 209.433594 68.992188 213.042969 C 68.925781 214.785156 69.132812 216.53125 68.683594 218.257812 C 68.53125 218.84375 68.535156 219.53125 68.679688 220.121094 C 69.160156 222.097656 68.980469 224.09375 68.984375 226.082031 C 69.003906 242.136719 68.960938 258.1875 69.042969 274.242188 C 69.058594 277.273438 69.382812 280.316406 69.65625 283.347656 C 69.890625 285.953125 69.734375 288.589844 69.75 291.210938 C 69.753906 291.925781 69.460938 292.410156 68.726562 292.566406 C 68.242188 292.667969 67.765625 292.832031 67.273438 292.882812 C 60.703125 293.613281 54.105469 293.757812 47.5 293.675781 C 43.875 293.628906 40.253906 293.671875 36.628906 293.660156 C 35.949219 293.65625 35.269531 293.636719 34.585938 293.507812 C 31.550781 292.933594 30.414062 291.480469 30.394531 288.300781 C 30.355469 282.804688 30.382812 277.308594 30.382812 271.8125 C 30.386719 271.8125 30.386719 271.8125 30.386719 271.8125 Z M 30.386719 271.8125 " fill-opacity="1" fill-rule="nonzero"></path></g><g clip-path="url(#e9ef386e9f)"><path fill="#0f17d6" d="M 219.796875 193.464844 C 219.796875 186.386719 219.75 181.449219 219.8125 176.515625 C 219.875 171.519531 219.929688 166.519531 220.226562 161.539062 C 220.394531 158.730469 220.414062 155.925781 220.488281 153.121094 C 220.550781 150.8125 220.699219 148.507812 220.769531 146.203125 C 220.957031 140.148438 220.464844 134.097656 220.34375 128.042969 C 220.269531 124.363281 220.039062 120.667969 220.234375 117.003906 C 220.464844 112.695312 220.320312 108.382812 220.609375 104.089844 C 220.785156 101.480469 220.605469 98.847656 221.121094 96.253906 C 221.304688 95.320312 221.707031 95.046875 222.589844 94.957031 C 230.113281 94.207031 237.65625 94.140625 245.210938 94.085938 C 248.195312 94.0625 251.207031 93.585938 254.175781 93.917969 C 257.363281 94.269531 260.53125 94.179688 263.714844 94.191406 C 264.277344 94.191406 264.839844 94.152344 265.398438 94.171875 C 266.875 94.226562 267.28125 94.605469 267.285156 96.101562 C 267.289062 97.46875 267.359375 98.84375 267.101562 100.210938 C 266.867188 101.453125 267.265625 102.695312 267.273438 103.9375 C 267.316406 110.246094 267.539062 116.570312 267.25 122.867188 C 266.925781 129.925781 266.816406 136.984375 267.101562 144.027344 C 267.3125 149.253906 267.617188 154.484375 268.015625 159.707031 C 268.066406 160.390625 268.058594 161.078125 268.0625 161.765625 C 268.085938 166.015625 268.050781 170.265625 268.136719 174.515625 C 268.273438 181.5 268.597656 188.476562 269.144531 195.441406 C 269.296875 197.367188 269.253906 199.316406 269.222656 201.25 C 269.085938 209.433594 269.628906 217.609375 269.566406 225.789062 C 269.507812 233.226562 269.941406 240.648438 270.109375 248.074219 C 270.210938 252.378906 270.15625 256.695312 270.464844 260.988281 C 270.8125 265.847656 270.648438 270.71875 271.058594 275.574219 C 271.355469 279.128906 270.808594 282.675781 270.683594 286.230469 C 270.601562 288.503906 269.574219 289.472656 266.984375 289.859375 C 262.421875 290.542969 257.863281 291.097656 253.21875 291.101562 C 248.164062 291.109375 243.105469 291.648438 238.054688 291.316406 C 233.625 291.027344 229.195312 291.070312 224.765625 291.050781 C 223.011719 291.046875 223.011719 291.007812 222.644531 289.1875 C 222.21875 287.101562 222.140625 284.972656 222.046875 282.867188 C 221.675781 274.441406 221.667969 266.011719 221.527344 257.582031 C 221.425781 251.652344 221.414062 245.714844 221.132812 239.792969 C 220.960938 236.238281 221.003906 232.675781 220.789062 229.128906 C 220.433594 223.335938 220.300781 217.53125 220.003906 211.742188 C 219.652344 204.929688 219.953125 198.128906 219.796875 193.464844 Z M 219.796875 193.464844 " fill-opacity="1" fill-rule="nonzero"></path></g><path fill="#0f17d6" d="M 200.300781 218.28125 C 200.300781 223.976562 200.355469 229.847656 200.289062 235.722656 C 200.175781 245.96875 200.464844 256.210938 200.753906 266.449219 C 200.964844 274.066406 200.960938 281.683594 201.023438 289.300781 C 201.027344 289.671875 201.042969 290.050781 201.007812 290.421875 C 200.898438 291.621094 200.464844 292.089844 199.253906 292.179688 C 197.386719 292.320312 195.519531 292.453125 193.648438 292.488281 C 190.152344 292.554688 186.632812 292.34375 183.15625 292.632812 C 178.671875 293.007812 174.175781 292.722656 169.691406 293.179688 C 167.03125 293.449219 164.324219 293.285156 161.636719 293.238281 C 160.089844 293.210938 159.777344 292.828125 159.332031 291.308594 C 158.78125 289.429688 158.882812 287.476562 158.667969 285.5625 C 157.75 277.484375 157.855469 269.363281 157.847656 261.25 C 157.839844 248.875 157.816406 236.5 157.957031 224.128906 C 158.015625 219.199219 158.097656 214.261719 158.363281 209.339844 C 158.519531 206.402344 158.664062 203.464844 158.53125 200.542969 C 157.996094 188.679688 158.585938 176.804688 158.144531 164.941406 C 157.988281 160.699219 158.019531 156.449219 157.769531 152.21875 C 157.257812 143.613281 157.027344 135.003906 157.128906 126.386719 C 157.132812 126.011719 157.113281 125.636719 157.136719 125.261719 C 157.21875 124.109375 157.429688 123.886719 158.621094 123.816406 C 159.371094 123.773438 160.121094 123.785156 160.871094 123.800781 C 165.371094 123.894531 169.871094 123.609375 174.347656 123.304688 C 178.28125 123.035156 182.203125 123.054688 186.136719 122.964844 C 188.503906 122.914062 190.871094 122.746094 193.242188 122.660156 C 194.238281 122.621094 195.242188 122.632812 196.238281 122.664062 C 198.699219 122.746094 199.015625 123.050781 199.046875 125.542969 C 199.105469 130.292969 198.9375 135.054688 199.214844 139.789062 C 199.625 146.84375 199.332031 153.90625 199.597656 160.953125 C 199.890625 168.636719 199.589844 176.324219 199.960938 183.996094 C 200.511719 195.363281 199.933594 206.734375 200.300781 218.28125 Z M 200.300781 218.28125 " fill-opacity="1" fill-rule="nonzero"></path><g clip-path="url(#b5161604ec)"><path fill="#0f17d6" d="M 137.246094 180.054688 C 137.246094 184.433594 137.335938 187.6875 137.226562 190.933594 C 137.019531 197.050781 136.921875 203.167969 136.761719 209.285156 C 136.566406 216.585938 136.289062 223.890625 136.023438 231.1875 C 135.832031 236.433594 135.90625 241.683594 135.664062 246.921875 C 135.191406 257.164062 135.691406 267.414062 135.285156 277.652344 C 135.167969 280.515625 135.054688 283.382812 134.75 286.242188 C 134.542969 288.160156 134.628906 290.113281 134.628906 292.046875 C 134.628906 293.855469 134.488281 294.09375 132.679688 294.289062 C 131.191406 294.449219 129.6875 294.617188 128.207031 294.648438 C 121.96875 294.789062 115.769531 295.722656 109.511719 295.53125 C 104.824219 295.386719 100.1875 294.851562 95.578125 294.027344 C 94.609375 293.855469 94.164062 293.328125 94.117188 292.390625 C 94.09375 291.890625 94.058594 291.390625 94.050781 290.890625 C 93.964844 284.710938 93.730469 278.53125 93.621094 272.347656 C 93.464844 263.546875 93.015625 254.75 92.964844 245.941406 C 92.855469 226.816406 92.886719 207.691406 93.152344 188.574219 C 93.269531 180.261719 93.210938 171.953125 93.355469 163.648438 C 93.425781 159.527344 93.917969 155.433594 94.285156 151.332031 C 94.433594 149.71875 94.546875 148.097656 94.75 146.492188 C 94.917969 145.128906 94.964844 145.125 96.34375 145.101562 C 104.214844 144.972656 112.085938 144.890625 119.957031 144.714844 C 124.765625 144.605469 129.570312 144.402344 134.382812 144.414062 C 136.355469 144.417969 136.382812 144.410156 136.445312 146.347656 C 136.613281 151.652344 136.707031 156.960938 136.933594 162.265625 C 137.199219 168.570312 137.347656 174.875 137.246094 180.054688 Z M 137.246094 180.054688 " fill-opacity="1" fill-rule="nonzero"></path></g><g clip-path="url(#00ad4fae46)"><path fill="#0f17d6" d="M 248.378906 44.316406 C 247.863281 44.359375 247.609375 44.753906 247.292969 45.035156 C 243.226562 48.660156 238.851562 51.875 234.3125 54.875 C 227.804688 59.183594 221.347656 63.566406 214.828125 67.863281 C 203.765625 75.15625 192.304688 81.761719 180.277344 87.335938 C 165.273438 94.292969 150.207031 101.101562 134.980469 107.550781 C 117.597656 114.914062 99.675781 120.660156 81.5 125.699219 C 71.632812 128.4375 61.769531 131.136719 51.6875 132.964844 C 47.207031 133.773438 42.742188 134.707031 38.167969 134.902344 C 36.152344 134.988281 36.066406 134.957031 35.953125 132.910156 C 35.886719 131.726562 35.90625 130.539062 35.867188 129.351562 C 35.839844 128.457031 36.207031 127.9375 37.132812 127.835938 C 38.125 127.726562 39.109375 127.523438 40.101562 127.457031 C 43.9375 127.210938 47.566406 126 51.257812 125.105469 C 58.066406 123.457031 64.554688 120.828125 71.15625 118.546875 C 81.949219 114.824219 92.796875 111.269531 103.390625 106.980469 C 118.027344 101.050781 132.484375 94.722656 146.632812 87.703125 C 164.261719 78.957031 180.804688 68.519531 196.121094 56.132812 C 204.574219 49.292969 212.757812 42.136719 221.230469 35.328125 C 224.585938 32.628906 227.738281 29.671875 230.8125 26.644531 C 233.011719 24.484375 233.007812 24.472656 230.511719 22.585938 C 225.828125 19.046875 221.136719 15.511719 216.773438 11.570312 C 216.03125 10.902344 215.300781 10.210938 214.625 9.480469 C 214.167969 8.984375 213.609375 8.402344 213.839844 7.679688 C 214.089844 6.902344 214.933594 6.949219 215.59375 6.867188 C 216.210938 6.789062 216.839844 6.792969 217.464844 6.804688 C 222.847656 6.882812 228.183594 6.234375 233.539062 5.894531 C 244.886719 5.175781 256.230469 4.347656 267.613281 4.550781 C 269.070312 4.578125 269.472656 4.980469 269.453125 6.484375 C 269.445312 7.355469 269.363281 8.234375 269.234375 9.097656 C 268.34375 15.222656 267.941406 21.394531 267.476562 27.558594 C 266.90625 35.109375 265.667969 42.554688 264.226562 49.976562 C 263.558594 53.40625 263.039062 56.863281 262.453125 60.3125 C 262.347656 60.925781 262.253906 61.542969 262.148438 62.160156 C 262.070312 62.621094 261.855469 62.988281 261.363281 63.101562 C 260.8125 63.222656 260.390625 63.019531 260.09375 62.539062 C 259.832031 62.113281 259.59375 61.671875 259.292969 61.273438 C 255.667969 56.484375 252.527344 51.382812 249.601562 46.144531 C 249.242188 45.507812 248.945312 44.808594 248.378906 44.316406 Z M 248.378906 44.316406 " fill-opacity="1" fill-rule="nonzero"></path></g><path fill="#0f17d6" d="M 30.386719 271.8125 C 30.386719 267.375 30.226562 262.933594 30.425781 258.507812 C 30.695312 252.648438 30.546875 246.78125 30.84375 240.9375 C 31.007812 237.699219 30.851562 234.441406 31.191406 231.234375 C 31.550781 227.867188 31.21875 224.488281 31.566406 221.152344 C 32.015625 216.789062 31.570312 212.414062 31.949219 208.074219 C 32.269531 204.394531 31.976562 200.710938 32.320312 197.058594 C 32.601562 194.128906 32.359375 191.1875 32.699219 188.292969 C 33.070312 185.113281 32.734375 181.925781 33.050781 178.773438 C 33.542969 173.914062 33.261719 169.054688 33.359375 164.195312 C 33.390625 162.660156 33.59375 162.523438 35.089844 162.410156 C 36.972656 162.269531 38.796875 162.808594 40.671875 162.796875 C 45.667969 162.765625 50.667969 162.886719 55.660156 162.777344 C 59.847656 162.6875 63.996094 163.289062 68.179688 163.183594 C 69.816406 163.144531 70.113281 163.542969 70.128906 165.191406 C 70.160156 168.683594 69.996094 172.164062 69.816406 175.648438 C 69.585938 180.136719 69.914062 184.648438 69.691406 189.136719 C 69.476562 193.496094 69.621094 197.871094 69.28125 202.210938 C 68.996094 205.828125 69.132812 209.433594 68.992188 213.042969 C 68.925781 214.785156 69.132812 216.53125 68.683594 218.257812 C 68.53125 218.84375 68.535156 219.53125 68.679688 220.121094 C 69.160156 222.097656 68.980469 224.09375 68.984375 226.082031 C 69.003906 242.136719 68.960938 258.1875 69.042969 274.242188 C 69.058594 277.273438 69.382812 280.316406 69.65625 283.347656 C 69.890625 285.953125 69.734375 288.589844 69.75 291.210938 C 69.753906 291.925781 69.460938 292.410156 68.726562 292.566406 C 68.242188 292.667969 67.765625 292.832031 67.273438 292.882812 C 60.703125 293.613281 54.105469 293.757812 47.5 293.675781 C 43.875 293.628906 40.253906 293.671875 36.628906 293.660156 C 35.949219 293.65625 35.269531 293.636719 34.585938 293.507812 C 31.550781 292.933594 30.414062 291.480469 30.394531 288.300781 C 30.355469 282.804688 30.382812 277.308594 30.382812 271.8125 C 30.386719 271.8125 30.386719 271.8125 30.386719 271.8125 Z M 30.386719 271.8125 " fill-opacity="1" fill-rule="nonzero"></path></svg>