<?xml version="1.0" encoding="UTF-8"?>
<svg xmlns="http://www.w3.org/2000/svg" xmlns:xlink="http://www.w3.org/1999/xlink" width="400" zoomAndPan="magnify" viewBox="0 0 300 299.999988" height="400" preserveAspectRatio="xMidYMid meet" version="1.0">
  <path fill="#caddff" d="M 115.945312 25.023438 C 100.507812 30.980469 34.648438 56.398438 18.46875 117.691406 C 0.015625 187.578125 55.203125 269.859375 131.484375 285.023438 C 210.617188 300.75 300 263.78125 292.980469 206.503906 C 289.777344 180.375 254.15625 172.46875 255.804688 141.6875 C 257.414062 111.65625 295.28125 96.933594 291.3125 61.191406 C 291.0625 58.945312 290.265625 52.222656 286.886719 45.496094 C 267.695312 7.3125 180.792969 -0.00390625 115.945312 25.023438 " fill-opacity="1" fill-rule="nonzero"></path>
  <path fill="#99b9ff" d="M 208.839844 33.550781 C 213.074219 30.695312 218.828125 31.8125 221.683594 36.042969 C 224.542969 40.273438 223.425781 46.023438 219.1875 48.878906 C 214.953125 51.734375 209.203125 50.617188 206.347656 46.386719 C 203.484375 42.15625 204.601562 36.40625 208.839844 33.550781 Z M 197.597656 50.117188 L 199.609375 53.09375 L 203.265625 51.671875 C 203.855469 52.277344 204.484375 52.828125 205.152344 53.316406 L 204.25 57.128906 L 207.484375 58.703125 L 209.9375 55.640625 C 210.742188 55.867188 211.5625 56.023438 212.394531 56.117188 L 213.523438 59.875 L 217.109375 59.621094 L 217.703125 55.75 C 218.503906 55.546875 219.292969 55.273438 220.066406 54.929688 L 222.925781 57.617188 L 225.90625 55.609375 L 224.476562 51.953125 C 225.085938 51.367188 225.636719 50.738281 226.125 50.070312 L 229.941406 50.96875 L 231.515625 47.742188 L 228.453125 45.289062 C 228.675781 44.484375 228.835938 43.664062 228.929688 42.835938 L 232.6875 41.707031 L 232.4375 38.125 L 228.5625 37.53125 C 228.359375 36.730469 228.082031 35.941406 227.742188 35.167969 L 230.433594 32.3125 L 228.421875 29.335938 L 224.765625 30.757812 C 224.175781 30.152344 223.546875 29.605469 222.875 29.117188 L 223.777344 25.300781 L 220.546875 23.730469 L 218.089844 26.789062 C 217.285156 26.566406 216.464844 26.40625 215.636719 26.3125 L 214.507812 22.558594 L 210.921875 22.808594 L 210.328125 26.679688 C 209.523438 26.882812 208.734375 27.15625 207.960938 27.5 L 205.105469 24.8125 L 202.121094 26.820312 L 203.550781 30.472656 C 202.941406 31.0625 202.394531 31.695312 201.90625 32.359375 L 198.085938 31.460938 L 196.515625 34.691406 L 199.578125 37.140625 C 199.351562 37.945312 199.191406 38.765625 199.101562 39.59375 L 195.339844 40.722656 L 195.589844 44.308594 L 199.46875 44.898438 C 199.671875 45.699219 199.945312 46.488281 200.289062 47.261719 L 197.597656 50.117188 " fill-opacity="1" fill-rule="nonzero"></path>
  <path fill="#5479f7" d="M 63.367188 181 L 271.011719 181.472656 C 272.828125 181.472656 274.359375 180.070312 274.589844 178.203125 L 291.128906 44.316406 C 291.535156 41.058594 289.238281 37.980469 286.074219 37.980469 L 81.117188 38.175781 L 63.367188 181 " fill-opacity="1" fill-rule="nonzero"></path>
  <path fill="#ffffff" d="M 59.109375 180.832031 L 262.609375 180.832031 C 264.421875 180.832031 265.953125 179.429688 266.1875 177.554688 L 282.625 44.875 C 283.078125 41.1875 280.324219 37.925781 276.757812 37.925781 L 75.882812 37.925781 C 74.070312 37.925781 72.535156 39.328125 72.304688 41.199219 L 55.53125 176.59375 C 55.253906 178.839844 56.933594 180.832031 59.109375 180.832031 " fill-opacity="1" fill-rule="nonzero"></path>
  <path fill="#000000" d="M 262.667969 181.398438 L 59.171875 181.398438 C 58.019531 181.398438 56.914062 180.890625 56.136719 180.011719 C 55.320312 179.089844 54.9375 177.847656 55.09375 176.605469 L 71.863281 41.625 C 72.125 39.507812 73.878906 37.914062 75.941406 37.914062 L 154.964844 37.914062 C 155.242188 37.914062 155.46875 38.140625 155.46875 38.417969 C 155.46875 38.695312 155.242188 38.921875 154.964844 38.921875 L 75.941406 38.921875 C 74.386719 38.921875 73.0625 40.136719 72.863281 41.75 L 56.09375 176.726562 C 55.972656 177.683594 56.265625 178.636719 56.890625 179.347656 C 57.484375 180.019531 58.292969 180.390625 59.171875 180.390625 L 262.667969 180.390625 C 264.222656 180.390625 265.542969 179.175781 265.746094 177.5625 L 282.183594 45.285156 C 282.386719 43.628906 281.882812 41.96875 280.792969 40.742188 C 279.757812 39.566406 278.34375 38.921875 276.816406 38.921875 L 252.246094 38.921875 C 251.96875 38.921875 251.742188 38.695312 251.742188 38.417969 C 251.742188 38.140625 251.96875 37.914062 252.246094 37.914062 L 276.816406 37.914062 C 278.613281 37.914062 280.339844 38.703125 281.550781 40.074219 C 282.828125 41.519531 283.421875 43.464844 283.183594 45.410156 L 266.746094 177.6875 C 266.484375 179.800781 264.730469 181.398438 262.667969 181.398438 " fill-opacity="1" fill-rule="nonzero"></path>
  <path fill="#caddff" d="M 83.09375 168.632812 L 87.628906 132.867188 L 74.796875 132.867188 L 70.265625 168.632812 L 83.09375 168.632812 " fill-opacity="1" fill-rule="nonzero"></path>
  <path fill="#caddff" d="M 98.476562 168.632812 L 105.042969 119.234375 L 92.210938 119.234375 L 85.648438 168.632812 L 98.476562 168.632812 " fill-opacity="1" fill-rule="nonzero"></path>
  <path fill="#caddff" d="M 113.859375 168.632812 L 119.84375 123.003906 L 107.011719 123.003906 L 101.03125 168.632812 L 113.859375 168.632812 " fill-opacity="1" fill-rule="nonzero"></path>
  <path fill="#99b9ff" d="M 129.242188 168.632812 L 137.550781 106.183594 L 124.71875 106.183594 L 116.414062 168.632812 L 129.242188 168.632812 " fill-opacity="1" fill-rule="nonzero"></path>
  <path fill="#caddff" d="M 144.628906 168.632812 L 154.964844 90.949219 L 142.132812 90.949219 L 131.796875 168.632812 L 144.628906 168.632812 " fill-opacity="1" fill-rule="nonzero"></path>
  <path fill="#caddff" d="M 160.007812 168.632812 L 169.722656 96.886719 L 156.890625 96.886719 L 147.179688 168.632812 L 160.007812 168.632812 " fill-opacity="1" fill-rule="nonzero"></path>
  <path fill="#99b9ff" d="M 175.683594 168.632812 L 186.800781 87.386719 L 173.96875 87.386719 L 162.855469 168.632812 L 175.683594 168.632812 " fill-opacity="1" fill-rule="nonzero"></path>
  <path fill="#caddff" d="M 191.359375 168.59375 L 203.347656 81.753906 L 190.515625 81.753906 L 178.527344 168.59375 L 191.359375 168.59375 " fill-opacity="1" fill-rule="nonzero"></path>
  <path fill="#99b9ff" d="M 207.027344 168.597656 L 219.761719 78.585938 L 206.933594 78.585938 L 194.199219 168.597656 L 207.027344 168.597656 " fill-opacity="1" fill-rule="nonzero"></path>
  <path fill="#99b9ff" d="M 222.703125 168.632812 L 237.710938 62.386719 L 224.875 62.386719 L 209.875 168.632812 L 222.703125 168.632812 " fill-opacity="1" fill-rule="nonzero"></path>
  <path fill="#caddff" d="M 238.375 168.632812 L 251.546875 75.09375 L 238.714844 75.09375 L 225.546875 168.632812 L 238.375 168.632812 " fill-opacity="1" fill-rule="nonzero"></path>
  <path fill="#caddff" d="M 254.050781 168.632812 L 268.328125 66.808594 L 255.496094 66.808594 L 241.222656 168.632812 L 254.050781 168.632812 " fill-opacity="1" fill-rule="nonzero"></path>
  <path fill="#000000" d="M 164.367188 87.65625 C 164.238281 87.65625 164.109375 87.605469 164.011719 87.507812 L 155.511719 79.015625 C 155.316406 78.820312 155.316406 78.503906 155.511719 78.304688 C 155.710938 78.109375 156.027344 78.109375 156.222656 78.304688 L 164.367188 86.441406 L 189.957031 60.871094 C 190.152344 60.675781 190.472656 60.675781 190.671875 60.871094 L 203.792969 73.984375 L 225.191406 52.382812 C 225.386719 52.183594 225.703125 52.183594 225.902344 52.378906 C 226.097656 52.574219 226.101562 52.894531 225.90625 53.089844 L 204.152344 75.050781 C 204.058594 75.148438 203.929688 75.203125 203.792969 75.203125 C 203.660156 75.203125 203.53125 75.148438 203.4375 75.054688 L 190.3125 61.941406 L 164.722656 87.507812 C 164.625 87.605469 164.5 87.65625 164.367188 87.65625 " fill-opacity="1" fill-rule="nonzero"></path>
  <path fill="#000000" d="M 76.984375 125.789062 C 76.855469 125.789062 76.726562 125.742188 76.625 125.644531 C 76.429688 125.445312 76.429688 125.128906 76.625 124.929688 L 98.796875 102.78125 C 98.992188 102.582031 99.3125 102.582031 99.507812 102.78125 L 111.128906 114.390625 L 146.953125 78.597656 C 147.148438 78.402344 147.46875 78.402344 147.664062 78.597656 C 147.863281 78.792969 147.863281 79.113281 147.664062 79.308594 L 111.484375 115.457031 C 111.289062 115.65625 110.96875 115.65625 110.773438 115.457031 L 99.152344 103.847656 L 77.339844 125.644531 C 77.242188 125.742188 77.113281 125.789062 76.984375 125.789062 " fill-opacity="1" fill-rule="nonzero"></path>
  <path fill="#99b9ff" d="M 96.992188 103.136719 C 96.992188 101.945312 97.957031 100.976562 99.152344 100.976562 C 100.347656 100.976562 101.3125 101.945312 101.3125 103.136719 C 101.3125 104.328125 100.347656 105.296875 99.152344 105.296875 C 97.957031 105.296875 96.992188 104.328125 96.992188 103.136719 " fill-opacity="1" fill-rule="nonzero"></path>
  <path fill="#000000" d="M 99.152344 99.96875 C 97.40625 99.96875 95.984375 101.390625 95.984375 103.136719 C 95.984375 104.882812 97.40625 106.300781 99.152344 106.300781 C 100.898438 106.300781 102.320312 104.882812 102.320312 103.136719 C 102.320312 101.390625 100.898438 99.96875 99.152344 99.96875 Z M 99.152344 100.976562 C 100.347656 100.976562 101.3125 101.945312 101.3125 103.136719 C 101.3125 104.328125 100.347656 105.296875 99.152344 105.296875 C 97.957031 105.296875 96.992188 104.328125 96.992188 103.136719 C 96.992188 101.945312 97.957031 100.976562 99.152344 100.976562 " fill-opacity="1" fill-rule="nonzero"></path>
  <path fill="#caddff" d="M 162.273438 87.066406 C 162.273438 85.871094 163.242188 84.90625 164.433594 84.90625 C 165.625 84.90625 166.59375 85.871094 166.59375 87.066406 C 166.59375 88.257812 165.625 89.226562 164.433594 89.226562 C 163.242188 89.226562 162.273438 88.257812 162.273438 87.066406 " fill-opacity="1" fill-rule="nonzero"></path>
  <path fill="#000000" d="M 164.433594 85.410156 C 163.519531 85.410156 162.777344 86.152344 162.777344 87.066406 C 162.777344 87.980469 163.519531 88.722656 164.433594 88.722656 C 165.347656 88.722656 166.089844 87.980469 166.089844 87.066406 C 166.089844 86.152344 165.347656 85.410156 164.433594 85.410156 Z M 164.433594 89.730469 C 162.964844 89.730469 161.769531 88.535156 161.769531 87.066406 C 161.769531 85.597656 162.964844 84.402344 164.433594 84.402344 C 165.902344 84.402344 167.097656 85.597656 167.097656 87.066406 C 167.097656 88.535156 165.902344 89.730469 164.433594 89.730469 " fill-opacity="1" fill-rule="nonzero"></path>
  <path fill="#99b9ff" d="M 188.375 60.984375 C 188.375 59.792969 189.34375 58.828125 190.535156 58.828125 C 191.730469 58.828125 192.695312 59.792969 192.695312 60.984375 C 192.695312 62.179688 191.730469 63.144531 190.535156 63.144531 C 189.34375 63.144531 188.375 62.179688 188.375 60.984375 " fill-opacity="1" fill-rule="nonzero"></path>
  <path fill="#000000" d="M 190.535156 57.820312 C 188.789062 57.820312 187.367188 59.242188 187.367188 60.988281 C 187.367188 62.730469 188.789062 64.152344 190.535156 64.152344 C 192.28125 64.152344 193.703125 62.730469 193.703125 60.988281 C 193.703125 59.242188 192.28125 57.820312 190.535156 57.820312 Z M 190.535156 58.828125 C 191.726562 58.828125 192.695312 59.792969 192.695312 60.988281 C 192.695312 62.179688 191.726562 63.148438 190.535156 63.148438 C 189.339844 63.148438 188.375 62.179688 188.375 60.988281 C 188.375 59.792969 189.339844 58.828125 190.535156 58.828125 " fill-opacity="1" fill-rule="nonzero"></path>
  <path fill="#caddff" d="M 201.898438 74.71875 C 201.898438 73.527344 202.867188 72.558594 204.058594 72.558594 C 205.253906 72.558594 206.21875 73.527344 206.21875 74.71875 C 206.21875 75.910156 205.253906 76.878906 204.058594 76.878906 C 202.867188 76.878906 201.898438 75.910156 201.898438 74.71875 " fill-opacity="1" fill-rule="nonzero"></path>
  <path fill="#000000" d="M 204.0625 73.0625 C 203.148438 73.0625 202.402344 73.804688 202.402344 74.71875 C 202.402344 75.632812 203.148438 76.371094 204.0625 76.371094 C 204.976562 76.371094 205.71875 75.632812 205.71875 74.71875 C 205.71875 73.804688 204.976562 73.0625 204.0625 73.0625 Z M 204.0625 77.378906 C 202.59375 77.378906 201.398438 76.1875 201.398438 74.71875 C 201.398438 73.25 202.59375 72.054688 204.0625 72.054688 C 205.53125 72.054688 206.726562 73.25 206.726562 74.71875 C 206.726562 76.1875 205.53125 77.378906 204.0625 77.378906 " fill-opacity="1" fill-rule="nonzero"></path>
  <path fill="#5479f7" d="M 225.375 49.886719 C 225.375 48.3125 226.652344 47.035156 228.226562 47.035156 C 229.800781 47.035156 231.078125 48.3125 231.078125 49.886719 C 231.078125 51.460938 229.800781 52.734375 228.226562 52.734375 C 226.652344 52.734375 225.375 51.460938 225.375 49.886719 " fill-opacity="1" fill-rule="nonzero"></path>
  <path fill="#000000" d="M 228.226562 46.03125 C 226.097656 46.03125 224.367188 47.761719 224.367188 49.886719 C 224.367188 52.015625 226.097656 53.742188 228.226562 53.742188 C 230.351562 53.742188 232.085938 52.015625 232.085938 49.886719 C 232.085938 47.761719 230.351562 46.03125 228.226562 46.03125 Z M 228.226562 47.039062 C 229.800781 47.039062 231.078125 48.3125 231.078125 49.886719 C 231.078125 51.460938 229.800781 52.738281 228.226562 52.738281 C 226.652344 52.738281 225.371094 51.460938 225.371094 49.886719 C 225.371094 48.3125 226.652344 47.039062 228.226562 47.039062 " fill-opacity="1" fill-rule="nonzero"></path>
  <path fill="#caddff" d="M 109.167969 114.851562 C 109.167969 113.660156 110.136719 112.695312 111.328125 112.695312 C 112.523438 112.695312 113.488281 113.660156 113.488281 114.851562 C 113.488281 116.042969 112.523438 117.011719 111.328125 117.011719 C 110.136719 117.011719 109.167969 116.042969 109.167969 114.851562 " fill-opacity="1" fill-rule="nonzero"></path>
  <path fill="#000000" d="M 111.328125 113.195312 C 110.414062 113.195312 109.671875 113.941406 109.671875 114.851562 C 109.671875 115.765625 110.414062 116.507812 111.328125 116.507812 C 112.242188 116.507812 112.984375 115.765625 112.984375 114.851562 C 112.984375 113.941406 112.242188 113.195312 111.328125 113.195312 Z M 111.328125 117.515625 C 109.859375 117.515625 108.664062 116.320312 108.664062 114.851562 C 108.664062 113.382812 109.859375 112.1875 111.328125 112.1875 C 112.796875 112.1875 113.992188 113.382812 113.992188 114.851562 C 113.992188 116.320312 112.796875 117.515625 111.328125 117.515625 " fill-opacity="1" fill-rule="nonzero"></path>
  <path fill="#99b9ff" d="M 149.570312 74.699219 C 149.570312 73.507812 150.535156 72.539062 151.730469 72.539062 C 152.921875 72.539062 153.890625 73.507812 153.890625 74.699219 C 153.890625 75.890625 152.921875 76.859375 151.730469 76.859375 C 150.535156 76.859375 149.570312 75.890625 149.570312 74.699219 " fill-opacity="1" fill-rule="nonzero"></path>
  <path fill="#000000" d="M 151.730469 71.53125 C 149.984375 71.53125 148.5625 72.953125 148.5625 74.699219 C 148.5625 76.445312 149.984375 77.863281 151.730469 77.863281 C 153.476562 77.863281 154.898438 76.445312 154.898438 74.699219 C 154.898438 72.953125 153.476562 71.53125 151.730469 71.53125 Z M 151.730469 72.539062 C 152.925781 72.539062 153.894531 73.507812 153.894531 74.699219 C 153.894531 75.890625 152.925781 76.859375 151.730469 76.859375 C 150.539062 76.859375 149.570312 75.890625 149.570312 74.699219 C 149.570312 73.507812 150.539062 72.539062 151.730469 72.539062 " fill-opacity="1" fill-rule="nonzero"></path>
  <path fill="#caddff" d="M 74.335938 125.453125 C 74.335938 124.261719 75.300781 123.296875 76.496094 123.296875 C 77.6875 123.296875 78.65625 124.261719 78.65625 125.453125 C 78.65625 126.648438 77.6875 127.613281 76.496094 127.613281 C 75.300781 127.613281 74.335938 126.648438 74.335938 125.453125 " fill-opacity="1" fill-rule="nonzero"></path>
  <path fill="#000000" d="M 76.496094 123.800781 C 75.582031 123.800781 74.839844 124.542969 74.839844 125.453125 C 74.839844 126.367188 75.582031 127.109375 76.496094 127.109375 C 77.410156 127.109375 78.152344 126.367188 78.152344 125.453125 C 78.152344 124.542969 77.410156 123.800781 76.496094 123.800781 Z M 76.496094 128.117188 C 75.027344 128.117188 73.832031 126.921875 73.832031 125.453125 C 73.832031 123.988281 75.027344 122.792969 76.496094 122.792969 C 77.964844 122.792969 79.160156 123.988281 79.160156 125.453125 C 79.160156 126.921875 77.964844 128.117188 76.496094 128.117188 " fill-opacity="1" fill-rule="nonzero"></path>
  <path fill="#000000" d="M 75.804688 210.433594 L 190.429688 210.679688 C 191.429688 210.679688 192.277344 209.933594 192.402344 208.941406 L 201.535156 137.585938 C 201.757812 135.847656 200.488281 134.210938 198.746094 134.210938 L 85.605469 134.3125 L 75.804688 210.433594 " fill-opacity="1" fill-rule="nonzero"></path>
  <path fill="#ffffff" d="M 73.925781 210.316406 L 186.257812 210.316406 C 187.257812 210.316406 188.105469 209.574219 188.234375 208.578125 L 197.304688 138.140625 C 197.558594 136.183594 196.039062 134.449219 194.066406 134.449219 L 83.183594 134.449219 C 82.183594 134.449219 81.335938 135.195312 81.207031 136.191406 L 71.949219 208.066406 C 71.796875 209.261719 72.726562 210.316406 73.925781 210.316406 " fill-opacity="1" fill-rule="nonzero"></path>
  <path fill="#000000" d="M 83.183594 134.953125 C 82.4375 134.953125 81.804688 135.511719 81.707031 136.253906 L 72.449219 208.132812 C 72.394531 208.558594 72.527344 208.988281 72.808594 209.3125 C 73.09375 209.632812 73.5 209.816406 73.925781 209.816406 L 186.257812 209.816406 C 187.003906 209.816406 187.636719 209.257812 187.734375 208.515625 L 196.804688 138.074219 C 196.910156 137.285156 196.664062 136.488281 196.136719 135.890625 C 195.613281 135.296875 194.859375 134.953125 194.066406 134.953125 Z M 186.257812 210.820312 L 73.925781 210.820312 C 73.210938 210.820312 72.527344 210.511719 72.054688 209.976562 C 71.578125 209.433594 71.359375 208.714844 71.449219 208.003906 L 80.707031 136.125 C 80.867188 134.882812 81.933594 133.945312 83.183594 133.945312 L 194.066406 133.945312 C 195.148438 133.945312 196.179688 134.414062 196.894531 135.226562 C 197.613281 136.039062 197.945312 137.128906 197.804688 138.203125 L 188.734375 208.640625 C 188.570312 209.886719 187.507812 210.820312 186.257812 210.820312 " fill-opacity="1" fill-rule="nonzero"></path>
  <path fill="#caddff" d="M 151.390625 151.015625 L 188.949219 151.015625 C 189.046875 151.015625 189.125 150.949219 189.140625 150.855469 L 189.503906 148.675781 C 189.523438 148.558594 189.433594 148.449219 189.3125 148.449219 L 151.753906 148.449219 C 151.660156 148.449219 151.582031 148.519531 151.5625 148.613281 L 151.199219 150.792969 C 151.179688 150.910156 151.269531 151.015625 151.390625 151.015625 " fill-opacity="1" fill-rule="nonzero"></path>
  <path fill="#5479f7" d="M 146.125 151.015625 L 149.480469 151.015625 C 149.59375 151.015625 149.691406 150.933594 149.710938 150.820312 L 150.0625 148.726562 C 150.085938 148.582031 149.972656 148.449219 149.828125 148.449219 L 146.472656 148.449219 C 146.359375 148.449219 146.261719 148.535156 146.242188 148.648438 L 145.890625 150.742188 C 145.867188 150.886719 145.980469 151.015625 146.125 151.015625 " fill-opacity="1" fill-rule="nonzero"></path>
  <path fill="#5479f7" d="M 91.492188 157.882812 L 94.847656 157.882812 C 94.960938 157.882812 95.058594 157.800781 95.078125 157.6875 L 95.425781 155.59375 C 95.453125 155.449219 95.339844 155.320312 95.195312 155.320312 L 91.839844 155.320312 C 91.722656 155.320312 91.625 155.402344 91.609375 155.515625 L 91.257812 157.609375 C 91.234375 157.753906 91.34375 157.882812 91.492188 157.882812 " fill-opacity="1" fill-rule="nonzero"></path>
  <path fill="#5479f7" d="M 82.492188 165.164062 L 85.847656 165.164062 C 85.960938 165.164062 86.0625 165.082031 86.078125 164.96875 L 86.429688 162.875 C 86.453125 162.730469 86.34375 162.601562 86.195312 162.601562 L 82.839844 162.601562 C 82.726562 162.601562 82.628906 162.683594 82.609375 162.796875 L 82.257812 164.890625 C 82.234375 165.035156 82.347656 165.164062 82.492188 165.164062 " fill-opacity="1" fill-rule="nonzero"></path>
  <path fill="#caddff" d="M 96.777344 157.929688 L 187.882812 157.929688 C 187.976562 157.929688 188.054688 157.859375 188.070312 157.765625 L 188.433594 155.585938 C 188.453125 155.46875 188.363281 155.363281 188.246094 155.363281 L 97.140625 155.363281 C 97.046875 155.363281 96.964844 155.429688 96.949219 155.523438 L 96.585938 157.703125 C 96.566406 157.820312 96.65625 157.929688 96.777344 157.929688 " fill-opacity="1" fill-rule="nonzero"></path>
  <path fill="#caddff" d="M 88.082031 165.195312 L 186.742188 165.195312 C 186.835938 165.195312 186.914062 165.128906 186.929688 165.035156 L 187.292969 162.855469 C 187.3125 162.738281 187.222656 162.628906 187.105469 162.628906 L 88.445312 162.628906 C 88.347656 162.628906 88.269531 162.699219 88.253906 162.792969 L 87.890625 164.972656 C 87.871094 165.089844 87.960938 165.195312 88.082031 165.195312 " fill-opacity="1" fill-rule="nonzero"></path>
  <path fill="#000000" d="M 88.375 204.152344 L 83.992188 204.152344 C 83.714844 204.152344 83.488281 203.929688 83.488281 203.652344 C 83.488281 203.371094 83.714844 203.144531 83.992188 203.144531 L 88.375 203.144531 C 88.734375 203.144531 89.074219 202.96875 89.277344 202.671875 L 91.398438 199.617188 C 91.785156 199.054688 92.398438 198.726562 93.082031 198.707031 C 93.765625 198.691406 94.390625 198.996094 94.804688 199.535156 C 95.03125 199.832031 95.371094 199.984375 95.742188 199.964844 C 96.113281 199.941406 96.433594 199.746094 96.625 199.425781 L 100.292969 193.230469 C 100.667969 192.597656 101.332031 192.210938 102.070312 192.199219 C 102.796875 192.175781 103.480469 192.546875 103.878906 193.164062 L 104.871094 194.703125 C 105.082031 195.03125 105.457031 195.222656 105.832031 195.207031 C 106.222656 195.195312 106.570312 194.980469 106.757812 194.640625 L 116.769531 176.449219 C 117.140625 175.777344 117.847656 175.359375 118.617188 175.359375 L 152.625 175.359375 C 152.902344 175.359375 153.128906 175.582031 153.128906 175.863281 C 153.128906 176.140625 152.902344 176.367188 152.625 176.367188 L 118.617188 176.367188 C 118.214844 176.367188 117.84375 176.582031 117.652344 176.933594 L 107.640625 195.125 C 107.28125 195.78125 106.617188 196.1875 105.867188 196.214844 C 105.113281 196.246094 104.429688 195.878906 104.023438 195.246094 L 103.03125 193.707031 C 102.828125 193.390625 102.484375 193.203125 102.109375 193.203125 C 102.101562 193.203125 102.09375 193.203125 102.085938 193.203125 C 101.703125 193.210938 101.355469 193.414062 101.160156 193.742188 L 97.492188 199.941406 C 97.132812 200.542969 96.5 200.929688 95.800781 200.96875 C 95.097656 201.015625 94.429688 200.703125 94.003906 200.144531 C 93.789062 199.863281 93.453125 199.695312 93.105469 199.714844 C 92.75 199.722656 92.429688 199.898438 92.226562 200.1875 L 90.109375 203.246094 C 89.714844 203.816406 89.066406 204.152344 88.375 204.152344 " fill-opacity="1" fill-rule="nonzero"></path>
  <path fill="#5479f7" d="M 91.742188 199.15625 C 91.742188 198.566406 92.222656 198.085938 92.8125 198.085938 C 93.402344 198.085938 93.882812 198.566406 93.882812 199.15625 C 93.882812 199.746094 93.402344 200.226562 92.8125 200.226562 C 92.222656 200.226562 91.742188 199.746094 91.742188 199.15625 " fill-opacity="1" fill-rule="nonzero"></path>
  <path fill="#000000" d="M 92.8125 197.078125 C 91.667969 197.078125 90.734375 198.011719 90.734375 199.15625 C 90.734375 200.300781 91.667969 201.230469 92.8125 201.230469 C 93.957031 201.230469 94.890625 200.300781 94.890625 199.15625 C 94.890625 198.011719 93.957031 197.078125 92.8125 197.078125 Z M 92.8125 198.085938 C 93.402344 198.085938 93.882812 198.566406 93.882812 199.15625 C 93.882812 199.746094 93.402344 200.226562 92.8125 200.226562 C 92.222656 200.226562 91.742188 199.746094 91.742188 199.15625 C 91.742188 198.566406 92.222656 198.085938 92.8125 198.085938 " fill-opacity="1" fill-rule="nonzero"></path>
  <path fill="#99b9ff" d="M 100.960938 192.636719 C 100.960938 192.046875 101.4375 191.566406 102.027344 191.566406 C 102.621094 191.566406 103.097656 192.046875 103.097656 192.636719 C 103.097656 193.226562 102.621094 193.707031 102.027344 193.707031 C 101.4375 193.707031 100.960938 193.226562 100.960938 192.636719 " fill-opacity="1" fill-rule="nonzero"></path>
  <path fill="#000000" d="M 102.027344 190.5625 C 100.882812 190.5625 99.953125 191.492188 99.953125 192.636719 C 99.953125 193.78125 100.882812 194.710938 102.027344 194.710938 C 103.175781 194.710938 104.105469 193.78125 104.105469 192.636719 C 104.105469 191.492188 103.175781 190.5625 102.027344 190.5625 Z M 102.027344 191.566406 C 102.621094 191.566406 103.097656 192.046875 103.097656 192.636719 C 103.097656 193.226562 102.621094 193.707031 102.027344 193.707031 C 101.4375 193.707031 100.960938 193.226562 100.960938 192.636719 C 100.960938 192.046875 101.4375 191.566406 102.027344 191.566406 " fill-opacity="1" fill-rule="nonzero"></path>
  <path fill="#5479f7" d="M 145.652344 175.695312 C 145.652344 175.105469 146.132812 174.628906 146.722656 174.628906 C 147.3125 174.628906 147.792969 175.105469 147.792969 175.695312 C 147.792969 176.285156 147.3125 176.765625 146.722656 176.765625 C 146.132812 176.765625 145.652344 176.285156 145.652344 175.695312 " fill-opacity="1" fill-rule="nonzero"></path>
  <path fill="#000000" d="M 146.722656 173.621094 C 145.578125 173.621094 144.648438 174.550781 144.648438 175.695312 C 144.648438 176.839844 145.578125 177.773438 146.722656 177.773438 C 147.871094 177.773438 148.800781 176.839844 148.800781 175.695312 C 148.800781 174.550781 147.871094 173.621094 146.722656 173.621094 Z M 146.722656 174.628906 C 147.3125 174.628906 147.792969 175.105469 147.792969 175.695312 C 147.792969 176.285156 147.3125 176.765625 146.722656 176.765625 C 146.132812 176.765625 145.652344 176.285156 145.652344 175.695312 C 145.652344 175.105469 146.132812 174.628906 146.722656 174.628906 " fill-opacity="1" fill-rule="nonzero"></path>
  <path fill="#000000" d="M 138.003906 236.386719 L 135.769531 236.375 C 135.769531 236.375 130.414062 229.609375 126.796875 229.234375 L 126.464844 210.171875 C 140.316406 210.214844 152.546875 218.015625 158.113281 229.542969 L 138.003906 236.386719 " fill-opacity="1" fill-rule="nonzero"></path>
  <path fill="#000000" d="M 111.277344 244.835938 C 112.414062 251.097656 118.121094 256.023438 125.121094 256.242188 C 126.84375 256.292969 128.851562 255.261719 128.851562 255.261719 C 128.851562 255.261719 130.691406 255.363281 131.007812 255.242188 L 141.929688 272.136719 C 136.851562 274.425781 131.117188 275.546875 125.121094 275.203125 C 107.675781 274.203125 93.960938 261.082031 92.4375 245.285156 L 111.277344 244.835938 " fill-opacity="1" fill-rule="nonzero"></path>
  <path fill="#000000" d="M 145.347656 270.359375 L 143.160156 270.433594 L 134.324219 253.414062 C 137.621094 250.976562 139.742188 247.179688 139.742188 242.875 C 139.742188 241.835938 139.617188 240.820312 139.382812 239.847656 L 157.378906 233.058594 L 159.570312 233.085938 C 160.652344 236.261719 161.238281 239.640625 161.238281 243.140625 C 161.238281 254.730469 154.871094 264.710938 145.347656 270.359375 " fill-opacity="1" fill-rule="nonzero"></path>
  <path fill="#5479f7" d="M 122.980469 229.316406 C 116.609375 230.265625 111.710938 235.195312 111.128906 241.292969 L 80.324219 242.1875 C 80.324219 242.179688 80.324219 242.171875 80.324219 242.167969 C 80.324219 242.167969 80.324219 242.15625 80.320312 242.148438 C 80.320312 242.125 75.679688 241.402344 75.679688 241.398438 C 75.679688 241.1875 117.761719 196.988281 117.761719 196.988281 L 122.429688 197.753906 C 122.429688 197.753906 122.796875 218.796875 122.980469 229.316406 " fill-opacity="1" fill-rule="nonzero"></path>
  <path fill="#000000" d="M 76.667969 241.046875 C 77.324219 241.148438 78.222656 241.289062 78.972656 241.410156 C 79.375 241.472656 79.730469 241.53125 79.988281 241.574219 C 80.183594 241.605469 80.347656 241.632812 80.476562 241.679688 L 110.675781 240.804688 C 111.449219 234.816406 116.210938 230.003906 122.46875 228.890625 L 121.933594 198.183594 L 117.941406 197.53125 C 104.722656 211.414062 80.730469 236.648438 76.667969 241.046875 Z M 80.324219 242.691406 C 80.222656 242.691406 80.125 242.660156 80.042969 242.605469 C 79.441406 242.5 77.347656 242.171875 76.390625 242.019531 C 75.289062 241.847656 75.175781 241.828125 75.175781 241.398438 C 75.175781 241.125 75.175781 241.125 81.886719 234.023438 C 85.378906 230.332031 90.246094 225.199219 96.355469 218.769531 C 106.875 207.691406 117.394531 196.644531 117.394531 196.644531 C 117.511719 196.519531 117.679688 196.464844 117.84375 196.492188 L 122.511719 197.257812 C 122.75 197.296875 122.929688 197.503906 122.933594 197.746094 L 123.484375 229.308594 C 123.488281 229.5625 123.304688 229.777344 123.054688 229.816406 C 116.886719 230.730469 112.191406 235.472656 111.628906 241.339844 C 111.605469 241.59375 111.398438 241.789062 111.140625 241.796875 L 80.335938 242.691406 C 80.332031 242.691406 80.328125 242.691406 80.324219 242.691406 " fill-opacity="1" fill-rule="nonzero"></path>
  <path fill="#5479f7" d="M 135.800781 236.386719 C 133.570312 232.488281 129.417969 229.734375 124.59375 229.234375 L 124.257812 210.171875 C 138.113281 210.214844 150.339844 218.015625 155.910156 229.542969 L 135.800781 236.386719 " fill-opacity="1" fill-rule="nonzero"></path>
  <path fill="#000000" d="M 136.746094 215.855469 C 136.683594 215.855469 136.621094 215.84375 136.558594 215.820312 C 133.507812 214.585938 130.292969 213.816406 127 213.53125 C 126.726562 213.507812 126.519531 213.261719 126.542969 212.988281 C 126.570312 212.707031 126.816406 212.503906 127.089844 212.527344 C 130.476562 212.820312 133.789062 213.613281 136.933594 214.886719 C 137.195312 214.992188 137.320312 215.285156 137.214844 215.542969 C 137.132812 215.738281 136.945312 215.855469 136.746094 215.855469 " fill-opacity="1" fill-rule="nonzero"></path>
  <path fill="#5479f7" d="M 109.070312 244.835938 C 110.207031 251.097656 115.917969 256.023438 122.914062 256.242188 C 125.003906 256.304688 126.996094 255.945312 128.804688 255.242188 L 139.722656 272.136719 C 134.648438 274.425781 128.914062 275.546875 122.914062 275.203125 C 105.472656 274.203125 91.757812 261.082031 90.234375 245.285156 L 109.070312 244.835938 " fill-opacity="1" fill-rule="nonzero"></path>
  <path fill="#000000" d="M 125.042969 273.035156 C 124.378906 273.035156 123.707031 273.015625 123.042969 272.976562 C 122.765625 272.960938 122.554688 272.722656 122.570312 272.445312 C 122.585938 272.167969 122.820312 271.953125 123.101562 271.972656 C 123.746094 272.007812 124.398438 272.027344 125.042969 272.027344 C 128.632812 272.027344 132.136719 271.460938 135.453125 270.339844 C 135.71875 270.253906 136.003906 270.390625 136.089844 270.65625 C 136.179688 270.917969 136.039062 271.207031 135.777344 271.292969 C 132.355469 272.449219 128.742188 273.035156 125.042969 273.035156 " fill-opacity="1" fill-rule="nonzero"></path>
  <path fill="#000000" d="M 116.175781 271.855469 C 116.132812 271.855469 116.085938 271.847656 116.042969 271.835938 C 104.285156 268.632812 95.199219 259.296875 92.902344 248.046875 C 92.847656 247.773438 93.023438 247.507812 93.292969 247.453125 C 93.566406 247.394531 93.832031 247.570312 93.890625 247.84375 C 96.113281 258.722656 104.914062 267.761719 116.308594 270.863281 C 116.574219 270.9375 116.734375 271.214844 116.664062 271.484375 C 116.601562 271.707031 116.398438 271.855469 116.175781 271.855469 " fill-opacity="1" fill-rule="nonzero"></path>
  <path fill="#5479f7" d="M 143.144531 270.359375 L 132.121094 253.414062 C 135.417969 250.976562 137.535156 247.179688 137.535156 242.875 C 137.535156 241.835938 137.410156 240.820312 137.175781 239.847656 L 157.363281 233.085938 C 158.449219 236.261719 159.03125 239.640625 159.03125 243.140625 C 159.03125 254.730469 152.667969 264.710938 143.144531 270.359375 " fill-opacity="1" fill-rule="nonzero"></path>
  <path fill="#ffffff" d="M 118.335938 228.511719 C 111.964844 229.460938 107.066406 234.394531 106.484375 240.492188 L 75.679688 241.382812 C 75.679688 241.367188 75.679688 241.355469 75.679688 241.34375 C 75.679688 218.765625 93.683594 199.441406 117.78125 196.953125 L 118.335938 228.511719 " fill-opacity="1" fill-rule="nonzero"></path>
  <path fill="#000000" d="M 117.289062 197.511719 C 93.984375 200.175781 76.433594 218.679688 76.183594 240.863281 L 106.03125 240 C 106.804688 234.011719 111.566406 229.199219 117.824219 228.085938 Z M 75.679688 241.886719 C 75.546875 241.886719 75.421875 241.835938 75.328125 241.746094 C 75.230469 241.648438 75.175781 241.519531 75.175781 241.382812 L 75.175781 241.34375 C 75.175781 230.257812 79.488281 219.574219 87.328125 211.269531 C 95.199219 202.925781 105.996094 197.664062 117.730469 196.453125 C 117.871094 196.4375 118.011719 196.480469 118.117188 196.574219 C 118.222656 196.667969 118.285156 196.804688 118.289062 196.941406 L 118.839844 228.503906 C 118.84375 228.757812 118.660156 228.972656 118.410156 229.011719 C 112.242188 229.929688 107.546875 234.667969 106.984375 240.539062 C 106.960938 240.792969 106.753906 240.984375 106.5 240.992188 L 75.691406 241.886719 C 75.6875 241.886719 75.683594 241.886719 75.679688 241.886719 " fill-opacity="1" fill-rule="nonzero"></path>
  <path fill="#99b9ff" d="M 140.84375 57.378906 L 88.328125 57.378906 C 87.253906 57.378906 86.273438 58.242188 86.136719 59.304688 L 85.332031 65.472656 C 85.195312 66.535156 85.953125 67.398438 87.027344 67.398438 L 139.542969 67.398438 C 140.617188 67.398438 141.597656 66.535156 141.738281 65.472656 L 142.539062 59.304688 C 142.679688 58.242188 141.917969 57.378906 140.84375 57.378906 " fill-opacity="1" fill-rule="nonzero"></path>
  <path fill="#000000" d="M 88.328125 57.886719 C 87.515625 57.886719 86.738281 58.566406 86.632812 59.371094 L 85.832031 65.539062 C 85.785156 65.90625 85.882812 66.246094 86.105469 66.5 C 86.324219 66.753906 86.65625 66.894531 87.027344 66.894531 L 139.542969 66.894531 C 140.355469 66.894531 141.132812 66.214844 141.238281 65.40625 L 142.039062 59.238281 C 142.085938 58.871094 141.988281 58.53125 141.769531 58.277344 C 141.546875 58.023438 141.21875 57.886719 140.847656 57.886719 Z M 139.542969 67.902344 L 87.027344 67.902344 C 86.359375 67.902344 85.761719 67.640625 85.347656 67.164062 C 84.929688 66.691406 84.746094 66.066406 84.832031 65.40625 L 85.636719 59.238281 C 85.804688 57.9375 87.011719 56.878906 88.328125 56.878906 L 140.847656 56.878906 C 141.511719 56.878906 142.109375 57.140625 142.527344 57.613281 C 142.945312 58.085938 143.125 58.710938 143.039062 59.371094 L 142.238281 65.539062 C 142.070312 66.839844 140.859375 67.902344 139.542969 67.902344 " fill-opacity="1" fill-rule="nonzero"></path>
  <path fill="#99b9ff" d="M 140.84375 57.378906 L 88.328125 57.378906 C 87.253906 57.378906 86.273438 58.242188 86.136719 59.304688 L 85.332031 65.472656 C 85.195312 66.535156 85.953125 67.398438 87.027344 67.398438 L 139.542969 67.398438 C 140.617188 67.398438 141.597656 66.535156 141.738281 65.472656 L 142.539062 59.304688 C 142.679688 58.242188 141.917969 57.378906 140.84375 57.378906 " fill-opacity="1" fill-rule="nonzero"></path>
  <path fill="#000000" d="M 88.328125 57.886719 C 87.515625 57.886719 86.738281 58.566406 86.632812 59.371094 L 85.832031 65.539062 C 85.785156 65.90625 85.882812 66.246094 86.105469 66.5 C 86.324219 66.753906 86.65625 66.894531 87.027344 66.894531 L 139.542969 66.894531 C 140.355469 66.894531 141.132812 66.214844 141.238281 65.40625 L 142.039062 59.238281 C 142.085938 58.871094 141.988281 58.53125 141.769531 58.277344 C 141.546875 58.023438 141.21875 57.886719 140.847656 57.886719 Z M 139.542969 67.902344 L 87.027344 67.902344 C 86.359375 67.902344 85.761719 67.640625 85.347656 67.164062 C 84.929688 66.691406 84.746094 66.066406 84.832031 65.40625 L 85.636719 59.238281 C 85.804688 57.9375 87.011719 56.878906 88.328125 56.878906 L 140.847656 56.878906 C 141.511719 56.878906 142.109375 57.140625 142.527344 57.613281 C 142.945312 58.085938 143.125 58.710938 143.039062 59.371094 L 142.238281 65.539062 C 142.070312 66.839844 140.859375 67.902344 139.542969 67.902344 " fill-opacity="1" fill-rule="nonzero"></path>
  <path fill="#99b9ff" d="M 57.6875 240.984375 C 55.078125 236.21875 55.402344 233.984375 56.144531 232.824219 C 57.46875 230.761719 60.433594 231.632812 61.746094 229.390625 C 63.097656 227.085938 60.648438 224.992188 61.558594 222.039062 C 62.636719 218.542969 67.980469 215.246094 71.40625 217.226562 C 74.339844 218.921875 75.113281 224.03125 73.367188 226.671875 C 71.433594 229.601562 67.167969 228.320312 65.964844 231.050781 C 64.859375 233.566406 67.898438 235.941406 66.925781 238.265625 C 66.367188 239.59375 64.421875 241.070312 57.6875 240.984375 " fill-opacity="1" fill-rule="nonzero"></path>
  <path fill="#ffffff" d="M 57.195312 243.429688 C 57.140625 243.429688 57.085938 243.421875 57.035156 243.402344 C 56.769531 243.3125 56.628906 243.027344 56.71875 242.765625 C 61.519531 228.589844 67.824219 223.992188 68.089844 223.800781 C 68.3125 223.640625 68.628906 223.695312 68.789062 223.921875 C 68.953125 224.148438 68.898438 224.460938 68.671875 224.621094 C 68.609375 224.667969 62.355469 229.261719 57.671875 243.089844 C 57.601562 243.296875 57.40625 243.429688 57.195312 243.429688 " fill-opacity="1" fill-rule="nonzero"></path>
  <path fill="#5479f7" d="M 53.640625 239.339844 C 53.613281 234.886719 54.859375 232.175781 56.003906 230.523438 C 58.09375 227.511719 60.40625 227.203125 61.203125 224.289062 C 61.953125 221.539062 60.191406 220.707031 60.78125 217.609375 C 61.484375 213.921875 64.253906 213.667969 64.96875 210.628906 C 65.839844 206.933594 62.265625 205.0625 60.46875 199.871094 C 58.148438 193.160156 61.996094 190.121094 61.117188 183.851562 C 59.6875 173.675781 47.105469 164.296875 41.726562 166.851562 C 36.652344 169.261719 36.285156 183.09375 40.382812 193.140625 C 44.753906 203.851562 51.523438 203.695312 52.507812 212.648438 C 53.1875 218.832031 50.347656 222.460938 51.808594 231.964844 C 52.304688 235.183594 53.085938 237.746094 53.640625 239.339844 " fill-opacity="1" fill-rule="nonzero"></path>
  <path fill="#99b9ff" d="M 54.972656 243.632812 C 54.78125 243.632812 54.597656 243.523438 54.511719 243.335938 C 51.878906 237.457031 52.945312 231.042969 54.292969 222.921875 C 54.996094 218.667969 55.796875 213.851562 56.105469 208.554688 C 56.964844 193.8125 44.902344 175.960938 44.78125 175.78125 C 44.625 175.550781 44.683594 175.238281 44.914062 175.082031 C 45.144531 174.925781 45.457031 174.984375 45.613281 175.214844 C 45.738281 175.394531 57.992188 193.53125 57.109375 208.613281 C 56.800781 213.964844 55.996094 218.8125 55.285156 223.085938 C 53.964844 231.039062 52.921875 237.320312 55.433594 242.921875 C 55.546875 243.175781 55.433594 243.476562 55.179688 243.589844 C 55.113281 243.617188 55.042969 243.632812 54.972656 243.632812 " fill-opacity="1" fill-rule="nonzero"></path>
  <path fill="#99b9ff" d="M 50.429688 240.421875 C 49.84375 237.59375 49.230469 233.421875 49.433594 228.390625 C 49.769531 220.1875 51.996094 216.695312 49.757812 213.632812 C 47.289062 210.253906 43.136719 212.515625 40.191406 208.496094 C 38.1875 205.757812 39.191406 203.441406 36.4375 200.863281 C 35.910156 200.371094 34.203125 198.8125 31.792969 198.621094 C 29.554688 198.445312 28.761719 199.605469 25.910156 200.625 C 20.734375 202.46875 18.429688 200.402344 16.527344 202.34375 C 14.84375 204.058594 14.507812 207.863281 16.113281 209.960938 C 19.140625 213.914062 27.140625 209.3125 30.140625 213.0625 C 32.703125 216.261719 28.285156 221.386719 31.089844 224.953125 C 33.617188 228.167969 38.679688 225.882812 40.753906 229.246094 C 42.335938 231.820312 40.117188 234.355469 41.585938 237.035156 C 43.121094 239.832031 47.339844 240.367188 50.429688 240.421875 " fill-opacity="1" fill-rule="nonzero"></path>
  <path fill="#ffffff" d="M 52.355469 243.511719 C 52.246094 243.511719 52.132812 243.476562 52.042969 243.402344 C 49.367188 241.289062 48.453125 237.8125 47.070312 232.554688 C 46.03125 228.613281 44.742188 223.707031 42.246094 217.707031 C 36.691406 204.332031 21.546875 205.867188 21.394531 205.886719 C 21.117188 205.917969 20.871094 205.71875 20.839844 205.441406 C 20.808594 205.167969 21.007812 204.917969 21.28125 204.886719 C 21.441406 204.867188 37.335938 203.257812 43.179688 217.320312 C 45.699219 223.386719 47 228.328125 48.042969 232.296875 C 49.375 237.363281 50.257812 240.707031 52.667969 242.613281 C 52.886719 242.785156 52.921875 243.101562 52.75 243.320312 C 52.652344 243.445312 52.503906 243.511719 52.355469 243.511719 " fill-opacity="1" fill-rule="nonzero"></path>
  <path fill="#5479f7" d="M 42.714844 242.925781 C 43.144531 243.121094 65.453125 242.925781 65.453125 242.925781 L 62.667969 266.195312 C 62.59375 266.820312 62.460938 267.445312 62.234375 268.035156 C 61.136719 270.890625 58.425781 272.835938 55.335938 272.835938 C 51.882812 272.835938 48.886719 270.398438 48.113281 266.960938 L 42.714844 242.925781 " fill-opacity="1" fill-rule="nonzero"></path>
  <path fill="#000000" d="M 198.890625 156.300781 L 206.148438 142.675781 L 202.203125 138.863281 L 192.375 133.640625 L 186.84375 132.414062 L 179.589844 146.039062 L 198.890625 156.300781 " fill-opacity="1" fill-rule="nonzero"></path>
  <path fill="#000000" d="M 180.269531 145.832031 L 198.683594 155.621094 L 205.523438 142.773438 L 201.902344 139.273438 L 192.199219 134.117188 L 187.109375 132.988281 Z M 198.890625 156.804688 C 198.8125 156.804688 198.730469 156.785156 198.65625 156.746094 L 179.351562 146.484375 C 179.234375 146.421875 179.144531 146.316406 179.109375 146.1875 C 179.070312 146.058594 179.082031 145.921875 179.144531 145.804688 L 186.398438 132.175781 C 186.507812 131.976562 186.734375 131.875 186.953125 131.921875 L 192.484375 133.144531 C 192.527344 133.15625 192.574219 133.171875 192.613281 133.195312 L 202.4375 138.417969 C 202.480469 138.441406 202.519531 138.46875 202.554688 138.5 L 206.5 142.3125 C 206.660156 142.46875 206.699219 142.710938 206.59375 142.910156 L 199.335938 156.539062 C 199.246094 156.707031 199.074219 156.804688 198.890625 156.804688 " fill-opacity="1" fill-rule="nonzero"></path>
  <path fill="#ffffff" d="M 261.476562 91.800781 C 252.1875 109.25 230.496094 115.875 213.03125 106.589844 C 195.566406 97.304688 188.941406 75.632812 198.230469 58.183594 C 207.523438 40.734375 229.210938 34.113281 246.675781 43.398438 C 264.144531 52.679688 270.769531 74.351562 261.476562 91.800781 Z M 248.328125 40.296875 C 229.148438 30.101562 205.332031 37.375 195.128906 56.535156 C 184.925781 75.695312 192.203125 99.496094 211.382812 109.6875 C 230.558594 119.882812 254.378906 112.613281 264.578125 93.449219 C 274.78125 74.289062 267.503906 50.492188 248.328125 40.296875 " fill-opacity="1" fill-rule="nonzero"></path>
  <path fill="#000000" d="M 261.476562 91.800781 L 261.480469 91.800781 Z M 229.914062 39.714844 C 217.265625 39.714844 205.019531 46.511719 198.675781 58.421875 C 194.246094 66.742188 193.324219 76.289062 196.082031 85.300781 C 198.835938 94.316406 204.941406 101.71875 213.269531 106.144531 C 230.457031 115.28125 251.886719 108.742188 261.03125 91.566406 C 265.460938 83.246094 266.386719 73.699219 263.628906 64.683594 C 260.871094 55.671875 254.769531 48.269531 246.441406 43.84375 C 241.171875 41.042969 235.5 39.714844 229.914062 39.714844 Z M 229.792969 111.28125 C 224.042969 111.28125 218.214844 109.914062 212.792969 107.03125 C 204.230469 102.480469 197.953125 94.867188 195.117188 85.597656 C 192.28125 76.324219 193.230469 66.503906 197.789062 57.945312 C 207.191406 40.28125 229.230469 33.550781 246.914062 42.953125 C 255.480469 47.507812 261.757812 55.121094 264.59375 64.390625 C 267.425781 73.660156 266.476562 83.480469 261.921875 92.039062 C 255.398438 104.289062 242.800781 111.28125 229.792969 111.28125 Z M 229.917969 36.203125 C 216.015625 36.203125 202.546875 43.675781 195.574219 56.773438 C 190.703125 65.921875 189.6875 76.417969 192.71875 86.328125 C 195.75 96.238281 202.460938 104.375 211.617188 109.246094 C 230.523438 119.292969 254.078125 112.101562 264.132812 93.214844 C 269.003906 84.066406 270.019531 73.570312 266.988281 63.660156 C 263.960938 53.746094 257.25 45.609375 248.09375 40.742188 C 242.296875 37.664062 236.066406 36.203125 229.917969 36.203125 Z M 229.789062 114.789062 C 223.480469 114.789062 217.089844 113.292969 211.144531 110.132812 C 201.75 105.140625 194.867188 96.789062 191.757812 86.621094 C 188.644531 76.453125 189.6875 65.683594 194.683594 56.300781 C 205 36.925781 229.171875 29.546875 248.566406 39.851562 C 257.957031 44.847656 264.84375 53.195312 267.953125 63.363281 C 271.0625 73.53125 270.019531 84.300781 265.023438 93.6875 C 257.867188 107.121094 244.050781 114.789062 229.789062 114.789062 " fill-opacity="1" fill-rule="nonzero"></path>
  <path fill="#ffffff" d="M 181.601562 156.714844 C 180.636719 158.523438 181.324219 160.769531 183.136719 161.734375 L 183.886719 162.132812 C 185.699219 163.09375 187.949219 162.40625 188.910156 160.601562 L 214.015625 113.449219 L 206.703125 109.566406 L 181.601562 156.714844 " fill-opacity="1" fill-rule="nonzero"></path>
  <path fill="#000000" d="M 182.042969 156.949219 C 181.640625 157.707031 181.558594 158.574219 181.808594 159.394531 C 182.058594 160.214844 182.613281 160.886719 183.371094 161.289062 L 184.121094 161.6875 C 185.683594 162.519531 187.632812 161.925781 188.464844 160.363281 L 213.332031 113.660156 L 206.910156 110.25 Z M 185.625 163.074219 C 184.953125 163.074219 184.277344 162.914062 183.648438 162.578125 L 182.898438 162.179688 C 181.902344 161.652344 181.171875 160.765625 180.84375 159.691406 C 180.515625 158.613281 180.625 157.46875 181.15625 156.476562 L 206.257812 109.328125 C 206.386719 109.085938 206.695312 108.992188 206.9375 109.121094 L 214.25 113.007812 C 214.367188 113.070312 214.457031 113.179688 214.496094 113.308594 C 214.53125 113.433594 214.519531 113.570312 214.457031 113.6875 L 189.355469 160.835938 C 188.597656 162.257812 187.132812 163.074219 185.625 163.074219 " fill-opacity="1" fill-rule="nonzero"></path>
  <path fill="#ffffff" d="M 198.699219 136.839844 L 200.800781 132.894531 L 198.699219 136.839844 " fill-opacity="1" fill-rule="nonzero"></path>
  <path fill="#000000" d="M 198.699219 137.34375 C 198.621094 137.34375 198.539062 137.324219 198.460938 137.285156 C 198.21875 137.152344 198.125 136.847656 198.257812 136.601562 L 200.355469 132.660156 C 200.484375 132.414062 200.789062 132.320312 201.039062 132.449219 C 201.28125 132.582031 201.375 132.886719 201.242188 133.132812 L 199.144531 137.074219 C 199.054688 137.246094 198.878906 137.34375 198.699219 137.34375 " fill-opacity="1" fill-rule="nonzero"></path>
  <path fill="#ffffff" d="M 201.46875 119.382812 L 208.792969 123.273438 C 209.796875 123.808594 211.042969 123.429688 211.582031 122.425781 L 212.957031 119.832031 C 213.492188 118.832031 213.113281 117.582031 212.109375 117.046875 L 204.785156 113.15625 C 203.777344 112.621094 202.53125 113.003906 201.996094 114.003906 L 200.617188 116.597656 C 200.082031 117.601562 200.460938 118.847656 201.46875 119.382812 " fill-opacity="1" fill-rule="nonzero"></path>
  <path fill="#000000" d="M 201.703125 118.9375 L 209.027344 122.832031 C 209.785156 123.234375 210.730469 122.945312 211.132812 122.1875 L 212.515625 119.597656 C 212.707031 119.230469 212.75 118.808594 212.628906 118.410156 C 212.507812 118.015625 212.238281 117.6875 211.871094 117.496094 L 204.546875 113.601562 C 204.175781 113.402344 203.757812 113.367188 203.359375 113.488281 C 202.960938 113.605469 202.636719 113.875 202.441406 114.242188 L 201.0625 116.835938 C 200.867188 117.203125 200.824219 117.621094 200.945312 118.019531 C 201.066406 118.417969 201.335938 118.742188 201.703125 118.9375 Z M 209.753906 124.019531 C 209.347656 124.019531 208.9375 123.921875 208.554688 123.722656 L 201.230469 119.828125 C 200.625 119.503906 200.183594 118.96875 199.980469 118.3125 C 199.78125 117.660156 199.851562 116.964844 200.171875 116.363281 L 201.550781 113.769531 C 201.875 113.164062 202.410156 112.722656 203.066406 112.523438 C 203.722656 112.324219 204.414062 112.390625 205.019531 112.710938 L 212.34375 116.605469 C 212.949219 116.925781 213.390625 117.464844 213.59375 118.117188 C 213.792969 118.773438 213.722656 119.464844 213.40625 120.070312 L 212.023438 122.660156 C 211.5625 123.527344 210.671875 124.019531 209.753906 124.019531 " fill-opacity="1" fill-rule="nonzero"></path>
  <path fill="#ffffff" d="M 197.339844 127.132812 L 204.664062 131.027344 C 205.667969 131.5625 206.917969 131.179688 207.453125 130.175781 L 208.832031 127.585938 C 209.367188 126.582031 208.984375 125.335938 207.980469 124.800781 L 200.65625 120.90625 C 199.648438 120.375 198.402344 120.753906 197.871094 121.757812 L 196.488281 124.351562 C 195.957031 125.351562 196.335938 126.597656 197.339844 127.132812 " fill-opacity="1" fill-rule="nonzero"></path>
  <path fill="#000000" d="M 197.578125 126.6875 L 204.902344 130.582031 C 205.660156 130.984375 206.601562 130.699219 207.007812 129.941406 L 208.386719 127.347656 C 208.789062 126.589844 208.5 125.648438 207.742188 125.246094 L 200.417969 121.351562 C 200.050781 121.15625 199.628906 121.117188 199.234375 121.238281 C 198.835938 121.359375 198.507812 121.628906 198.3125 121.996094 L 196.933594 124.585938 C 196.53125 125.34375 196.820312 126.285156 197.578125 126.6875 Z M 205.628906 131.773438 C 205.222656 131.773438 204.8125 131.675781 204.429688 131.472656 L 197.101562 127.578125 C 196.5 127.257812 196.054688 126.71875 195.855469 126.066406 C 195.65625 125.410156 195.722656 124.71875 196.042969 124.113281 L 197.425781 121.523438 C 197.746094 120.917969 198.28125 120.476562 198.9375 120.273438 C 199.59375 120.074219 200.289062 120.140625 200.890625 120.460938 L 208.214844 124.355469 C 209.464844 125.019531 209.9375 126.574219 209.277344 127.820312 L 207.894531 130.414062 C 207.433594 131.277344 206.546875 131.773438 205.628906 131.773438 " fill-opacity="1" fill-rule="nonzero"></path>
  <path fill="#000000" d="M 252.441406 53.222656 C 252.3125 53.222656 252.183594 53.171875 252.085938 53.074219 C 249.878906 50.847656 247.347656 48.964844 244.550781 47.480469 C 244.308594 47.351562 244.214844 47.046875 244.34375 46.800781 C 244.472656 46.554688 244.78125 46.460938 245.027344 46.59375 C 247.910156 48.125 250.527344 50.066406 252.800781 52.363281 C 252.996094 52.5625 252.996094 52.882812 252.796875 53.078125 C 252.699219 53.175781 252.570312 53.222656 252.441406 53.222656 " fill-opacity="1" fill-rule="nonzero"></path>
  <path fill="#000000" d="M 229.84375 107.183594 C 224.742188 107.183594 219.578125 105.972656 214.769531 103.417969 C 209.074219 100.386719 204.46875 95.785156 201.453125 90.113281 C 201.324219 89.867188 201.417969 89.5625 201.664062 89.433594 C 201.910156 89.300781 202.214844 89.394531 202.34375 89.640625 C 205.261719 95.136719 209.726562 99.59375 215.242188 102.527344 C 230.433594 110.601562 249.363281 104.824219 257.441406 89.644531 C 263.28125 78.6875 262.054688 65.324219 254.328125 55.597656 C 254.15625 55.382812 254.191406 55.066406 254.410156 54.890625 C 254.625 54.71875 254.945312 54.753906 255.117188 54.972656 C 263.09375 65.007812 264.355469 78.804688 258.332031 90.117188 C 252.550781 100.980469 241.375 107.183594 229.84375 107.183594 " fill-opacity="1" fill-rule="nonzero"></path>
  <path fill="#000000" d="M 242.515625 177.21875 C 244.21875 178.179688 246.242188 178.398438 248.113281 177.820312 C 249.980469 177.246094 251.53125 175.929688 252.402344 174.179688 C 253.359375 172.253906 253.484375 170.019531 252.75 167.996094 C 252.019531 165.972656 250.488281 164.339844 248.519531 163.472656 L 199.726562 141.988281 L 195.417969 150.664062 L 242.515625 177.21875 " fill-opacity="1" fill-rule="nonzero"></path>
  <path fill="#000000" d="M 196.082031 150.460938 L 242.761719 176.777344 C 244.335938 177.667969 246.234375 177.875 247.964844 177.339844 C 249.691406 176.808594 251.144531 175.578125 251.949219 173.957031 C 252.839844 172.164062 252.960938 170.050781 252.277344 168.167969 C 251.59375 166.285156 250.148438 164.742188 248.3125 163.933594 L 199.964844 142.644531 Z M 246.023438 178.640625 C 244.71875 178.640625 243.417969 178.304688 242.265625 177.65625 L 195.171875 151.105469 C 194.9375 150.972656 194.847656 150.683594 194.96875 150.441406 L 199.273438 141.765625 C 199.394531 141.523438 199.683594 141.417969 199.929688 141.527344 L 248.71875 163.011719 C 250.804688 163.929688 252.449219 165.683594 253.226562 167.824219 C 254 169.96875 253.863281 172.363281 252.851562 174.40625 C 251.925781 176.269531 250.25 177.691406 248.257812 178.304688 C 247.53125 178.527344 246.777344 178.640625 246.023438 178.640625 " fill-opacity="1" fill-rule="nonzero"></path>
  <path fill="#000000" d="M 250.152344 248.003906 C 254.445312 249.527344 259.171875 249.234375 263.242188 247.1875 C 267.3125 245.140625 270.367188 241.519531 271.695312 237.167969 C 273.03125 232.78125 272.503906 228.042969 270.234375 224.058594 C 267.964844 220.078125 264.15625 217.203125 259.699219 216.117188 L 174.640625 198.257812 C 168.5625 196.777344 162.378906 200.292969 160.550781 206.273438 C 158.710938 212.300781 161.941406 218.710938 167.882812 220.824219 L 250.152344 248.003906 " fill-opacity="1" fill-rule="nonzero"></path>
  <path fill="#000000" d="M 171.839844 198.425781 C 166.972656 198.425781 162.511719 201.582031 161.035156 206.421875 C 159.269531 212.203125 162.351562 218.320312 168.050781 220.347656 L 250.3125 247.527344 C 250.3125 247.527344 250.316406 247.527344 250.320312 247.527344 C 254.460938 249 259.089844 248.714844 263.015625 246.738281 C 266.941406 244.761719 269.929688 241.21875 271.214844 237.019531 C 272.503906 232.789062 271.988281 228.15625 269.796875 224.308594 C 267.605469 220.464844 263.882812 217.65625 259.582031 216.609375 L 174.535156 198.75 C 173.636719 198.53125 172.730469 198.425781 171.839844 198.425781 Z M 255.730469 249.464844 C 253.789062 249.464844 251.84375 249.136719 249.988281 248.480469 L 167.726562 221.300781 C 161.503906 219.089844 158.148438 212.425781 160.070312 206.125 C 161.972656 199.894531 168.425781 196.222656 174.757812 197.769531 L 259.800781 215.625 C 264.390625 216.742188 268.347656 219.726562 270.671875 223.8125 C 273 227.898438 273.546875 232.816406 272.175781 237.3125 C 270.8125 241.777344 267.640625 245.539062 263.46875 247.636719 C 261.058594 248.847656 258.398438 249.464844 255.730469 249.464844 " fill-opacity="1" fill-rule="nonzero"></path>
  <path fill="#000000" d="M 219.34375 255.894531 C 222.574219 255.894531 225.417969 253.765625 226.328125 250.664062 L 229.648438 239.316406 C 230.296875 237.105469 232.324219 235.589844 234.628906 235.589844 L 276.539062 235.589844 C 279.546875 235.589844 281.988281 238.027344 281.988281 241.03125 L 281.988281 278.527344 L 210.421875 278.527344 L 210.421875 261.335938 C 210.421875 258.328125 212.863281 255.894531 215.871094 255.894531 L 219.34375 255.894531 " fill-opacity="1" fill-rule="nonzero"></path>
  <path fill="#000000" d="M 210.925781 278.023438 L 281.484375 278.023438 L 281.484375 241.03125 C 281.484375 238.308594 279.265625 236.09375 276.539062 236.09375 L 234.625 236.09375 C 232.5625 236.09375 230.714844 237.476562 230.132812 239.457031 L 226.8125 250.808594 C 225.84375 254.097656 222.773438 256.398438 219.34375 256.398438 L 215.871094 256.398438 C 213.144531 256.398438 210.925781 258.613281 210.925781 261.335938 Z M 281.988281 279.027344 L 210.421875 279.027344 C 210.144531 279.027344 209.917969 278.804688 209.917969 278.527344 L 209.917969 261.335938 C 209.917969 258.054688 212.585938 255.390625 215.871094 255.390625 L 219.34375 255.390625 C 222.332031 255.390625 225.003906 253.386719 225.84375 250.523438 L 229.164062 239.175781 C 229.875 236.765625 232.117188 235.085938 234.625 235.085938 L 276.539062 235.085938 C 279.824219 235.085938 282.492188 237.753906 282.492188 241.03125 L 282.492188 278.527344 C 282.492188 278.804688 282.265625 279.027344 281.988281 279.027344 " fill-opacity="1" fill-rule="nonzero"></path>
  <path fill="#5479f7" d="M 213.164062 255.894531 C 216.394531 255.894531 219.238281 253.765625 220.144531 250.664062 L 223.46875 239.316406 C 224.117188 237.105469 226.144531 235.589844 228.445312 235.589844 L 270.359375 235.589844 C 273.367188 235.589844 275.804688 238.027344 275.804688 241.035156 L 275.804688 278.527344 L 204.242188 278.527344 L 204.242188 261.335938 C 204.242188 258.328125 206.679688 255.894531 209.691406 255.894531 L 213.164062 255.894531 " fill-opacity="1" fill-rule="nonzero"></path>
  <path fill="#000000" d="M 204.746094 278.023438 L 275.300781 278.023438 L 275.300781 241.035156 C 275.300781 238.308594 273.085938 236.09375 270.359375 236.09375 L 228.445312 236.09375 C 226.382812 236.09375 224.53125 237.476562 223.953125 239.457031 L 220.628906 250.808594 C 219.664062 254.097656 216.59375 256.398438 213.164062 256.398438 L 209.691406 256.398438 C 206.960938 256.398438 204.746094 258.613281 204.746094 261.335938 Z M 275.804688 279.027344 L 204.242188 279.027344 C 203.960938 279.027344 203.738281 278.804688 203.738281 278.527344 L 203.738281 261.335938 C 203.738281 258.054688 206.40625 255.390625 209.691406 255.390625 L 213.164062 255.390625 C 216.152344 255.390625 218.824219 253.386719 219.660156 250.523438 L 222.988281 239.175781 C 223.691406 236.765625 225.9375 235.085938 228.445312 235.085938 L 270.359375 235.085938 C 273.640625 235.085938 276.308594 237.753906 276.308594 241.035156 L 276.308594 278.527344 C 276.308594 278.804688 276.082031 279.027344 275.804688 279.027344 " fill-opacity="1" fill-rule="nonzero"></path>
  <path fill="#000000" d="M 248.839844 178.632812 C 252.804688 176.433594 254.347656 171.519531 252.351562 167.453125 C 250.332031 163.351562 245.433594 161.574219 241.25 163.433594 L 162.78125 198.300781 C 156.6875 201.007812 153.859375 208.066406 156.398438 214.230469 C 157.738281 217.476562 160.402344 219.996094 163.71875 221.15625 C 167.035156 222.3125 170.691406 222 173.761719 220.296875 L 248.839844 178.632812 " fill-opacity="1" fill-rule="nonzero"></path>
  <path fill="#5479f7" d="M 245.273438 248.339844 C 249.566406 249.863281 254.296875 249.570312 258.363281 247.523438 C 262.433594 245.476562 265.488281 241.855469 266.816406 237.5 C 268.152344 233.117188 267.625 228.378906 265.359375 224.394531 C 263.085938 220.414062 259.277344 217.539062 254.820312 216.453125 L 170.097656 198.257812 C 164.015625 196.777344 157.835938 200.292969 156.007812 206.273438 C 154.167969 212.300781 157.402344 218.710938 163.339844 220.824219 L 245.273438 248.339844 " fill-opacity="1" fill-rule="nonzero"></path>
  <path fill="#000000" d="M 167.300781 198.425781 C 162.433594 198.425781 157.96875 201.582031 156.492188 206.417969 C 154.726562 212.203125 157.808594 218.320312 163.511719 220.347656 L 245.4375 247.859375 C 245.441406 247.863281 245.441406 247.863281 245.445312 247.863281 C 249.585938 249.335938 254.210938 249.046875 258.140625 247.074219 C 262.066406 245.097656 265.054688 241.554688 266.335938 237.355469 C 267.628906 233.121094 267.113281 228.492188 264.917969 224.644531 C 262.730469 220.796875 259.003906 217.992188 254.703125 216.941406 L 169.992188 198.75 C 169.089844 198.53125 168.1875 198.425781 167.300781 198.425781 Z M 250.855469 249.800781 C 248.910156 249.800781 246.964844 249.472656 245.109375 248.8125 L 163.183594 221.300781 C 156.964844 219.089844 153.605469 212.425781 155.527344 206.125 C 157.429688 199.894531 163.886719 196.222656 170.21875 197.769531 L 254.929688 215.960938 C 259.511719 217.078125 263.46875 220.0625 265.796875 224.144531 C 268.125 228.230469 268.671875 233.152344 267.300781 237.648438 C 265.9375 242.109375 262.761719 245.875 258.59375 247.972656 C 256.179688 249.183594 253.519531 249.800781 250.855469 249.800781 " fill-opacity="1" fill-rule="nonzero"></path>
  <path fill="#5479f7" d="M 241.539062 177.546875 C 243.242188 178.503906 245.265625 178.722656 247.136719 178.148438 C 249.007812 177.574219 250.558594 176.257812 251.425781 174.507812 C 252.386719 172.582031 252.511719 170.347656 251.777344 168.324219 C 251.042969 166.300781 249.515625 164.667969 247.542969 163.800781 L 198.753906 142.316406 L 194.445312 150.992188 L 241.539062 177.546875 " fill-opacity="1" fill-rule="nonzero"></path>
  <path fill="#000000" d="M 241.785156 177.109375 C 243.363281 177.996094 245.257812 178.199219 246.988281 177.671875 C 248.71875 177.140625 250.171875 175.90625 250.976562 174.285156 C 251.863281 172.492188 251.984375 170.382812 251.300781 168.496094 C 250.617188 166.613281 249.175781 165.070312 247.339844 164.261719 L 198.988281 142.972656 L 195.109375 150.789062 Z M 245.046875 178.964844 C 243.742188 178.964844 242.445312 178.632812 241.292969 177.984375 L 194.195312 151.429688 C 193.960938 151.300781 193.871094 151.007812 193.992188 150.769531 L 198.300781 142.09375 C 198.417969 141.851562 198.707031 141.746094 198.953125 141.855469 L 247.746094 163.339844 C 249.832031 164.257812 251.472656 166.011719 252.25 168.152344 C 253.027344 170.296875 252.890625 172.695312 251.875 174.734375 C 250.949219 176.597656 249.273438 178.019531 247.28125 178.632812 C 246.554688 178.855469 245.800781 178.964844 245.046875 178.964844 " fill-opacity="1" fill-rule="nonzero"></path>
  <path fill="#5479f7" d="M 199.355469 156.367188 L 206.222656 142.539062 L 200.859375 141.71875 L 191.199219 136.929688 L 186.636719 132.832031 L 179.769531 146.65625 L 183.613281 150.402344 L 194.269531 155.683594 L 199.355469 156.367188 " fill-opacity="1" fill-rule="nonzero"></path>
  <path fill="#000000" d="M 194.417969 155.195312 L 199.066406 155.820312 L 205.464844 142.933594 L 200.785156 142.21875 C 200.734375 142.210938 200.683594 142.195312 200.636719 142.171875 L 190.976562 137.382812 C 190.9375 137.363281 190.898438 137.335938 190.863281 137.304688 L 186.792969 133.648438 L 180.386719 146.550781 L 183.90625 149.984375 Z M 199.355469 156.871094 C 199.335938 156.871094 199.3125 156.867188 199.289062 156.867188 L 194.203125 156.183594 C 194.148438 156.175781 194.09375 156.160156 194.042969 156.136719 L 183.390625 150.851562 C 183.34375 150.828125 183.300781 150.796875 183.261719 150.761719 L 179.421875 147.019531 C 179.261719 146.867188 179.222656 146.628906 179.320312 146.433594 L 186.1875 132.605469 C 186.253906 132.464844 186.386719 132.363281 186.542969 132.335938 C 186.695312 132.304688 186.855469 132.351562 186.972656 132.457031 L 191.488281 136.511719 L 201.015625 141.234375 L 206.300781 142.042969 C 206.457031 142.066406 206.59375 142.164062 206.667969 142.308594 C 206.746094 142.449219 206.746094 142.621094 206.675781 142.765625 L 199.808594 156.589844 C 199.722656 156.761719 199.546875 156.871094 199.355469 156.871094 " fill-opacity="1" fill-rule="nonzero"></path>
  <path fill="#99b9ff" d="M 240.023438 231.871094 C 240.023438 237.40625 244.515625 241.894531 250.058594 241.894531 C 255.601562 241.894531 260.09375 237.40625 260.09375 231.871094 C 260.09375 226.332031 255.601562 221.84375 250.058594 221.84375 C 244.515625 221.84375 240.023438 226.332031 240.023438 231.871094 " fill-opacity="1" fill-rule="nonzero"></path>
  <path fill="#99b9ff" d="M 206.953125 262.019531 C 206.953125 263.652344 208.277344 264.976562 209.914062 264.976562 C 211.546875 264.976562 212.871094 263.652344 212.871094 262.019531 C 212.871094 260.386719 211.546875 259.0625 209.914062 259.0625 C 208.277344 259.0625 206.953125 260.386719 206.953125 262.019531 " fill-opacity="1" fill-rule="nonzero"></path>
  <path fill="#99b9ff" d="M 160.335938 209.765625 C 160.335938 213.472656 163.34375 216.476562 167.054688 216.476562 C 170.769531 216.476562 173.777344 213.472656 173.777344 209.765625 C 173.777344 206.054688 170.769531 203.046875 167.054688 203.046875 C 163.34375 203.046875 160.335938 206.054688 160.335938 209.765625 " fill-opacity="1" fill-rule="nonzero"></path>
  <path fill="#99b9ff" d="M 241.671875 171.457031 C 242.179688 172.964844 243.8125 173.773438 245.320312 173.265625 C 246.828125 172.757812 247.636719 171.125 247.128906 169.621094 C 246.621094 168.117188 244.988281 167.304688 243.484375 167.8125 C 241.976562 168.320312 241.164062 169.953125 241.671875 171.457031 " fill-opacity="1" fill-rule="nonzero"></path>
  <path fill="#5479f7" d="M 187.8125 139.285156 L 184.707031 145.535156 L 187.8125 139.285156 " fill-opacity="1" fill-rule="nonzero"></path>
  <path fill="#000000" d="M 184.707031 146.039062 C 184.632812 146.039062 184.554688 146.023438 184.484375 145.988281 C 184.234375 145.863281 184.132812 145.5625 184.257812 145.3125 L 187.359375 139.058594 C 187.484375 138.808594 187.789062 138.710938 188.035156 138.832031 C 188.285156 138.957031 188.386719 139.257812 188.261719 139.507812 L 185.15625 145.761719 C 185.070312 145.9375 184.890625 146.039062 184.707031 146.039062 " fill-opacity="1" fill-rule="nonzero"></path>
  <path fill="#5479f7" d="M 199.199219 145.132812 L 196.097656 151.386719 L 199.199219 145.132812 " fill-opacity="1" fill-rule="nonzero"></path>
  <path fill="#000000" d="M 196.09375 151.890625 C 196.019531 151.890625 195.945312 151.875 195.871094 151.835938 C 195.621094 151.714844 195.519531 151.410156 195.644531 151.164062 L 198.75 144.910156 C 198.875 144.660156 199.175781 144.558594 199.425781 144.683594 C 199.675781 144.804688 199.777344 145.109375 199.652344 145.355469 L 196.546875 151.609375 C 196.457031 151.785156 196.28125 151.890625 196.09375 151.890625 " fill-opacity="1" fill-rule="nonzero"></path>
  <path fill="#000000" d="M 197.019531 279.527344 L 289.007812 279.527344 L 289.007812 275.429688 L 197.019531 275.429688 L 197.019531 279.527344 " fill-opacity="1" fill-rule="nonzero"></path>
  <path fill="#000000" d="M 254.03125 245.652344 C 253.808594 245.652344 253.605469 245.507812 253.542969 245.285156 C 253.46875 245.015625 253.625 244.738281 253.894531 244.664062 C 259.410156 243.136719 263.257812 238.074219 263.257812 232.351562 C 263.257812 231.324219 263.136719 230.304688 262.898438 229.320312 C 262.832031 229.046875 262.996094 228.777344 263.265625 228.710938 C 263.539062 228.640625 263.808594 228.808594 263.878906 229.078125 C 264.136719 230.144531 264.265625 231.246094 264.265625 232.351562 C 264.265625 238.523438 260.113281 243.988281 254.164062 245.632812 C 254.121094 245.648438 254.074219 245.652344 254.03125 245.652344 " fill-opacity="1" fill-rule="nonzero"></path>
  <path fill="#000000" d="M 250.339844 246.074219 C 250.324219 246.074219 250.3125 246.074219 250.296875 246.074219 C 247.855469 245.855469 245.503906 244.984375 243.503906 243.554688 C 243.277344 243.390625 243.226562 243.078125 243.386719 242.851562 C 243.550781 242.625 243.863281 242.574219 244.089844 242.734375 C 245.945312 244.0625 248.121094 244.867188 250.386719 245.066406 C 250.660156 245.09375 250.867188 245.335938 250.84375 245.613281 C 250.820312 245.878906 250.597656 246.074219 250.339844 246.074219 " fill-opacity="1" fill-rule="nonzero"></path>
  <path fill="#000000" d="M 168.457031 219.039062 C 168.210938 219.039062 168 218.863281 167.960938 218.613281 C 167.914062 218.339844 168.101562 218.082031 168.378906 218.039062 C 170.320312 217.734375 172.101562 216.742188 173.398438 215.25 C 173.578125 215.039062 173.898438 215.015625 174.105469 215.199219 C 174.316406 215.378906 174.339844 215.699219 174.160156 215.90625 C 172.707031 217.578125 170.710938 218.691406 168.535156 219.035156 C 168.507812 219.039062 168.484375 219.039062 168.457031 219.039062 " fill-opacity="1" fill-rule="nonzero"></path>
  <path fill="#000000" d="M 162.535156 217.917969 C 162.449219 217.917969 162.363281 217.894531 162.28125 217.847656 C 159.429688 216.164062 157.660156 213.066406 157.660156 209.765625 C 157.660156 207.164062 158.753906 204.660156 160.660156 202.890625 C 160.863281 202.699219 161.179688 202.710938 161.371094 202.914062 C 161.558594 203.117188 161.546875 203.4375 161.34375 203.625 C 159.644531 205.207031 158.671875 207.445312 158.671875 209.765625 C 158.671875 212.710938 160.25 215.476562 162.792969 216.984375 C 163.035156 217.121094 163.113281 217.433594 162.972656 217.671875 C 162.878906 217.832031 162.710938 217.917969 162.535156 217.917969 " fill-opacity="1" fill-rule="nonzero"></path>
  <path fill="#000000" d="M 240.445312 173.511719 C 240.277344 173.511719 240.113281 173.429688 240.015625 173.273438 C 239.804688 172.9375 239.632812 172.570312 239.503906 172.1875 C 239.128906 171.078125 239.140625 169.914062 239.53125 168.8125 C 239.621094 168.550781 239.910156 168.414062 240.171875 168.507812 C 240.4375 168.601562 240.574219 168.890625 240.480469 169.152344 C 240.164062 170.035156 240.15625 170.972656 240.460938 171.867188 C 240.5625 172.175781 240.703125 172.46875 240.871094 172.742188 C 241.019531 172.980469 240.949219 173.289062 240.710938 173.4375 C 240.628906 173.488281 240.535156 173.511719 240.445312 173.511719 " fill-opacity="1" fill-rule="nonzero"></path>
  <path fill="#000000" d="M 244.394531 175.703125 C 244.121094 175.703125 243.847656 175.679688 243.578125 175.636719 C 243.304688 175.59375 243.117188 175.335938 243.160156 175.058594 C 243.207031 174.785156 243.464844 174.597656 243.738281 174.644531 C 244.402344 174.75 245.089844 174.691406 245.730469 174.480469 C 247.28125 173.957031 248.386719 172.5625 248.542969 170.933594 C 248.570312 170.65625 248.820312 170.449219 249.09375 170.476562 C 249.371094 170.503906 249.574219 170.75 249.542969 171.027344 C 249.351562 173.054688 247.980469 174.78125 246.050781 175.433594 C 245.515625 175.613281 244.957031 175.703125 244.394531 175.703125 " fill-opacity="1" fill-rule="nonzero"></path>
  <path fill="#ffffff" d="M 160.035156 281.175781 C 159.90625 281.175781 159.777344 281.125 159.679688 281.027344 C 159.484375 280.832031 159.484375 280.511719 159.679688 280.316406 L 188.726562 251.292969 C 188.921875 251.097656 189.242188 251.097656 189.4375 251.292969 C 189.632812 251.492188 189.632812 251.808594 189.4375 252.007812 L 160.394531 281.027344 C 160.292969 281.125 160.164062 281.175781 160.035156 281.175781 " fill-opacity="1" fill-rule="nonzero"></path>
  <path fill="#ffffff" d="M 166.914062 262.054688 C 166.785156 262.054688 166.65625 262.007812 166.558594 261.910156 C 166.359375 261.714844 166.359375 261.394531 166.558594 261.199219 L 189.785156 237.988281 C 189.980469 237.792969 190.300781 237.792969 190.496094 237.988281 C 190.691406 238.183594 190.691406 238.503906 190.496094 238.703125 L 167.269531 261.910156 C 167.171875 262.007812 167.042969 262.054688 166.914062 262.054688 " fill-opacity="1" fill-rule="nonzero"></path>
  <path fill="#000000" d="M 21.371094 155.640625 C 21.242188 155.640625 21.113281 155.59375 21.011719 155.492188 C 20.816406 155.296875 20.816406 154.976562 21.011719 154.78125 L 27.109375 148.691406 C 28.785156 147.015625 31.511719 147.015625 33.1875 148.691406 C 34.46875 149.972656 36.554688 149.972656 37.839844 148.691406 L 55.640625 130.902344 C 55.835938 130.707031 56.15625 130.707031 56.351562 130.902344 C 56.550781 131.101562 56.550781 131.421875 56.351562 131.617188 L 38.550781 149.402344 C 36.875 151.074219 34.148438 151.074219 32.476562 149.402344 C 31.191406 148.121094 29.105469 148.121094 27.824219 149.402344 L 21.726562 155.492188 C 21.628906 155.59375 21.5 155.640625 21.371094 155.640625 " fill-opacity="1" fill-rule="nonzero"></path>
  <path fill="#000000" d="M 31.296875 130.886719 C 31.035156 130.886719 30.777344 130.941406 30.535156 131.050781 C 29.570312 131.480469 29.132812 132.636719 29.558594 133.621094 C 29.765625 134.105469 30.144531 134.46875 30.625 134.65625 C 31.09375 134.839844 31.601562 134.824219 32.058594 134.621094 C 33.019531 134.1875 33.457031 133.03125 33.03125 132.046875 C 32.824219 131.5625 32.445312 131.199219 31.96875 131.011719 C 31.75 130.925781 31.523438 130.886719 31.296875 130.886719 Z M 31.296875 135.792969 C 30.945312 135.792969 30.597656 135.726562 30.257812 135.59375 C 29.527344 135.3125 28.949219 134.75 28.632812 134.023438 C 27.992188 132.53125 28.660156 130.789062 30.121094 130.132812 C 30.828125 129.8125 31.613281 129.792969 32.332031 130.074219 C 33.066406 130.359375 33.644531 130.917969 33.957031 131.648438 C 34.601562 133.136719 33.933594 134.878906 32.46875 135.539062 C 32.09375 135.707031 31.695312 135.792969 31.296875 135.792969 " fill-opacity="1" fill-rule="nonzero"></path>
  <path fill="#000000" d="M 37.242188 128.3125 C 37.113281 128.3125 36.984375 128.265625 36.886719 128.167969 C 36.6875 127.96875 36.6875 127.652344 36.886719 127.453125 L 55.054688 109.300781 C 55.25 109.105469 55.570312 109.105469 55.765625 109.300781 C 55.964844 109.496094 55.964844 109.816406 55.765625 110.011719 L 37.597656 128.167969 C 37.5 128.265625 37.371094 128.3125 37.242188 128.3125 " fill-opacity="1" fill-rule="nonzero"></path>
  <path fill="#000000" d="M 163.789062 34.398438 C 163.660156 34.398438 163.53125 34.347656 163.433594 34.253906 C 163.234375 34.054688 163.234375 33.734375 163.433594 33.539062 L 172.492188 24.488281 C 172.6875 24.292969 173.007812 24.292969 173.203125 24.488281 C 173.402344 24.683594 173.402344 25.003906 173.203125 25.199219 L 164.144531 34.253906 C 164.046875 34.347656 163.917969 34.398438 163.789062 34.398438 " fill-opacity="1" fill-rule="nonzero"></path>
  <path fill="#ffffff" d="M 167.003906 52.695312 C 166.980469 54.460938 165.527344 55.871094 163.761719 55.847656 C 161.992188 55.824219 160.578125 54.371094 160.601562 52.609375 C 160.625 50.84375 162.078125 49.433594 163.847656 49.457031 L 167.003906 52.695312 " fill-opacity="1" fill-rule="nonzero"></path>
  <path fill="#5479f7" d="M 163.804688 56.351562 C 163.789062 56.351562 163.769531 56.351562 163.753906 56.347656 C 162.761719 56.335938 161.839844 55.9375 161.148438 55.230469 C 160.460938 54.523438 160.085938 53.589844 160.097656 52.601562 C 160.128906 50.5625 161.820312 48.921875 163.855469 48.953125 C 164.132812 48.957031 164.355469 49.1875 164.351562 49.464844 C 164.347656 49.742188 164.109375 49.976562 163.839844 49.960938 C 162.351562 49.929688 161.128906 51.132812 161.105469 52.613281 C 161.097656 53.335938 161.367188 54.011719 161.871094 54.527344 C 162.371094 55.042969 163.046875 55.332031 163.769531 55.34375 C 165.25 55.359375 166.480469 54.171875 166.5 52.6875 C 166.507812 52.410156 166.726562 52.191406 167.015625 52.191406 C 167.292969 52.195312 167.511719 52.425781 167.511719 52.703125 C 167.484375 54.722656 165.824219 56.351562 163.804688 56.351562 " fill-opacity="1" fill-rule="nonzero"></path>
  <path fill="#ffffff" d="M 172.328125 44.445312 L 196.453125 20.121094 L 172.328125 44.445312 " fill-opacity="1" fill-rule="nonzero"></path>
  <path fill="#5479f7" d="M 172.328125 44.945312 C 172.203125 44.945312 172.074219 44.898438 171.972656 44.800781 C 171.777344 44.605469 171.777344 44.289062 171.972656 44.089844 L 196.09375 19.769531 C 196.289062 19.570312 196.609375 19.566406 196.808594 19.761719 C 197.003906 19.960938 197.007812 20.277344 196.808594 20.472656 L 172.6875 44.800781 C 172.589844 44.898438 172.457031 44.945312 172.328125 44.945312 " fill-opacity="1" fill-rule="nonzero"></path>
  <path fill="#99b9ff" d="M 241.53125 202.25 C 241.390625 200.652344 242.578125 199.242188 244.175781 199.105469 C 245.777344 198.964844 247.183594 200.148438 247.320312 201.75 C 247.460938 203.347656 246.277344 204.753906 244.679688 204.894531 C 243.078125 205.03125 241.667969 203.847656 241.53125 202.25 " fill-opacity="1" fill-rule="nonzero"></path>
  <path fill="#000000" d="M 272.820312 201.386719 C 272.8125 201.386719 272.808594 201.386719 272.800781 201.386719 L 271.015625 201.300781 C 270.738281 201.285156 270.523438 201.050781 270.539062 200.773438 C 270.550781 200.496094 270.785156 200.28125 271.066406 200.292969 L 272.847656 200.382812 C 273.125 200.394531 273.339844 200.628906 273.328125 200.910156 C 273.3125 201.179688 273.089844 201.386719 272.820312 201.386719 " fill-opacity="1" fill-rule="nonzero"></path>
  <path fill="#000000" d="M 266.589844 201.082031 C 266.582031 201.082031 266.570312 201.082031 266.566406 201.082031 L 264.785156 200.992188 C 264.503906 200.980469 264.292969 200.746094 264.304688 200.46875 C 264.320312 200.1875 264.554688 199.976562 264.832031 199.988281 L 266.613281 200.078125 C 266.890625 200.089844 267.105469 200.324219 267.09375 200.605469 C 267.078125 200.871094 266.855469 201.082031 266.589844 201.082031 " fill-opacity="1" fill-rule="nonzero"></path>
  <path fill="#000000" d="M 268.949219 199.003906 C 268.9375 199.003906 268.925781 199 268.917969 199 C 268.640625 198.984375 268.425781 198.746094 268.445312 198.46875 L 268.554688 196.714844 C 268.570312 196.4375 268.804688 196.226562 269.085938 196.242188 C 269.363281 196.261719 269.574219 196.5 269.558594 196.777344 L 269.449219 198.53125 C 269.433594 198.796875 269.210938 199.003906 268.949219 199.003906 " fill-opacity="1" fill-rule="nonzero"></path>
  <path fill="#000000" d="M 268.574219 205.136719 C 268.5625 205.136719 268.550781 205.136719 268.542969 205.132812 C 268.265625 205.117188 268.050781 204.878906 268.070312 204.597656 L 268.179688 202.847656 C 268.195312 202.570312 268.433594 202.359375 268.710938 202.375 C 268.988281 202.394531 269.199219 202.632812 269.183594 202.910156 L 269.078125 204.660156 C 269.058594 204.925781 268.839844 205.136719 268.574219 205.136719 " fill-opacity="1" fill-rule="nonzero"></path>
</svg>
