<svg xmlns="http://www.w3.org/2000/svg" xmlns:xlink="http://www.w3.org/1999/xlink" width="400" viewBox="0 0 300 299.999988" height="400" preserveAspectRatio="xMidYMid meet"><path fill="#ffffff" d="M 231.410156 267.238281 C 305.054688 221.214844 306.042969 138.496094 306.019531 134.703125 C 305.761719 93.257812 286.734375 33.382812 235.3125 10.445312 C 210.941406 -0.425781 172.417969 -6.054688 144.953125 12.25 C 119.304688 29.34375 130.421875 49.234375 102.128906 83.375 C 69.542969 122.691406 43.332031 117.382812 21.484375 151.722656 C 7.050781 174.402344 13.417969 201.855469 15.242188 209.726562 C 28.628906 267.453125 98.890625 287.296875 106.773438 289.394531 C 169.328125 306.035156 220.820312 273.855469 231.410156 267.238281 " fill-opacity="1" fill-rule="nonzero"></path><path fill="#5479f7" d="M 87.410156 31.210938 L 281.734375 30.644531 C 285.640625 30.644531 288.707031 33.996094 288.363281 37.890625 L 274.761719 191.148438 C 274.457031 194.582031 271.578125 197.214844 268.132812 197.214844 L 28.765625 197.179688 C 24.859375 197.179688 21.75 193.480469 22.097656 189.585938 L 35.703125 37.273438 C 36.007812 33.84375 38.773438 30.835938 42.21875 30.835938 L 87.410156 31.210938 " fill-opacity="1" fill-rule="nonzero"></path><path fill="#ffffff" d="M 78.144531 31.210938 L 272.4375 31.210938 C 276.34375 31.210938 279.410156 34.5625 279.0625 38.453125 L 265.523438 190.621094 C 265.21875 194.054688 262.34375 196.6875 258.898438 196.6875 L 19.527344 196.6875 C 15.617188 196.6875 12.550781 193.335938 12.898438 189.445312 L 26.4375 37.277344 C 26.742188 33.84375 29.617188 31.210938 33.066406 31.210938 L 78.144531 31.210938 " fill-opacity="1" fill-rule="nonzero"></path><path fill="#000000" d="M 50.320312 197.222656 L 19.527344 197.222656 C 17.515625 197.222656 15.582031 196.371094 14.222656 194.882812 C 12.863281 193.402344 12.1875 191.402344 12.367188 189.394531 L 25.90625 37.230469 C 26.238281 33.496094 29.316406 30.679688 33.066406 30.679688 L 78.144531 30.679688 C 78.4375 30.679688 78.675781 30.917969 78.675781 31.210938 C 78.675781 31.507812 78.4375 31.746094 78.144531 31.746094 L 33.066406 31.746094 C 29.871094 31.746094 27.25 34.144531 26.96875 37.324219 L 13.429688 189.492188 C 13.277344 191.199219 13.851562 192.902344 15.007812 194.167969 C 16.164062 195.429688 17.8125 196.15625 19.527344 196.15625 L 50.320312 196.15625 C 50.613281 196.15625 50.855469 196.394531 50.855469 196.6875 C 50.855469 196.984375 50.613281 197.222656 50.320312 197.222656 " fill-opacity="1" fill-rule="nonzero"></path><path fill="#000000" d="M 273.375 101.410156 C 273.359375 101.410156 273.339844 101.410156 273.324219 101.410156 C 273.035156 101.382812 272.816406 101.121094 272.84375 100.832031 L 278.535156 38.40625 C 278.6875 36.699219 278.109375 34.996094 276.953125 33.734375 C 275.796875 32.46875 274.152344 31.742188 272.4375 31.742188 L 78.144531 31.742188 C 77.851562 31.742188 77.613281 31.503906 77.613281 31.210938 C 77.613281 30.914062 77.851562 30.675781 78.144531 30.675781 L 272.4375 30.675781 C 274.449219 30.675781 276.382812 31.527344 277.742188 33.011719 C 279.097656 34.5 279.773438 36.496094 279.59375 38.503906 L 273.90625 100.925781 C 273.878906 101.203125 273.648438 101.410156 273.375 101.410156 " fill-opacity="1" fill-rule="nonzero"></path><path fill="#ffffff" d="M 82.464844 37.410156 L 265.910156 37.410156 C 269.597656 37.410156 272.496094 40.5 272.167969 44.097656 L 259.386719 184.546875 C 259.097656 187.71875 256.378906 190.144531 253.125 190.144531 L 27.121094 190.144531 C 23.429688 190.144531 20.535156 187.050781 20.863281 183.460938 L 33.644531 43.007812 C 33.933594 39.835938 36.648438 37.410156 39.902344 37.410156 L 82.464844 37.410156 " fill-opacity="1" fill-rule="nonzero"></path><path fill="#5479f7" d="M 271.324219 53.460938 L 272.167969 44.164062 C 272.496094 40.570312 269.597656 37.453125 265.910156 37.453125 L 39.902344 37.453125 C 36.648438 37.453125 33.933594 39.90625 33.644531 43.074219 L 32.703125 53.460938 L 271.324219 53.460938 " fill-opacity="1" fill-rule="nonzero"></path><path fill="#5479f7" d="M 88.777344 99.109375 L 37.027344 99.109375 L 40.789062 59.996094 L 92.539062 59.996094 L 88.777344 99.109375 " fill-opacity="1" fill-rule="nonzero"></path><path fill="#5479f7" d="M 145.503906 99.378906 L 93.75 99.378906 L 97.511719 60.265625 L 149.265625 60.265625 L 145.503906 99.378906 " fill-opacity="1" fill-rule="nonzero"></path><path fill="#5479f7" d="M 202.574219 99.109375 L 150.820312 99.109375 L 154.582031 59.996094 L 206.335938 59.996094 L 202.574219 99.109375 " fill-opacity="1" fill-rule="nonzero"></path><path fill="#5479f7" d="M 194.597656 185.117188 L 29.050781 185.117188 L 35.386719 119.210938 L 200.9375 119.210938 L 194.597656 185.117188 " fill-opacity="1" fill-rule="nonzero"></path><path fill="#5479f7" d="M 201.003906 115.453125 L 35.453125 115.453125 L 36.613281 103.398438 L 202.164062 103.398438 L 201.003906 115.453125 " fill-opacity="1" fill-rule="nonzero"></path><path fill="#5479f7" d="M 251.585938 185.4375 L 200.621094 185.4375 L 212.300781 59.34375 L 263.265625 59.34375 L 251.585938 185.4375 " fill-opacity="1" fill-rule="nonzero"></path><path fill="#5479f7" d="M 202.433594 251.605469 C 197.894531 247.898438 193.132812 244.441406 188.253906 241.144531 C 178.351562 234.453125 167.917969 228.46875 157.371094 222.675781 C 151.820312 219.625 146.0625 216.867188 140.375 214.03125 C 134.65625 211.175781 128.917969 208.347656 123.183594 205.523438 C 117.9375 202.9375 112.695312 200.355469 107.460938 197.757812 C 95.566406 157.542969 82.644531 111.949219 85.210938 111.949219 L 280.261719 106.441406 C 284.851562 106.441406 287.933594 110.179688 287.128906 114.769531 L 263.492188 249.542969 C 262.6875 254.132812 258.296875 257.867188 253.703125 257.867188 L 210.296875 257.867188 C 207.738281 255.710938 205.023438 253.722656 202.433594 251.605469 " fill-opacity="1" fill-rule="nonzero"></path><path fill="#5479f7" d="M 79.644531 106.914062 L 276.21875 106.914062 C 280.558594 106.914062 283.457031 110.429688 282.695312 114.765625 L 259.058594 249.542969 C 258.300781 253.882812 254.164062 257.398438 249.828125 257.398438 L 53.253906 257.398438 C 48.914062 257.398438 46.011719 253.882812 46.773438 249.542969 L 70.410156 114.765625 C 71.171875 110.429688 75.304688 106.914062 79.644531 106.914062 " fill-opacity="1" fill-rule="nonzero"></path><path fill="#000000" d="M 276.324219 151.191406 C 276.292969 151.191406 276.261719 151.1875 276.230469 151.179688 C 275.941406 151.128906 275.746094 150.851562 275.796875 150.5625 L 282.171875 114.675781 C 282.515625 112.714844 282.074219 110.882812 280.925781 109.515625 C 279.804688 108.183594 278.132812 107.445312 276.21875 107.445312 L 260.042969 107.445312 C 259.75 107.445312 259.507812 107.207031 259.507812 106.914062 C 259.507812 106.621094 259.75 106.378906 260.042969 106.378906 L 276.21875 106.378906 C 278.453125 106.378906 280.414062 107.25 281.742188 108.828125 C 283.09375 110.441406 283.621094 112.582031 283.21875 114.863281 L 276.847656 150.75 C 276.800781 151.007812 276.578125 151.191406 276.324219 151.191406 " fill-opacity="1" fill-rule="nonzero"></path><path fill="#000000" d="M 48.046875 244.160156 C 48.015625 244.160156 47.984375 244.15625 47.953125 244.152344 C 47.664062 244.101562 47.46875 243.824219 47.519531 243.535156 L 69.886719 114.679688 C 70.6875 110.101562 75.066406 106.378906 79.644531 106.378906 L 132.160156 106.378906 C 132.457031 106.378906 132.695312 106.617188 132.695312 106.914062 C 132.695312 107.207031 132.457031 107.445312 132.160156 107.445312 L 79.644531 107.445312 C 75.558594 107.445312 71.652344 110.773438 70.9375 114.863281 L 48.570312 243.714844 C 48.527344 243.976562 48.300781 244.160156 48.046875 244.160156 " fill-opacity="1" fill-rule="nonzero"></path><path fill="#5479f7" d="M 22.230469 257.476562 L 250.839844 257.476562 C 253.886719 257.476562 256.363281 259.996094 256.363281 263.230469 C 256.363281 266.464844 253.886719 268.984375 250.839844 268.984375 L 22.230469 268.984375 C 19.179688 268.984375 16.703125 266.46875 16.703125 263.230469 C 16.703125 259.988281 19.179688 257.476562 22.230469 257.476562 " fill-opacity="1" fill-rule="nonzero"></path><path fill="#000000" d="M 173.015625 269.515625 L 22.230469 269.515625 C 18.832031 269.515625 16.171875 266.753906 16.171875 263.230469 C 16.171875 259.707031 18.832031 256.945312 22.230469 256.945312 L 200.605469 256.945312 L 208.890625 257.175781 C 209.1875 257.1875 209.417969 257.429688 209.410156 257.726562 C 209.402344 258.015625 209.164062 258.242188 208.878906 258.242188 C 208.871094 258.242188 208.867188 258.242188 208.859375 258.242188 L 200.589844 258.011719 L 22.230469 258.011719 C 19.429688 258.011719 17.238281 260.300781 17.238281 263.230469 C 17.238281 266.15625 19.429688 268.449219 22.230469 268.449219 L 200.605469 268.449219 L 210.753906 268.265625 C 210.757812 268.265625 210.761719 268.265625 210.765625 268.265625 C 211.054688 268.265625 211.292969 268.5 211.296875 268.789062 C 211.300781 269.085938 211.070312 269.328125 210.773438 269.332031 L 200.613281 269.515625 L 173.015625 269.515625 " fill-opacity="1" fill-rule="nonzero"></path><path fill="#ffffff" d="M 84.492188 112.109375 L 270.269531 112.109375 C 274.367188 112.109375 277.109375 115.386719 276.390625 119.421875 L 254.054688 244.890625 C 253.332031 248.929688 249.425781 252.203125 245.328125 252.203125 L 59.546875 252.203125 C 55.445312 252.203125 52.707031 248.929688 53.425781 244.890625 L 75.765625 119.421875 C 76.484375 115.386719 80.390625 112.109375 84.492188 112.109375 " fill-opacity="1" fill-rule="nonzero"></path><path fill="#ffffff" d="M 275.421875 124.875 L 276.390625 119.4375 C 277.109375 115.398438 274.367188 112.132812 270.269531 112.132812 L 84.492188 112.132812 C 80.390625 112.132812 76.484375 115.398438 75.765625 119.4375 L 74.792969 124.875 L 275.421875 124.875 " fill-opacity="1" fill-rule="nonzero"></path><path fill="#ffffff" d="M 189.058594 213.707031 L 68.253906 213.707031 L 83.71875 131.609375 L 204.34375 131.609375 L 189.058594 213.707031 " fill-opacity="1" fill-rule="nonzero"></path><path fill="#ffffff" d="M 182.484375 245.914062 L 61.882812 245.914062 L 67.277344 219.722656 L 187.875 219.722656 L 182.484375 245.914062 " fill-opacity="1" fill-rule="nonzero"></path><path fill="#ffffff" d="M 264.355469 155.792969 L 204.859375 155.792969 L 209.46875 131.242188 L 268.964844 131.242188 L 264.355469 155.792969 " fill-opacity="1" fill-rule="nonzero"></path><path fill="#ffffff" d="M 259.28125 186.398438 L 199.78125 186.398438 L 204.390625 161.847656 L 263.890625 161.847656 L 259.28125 186.398438 " fill-opacity="1" fill-rule="nonzero"></path><path fill="#ffffff" d="M 253.828125 215.660156 L 194.328125 215.660156 L 198.9375 191.109375 L 258.433594 191.109375 L 253.828125 215.660156 " fill-opacity="1" fill-rule="nonzero"></path><path fill="#ffffff" d="M 248.042969 246.265625 L 188.542969 246.265625 L 193.152344 221.714844 L 252.648438 221.714844 L 248.042969 246.265625 " fill-opacity="1" fill-rule="nonzero"></path><path fill="#000000" d="M 284.851562 294.386719 L 219.707031 294.386719 C 216.898438 294.386719 214.910156 292.117188 215.265625 289.320312 L 231.304688 162.597656 C 231.660156 159.796875 234.222656 157.53125 237.03125 157.53125 L 298.90625 156.804688 C 306.011719 156.804688 306.972656 159.796875 306.621094 162.597656 L 290.578125 289.320312 C 290.222656 292.117188 287.660156 294.386719 284.851562 294.386719 " fill-opacity="1" fill-rule="nonzero"></path><path fill="#5479f7" d="M 280.933594 294.386719 L 215.785156 294.386719 C 212.980469 294.386719 210.988281 292.113281 211.34375 289.304688 L 227.386719 162.175781 C 227.742188 159.367188 230.304688 157.09375 233.113281 157.09375 L 298.257812 157.09375 C 301.066406 157.09375 303.054688 159.367188 302.699219 162.175781 L 286.660156 289.304688 C 286.304688 292.113281 283.742188 294.386719 280.933594 294.386719 " fill-opacity="1" fill-rule="nonzero"></path><path fill="#ffffff" d="M 264.867188 163.558594 C 263.816406 163.558594 263.070312 162.707031 263.203125 161.65625 C 263.335938 160.605469 264.296875 159.75 265.347656 159.75 C 266.398438 159.75 267.144531 160.605469 267.011719 161.65625 C 266.878906 162.707031 265.917969 163.558594 264.867188 163.558594 " fill-opacity="1" fill-rule="nonzero"></path><path fill="#ffffff" d="M 215.058594 289.480469 L 230.371094 168.09375 C 230.457031 167.449219 231.046875 166.921875 231.695312 166.921875 L 297.191406 166.921875 C 297.839844 166.921875 298.296875 167.449219 298.214844 168.09375 L 282.898438 289.480469 C 282.820312 290.128906 282.226562 290.652344 281.578125 290.652344 L 216.082031 290.652344 C 215.433594 290.652344 214.972656 290.128906 215.058594 289.480469 " fill-opacity="1" fill-rule="nonzero"></path><path fill="#5479f7" d="M 297.332031 174.414062 L 298.214844 167.417969 C 298.296875 166.769531 297.839844 166.273438 297.191406 166.273438 L 231.695312 166.273438 C 231.046875 166.273438 230.457031 166.769531 230.371094 167.417969 L 229.484375 174.414062 L 297.332031 174.414062 " fill-opacity="1" fill-rule="nonzero"></path><path fill="#ffffff" d="M 296.089844 167.984375 C 296.089844 168.441406 295.71875 168.8125 295.261719 168.8125 C 294.804688 168.8125 294.433594 168.441406 294.433594 167.984375 C 294.433594 167.527344 294.804688 167.15625 295.261719 167.15625 C 295.71875 167.15625 296.089844 167.527344 296.089844 167.984375 " fill-opacity="1" fill-rule="nonzero"></path><path fill="#ffffff" d="M 295.851562 170.429688 C 295.851562 170.886719 295.480469 171.257812 295.023438 171.257812 C 294.566406 171.257812 294.195312 170.886719 294.195312 170.429688 C 294.195312 169.96875 294.566406 169.601562 295.023438 169.601562 C 295.480469 169.601562 295.851562 169.96875 295.851562 170.429688 " fill-opacity="1" fill-rule="nonzero"></path><path fill="#ffffff" d="M 295.574219 172.832031 C 295.574219 173.292969 295.203125 173.660156 294.75 173.660156 C 294.289062 173.660156 293.921875 173.292969 293.921875 172.832031 C 293.921875 172.375 294.289062 172.003906 294.75 172.003906 C 295.203125 172.003906 295.574219 172.375 295.574219 172.832031 " fill-opacity="1" fill-rule="nonzero"></path><path fill="#ffffff" d="M 289.988281 212.628906 L 227.96875 212.628906 L 232.382812 177.894531 L 294.402344 177.894531 L 289.988281 212.628906 " fill-opacity="1" fill-rule="nonzero"></path><path fill="#ffffff" d="M 284.886719 249.953125 L 222.867188 249.953125 L 227.285156 215.21875 L 289.304688 215.21875 L 284.886719 249.953125 " fill-opacity="1" fill-rule="nonzero"></path><path fill="#ffffff" d="M 280.421875 287.84375 L 218.398438 287.84375 L 222.816406 253.113281 L 284.839844 253.113281 L 280.421875 287.84375 " fill-opacity="1" fill-rule="nonzero"></path><path fill="#000000" d="M 218.734375 230.722656 L 219.265625 230.792969 L 211.875 289.371094 C 211.71875 290.582031 212.046875 291.714844 212.792969 292.558594 C 213.527344 293.394531 214.589844 293.855469 215.785156 293.855469 L 280.933594 293.855469 C 283.476562 293.855469 285.808594 291.785156 286.128906 289.238281 L 302.171875 162.109375 C 302.324219 160.898438 302 159.765625 301.25 158.921875 C 300.515625 158.085938 299.453125 157.625 298.257812 157.625 L 233.109375 157.625 C 230.566406 157.625 228.238281 159.695312 227.914062 162.242188 L 219.265625 230.792969 Z M 280.933594 294.921875 L 215.785156 294.921875 C 214.28125 294.921875 212.933594 294.332031 211.992188 293.265625 C 211.042969 292.1875 210.625 290.757812 210.816406 289.238281 L 226.855469 162.109375 C 227.242188 159.050781 230.050781 156.558594 233.109375 156.558594 L 298.257812 156.558594 C 299.761719 156.558594 301.109375 157.148438 302.050781 158.214844 C 303 159.292969 303.417969 160.722656 303.226562 162.242188 L 287.1875 289.371094 C 286.800781 292.429688 283.996094 294.921875 280.933594 294.921875 " fill-opacity="1" fill-rule="nonzero"></path><path fill="#ffffff" d="M 126.511719 272.328125 L 128.121094 283.621094 L 131.601562 283.621094 L 131.792969 272.515625 L 126.511719 272.328125 " fill-opacity="1" fill-rule="nonzero"></path><path fill="#000000" d="M 128.582031 283.089844 L 131.078125 283.089844 L 131.253906 273.03125 L 127.128906 272.886719 Z M 131.601562 284.152344 L 128.121094 284.152344 C 127.855469 284.152344 127.628906 283.957031 127.59375 283.695312 L 125.984375 272.40625 C 125.960938 272.246094 126.007812 272.089844 126.113281 271.972656 C 126.21875 271.855469 126.375 271.789062 126.53125 271.796875 L 131.8125 271.984375 C 132.105469 271.992188 132.332031 272.234375 132.328125 272.523438 L 132.132812 283.632812 C 132.128906 283.921875 131.890625 284.152344 131.601562 284.152344 " fill-opacity="1" fill-rule="nonzero"></path><path fill="#ffffff" d="M 127.980469 294.417969 C 129.644531 294.597656 132.371094 294.710938 135.550781 294.164062 C 136.589844 293.984375 137.25 292.949219 136.964844 291.929688 C 136.167969 289.09375 134.449219 283.730469 132.285156 281.285156 L 131.816406 282.664062 L 131.058594 281.40625 C 130.957031 281.234375 130.777344 281.121094 130.578125 281.101562 L 129.007812 280.957031 C 128.683594 280.925781 128.382812 281.152344 128.328125 281.476562 L 128.121094 282.664062 L 127.523438 281.132812 L 126.40625 292.476562 C 126.3125 293.445312 127.011719 294.3125 127.980469 294.417969 " fill-opacity="1" fill-rule="nonzero"></path><path fill="#000000" d="M 127.859375 283.132812 L 126.9375 292.527344 C 126.871094 293.207031 127.363281 293.816406 128.035156 293.886719 C 129.71875 294.066406 132.367188 294.171875 135.457031 293.640625 C 135.8125 293.578125 136.113281 293.378906 136.304688 293.074219 C 136.496094 292.773438 136.546875 292.417969 136.449219 292.074219 C 135.714844 289.460938 134.277344 284.960938 132.472656 282.386719 L 132.320312 282.839844 C 132.253906 283.035156 132.078125 283.171875 131.871094 283.195312 C 131.664062 283.21875 131.464844 283.117188 131.359375 282.941406 L 130.601562 281.679688 C 130.585938 281.652344 130.558594 281.636719 130.527344 281.632812 L 128.960938 281.488281 C 128.902344 281.480469 128.863281 281.515625 128.851562 281.570312 L 128.644531 282.757812 C 128.601562 282.992188 128.410156 283.171875 128.171875 283.195312 C 128.0625 283.207031 127.953125 283.183594 127.859375 283.132812 Z M 130.824219 295.097656 C 129.6875 295.097656 128.703125 295.03125 127.921875 294.945312 C 126.671875 294.8125 125.753906 293.679688 125.875 292.425781 L 126.992188 281.078125 C 127.015625 280.835938 127.207031 280.636719 127.449219 280.605469 C 127.679688 280.574219 127.90625 280.695312 128.003906 280.90625 C 128.242188 280.582031 128.636719 280.386719 129.058594 280.425781 L 130.628906 280.570312 C 130.996094 280.605469 131.328125 280.816406 131.519531 281.132812 L 131.683594 281.40625 L 131.785156 281.113281 C 131.84375 280.933594 131.996094 280.800781 132.183594 280.765625 C 132.367188 280.726562 132.558594 280.789062 132.6875 280.933594 C 134.902344 283.4375 136.640625 288.808594 137.476562 291.785156 C 137.652344 292.414062 137.554688 293.089844 137.207031 293.640625 C 136.855469 294.195312 136.285156 294.578125 135.640625 294.691406 C 133.863281 294.996094 132.226562 295.097656 130.824219 295.097656 " fill-opacity="1" fill-rule="nonzero"></path><path fill="#000000" d="M 131.9375 293.171875 C 129.523438 293.171875 127.667969 292.71875 127.554688 292.6875 C 127.265625 292.617188 127.09375 292.328125 127.167969 292.042969 C 127.238281 291.757812 127.527344 291.582031 127.8125 291.65625 C 127.851562 291.664062 131.902344 292.652344 135.691406 291.65625 C 135.976562 291.582031 136.265625 291.753906 136.339844 292.035156 C 136.414062 292.320312 136.246094 292.613281 135.960938 292.6875 C 134.578125 293.050781 133.183594 293.171875 131.9375 293.171875 " fill-opacity="1" fill-rule="nonzero"></path><path fill="#000000" d="M 133.339844 288.753906 L 129.605469 288.753906 C 129.3125 288.753906 129.074219 288.515625 129.074219 288.222656 C 129.074219 287.929688 129.3125 287.6875 129.605469 287.6875 L 133.339844 287.6875 C 133.632812 287.6875 133.871094 287.929688 133.871094 288.222656 C 133.871094 288.515625 133.632812 288.753906 133.339844 288.753906 " fill-opacity="1" fill-rule="nonzero"></path><path fill="#ffffff" d="M 96.972656 273.335938 L 95.523438 286.496094 L 89.988281 287.660156 L 90.324219 272.226562 L 96.972656 273.335938 " fill-opacity="1" fill-rule="nonzero"></path><path fill="#000000" d="M 90.84375 272.851562 L 90.535156 287 L 95.035156 286.054688 L 96.386719 273.777344 Z M 89.988281 288.191406 C 89.863281 288.191406 89.742188 288.148438 89.648438 288.070312 C 89.523438 287.964844 89.453125 287.808594 89.457031 287.644531 L 89.792969 272.214844 C 89.796875 272.058594 89.867188 271.914062 89.984375 271.816406 C 90.105469 271.714844 90.261719 271.675781 90.414062 271.699219 L 97.058594 272.8125 C 97.339844 272.855469 97.53125 273.113281 97.5 273.394531 L 96.054688 286.558594 C 96.027344 286.785156 95.859375 286.972656 95.632812 287.019531 L 90.097656 288.179688 C 90.0625 288.1875 90.023438 288.191406 89.988281 288.191406 " fill-opacity="1" fill-rule="nonzero"></path><path fill="#ffffff" d="M 97.859375 293.398438 C 97.859375 293.398438 98.570312 287.066406 96.585938 284.175781 L 92.15625 285.75 L 92.15625 284.804688 C 92.15625 284.5 91.9375 284.25 91.660156 284.230469 L 89.191406 284.089844 C 88.269531 284.039062 87.351562 284.230469 86.511719 284.640625 C 83.550781 286.097656 76.742188 289.847656 76.957031 293.441406 C 76.957031 293.441406 82.320312 294.769531 97.859375 293.398438 " fill-opacity="1" fill-rule="nonzero"></path><path fill="#000000" d="M 97.859375 293.398438 L 97.863281 293.398438 Z M 77.503906 293.003906 C 79.011719 293.261719 84.777344 293.988281 97.371094 292.90625 C 97.476562 291.527344 97.683594 287.195312 96.359375 284.820312 L 92.335938 286.253906 C 92.171875 286.3125 91.992188 286.285156 91.847656 286.1875 C 91.707031 286.085938 91.625 285.925781 91.625 285.75 L 91.625 284.804688 C 91.625 284.777344 91.613281 284.761719 91.609375 284.757812 L 89.160156 284.625 C 88.339844 284.578125 87.503906 284.75 86.746094 285.121094 C 81.160156 287.867188 77.765625 290.777344 77.503906 293.003906 Z M 85.300781 294.554688 C 79.339844 294.554688 76.976562 293.996094 76.828125 293.957031 C 76.601562 293.902344 76.441406 293.707031 76.425781 293.472656 C 76.199219 289.699219 82.5 286.023438 86.273438 284.164062 C 87.199219 283.710938 88.21875 283.5 89.222656 283.558594 L 91.691406 283.703125 C 92.25 283.730469 92.691406 284.21875 92.691406 284.804688 L 92.691406 284.996094 L 96.40625 283.671875 C 96.636719 283.59375 96.886719 283.671875 97.023438 283.871094 C 99.097656 286.894531 98.421875 293.191406 98.390625 293.457031 C 98.363281 293.710938 98.160156 293.90625 97.90625 293.929688 C 92.574219 294.398438 88.4375 294.554688 85.300781 294.554688 " fill-opacity="1" fill-rule="nonzero"></path><path fill="#000000" d="M 90.320312 292.605469 C 83.699219 292.605469 78.628906 291.597656 78.5625 291.585938 C 78.273438 291.527344 78.085938 291.246094 78.144531 290.957031 C 78.203125 290.667969 78.484375 290.480469 78.773438 290.539062 C 78.859375 290.558594 87.476562 292.265625 96.855469 291.179688 C 97.148438 291.144531 97.414062 291.351562 97.445312 291.644531 C 97.480469 291.9375 97.269531 292.203125 96.980469 292.234375 C 94.675781 292.503906 92.417969 292.605469 90.320312 292.605469 " fill-opacity="1" fill-rule="nonzero"></path><path fill="#000000" d="M 85.054688 289.261719 C 84.886719 289.261719 84.726562 289.1875 84.621094 289.039062 C 84.449219 288.800781 84.503906 288.46875 84.742188 288.296875 L 89.007812 285.230469 C 89.246094 285.058594 89.578125 285.113281 89.75 285.351562 C 89.921875 285.589844 89.867188 285.925781 89.628906 286.09375 L 85.363281 289.160156 C 85.269531 289.230469 85.164062 289.261719 85.054688 289.261719 " fill-opacity="1" fill-rule="nonzero"></path><path fill="#5479f7" d="M 95.246094 187.941406 C 95.246094 187.941406 87.300781 238.425781 88.992188 274.761719 L 97.824219 274.988281 C 97.824219 274.988281 107.292969 223.75 112.019531 214.582031 C 112.019531 214.582031 124.855469 261.300781 125.351562 274.597656 C 125.351562 274.597656 131.0625 275.171875 133.339844 274.351562 C 134.5625 261.519531 134.933594 250.601562 134.992188 242.261719 C 135.167969 218.394531 132.886719 207.554688 131.636719 202.410156 C 130.488281 197.6875 129.257812 193.847656 128.355469 191.253906 L 125.351562 182.679688 L 95.246094 187.941406 " fill-opacity="1" fill-rule="nonzero"></path><path fill="#ffffff" d="M 111.550781 214.058594 C 111.316406 214.058594 111.097656 213.898438 111.035156 213.660156 L 109.757812 208.71875 L 106.707031 208.089844 C 106.421875 208.03125 106.234375 207.746094 106.292969 207.457031 C 106.355469 207.171875 106.632812 206.984375 106.925781 207.046875 L 110.300781 207.742188 C 110.496094 207.78125 110.65625 207.933594 110.707031 208.128906 L 112.066406 213.390625 C 112.140625 213.675781 111.972656 213.964844 111.6875 214.039062 C 111.640625 214.050781 111.597656 214.058594 111.550781 214.058594 " fill-opacity="1" fill-rule="nonzero"></path><path fill="#000000" d="M 96.023438 143.164062 C 101.1875 142.582031 112.121094 141.542969 119.8125 142.183594 C 122.175781 142.378906 124.417969 143.300781 126.230469 144.832031 C 131.695312 149.445312 143.527344 161.003906 143.683594 174.683594 L 131.558594 172.925781 C 131.558594 172.925781 135.839844 188.261719 135.550781 190.726562 C 135.257812 193.195312 127.753906 197.386719 118.367188 193.945312 C 108.984375 190.507812 95.476562 190.925781 91.101562 193.945312 L 90.679688 175.023438 L 72.238281 175.023438 C 72.238281 175.023438 78.335938 155.175781 90.167969 145.59375 C 91.84375 144.238281 93.878906 143.402344 96.023438 143.164062 " fill-opacity="1" fill-rule="nonzero"></path><path fill="#ffffff" d="M 72.238281 175.023438 C 72.238281 175.023438 70.792969 181.621094 77.355469 183.605469 C 83.914062 185.585938 90.144531 173.644531 90.144531 173.644531 L 85.578125 170.996094 L 72.238281 175.023438 " fill-opacity="1" fill-rule="nonzero"></path><path fill="#000000" d="M 72.707031 175.4375 C 72.523438 176.707031 72.210938 181.492188 77.507812 183.09375 C 82.878906 184.714844 88.230469 175.949219 89.425781 173.84375 L 85.511719 171.574219 Z M 78.863281 184.363281 C 78.3125 184.363281 77.761719 184.28125 77.199219 184.113281 C 70.25 182.015625 71.703125 174.980469 71.71875 174.910156 C 71.757812 174.722656 71.898438 174.570312 72.082031 174.515625 L 85.425781 170.488281 C 85.566406 170.441406 85.71875 170.460938 85.84375 170.535156 L 90.414062 173.183594 C 90.660156 173.328125 90.75 173.636719 90.617188 173.890625 C 90.375 174.351562 85.078125 184.363281 78.863281 184.363281 " fill-opacity="1" fill-rule="nonzero"></path><path fill="#5479f7" d="M 114.789062 190.0625 L 82.542969 190.0625 C 81.726562 190.0625 81.015625 189.503906 80.820312 188.710938 L 74.308594 162.46875 C 74.03125 161.347656 74.878906 160.261719 76.035156 160.261719 L 108.277344 160.261719 C 109.097656 160.261719 109.808594 160.820312 110.003906 161.613281 L 116.511719 187.855469 C 116.792969 188.976562 115.941406 190.0625 114.789062 190.0625 " fill-opacity="1" fill-rule="nonzero"></path><path fill="#000000" d="M 76.035156 160.796875 C 75.648438 160.796875 75.292969 160.96875 75.054688 161.273438 C 74.816406 161.578125 74.734375 161.964844 74.828125 162.339844 L 81.335938 188.582031 C 81.472656 189.140625 81.96875 189.527344 82.542969 189.527344 L 114.789062 189.527344 C 115.175781 189.527344 115.53125 189.355469 115.769531 189.050781 C 116.007812 188.746094 116.089844 188.359375 115.996094 187.984375 L 109.488281 161.742188 C 109.347656 161.183594 108.851562 160.796875 108.277344 160.796875 Z M 114.789062 190.59375 L 82.542969 190.59375 C 81.480469 190.59375 80.558594 189.871094 80.300781 188.839844 L 73.792969 162.597656 C 73.621094 161.902344 73.773438 161.179688 74.214844 160.617188 C 74.65625 160.050781 75.320312 159.730469 76.035156 159.730469 L 108.277344 159.730469 C 109.34375 159.730469 110.265625 160.449219 110.523438 161.484375 L 117.03125 187.726562 C 117.203125 188.421875 117.050781 189.144531 116.609375 189.707031 C 116.167969 190.273438 115.503906 190.59375 114.789062 190.59375 " fill-opacity="1" fill-rule="nonzero"></path><path fill="#ffffff" d="M 76.703125 173.308594 L 77.648438 175.933594 L 85.402344 172.242188 C 85.402344 172.242188 89.664062 175.933594 79.332031 180.664062 C 75.027344 182.636719 76.703125 173.308594 76.703125 173.308594 " fill-opacity="1" fill-rule="nonzero"></path><path fill="#000000" d="M 76.960938 175.589844 C 76.824219 177.535156 76.945312 179.625 77.730469 180.234375 C 77.847656 180.324219 78.199219 180.597656 79.109375 180.179688 C 84.246094 177.828125 85.539062 175.839844 85.71875 174.585938 C 85.832031 173.792969 85.507812 173.203125 85.273438 172.894531 L 77.878906 176.414062 C 77.742188 176.480469 77.585938 176.484375 77.445312 176.425781 C 77.308594 176.371094 77.199219 176.257812 77.148438 176.113281 Z M 78.253906 181.46875 C 77.726562 181.46875 77.34375 181.28125 77.078125 181.078125 C 75.105469 179.546875 76.0625 173.859375 76.175781 173.214844 C 76.21875 172.976562 76.417969 172.796875 76.65625 172.777344 C 76.898438 172.761719 77.121094 172.902344 77.203125 173.128906 L 77.953125 175.199219 L 85.171875 171.761719 C 85.363281 171.671875 85.589844 171.699219 85.75 171.839844 C 85.804688 171.882812 87.027344 172.964844 86.773438 174.738281 C 86.457031 176.945312 84.027344 179.101562 79.554688 181.148438 C 79.046875 181.378906 78.617188 181.46875 78.253906 181.46875 " fill-opacity="1" fill-rule="nonzero"></path><path fill="#ffffff" d="M 122.304688 159.949219 C 122.304688 159.949219 136.800781 168.082031 139.789062 170.636719 C 142.78125 173.195312 146.023438 175.132812 141.808594 180.71875 C 137.59375 186.304688 119.625 163.929688 119.625 163.929688 C 119.625 163.929688 116.171875 164.5 114.96875 159.800781 C 114.96875 159.800781 109.140625 160.007812 108.929688 158.179688 L 117.148438 156.710938 C 118.210938 156.519531 119.300781 156.867188 120.054688 157.640625 L 122.304688 159.949219 " fill-opacity="1" fill-rule="nonzero"></path><path fill="#000000" d="M 119.621094 163.398438 C 119.78125 163.398438 119.9375 163.46875 120.039062 163.59375 C 123.953125 168.46875 135.136719 181.078125 139.9375 181.082031 C 139.953125 181.082031 139.964844 181.078125 139.980469 181.078125 C 140.582031 181.074219 141.042969 180.847656 141.382812 180.398438 C 144.964844 175.648438 142.941406 173.964844 140.144531 171.632812 C 139.910156 171.4375 139.675781 171.242188 139.441406 171.042969 C 136.527344 168.550781 122.191406 160.492188 122.046875 160.410156 C 122 160.386719 121.960938 160.355469 121.925781 160.320312 L 119.671875 158.011719 C 119.039062 157.367188 118.132812 157.074219 117.242188 157.234375 L 109.835938 158.558594 C 110.710938 159.070312 112.941406 159.339844 114.949219 159.269531 C 115.191406 159.257812 115.421875 159.425781 115.484375 159.667969 C 116.546875 163.808594 119.421875 163.421875 119.539062 163.402344 C 119.566406 163.398438 119.59375 163.398438 119.621094 163.398438 Z M 139.941406 182.144531 C 133.945312 182.144531 121.105469 166.597656 119.382812 164.480469 C 118.445312 164.5 115.726562 164.191406 114.566406 160.34375 C 112.75 160.367188 108.628906 160.21875 108.398438 158.242188 C 108.367188 157.960938 108.558594 157.707031 108.835938 157.65625 L 117.054688 156.183594 C 118.292969 155.964844 119.554688 156.367188 120.433594 157.265625 L 122.632812 159.519531 C 123.835938 160.195312 137.210938 167.734375 140.136719 170.234375 C 140.367188 170.429688 140.597656 170.621094 140.824219 170.8125 C 143.578125 173.105469 146.425781 175.480469 142.234375 181.039062 C 141.6875 181.761719 140.9375 182.132812 139.996094 182.144531 C 139.980469 182.144531 139.960938 182.144531 139.941406 182.144531 " fill-opacity="1" fill-rule="nonzero"></path><path fill="#000000" d="M 101.855469 133.703125 C 101.589844 134.15625 102.132812 135.039062 102.140625 135.035156 C 102.148438 135.03125 101.878906 132.457031 100.441406 131.804688 C 99.609375 131.425781 99.179688 132.054688 97.9375 131.882812 C 96.621094 131.703125 95.171875 130.726562 94.625 129.300781 C 93.96875 127.574219 94.917969 125.929688 95.511719 124.894531 C 96.105469 123.863281 96.863281 122.71875 98.171875 122.222656 C 99.882812 121.574219 100.597656 122.566406 102.554688 121.957031 C 104.148438 121.460938 104.03125 120.695312 105.449219 120.292969 C 106.628906 119.957031 110.03125 120.148438 110.792969 121.957031 C 111.277344 123.105469 110.234375 123.804688 110.753906 125.507812 C 111.066406 126.527344 111.554688 126.652344 111.914062 127.441406 C 112.800781 129.398438 111.691406 132.832031 109.570312 133.984375 C 106.699219 135.546875 102.476562 132.628906 101.855469 133.703125 " fill-opacity="1" fill-rule="nonzero"></path><path fill="#ffffff" d="M 103.085938 135.085938 L 102.417969 140.574219 C 102.289062 141.617188 101.535156 142.480469 100.519531 142.746094 L 97.695312 143.480469 L 106.394531 150.105469 L 116.171875 142.691406 L 112.667969 141.90625 C 111.660156 141.679688 110.882812 140.875 110.703125 139.859375 L 109.242188 131.773438 L 103.085938 135.085938 " fill-opacity="1" fill-rule="nonzero"></path><path fill="#000000" d="M 98.890625 143.722656 L 106.398438 149.4375 L 114.9375 142.957031 L 112.550781 142.425781 C 111.332031 142.152344 110.398438 141.183594 110.175781 139.953125 L 108.851562 132.589844 L 103.582031 135.425781 L 102.945312 140.636719 C 102.792969 141.910156 101.890625 142.9375 100.652344 143.261719 Z M 106.394531 150.640625 C 106.28125 150.640625 106.167969 150.601562 106.074219 150.53125 L 97.371094 143.90625 C 97.210938 143.78125 97.132812 143.574219 97.171875 143.375 C 97.214844 143.175781 97.363281 143.015625 97.5625 142.964844 L 100.382812 142.230469 C 101.195312 142.019531 101.785156 141.34375 101.886719 140.507812 L 102.558594 135.019531 C 102.578125 134.847656 102.679688 134.699219 102.832031 134.617188 L 108.992188 131.304688 C 109.140625 131.222656 109.320312 131.21875 109.476562 131.292969 C 109.628906 131.367188 109.738281 131.507812 109.769531 131.679688 L 111.226562 139.765625 C 111.371094 140.570312 111.980469 141.207031 112.78125 141.386719 L 116.289062 142.167969 C 116.492188 142.214844 116.648438 142.375 116.695312 142.574219 C 116.738281 142.777344 116.660156 142.988281 116.496094 143.113281 L 106.71875 150.53125 C 106.621094 150.601562 106.507812 150.640625 106.394531 150.640625 " fill-opacity="1" fill-rule="nonzero"></path><path fill="#ffffff" d="M 108.542969 132.886719 C 108.542969 132.886719 110.710938 132.070312 109.894531 130.28125 C 109.082031 128.492188 107.757812 129.8125 107.757812 129.8125 C 107.757812 129.8125 106.527344 125.402344 103.941406 127.140625 C 101.355469 128.882812 98.90625 129.511719 98.90625 129.511719 C 98.90625 129.511719 99.816406 133.953125 101.453125 136.90625 C 102.4375 138.683594 103.6875 139.925781 105.160156 139.328125 C 109.195312 137.691406 108.542969 132.886719 108.542969 132.886719 " fill-opacity="1" fill-rule="nonzero"></path><path fill="#000000" d="M 99.53125 129.882812 C 99.816406 131.09375 100.648438 134.355469 101.917969 136.648438 C 102.945312 138.503906 103.96875 139.238281 104.960938 138.835938 C 108.554688 137.375 108.039062 133.136719 108.015625 132.957031 C 107.984375 132.714844 108.125 132.476562 108.355469 132.390625 C 108.59375 132.296875 109.261719 131.945312 109.472656 131.417969 C 109.585938 131.144531 109.566406 130.84375 109.410156 130.5 C 109.292969 130.246094 109.101562 129.929688 108.855469 129.882812 C 108.582031 129.832031 108.230469 130.09375 108.132812 130.191406 C 107.996094 130.324219 107.804688 130.375 107.621094 130.324219 C 107.441406 130.277344 107.296875 130.136719 107.246094 129.957031 C 107.074219 129.347656 106.417969 127.683594 105.464844 127.332031 C 105.09375 127.195312 104.691406 127.277344 104.238281 127.582031 C 102.269531 128.90625 100.398438 129.601562 99.53125 129.882812 Z M 104.417969 140.011719 C 103.429688 140.011719 102.214844 139.382812 100.984375 137.164062 C 99.328125 134.171875 98.421875 129.804688 98.382812 129.621094 C 98.324219 129.34375 98.496094 129.070312 98.769531 128.996094 C 98.792969 128.992188 101.171875 128.363281 103.644531 126.699219 C 104.574219 126.074219 105.351562 126.152344 105.835938 126.332031 C 106.996094 126.761719 107.699219 128.132812 108.035156 128.984375 C 108.316406 128.855469 108.664062 128.765625 109.042969 128.832031 C 109.605469 128.9375 110.058594 129.347656 110.378906 130.058594 C 110.65625 130.671875 110.683594 131.28125 110.457031 131.828125 C 110.160156 132.546875 109.515625 132.992188 109.101562 133.214844 C 109.15625 134.46875 109.015625 138.339844 105.363281 139.820312 C 105.082031 139.9375 104.765625 140.011719 104.417969 140.011719 " fill-opacity="1" fill-rule="nonzero"></path><path fill="#ffffff" d="M 65.953125 57.132812 C 65.535156 65.402344 58.496094 71.769531 50.222656 71.355469 C 41.953125 70.941406 35.585938 63.898438 36 55.628906 C 36.414062 47.359375 43.457031 40.988281 51.726562 41.40625 C 60 41.820312 66.367188 48.863281 65.953125 57.132812 " fill-opacity="1" fill-rule="nonzero"></path><path fill="#000000" d="M 50.964844 41.382812 C 43.027344 41.382812 36.402344 47.613281 36 55.628906 C 35.585938 63.898438 41.953125 70.941406 50.222656 71.355469 C 50.480469 71.371094 50.734375 71.375 50.988281 71.375 C 58.921875 71.375 65.550781 65.144531 65.953125 57.132812 C 66.367188 48.859375 60 41.820312 51.726562 41.402344 C 51.472656 41.390625 51.21875 41.382812 50.964844 41.382812 Z M 50.964844 41.382812 L 50.964844 42.449219 C 51.199219 42.449219 51.4375 42.457031 51.675781 42.46875 C 59.347656 42.851562 65.273438 49.40625 64.886719 57.078125 C 64.515625 64.496094 58.410156 70.308594 50.988281 70.308594 C 50.753906 70.308594 50.515625 70.304688 50.277344 70.292969 C 42.605469 69.90625 36.679688 63.351562 37.066406 55.683594 C 37.4375 48.261719 43.542969 42.449219 50.964844 42.449219 L 50.964844 41.382812 " fill-opacity="1" fill-rule="nonzero"></path><path fill="#5479f7" d="M 49.3125 66.675781 C 48.652344 66.640625 48.0625 66.261719 47.753906 65.675781 L 42.039062 54.773438 C 41.5625 53.859375 41.914062 52.734375 42.824219 52.253906 C 43.738281 51.777344 44.867188 52.128906 45.34375 53.042969 L 49.535156 61.039062 L 57.164062 48.640625 C 57.703125 47.761719 58.851562 47.488281 59.730469 48.027344 C 60.605469 48.566406 60.882812 49.714844 60.339844 50.59375 L 50.996094 65.789062 C 50.644531 66.359375 50.011719 66.699219 49.34375 66.675781 C 49.332031 66.675781 49.324219 66.675781 49.3125 66.675781 " fill-opacity="1" fill-rule="nonzero"></path><path fill="#ffffff" d="M 276.050781 195.761719 C 275.582031 204.03125 268.5 210.355469 260.230469 209.886719 C 251.964844 209.417969 245.640625 202.335938 246.109375 194.066406 C 246.578125 185.800781 253.65625 179.476562 261.925781 179.945312 C 270.195312 180.410156 276.515625 187.492188 276.050781 195.761719 " fill-opacity="1" fill-rule="nonzero"></path><path fill="#000000" d="M 261.066406 179.921875 C 253.171875 179.921875 246.558594 186.089844 246.109375 194.066406 C 245.640625 202.335938 251.964844 209.417969 260.230469 209.886719 C 260.519531 209.902344 260.808594 209.910156 261.09375 209.910156 C 268.984375 209.910156 275.597656 203.742188 276.050781 195.761719 C 276.515625 187.492188 270.195312 180.414062 261.925781 179.945312 C 261.636719 179.929688 261.347656 179.921875 261.066406 179.921875 Z M 261.066406 179.921875 L 261.066406 180.984375 C 261.332031 180.984375 261.597656 180.992188 261.867188 181.007812 C 269.535156 181.441406 275.417969 188.035156 274.984375 195.703125 C 274.570312 203.070312 268.464844 208.84375 261.09375 208.84375 C 260.828125 208.84375 260.558594 208.835938 260.292969 208.824219 C 256.578125 208.613281 253.167969 206.96875 250.6875 204.191406 C 248.210938 201.417969 246.960938 197.84375 247.171875 194.128906 C 247.589844 186.757812 253.691406 180.984375 261.066406 180.984375 L 261.066406 179.921875 " fill-opacity="1" fill-rule="nonzero"></path><path fill="#5479f7" d="M 259.351562 205.199219 C 258.695312 205.160156 258.101562 204.777344 257.800781 204.191406 L 252.15625 193.25 C 251.683594 192.335938 252.042969 191.210938 252.957031 190.738281 C 253.875 190.265625 255 190.625 255.472656 191.539062 L 259.613281 199.5625 L 267.316406 187.214844 C 267.859375 186.339844 269.015625 186.070312 269.886719 186.617188 C 270.761719 187.164062 271.027344 188.316406 270.484375 189.1875 L 261.039062 204.324219 C 260.683594 204.890625 260.050781 205.226562 259.382812 205.199219 C 259.375 205.199219 259.363281 205.199219 259.351562 205.199219 " fill-opacity="1" fill-rule="nonzero"></path><path fill="#ffffff" d="M 183.148438 167.429688 C 182.808594 175.703125 175.828125 182.136719 167.550781 181.792969 C 159.277344 181.453125 152.84375 174.46875 153.1875 166.195312 C 153.527344 157.921875 160.511719 151.488281 168.785156 151.828125 C 177.058594 152.171875 183.492188 159.15625 183.148438 167.429688 " fill-opacity="1" fill-rule="nonzero"></path><path fill="#000000" d="M 168.15625 151.816406 C 160.160156 151.816406 153.519531 158.132812 153.1875 166.195312 C 152.84375 174.46875 159.277344 181.453125 167.550781 181.792969 C 167.761719 181.804688 167.972656 181.808594 168.179688 181.808594 C 176.175781 181.808594 182.820312 175.492188 183.148438 167.429688 C 183.492188 159.15625 177.058594 152.171875 168.785156 151.828125 C 168.574219 151.824219 168.367188 151.816406 168.15625 151.816406 Z M 168.160156 151.816406 L 168.160156 152.882812 C 168.351562 152.882812 168.546875 152.886719 168.742188 152.894531 C 172.460938 153.050781 175.894531 154.640625 178.414062 157.375 C 180.9375 160.113281 182.238281 163.667969 182.085938 167.386719 C 181.777344 174.875 175.667969 180.742188 168.179688 180.742188 C 167.984375 180.742188 167.789062 180.738281 167.59375 180.730469 C 159.921875 180.414062 153.933594 173.914062 154.25 166.238281 C 154.558594 158.75 160.667969 152.882812 168.15625 152.882812 L 168.160156 151.816406 " fill-opacity="1" fill-rule="nonzero"></path><path fill="#5479f7" d="M 166.597656 177.121094 C 165.9375 177.09375 165.34375 176.71875 165.03125 176.136719 L 159.21875 165.285156 C 158.730469 164.378906 159.074219 163.246094 159.980469 162.757812 C 160.890625 162.273438 162.019531 162.613281 162.507812 163.523438 L 166.773438 171.484375 L 174.285156 159.015625 C 174.820312 158.132812 175.964844 157.851562 176.847656 158.382812 C 177.726562 158.914062 178.011719 160.058594 177.480469 160.941406 L 168.273438 176.21875 C 167.925781 176.792969 167.300781 177.140625 166.628906 177.121094 C 166.617188 177.121094 166.609375 177.121094 166.597656 177.121094 " fill-opacity="1" fill-rule="nonzero"></path><path fill="#5479f7" d="M 165.445312 127.113281 C 161.378906 132.015625 153.960938 132.671875 148.875 128.574219 C 143.792969 124.480469 142.964844 117.1875 147.027344 112.289062 C 151.09375 107.386719 158.511719 106.730469 163.597656 110.824219 C 168.679688 114.917969 169.507812 122.210938 165.445312 127.113281 Z M 173.042969 128.976562 C 173.558594 128.058594 173.988281 127.109375 174.328125 126.140625 L 179.308594 125.898438 L 179.996094 121.472656 L 175.339844 119.585938 C 175.308594 118.542969 175.191406 117.5 174.984375 116.472656 L 179.128906 113.8125 L 177.460938 109.59375 L 172.523438 110.226562 C 171.972656 109.332031 171.335938 108.480469 170.628906 107.671875 L 172.8125 103.304688 L 169.238281 100.425781 L 165.332031 103.40625 C 164.386719 102.882812 163.410156 102.441406 162.410156 102.085938 L 162.058594 97.191406 L 157.53125 96.421875 L 155.707031 100.953125 C 154.644531 100.957031 153.585938 101.050781 152.542969 101.230469 L 149.742188 97.105469 L 145.476562 98.652344 L 146.226562 103.511719 C 145.328125 104.035156 144.472656 104.640625 143.660156 105.316406 L 139.164062 103.078125 L 136.304688 106.523438 L 139.429688 110.421875 C 138.914062 111.339844 138.484375 112.289062 138.144531 113.261719 L 133.160156 113.503906 L 132.476562 117.929688 L 137.132812 119.8125 C 137.164062 120.855469 137.28125 121.898438 137.488281 122.925781 L 133.34375 125.589844 L 135.011719 129.804688 L 139.949219 129.175781 C 140.5 130.066406 141.132812 130.917969 141.84375 131.730469 L 139.660156 136.09375 L 143.234375 138.976562 L 147.140625 135.992188 C 148.085938 136.519531 149.0625 136.960938 150.058594 137.316406 L 150.414062 142.210938 L 154.941406 142.980469 L 156.761719 138.449219 C 157.824219 138.441406 158.886719 138.347656 159.929688 138.167969 L 162.730469 142.292969 L 166.996094 140.746094 L 166.246094 135.886719 C 167.144531 135.363281 168 134.761719 168.808594 134.082031 L 173.308594 136.320312 L 176.167969 132.875 L 173.042969 128.976562 " fill-opacity="1" fill-rule="nonzero"></path><path fill="#000000" d="M 155.992188 108.671875 C 152.769531 108.671875 149.601562 110.019531 147.441406 112.625 C 145.601562 114.84375 144.746094 117.652344 145.035156 120.535156 C 145.335938 123.527344 146.820312 126.234375 149.210938 128.160156 C 154.0625 132.066406 161.160156 131.445312 165.03125 126.773438 C 166.871094 124.554688 167.726562 121.746094 167.433594 118.863281 C 167.132812 115.871094 165.652344 113.164062 163.261719 111.238281 C 161.117188 109.515625 158.539062 108.671875 155.992188 108.671875 Z M 156.480469 131.789062 C 153.695312 131.789062 150.878906 130.875 148.542969 128.992188 C 145.925781 126.882812 144.304688 123.917969 143.976562 120.644531 C 143.65625 117.472656 144.597656 114.386719 146.617188 111.945312 C 150.863281 106.832031 158.628906 106.140625 163.929688 110.410156 C 166.546875 112.515625 168.164062 115.480469 168.496094 118.757812 C 168.816406 121.925781 167.875 125.015625 165.855469 127.453125 C 163.480469 130.316406 160.007812 131.789062 156.480469 131.789062 Z M 150.914062 141.753906 L 154.605469 142.382812 L 156.269531 138.25 C 156.351562 138.050781 156.542969 137.917969 156.761719 137.917969 C 157.792969 137.910156 158.828125 137.816406 159.839844 137.644531 C 160.042969 137.609375 160.253906 137.695312 160.371094 137.871094 L 162.941406 141.652344 L 166.402344 140.394531 L 165.71875 135.96875 C 165.683594 135.753906 165.789062 135.535156 165.976562 135.425781 C 166.84375 134.925781 167.679688 134.335938 168.46875 133.671875 C 168.628906 133.539062 168.859375 133.511719 169.046875 133.605469 L 173.167969 135.65625 L 175.480469 132.867188 L 172.628906 129.308594 C 172.492188 129.140625 172.472656 128.90625 172.578125 128.71875 C 173.078125 127.828125 173.496094 126.898438 173.824219 125.964844 C 173.898438 125.757812 174.085938 125.621094 174.300781 125.609375 L 178.851562 125.386719 L 179.40625 121.808594 L 175.136719 120.082031 C 174.941406 120 174.8125 119.8125 174.804688 119.601562 C 174.777344 118.589844 174.664062 117.574219 174.464844 116.578125 C 174.417969 116.363281 174.511719 116.144531 174.699219 116.027344 L 178.472656 113.601562 L 177.117188 110.175781 L 172.589844 110.753906 C 172.382812 110.78125 172.179688 110.683594 172.070312 110.507812 C 171.539062 109.644531 170.917969 108.808594 170.226562 108.019531 C 170.082031 107.859375 170.054688 107.625 170.152344 107.433594 L 172.144531 103.449219 L 169.230469 101.101562 L 165.65625 103.828125 C 165.488281 103.957031 165.257812 103.976562 165.074219 103.871094 C 164.152344 103.363281 163.199219 102.929688 162.234375 102.585938 C 162.035156 102.515625 161.894531 102.332031 161.878906 102.125 L 161.554688 97.644531 L 157.863281 97.015625 L 156.203125 101.152344 C 156.125 101.351562 155.929688 101.484375 155.710938 101.484375 C 154.683594 101.492188 153.644531 101.582031 152.632812 101.757812 C 152.429688 101.792969 152.21875 101.703125 152.101562 101.53125 L 149.53125 97.75 L 146.070312 99.003906 L 146.753906 103.433594 C 146.789062 103.648438 146.683594 103.863281 146.496094 103.972656 C 145.628906 104.476562 144.792969 105.066406 144.003906 105.726562 C 143.839844 105.863281 143.613281 105.886719 143.425781 105.796875 L 139.304688 103.742188 L 136.992188 106.53125 L 139.84375 110.089844 C 139.980469 110.257812 140 110.492188 139.894531 110.683594 C 139.394531 111.574219 138.976562 112.5 138.648438 113.4375 C 138.574219 113.640625 138.386719 113.78125 138.171875 113.792969 L 133.621094 114.015625 L 133.066406 117.59375 L 137.332031 119.320312 C 137.53125 119.398438 137.660156 119.585938 137.667969 119.796875 C 137.695312 120.808594 137.808594 121.828125 138.007812 122.820312 C 138.050781 123.035156 137.957031 123.257812 137.773438 123.375 L 134 125.796875 L 135.355469 129.226562 L 139.882812 128.644531 C 140.089844 128.621094 140.292969 128.714844 140.402344 128.890625 C 140.933594 129.753906 141.554688 130.59375 142.246094 131.378906 C 142.386719 131.542969 142.417969 131.773438 142.320312 131.96875 L 140.328125 135.949219 L 143.242188 138.296875 L 146.816406 135.570312 C 146.984375 135.441406 147.214844 135.425781 147.398438 135.527344 C 148.320312 136.035156 149.273438 136.46875 150.238281 136.8125 C 150.4375 136.886719 150.578125 137.066406 150.589844 137.277344 Z M 154.941406 143.511719 C 154.914062 143.511719 154.882812 143.511719 154.855469 143.503906 L 150.324219 142.734375 C 150.085938 142.695312 149.902344 142.492188 149.882812 142.25 L 149.554688 137.699219 C 148.753906 137.394531 147.960938 137.039062 147.1875 136.628906 L 143.558594 139.398438 C 143.363281 139.546875 143.089844 139.546875 142.898438 139.390625 L 139.324219 136.511719 C 139.128906 136.351562 139.070312 136.082031 139.179688 135.855469 L 141.210938 131.808594 C 140.652344 131.148438 140.136719 130.453125 139.679688 129.746094 L 135.078125 130.335938 C 134.839844 130.363281 134.605469 130.226562 134.515625 130 L 132.847656 125.785156 C 132.753906 125.546875 132.839844 125.277344 133.054688 125.140625 L 136.894531 122.671875 C 136.75 121.847656 136.652344 121.011719 136.613281 120.179688 L 132.273438 118.421875 C 132.046875 118.328125 131.910156 118.089844 131.949219 117.847656 L 132.636719 113.421875 C 132.675781 113.171875 132.882812 112.980469 133.136719 112.96875 L 137.765625 112.746094 C 138.050781 111.976562 138.394531 111.21875 138.789062 110.480469 L 135.890625 106.859375 C 135.730469 106.660156 135.734375 106.378906 135.894531 106.1875 L 138.753906 102.738281 C 138.914062 102.546875 139.179688 102.492188 139.402344 102.601562 L 143.589844 104.6875 C 144.25 104.15625 144.9375 103.671875 145.644531 103.238281 L 144.949219 98.734375 C 144.910156 98.484375 145.054688 98.238281 145.292969 98.152344 L 149.558594 96.605469 C 149.789062 96.523438 150.042969 96.605469 150.179688 96.808594 L 152.792969 100.652344 C 153.636719 100.519531 154.492188 100.445312 155.347656 100.425781 L 157.035156 96.222656 C 157.128906 95.988281 157.371094 95.851562 157.621094 95.894531 L 162.144531 96.664062 C 162.386719 96.707031 162.570312 96.90625 162.589844 97.152344 L 162.917969 101.703125 C 163.71875 102.003906 164.511719 102.363281 165.28125 102.773438 L 168.914062 100 C 169.109375 99.851562 169.382812 99.855469 169.570312 100.011719 L 173.148438 102.890625 C 173.34375 103.046875 173.402344 103.320312 173.292969 103.542969 L 171.261719 107.589844 C 171.824219 108.253906 172.335938 108.945312 172.792969 109.65625 L 177.394531 109.066406 C 177.632812 109.039062 177.867188 109.171875 177.957031 109.398438 L 179.625 113.617188 C 179.71875 113.855469 179.632812 114.125 179.417969 114.261719 L 175.574219 116.726562 C 175.726562 117.550781 175.820312 118.390625 175.859375 119.222656 L 180.199219 120.976562 C 180.425781 121.070312 180.5625 121.308594 180.523438 121.554688 L 179.835938 125.980469 C 179.796875 126.226562 179.589844 126.417969 179.335938 126.429688 L 174.707031 126.652344 C 174.421875 127.421875 174.078125 128.183594 173.683594 128.921875 L 176.582031 132.542969 C 176.742188 132.738281 176.738281 133.019531 176.578125 133.214844 L 173.71875 136.664062 C 173.558594 136.851562 173.292969 136.910156 173.070312 136.800781 L 168.882812 134.714844 C 168.222656 135.246094 167.535156 135.730469 166.828125 136.160156 L 167.523438 140.667969 C 167.5625 140.917969 167.417969 141.160156 167.179688 141.246094 L 162.914062 142.792969 C 162.683594 142.875 162.425781 142.792969 162.289062 142.59375 L 159.679688 138.75 C 158.835938 138.878906 157.980469 138.957031 157.125 138.976562 L 155.4375 143.179688 C 155.355469 143.382812 155.15625 143.511719 154.941406 143.511719 " fill-opacity="1" fill-rule="nonzero"></path><path fill="#5479f7" d="M 237.238281 118.582031 C 234.207031 127.644531 224.175781 132.578125 214.84375 129.601562 C 205.503906 126.625 200.394531 116.867188 203.429688 107.800781 C 206.464844 98.738281 216.492188 93.808594 225.828125 96.78125 C 235.167969 99.757812 240.273438 109.519531 237.238281 118.582031 Z M 248.886719 117.074219 C 249.109375 115.507812 249.195312 113.949219 249.148438 112.40625 L 255.992188 109.367188 L 254.558594 102.800781 L 247.011719 102.683594 C 246.40625 101.242188 245.675781 99.847656 244.832031 98.519531 L 249.1875 92.550781 L 244.570312 87.546875 L 238 91.109375 C 236.746094 90.160156 235.394531 89.304688 233.960938 88.558594 L 234.65625 81.261719 L 228.09375 79.167969 L 224.242188 85.457031 C 222.628906 85.238281 221.023438 85.148438 219.4375 85.1875 L 216.289062 78.53125 L 209.535156 79.90625 L 209.441406 87.234375 C 207.953125 87.820312 206.523438 88.523438 205.160156 89.339844 L 199.003906 85.085938 L 193.871094 89.5625 L 197.554688 95.957031 C 196.582031 97.171875 195.710938 98.484375 194.941406 99.875 L 187.433594 99.175781 L 185.300781 105.550781 L 191.78125 109.3125 C 191.5625 110.875 191.472656 112.433594 191.523438 113.980469 L 184.679688 117.015625 L 186.117188 123.585938 L 193.65625 123.699219 C 194.265625 125.144531 194.996094 126.535156 195.835938 127.867188 L 191.480469 133.835938 L 196.101562 138.835938 L 202.667969 135.277344 C 203.925781 136.226562 205.273438 137.078125 206.707031 137.828125 L 206.011719 145.121094 L 212.578125 147.214844 L 216.429688 140.925781 C 218.039062 141.148438 219.644531 141.238281 221.234375 141.195312 L 224.382812 147.855469 L 231.136719 146.480469 L 231.230469 139.152344 C 232.714844 138.566406 234.148438 137.859375 235.511719 137.042969 L 241.667969 141.296875 L 246.800781 136.824219 L 243.113281 130.429688 C 244.089844 129.210938 244.960938 127.898438 245.726562 126.511719 L 253.238281 127.210938 L 255.371094 120.835938 L 248.886719 117.074219 " fill-opacity="1" fill-rule="nonzero"></path><path fill="#000000" d="M 234.210938 120.070312 L 234.21875 120.070312 Z M 217.265625 97.9375 C 210.015625 97.9375 203.269531 102.417969 200.910156 109.460938 C 199.515625 113.628906 199.847656 118.097656 201.847656 122.039062 C 203.921875 126.125 207.519531 129.164062 211.976562 130.582031 C 221.023438 133.46875 230.769531 128.675781 233.707031 119.902344 C 235.101562 115.730469 234.769531 111.261719 232.773438 107.320312 C 230.695312 103.234375 227.097656 100.199219 222.640625 98.777344 C 220.855469 98.207031 219.046875 97.9375 217.265625 97.9375 Z M 217.351562 132.488281 C 215.464844 132.488281 213.542969 132.199219 211.65625 131.597656 C 206.921875 130.089844 203.101562 126.867188 200.898438 122.519531 C 198.769531 118.320312 198.414062 113.566406 199.898438 109.121094 C 203.023438 99.796875 213.371094 94.703125 222.964844 97.761719 C 227.699219 99.269531 231.515625 102.496094 233.722656 106.839844 C 235.851562 111.039062 236.207031 115.796875 234.71875 120.238281 C 232.214844 127.726562 225.042969 132.488281 217.351562 132.488281 Z M 218.207031 142.152344 C 218.414062 142.152344 218.601562 142.269531 218.6875 142.457031 L 221.660156 148.738281 L 227.582031 147.53125 L 227.671875 140.632812 C 227.671875 140.417969 227.808594 140.222656 228.007812 140.144531 C 229.464844 139.570312 230.878906 138.875 232.210938 138.074219 C 232.390625 137.96875 232.617188 137.972656 232.789062 138.09375 L 238.601562 142.109375 L 243.09375 138.199219 L 239.628906 132.183594 C 239.519531 131.992188 239.535156 131.753906 239.671875 131.582031 C 240.621094 130.398438 241.480469 129.105469 242.234375 127.742188 C 242.339844 127.558594 242.539062 127.449219 242.75 127.46875 L 249.839844 128.128906 L 251.703125 122.566406 L 245.59375 119.019531 C 245.40625 118.914062 245.304688 118.699219 245.335938 118.488281 C 245.554688 116.953125 245.640625 115.414062 245.589844 113.910156 C 245.582031 113.695312 245.707031 113.496094 245.90625 113.40625 L 252.351562 110.542969 L 251.097656 104.8125 L 243.980469 104.707031 C 243.769531 104.703125 243.578125 104.574219 243.496094 104.378906 C 242.902344 102.964844 242.183594 101.589844 241.355469 100.292969 C 241.238281 100.109375 241.246094 99.871094 241.378906 99.691406 L 245.476562 94.078125 L 241.433594 89.703125 L 235.230469 93.066406 C 235.046875 93.164062 234.820312 93.148438 234.65625 93.019531 C 233.429688 92.09375 232.097656 91.253906 230.691406 90.515625 C 230.496094 90.417969 230.386719 90.210938 230.40625 89.996094 L 231.0625 83.128906 L 225.300781 81.292969 L 221.667969 87.222656 C 221.558594 87.402344 221.351562 87.5 221.144531 87.472656 C 219.5625 87.257812 217.976562 87.167969 216.425781 87.210938 C 216.214844 87.230469 216.019531 87.097656 215.929688 86.90625 L 212.960938 80.625 L 207.039062 81.828125 L 206.949219 88.730469 C 206.945312 88.945312 206.8125 89.140625 206.609375 89.21875 C 205.15625 89.792969 203.742188 90.488281 202.40625 91.285156 C 202.226562 91.394531 202.003906 91.386719 201.832031 91.265625 L 196.015625 87.25 L 191.527344 91.164062 L 194.992188 97.179688 C 195.101562 97.367188 195.082031 97.605469 194.945312 97.777344 C 194 98.960938 193.136719 100.253906 192.382812 101.617188 C 192.28125 101.804688 192.078125 101.910156 191.867188 101.890625 L 184.777344 101.234375 L 182.917969 106.796875 L 189.023438 110.339844 C 189.210938 110.445312 189.3125 110.660156 189.285156 110.875 C 189.066406 112.410156 188.980469 113.945312 189.027344 115.449219 C 189.039062 115.664062 188.910156 115.867188 188.714844 115.953125 L 182.265625 118.816406 L 183.519531 124.546875 L 190.640625 124.65625 C 190.851562 124.65625 191.042969 124.785156 191.121094 124.980469 C 191.71875 126.390625 192.4375 127.769531 193.261719 129.066406 C 193.378906 129.253906 193.371094 129.492188 193.242188 129.667969 L 189.144531 135.285156 L 193.183594 139.660156 L 199.390625 136.296875 C 199.574219 136.195312 199.796875 136.214844 199.964844 136.339844 C 201.191406 137.265625 202.523438 138.109375 203.929688 138.84375 C 204.121094 138.945312 204.234375 139.152344 204.214844 139.367188 L 203.558594 146.234375 L 209.316406 148.066406 L 212.953125 142.136719 C 213.0625 141.957031 213.269531 141.859375 213.476562 141.886719 C 215.058594 142.105469 216.644531 142.191406 218.191406 142.152344 C 218.199219 142.152344 218.203125 142.152344 218.207031 142.152344 Z M 221.355469 149.875 C 221.152344 149.875 220.964844 149.757812 220.875 149.570312 L 217.875 143.222656 C 216.492188 143.242188 215.085938 143.164062 213.679688 142.988281 L 210.007812 148.984375 C 209.878906 149.191406 209.621094 149.289062 209.390625 149.214844 L 202.824219 147.121094 C 202.585938 147.042969 202.433594 146.808594 202.457031 146.5625 L 203.117188 139.621094 C 201.878906 138.953125 200.699219 138.207031 199.597656 137.394531 L 193.328125 140.792969 C 193.113281 140.910156 192.847656 140.867188 192.683594 140.6875 L 188.0625 135.6875 C 187.890625 135.5 187.875 135.214844 188.023438 135.007812 L 192.167969 129.332031 C 191.453125 128.171875 190.816406 126.960938 190.277344 125.714844 L 183.082031 125.605469 C 182.832031 125.601562 182.621094 125.429688 182.570312 125.1875 L 181.132812 118.621094 C 181.078125 118.371094 181.207031 118.121094 181.4375 118.019531 L 187.953125 115.125 C 187.929688 113.792969 188.003906 112.4375 188.179688 111.082031 L 182.007812 107.496094 C 181.789062 107.371094 181.6875 107.109375 181.765625 106.867188 L 183.902344 100.496094 C 183.980469 100.257812 184.210938 100.109375 184.457031 100.132812 L 191.621094 100.796875 C 192.300781 99.601562 193.058594 98.460938 193.886719 97.398438 L 190.382812 91.316406 C 190.257812 91.09375 190.304688 90.816406 190.496094 90.648438 L 195.625 86.175781 C 195.8125 86.015625 196.082031 86 196.28125 86.136719 L 202.15625 90.195312 C 203.351562 89.5 204.601562 88.886719 205.886719 88.359375 L 205.976562 81.386719 C 205.980469 81.136719 206.15625 80.921875 206.402344 80.871094 L 213.15625 79.496094 C 213.398438 79.449219 213.640625 79.570312 213.742188 79.792969 L 216.746094 86.136719 C 218.128906 86.117188 219.535156 86.195312 220.941406 86.371094 L 224.613281 80.378906 C 224.742188 80.167969 224.996094 80.074219 225.230469 80.148438 L 231.796875 82.242188 C 232.035156 82.316406 232.1875 82.550781 232.164062 82.800781 L 231.5 89.742188 C 232.738281 90.40625 233.921875 91.152344 235.023438 91.964844 L 241.292969 88.570312 C 241.507812 88.453125 241.769531 88.496094 241.9375 88.675781 L 246.554688 93.675781 C 246.730469 93.863281 246.746094 94.144531 246.59375 94.351562 L 242.449219 100.027344 C 243.164062 101.1875 243.800781 102.398438 244.339844 103.644531 L 251.539062 103.753906 C 251.785156 103.757812 251.996094 103.933594 252.050781 104.171875 L 253.484375 110.742188 C 253.539062 110.988281 253.414062 111.238281 253.179688 111.339844 L 246.664062 114.238281 C 246.691406 115.566406 246.613281 116.925781 246.4375 118.277344 L 252.613281 121.863281 C 252.832031 121.988281 252.929688 122.253906 252.851562 122.492188 L 250.714844 128.867188 C 250.636719 129.101562 250.40625 129.25 250.160156 129.230469 L 243 128.5625 C 242.320312 129.757812 241.558594 130.898438 240.730469 131.964844 L 244.238281 138.042969 C 244.363281 138.265625 244.316406 138.546875 244.121094 138.714844 L 238.992188 143.1875 C 238.808594 143.347656 238.539062 143.363281 238.339844 143.222656 L 232.460938 139.164062 C 231.269531 139.859375 230.015625 140.476562 228.730469 141 L 228.644531 147.972656 C 228.640625 148.226562 228.460938 148.4375 228.214844 148.488281 L 221.464844 149.863281 C 221.429688 149.871094 221.390625 149.875 221.355469 149.875 " fill-opacity="1" fill-rule="nonzero"></path><path fill="#ffffff" d="M 182.652344 80.894531 C 177.40625 82.328125 171.996094 79.242188 170.558594 74 C 169.121094 68.753906 172.207031 63.339844 177.453125 61.902344 C 182.699219 60.46875 188.113281 63.554688 189.546875 68.796875 C 190.984375 74.042969 187.894531 79.457031 182.652344 80.894531 Z M 199.636719 68.019531 L 198.628906 64.332031 L 194.457031 64.519531 C 194.070312 63.707031 193.621094 62.9375 193.113281 62.21875 L 195.324219 58.679688 L 192.605469 55.988281 L 189.085938 58.242188 C 188.351562 57.738281 187.582031 57.296875 186.773438 56.921875 L 186.917969 52.75 L 183.21875 51.777344 L 181.296875 55.480469 C 180.421875 55.414062 179.53125 55.417969 178.632812 55.5 L 176.671875 51.8125 L 172.984375 52.824219 L 173.171875 56.996094 C 172.359375 57.382812 171.59375 57.832031 170.871094 58.335938 L 167.332031 56.128906 L 164.644531 58.847656 L 166.894531 62.367188 C 166.390625 63.097656 165.953125 63.871094 165.578125 64.679688 L 161.402344 64.535156 L 160.433594 68.230469 L 164.136719 70.152344 C 164.066406 71.03125 164.074219 71.921875 164.15625 72.816406 L 160.46875 74.777344 L 161.480469 78.464844 L 165.652344 78.277344 C 166.035156 79.089844 166.484375 79.859375 166.992188 80.578125 L 164.78125 84.117188 L 167.5 86.808594 L 171.023438 84.554688 C 171.753906 85.058594 172.527344 85.5 173.332031 85.875 L 173.1875 90.046875 L 176.886719 91.019531 L 178.804688 87.316406 C 179.683594 87.382812 180.578125 87.378906 181.472656 87.296875 L 183.433594 90.984375 L 187.121094 89.972656 L 186.933594 85.800781 C 187.746094 85.414062 188.515625 84.964844 189.234375 84.460938 L 192.773438 86.667969 L 195.460938 83.949219 L 193.210938 80.433594 C 193.714844 79.699219 194.15625 78.925781 194.527344 78.121094 L 198.703125 78.265625 L 199.671875 74.566406 L 195.96875 72.644531 C 196.039062 71.765625 196.03125 70.875 195.949219 69.980469 L 199.636719 68.019531 " fill-opacity="1" fill-rule="nonzero"></path><path fill="#000000" d="M 178.433594 61.152344 C 177.609375 61.152344 176.777344 61.261719 175.960938 61.484375 C 173.5625 62.140625 171.5625 63.695312 170.328125 65.855469 C 169.097656 68.015625 168.78125 70.527344 169.4375 72.925781 C 170.09375 75.324219 171.648438 77.324219 173.808594 78.554688 C 175.96875 79.789062 178.480469 80.101562 180.878906 79.445312 C 183.277344 78.789062 185.277344 77.238281 186.507812 75.078125 C 187.742188 72.917969 188.054688 70.40625 187.398438 68.007812 C 186.746094 65.609375 185.191406 63.609375 183.03125 62.375 C 181.605469 61.566406 180.027344 61.152344 178.433594 61.152344 Z M 178.421875 80.84375 C 173.863281 80.84375 169.671875 77.8125 168.410156 73.207031 C 167.679688 70.535156 168.03125 67.734375 169.40625 65.328125 C 170.777344 62.917969 173.003906 61.191406 175.679688 60.457031 C 178.351562 59.726562 181.148438 60.078125 183.558594 61.449219 C 185.96875 62.824219 187.695312 65.050781 188.429688 67.726562 C 189.160156 70.398438 188.804688 73.199219 187.433594 75.605469 C 186.0625 78.015625 183.832031 79.742188 181.160156 80.476562 C 180.246094 80.726562 179.328125 80.84375 178.421875 80.84375 Z M 172.101562 88.710938 L 174.976562 89.464844 L 176.699219 86.140625 C 176.796875 85.949219 177 85.835938 177.214844 85.851562 C 178.058594 85.917969 178.921875 85.910156 179.789062 85.832031 C 180.003906 85.816406 180.207031 85.925781 180.308594 86.113281 L 182.070312 89.425781 L 184.9375 88.640625 L 184.765625 84.894531 C 184.757812 84.679688 184.875 84.480469 185.066406 84.386719 C 185.855469 84.015625 186.601562 83.578125 187.292969 83.089844 C 187.46875 82.96875 187.699219 82.964844 187.882812 83.078125 L 191.058594 85.058594 L 193.148438 82.945312 L 191.128906 79.785156 C 191.015625 79.605469 191.015625 79.375 191.136719 79.199219 C 191.621094 78.492188 192.050781 77.738281 192.410156 76.960938 C 192.5 76.769531 192.699219 76.644531 192.914062 76.652344 L 196.664062 76.785156 L 197.414062 73.910156 L 194.089844 72.183594 C 193.902344 72.085938 193.789062 71.882812 193.804688 71.671875 C 193.871094 70.828125 193.863281 69.960938 193.785156 69.097656 C 193.769531 68.882812 193.878906 68.679688 194.066406 68.578125 L 197.378906 66.816406 L 196.59375 63.949219 L 192.847656 64.117188 C 192.640625 64.128906 192.433594 64.007812 192.339844 63.816406 C 191.964844 63.03125 191.53125 62.28125 191.046875 61.59375 C 190.921875 61.417969 190.914062 61.183594 191.03125 61.003906 L 193.011719 57.828125 L 190.898438 55.734375 L 187.738281 57.757812 C 187.558594 57.871094 187.328125 57.867188 187.152344 57.746094 C 186.445312 57.265625 185.695312 56.835938 184.914062 56.472656 C 184.722656 56.382812 184.601562 56.1875 184.609375 55.972656 L 184.738281 52.222656 L 181.863281 51.46875 L 180.140625 54.792969 C 180.042969 54.984375 179.835938 55.097656 179.625 55.078125 C 178.78125 55.015625 177.914062 55.019531 177.046875 55.097656 C 176.835938 55.117188 176.632812 55.007812 176.53125 54.820312 L 174.769531 51.507812 L 171.902344 52.292969 L 172.074219 56.039062 C 172.082031 56.253906 171.964844 56.453125 171.769531 56.546875 C 170.984375 56.917969 170.234375 57.351562 169.542969 57.839844 C 169.367188 57.964844 169.136719 57.96875 168.957031 57.855469 L 165.777344 55.875 L 163.6875 57.984375 L 165.707031 61.148438 C 165.824219 61.328125 165.820312 61.558594 165.699219 61.734375 C 165.214844 62.441406 164.789062 63.195312 164.425781 63.96875 C 164.335938 64.164062 164.136719 64.289062 163.921875 64.277344 L 160.175781 64.148438 L 159.421875 67.023438 L 162.746094 68.746094 C 162.9375 68.84375 163.050781 69.046875 163.03125 69.261719 C 162.96875 70.101562 162.976562 70.96875 163.050781 71.835938 C 163.070312 72.050781 162.960938 72.253906 162.769531 72.355469 L 159.460938 74.117188 L 160.246094 76.984375 L 163.992188 76.8125 C 164.203125 76.804688 164.40625 76.921875 164.5 77.117188 C 164.871094 77.902344 165.308594 78.648438 165.792969 79.339844 C 165.917969 79.515625 165.921875 79.746094 165.808594 79.929688 L 163.828125 83.105469 L 165.9375 85.195312 L 169.101562 83.175781 C 169.28125 83.058594 169.511719 83.0625 169.6875 83.183594 C 170.394531 83.667969 171.144531 84.097656 171.925781 84.457031 C 172.117188 84.550781 172.238281 84.75 172.230469 84.960938 Z M 175.253906 90.617188 C 175.207031 90.617188 175.164062 90.613281 175.117188 90.601562 L 171.417969 89.632812 C 171.179688 89.570312 171.011719 89.347656 171.019531 89.101562 L 171.152344 85.273438 C 170.542969 84.972656 169.949219 84.632812 169.378906 84.261719 L 166.152344 86.324219 C 165.941406 86.460938 165.667969 86.429688 165.492188 86.253906 L 162.773438 83.5625 C 162.597656 83.390625 162.5625 83.117188 162.695312 82.90625 L 164.71875 79.660156 C 164.34375 79.101562 164 78.507812 163.691406 77.894531 L 159.867188 78.066406 C 159.617188 78.078125 159.394531 77.917969 159.332031 77.675781 L 158.320312 73.988281 C 158.253906 73.746094 158.363281 73.492188 158.585938 73.375 L 161.960938 71.578125 C 161.914062 70.890625 161.910156 70.207031 161.945312 69.53125 L 158.550781 67.773438 C 158.332031 67.660156 158.21875 67.40625 158.285156 67.164062 L 159.253906 63.464844 C 159.316406 63.222656 159.542969 63.058594 159.785156 63.070312 L 163.613281 63.199219 C 163.914062 62.589844 164.25 61.996094 164.625 61.425781 L 162.558594 58.203125 C 162.429688 57.992188 162.457031 57.714844 162.632812 57.539062 L 165.320312 54.820312 C 165.496094 54.644531 165.769531 54.609375 165.984375 54.742188 L 169.222656 56.765625 C 169.785156 56.390625 170.378906 56.046875 170.992188 55.738281 L 170.820312 51.914062 C 170.808594 51.667969 170.96875 51.441406 171.210938 51.378906 L 174.898438 50.367188 C 175.136719 50.300781 175.394531 50.410156 175.511719 50.628906 L 177.308594 54.007812 C 177.996094 53.960938 178.679688 53.957031 179.351562 53.996094 L 181.113281 50.601562 C 181.226562 50.378906 181.476562 50.265625 181.722656 50.332031 L 185.417969 51.300781 C 185.660156 51.363281 185.824219 51.582031 185.816406 51.832031 L 185.683594 55.660156 C 186.296875 55.960938 186.890625 56.296875 187.460938 56.671875 L 190.683594 54.609375 C 190.894531 54.476562 191.167969 54.503906 191.347656 54.679688 L 194.066406 57.367188 C 194.242188 57.542969 194.273438 57.816406 194.140625 58.027344 L 192.117188 61.269531 C 192.492188 61.832031 192.839844 62.421875 193.144531 63.039062 L 196.96875 62.867188 C 197.222656 62.851562 197.441406 63.019531 197.507812 63.257812 L 198.515625 66.945312 C 198.582031 67.1875 198.472656 67.4375 198.253906 67.554688 L 194.875 69.355469 C 194.921875 70.039062 194.925781 70.726562 194.890625 71.402344 L 198.285156 73.160156 C 198.507812 73.273438 198.617188 73.527344 198.554688 73.765625 L 197.585938 77.464844 C 197.523438 77.707031 197.300781 77.875 197.054688 77.863281 L 193.226562 77.730469 C 192.925781 78.339844 192.585938 78.9375 192.214844 79.503906 L 194.277344 82.730469 C 194.410156 82.941406 194.382812 83.214844 194.207031 83.394531 L 191.515625 86.109375 C 191.34375 86.289062 191.070312 86.320312 190.855469 86.1875 L 187.613281 84.164062 C 187.054688 84.539062 186.460938 84.886719 185.847656 85.195312 L 186.019531 89.015625 C 186.03125 89.265625 185.867188 89.488281 185.628906 89.554688 L 181.941406 90.566406 C 181.699219 90.632812 181.445312 90.523438 181.328125 90.300781 L 179.53125 86.921875 C 178.84375 86.972656 178.15625 86.972656 177.484375 86.9375 L 175.726562 90.332031 C 175.632812 90.511719 175.449219 90.617188 175.253906 90.617188 " fill-opacity="1" fill-rule="nonzero"></path><path fill="#000000" d="M 171.4375 279.996094 C 170.867188 279.996094 170.308594 280.15625 169.816406 280.464844 C 169.117188 280.898438 168.628906 281.578125 168.441406 282.382812 C 168.253906 283.183594 168.390625 284.011719 168.824219 284.710938 C 169.257812 285.410156 169.941406 285.898438 170.742188 286.085938 C 171.542969 286.273438 172.371094 286.136719 173.070312 285.703125 C 173.769531 285.265625 174.257812 284.585938 174.445312 283.785156 C 174.832031 282.128906 173.800781 280.46875 172.144531 280.078125 C 171.910156 280.023438 171.671875 279.996094 171.4375 279.996094 Z M 171.453125 287.230469 C 171.136719 287.230469 170.816406 287.195312 170.5 287.121094 C 169.421875 286.871094 168.503906 286.214844 167.917969 285.273438 C 167.335938 284.332031 167.152344 283.21875 167.402344 282.140625 C 167.652344 281.0625 168.3125 280.144531 169.253906 279.558594 C 170.195312 278.972656 171.308594 278.789062 172.386719 279.042969 C 174.613281 279.5625 176.003906 281.796875 175.484375 284.023438 C 175.230469 285.105469 174.574219 286.023438 173.632812 286.605469 C 172.96875 287.019531 172.214844 287.230469 171.453125 287.230469 " fill-opacity="1" fill-rule="nonzero"></path><path fill="#000000" d="M 181.246094 279.132812 C 180.433594 279.132812 179.699219 279.691406 179.507812 280.511719 C 179.285156 281.46875 179.882812 282.429688 180.839844 282.652344 C 181.792969 282.875 182.753906 282.277344 182.980469 281.320312 C 183.203125 280.363281 182.605469 279.40625 181.648438 279.179688 C 181.511719 279.148438 181.378906 279.132812 181.246094 279.132812 Z M 181.246094 283.765625 C 181.03125 283.765625 180.8125 283.738281 180.597656 283.6875 C 179.855469 283.515625 179.226562 283.066406 178.824219 282.417969 C 178.421875 281.773438 178.296875 281.007812 178.472656 280.269531 C 178.828125 278.738281 180.359375 277.785156 181.890625 278.140625 C 183.421875 278.5 184.375 280.035156 184.015625 281.5625 C 183.710938 282.875 182.539062 283.765625 181.246094 283.765625 " fill-opacity="1" fill-rule="nonzero"></path><path fill="#000000" d="M 154.886719 285.875 C 154.84375 285.875 154.804688 285.871094 154.765625 285.859375 L 152.085938 285.234375 C 151.800781 285.167969 151.625 284.882812 151.691406 284.597656 C 151.757812 284.308594 152.046875 284.132812 152.332031 284.199219 L 155.007812 284.824219 C 155.292969 284.886719 155.472656 285.175781 155.40625 285.460938 C 155.347656 285.707031 155.128906 285.875 154.886719 285.875 " fill-opacity="1" fill-rule="nonzero"></path><path fill="#000000" d="M 161.121094 287.328125 C 161.082031 287.328125 161.039062 287.324219 161 287.316406 L 158.324219 286.691406 C 158.035156 286.621094 157.859375 286.335938 157.925781 286.050781 C 157.992188 285.765625 158.28125 285.589844 158.5625 285.652344 L 161.242188 286.277344 C 161.527344 286.34375 161.707031 286.632812 161.636719 286.917969 C 161.582031 287.164062 161.363281 287.328125 161.121094 287.328125 " fill-opacity="1" fill-rule="nonzero"></path><path fill="#000000" d="M 155.625 290.742188 C 155.585938 290.742188 155.542969 290.738281 155.503906 290.730469 C 155.214844 290.664062 155.039062 290.378906 155.105469 290.089844 L 155.730469 287.414062 C 155.796875 287.128906 156.085938 286.949219 156.371094 287.015625 C 156.65625 287.082031 156.835938 287.371094 156.769531 287.65625 L 156.144531 290.332031 C 156.085938 290.578125 155.867188 290.742188 155.625 290.742188 " fill-opacity="1" fill-rule="nonzero"></path><path fill="#000000" d="M 157.078125 284.511719 C 157.039062 284.511719 157 284.507812 156.957031 284.496094 C 156.671875 284.429688 156.492188 284.140625 156.5625 283.855469 L 157.183594 281.179688 C 157.253906 280.894531 157.539062 280.71875 157.824219 280.78125 C 158.113281 280.847656 158.289062 281.136719 158.222656 281.421875 L 157.597656 284.097656 C 157.542969 284.34375 157.324219 284.511719 157.078125 284.511719 " fill-opacity="1" fill-rule="nonzero"></path><path fill="#000000" d="M 295.5 139.09375 C 295.203125 139.09375 294.964844 138.855469 294.964844 138.558594 L 294.964844 135.804688 C 294.964844 135.511719 295.203125 135.273438 295.5 135.273438 C 295.792969 135.273438 296.03125 135.511719 296.03125 135.804688 L 296.03125 138.558594 C 296.03125 138.855469 295.792969 139.09375 295.5 139.09375 " fill-opacity="1" fill-rule="nonzero"></path><path fill="#000000" d="M 295.5 145.511719 C 295.203125 145.511719 294.964844 145.273438 294.964844 144.980469 L 294.964844 142.222656 C 294.964844 141.929688 295.203125 141.691406 295.5 141.691406 C 295.792969 141.691406 296.03125 141.929688 296.03125 142.222656 L 296.03125 144.980469 C 296.03125 145.273438 295.792969 145.511719 295.5 145.511719 " fill-opacity="1" fill-rule="nonzero"></path><path fill="#000000" d="M 293.667969 140.925781 L 290.910156 140.925781 C 290.617188 140.925781 290.378906 140.6875 290.378906 140.394531 C 290.378906 140.097656 290.617188 139.859375 290.910156 139.859375 L 293.667969 139.859375 C 293.960938 139.859375 294.199219 140.097656 294.199219 140.394531 C 294.199219 140.6875 293.960938 140.925781 293.667969 140.925781 " fill-opacity="1" fill-rule="nonzero"></path><path fill="#000000" d="M 300.085938 140.925781 L 297.328125 140.925781 C 297.035156 140.925781 296.796875 140.6875 296.796875 140.390625 C 296.796875 140.097656 297.035156 139.859375 297.328125 139.859375 L 300.085938 139.859375 C 300.378906 139.859375 300.621094 140.097656 300.621094 140.390625 C 300.621094 140.6875 300.378906 140.925781 300.085938 140.925781 " fill-opacity="1" fill-rule="nonzero"></path><path fill="#000000" d="M 166.394531 10.515625 C 166.152344 10.515625 165.933594 10.351562 165.875 10.109375 C 165.808594 9.824219 165.980469 9.535156 166.269531 9.46875 C 179.519531 6.269531 193.304688 5.484375 207.25 7.136719 C 207.542969 7.171875 207.75 7.4375 207.714844 7.726562 C 207.679688 8.019531 207.410156 8.230469 207.121094 8.195312 C 193.304688 6.558594 179.644531 7.335938 166.519531 10.5 C 166.476562 10.511719 166.433594 10.515625 166.394531 10.515625 " fill-opacity="1" fill-rule="nonzero"></path><path fill="#000000" d="M 218.988281 10.179688 C 218.949219 10.179688 218.914062 10.175781 218.875 10.167969 C 217.050781 9.773438 215.199219 9.414062 213.375 9.101562 C 213.085938 9.050781 212.890625 8.773438 212.941406 8.484375 C 212.988281 8.195312 213.261719 8 213.554688 8.050781 C 215.394531 8.363281 217.261719 8.726562 219.097656 9.125 C 219.386719 9.1875 219.570312 9.472656 219.507812 9.757812 C 219.453125 10.011719 219.234375 10.179688 218.988281 10.179688 " fill-opacity="1" fill-rule="nonzero"></path><path fill="#000000" d="M 226.121094 19.941406 C 226.066406 19.941406 226.015625 19.929688 225.960938 19.914062 C 209.550781 14.6875 192.984375 13.265625 176.722656 15.695312 C 176.429688 15.738281 176.15625 15.535156 176.113281 15.246094 C 176.070312 14.953125 176.273438 14.683594 176.566406 14.640625 C 192.988281 12.1875 209.71875 13.621094 226.285156 18.898438 C 226.5625 18.988281 226.71875 19.289062 226.628906 19.566406 C 226.558594 19.792969 226.347656 19.941406 226.121094 19.941406 " fill-opacity="1" fill-rule="nonzero"></path><path fill="#000000" d="M 157.898438 9.75 L 157.902344 9.75 Z M 160.125 8.777344 C 159.386719 8.777344 158.683594 9.21875 158.390625 9.945312 C 158.203125 10.410156 158.210938 10.917969 158.40625 11.375 C 158.601562 11.835938 158.964844 12.191406 159.425781 12.375 C 159.890625 12.5625 160.398438 12.558594 160.855469 12.363281 C 161.3125 12.167969 161.667969 11.804688 161.855469 11.339844 C 162.238281 10.386719 161.773438 9.296875 160.820312 8.914062 C 160.59375 8.820312 160.359375 8.777344 160.125 8.777344 Z M 160.125 13.578125 C 159.753906 13.578125 159.382812 13.507812 159.03125 13.367188 C 158.304688 13.074219 157.734375 12.515625 157.425781 11.792969 C 157.117188 11.074219 157.109375 10.277344 157.402344 9.550781 C 158.003906 8.050781 159.714844 7.320312 161.21875 7.925781 C 162.71875 8.527344 163.445312 10.238281 162.84375 11.738281 C 162.550781 12.464844 161.992188 13.035156 161.273438 13.34375 C 160.902344 13.5 160.515625 13.578125 160.125 13.578125 " fill-opacity="1" fill-rule="nonzero"></path><path fill="#000000" d="M 297.074219 121.804688 C 296.746094 121.804688 296.421875 121.894531 296.136719 122.070312 C 295.730469 122.320312 295.449219 122.714844 295.34375 123.179688 C 295.234375 123.644531 295.3125 124.121094 295.566406 124.527344 C 295.8125 124.929688 296.207031 125.214844 296.671875 125.320312 C 297.132812 125.425781 297.613281 125.351562 298.015625 125.097656 C 298.421875 124.847656 298.703125 124.453125 298.8125 123.988281 C 298.921875 123.527344 298.839844 123.046875 298.589844 122.644531 C 298.339844 122.238281 297.945312 121.957031 297.484375 121.851562 C 297.347656 121.816406 297.210938 121.804688 297.074219 121.804688 Z M 297.082031 126.433594 C 296.863281 126.433594 296.644531 126.410156 296.429688 126.359375 C 295.691406 126.1875 295.058594 125.734375 294.660156 125.085938 C 294.257812 124.441406 294.128906 123.679688 294.304688 122.9375 C 294.476562 122.199219 294.925781 121.570312 295.574219 121.167969 C 296.21875 120.765625 296.984375 120.636719 297.726562 120.8125 C 298.464844 120.984375 299.09375 121.4375 299.492188 122.082031 C 299.898438 122.726562 300.023438 123.492188 299.851562 124.234375 C 299.675781 124.972656 299.226562 125.601562 298.582031 126.003906 C 298.125 126.285156 297.609375 126.433594 297.082031 126.433594 " fill-opacity="1" fill-rule="nonzero"></path></svg>