<?xml version="1.0" encoding="UTF-8"?>
<svg xmlns="http://www.w3.org/2000/svg" xmlns:xlink="http://www.w3.org/1999/xlink" width="400" zoomAndPan="magnify" viewBox="0 0 300 299.999988" height="400" preserveAspectRatio="xMidYMid meet" version="1.0">
  <defs>
    <clipPath id="80e4b94722">
      <path d="M 173 154 L 299.980469 154 L 299.980469 236 L 173 236 Z M 173 154 " clip-rule="nonzero"></path>
    </clipPath>
  </defs>
  <path fill="#ffffff" d="M 37.183594 203.433594 C 37.183594 207.820312 40.726562 211.378906 45.097656 211.378906 L 277.949219 211.378906 C 282.320312 211.378906 285.867188 207.820312 285.867188 203.433594 L 285.867188 200.523438 L 280.007812 197.460938 L 39.105469 197.460938 L 37.183594 200.523438 L 37.183594 203.433594 " fill-opacity="1" fill-rule="nonzero"></path>
  <path fill="#000000" d="M 277.949219 211.625 L 45.097656 211.625 C 40.597656 211.625 36.9375 207.949219 36.9375 203.433594 C 36.9375 203.296875 37.046875 203.1875 37.183594 203.1875 C 37.320312 203.1875 37.429688 203.296875 37.429688 203.433594 C 37.429688 207.675781 40.871094 211.128906 45.097656 211.128906 L 277.949219 211.128906 C 282.179688 211.128906 285.617188 207.675781 285.617188 203.433594 C 285.617188 203.296875 285.730469 203.1875 285.867188 203.1875 C 286.003906 203.1875 286.113281 203.296875 286.113281 203.433594 C 286.113281 207.949219 282.453125 211.625 277.949219 211.625 " fill-opacity="1" fill-rule="nonzero"></path>
  <path fill="#ffffff" d="M 202.25 235.496094 L 120.800781 235.496094 C 118.222656 235.496094 116.132812 233.40625 116.132812 230.828125 L 116.132812 211.378906 L 206.917969 211.378906 L 206.917969 230.828125 C 206.917969 233.40625 204.828125 235.496094 202.25 235.496094 " fill-opacity="1" fill-rule="nonzero"></path>
  <path fill="#000000" d="M 116.378906 211.625 L 116.378906 230.828125 C 116.378906 233.265625 118.363281 235.25 120.800781 235.25 L 202.25 235.25 C 204.6875 235.25 206.671875 233.265625 206.671875 230.828125 L 206.671875 211.625 Z M 202.25 235.746094 L 120.800781 235.746094 C 118.089844 235.746094 115.886719 233.539062 115.886719 230.828125 L 115.886719 211.378906 C 115.886719 211.242188 115.996094 211.128906 116.132812 211.128906 L 206.917969 211.128906 C 207.054688 211.128906 207.164062 211.242188 207.164062 211.378906 L 207.164062 230.828125 C 207.164062 233.539062 204.957031 235.746094 202.25 235.746094 " fill-opacity="1" fill-rule="nonzero"></path>
  <path fill="#000000" d="M 203.535156 217.289062 L 119.515625 217.289062 C 119.378906 217.289062 119.265625 217.179688 119.265625 217.042969 C 119.265625 216.90625 119.378906 216.796875 119.515625 216.796875 L 203.535156 216.796875 C 203.671875 216.796875 203.78125 216.90625 203.78125 217.042969 C 203.78125 217.179688 203.671875 217.289062 203.535156 217.289062 " fill-opacity="1" fill-rule="nonzero"></path>
  <path fill="#ffffff" d="M 285.867188 200.523438 L 37.183594 200.523438 L 37.183594 57.152344 C 37.183594 54.109375 39.652344 51.640625 42.695312 51.640625 L 280.355469 51.640625 C 283.398438 51.640625 285.867188 54.109375 285.867188 57.152344 L 285.867188 200.523438 " fill-opacity="1" fill-rule="nonzero"></path>
  <path fill="#000000" d="M 37.429688 200.273438 L 285.617188 200.273438 L 285.617188 57.152344 C 285.617188 54.25 283.257812 51.890625 280.355469 51.890625 L 42.695312 51.890625 C 39.792969 51.890625 37.429688 54.25 37.429688 57.152344 Z M 285.867188 200.769531 L 37.183594 200.769531 C 37.046875 200.769531 36.9375 200.660156 36.9375 200.523438 L 36.9375 57.152344 C 36.9375 53.976562 39.519531 51.394531 42.695312 51.394531 L 280.355469 51.394531 C 283.53125 51.394531 286.113281 53.976562 286.113281 57.152344 L 286.113281 200.523438 C 286.113281 200.660156 286.003906 200.769531 285.867188 200.769531 " fill-opacity="1" fill-rule="nonzero"></path>
  <path fill="#000000" d="M 45.925781 191.75 L 277.125 191.75 L 277.125 60.71875 C 277.125 60.550781 276.988281 60.414062 276.820312 60.414062 L 46.230469 60.414062 C 46.0625 60.414062 45.925781 60.550781 45.925781 60.71875 Z M 277.371094 192.242188 L 45.679688 192.242188 C 45.542969 192.242188 45.429688 192.132812 45.429688 191.996094 L 45.429688 60.71875 C 45.429688 60.277344 45.789062 59.917969 46.230469 59.917969 L 276.820312 59.917969 C 277.261719 59.917969 277.621094 60.277344 277.621094 60.71875 L 277.621094 191.996094 C 277.621094 192.132812 277.507812 192.242188 277.371094 192.242188 " fill-opacity="1" fill-rule="nonzero"></path>
  <path fill="#ffffff" d="M 190.414062 30.246094 L 295.652344 30.246094 L 295.652344 102.695312 L 190.414062 102.695312 L 190.414062 30.246094 " fill-opacity="1" fill-rule="nonzero"></path>
  <path fill="#000000" d="M 190.660156 102.449219 L 295.40625 102.449219 L 295.40625 30.496094 L 190.660156 30.496094 Z M 295.652344 102.945312 L 190.414062 102.945312 C 190.277344 102.945312 190.164062 102.832031 190.164062 102.695312 L 190.164062 30.246094 C 190.164062 30.109375 190.277344 30 190.414062 30 L 295.652344 30 C 295.789062 30 295.898438 30.109375 295.898438 30.246094 L 295.898438 102.695312 C 295.898438 102.832031 295.789062 102.945312 295.652344 102.945312 " fill-opacity="1" fill-rule="nonzero"></path>
  <path fill="#5479f7" d="M 210.09375 85.089844 L 201.171875 85.089844 L 201.171875 63.863281 L 210.09375 63.863281 L 210.09375 85.089844 " fill-opacity="1" fill-rule="nonzero"></path>
  <path fill="#5479f7" d="M 225.054688 85.089844 L 216.132812 85.089844 L 216.132812 57.414062 L 225.054688 57.414062 L 225.054688 85.089844 " fill-opacity="1" fill-rule="nonzero"></path>
  <path fill="#5479f7" d="M 240.015625 85.089844 L 231.089844 85.089844 L 231.089844 47.851562 L 240.015625 47.851562 L 240.015625 85.089844 " fill-opacity="1" fill-rule="nonzero"></path>
  <path fill="#5479f7" d="M 254.972656 85.089844 L 246.050781 85.089844 L 246.050781 63.863281 L 254.972656 63.863281 L 254.972656 85.089844 " fill-opacity="1" fill-rule="nonzero"></path>
  <path fill="#5479f7" d="M 269.933594 85.089844 L 261.011719 85.089844 L 261.011719 56 L 269.933594 56 L 269.933594 85.089844 " fill-opacity="1" fill-rule="nonzero"></path>
  <path fill="#5479f7" d="M 284.894531 85.089844 L 275.96875 85.089844 L 275.96875 62.300781 L 284.894531 62.300781 L 284.894531 85.089844 " fill-opacity="1" fill-rule="nonzero"></path>
  <path fill="#000000" d="M 201.417969 91.566406 L 209.847656 91.566406 L 209.847656 41.378906 L 201.417969 41.378906 Z M 210.09375 92.0625 L 201.171875 92.0625 C 201.035156 92.0625 200.921875 91.949219 200.921875 91.8125 L 200.921875 41.128906 C 200.921875 40.992188 201.035156 40.882812 201.171875 40.882812 L 210.09375 40.882812 C 210.230469 40.882812 210.34375 40.992188 210.34375 41.128906 L 210.34375 91.8125 C 210.34375 91.949219 210.230469 92.0625 210.09375 92.0625 " fill-opacity="1" fill-rule="nonzero"></path>
  <path fill="#000000" d="M 216.378906 91.566406 L 224.808594 91.566406 L 224.808594 41.378906 L 216.378906 41.378906 Z M 225.054688 92.0625 L 216.132812 92.0625 C 215.992188 92.0625 215.882812 91.949219 215.882812 91.8125 L 215.882812 41.128906 C 215.882812 40.992188 215.992188 40.882812 216.132812 40.882812 L 225.054688 40.882812 C 225.191406 40.882812 225.300781 40.992188 225.300781 41.128906 L 225.300781 91.8125 C 225.300781 91.949219 225.191406 92.0625 225.054688 92.0625 " fill-opacity="1" fill-rule="nonzero"></path>
  <path fill="#000000" d="M 231.339844 91.566406 L 239.765625 91.566406 L 239.765625 41.378906 L 231.339844 41.378906 Z M 240.015625 92.0625 L 231.089844 92.0625 C 230.953125 92.0625 230.84375 91.949219 230.84375 91.8125 L 230.84375 41.128906 C 230.84375 40.992188 230.953125 40.882812 231.089844 40.882812 L 240.015625 40.882812 C 240.152344 40.882812 240.261719 40.992188 240.261719 41.128906 L 240.261719 91.8125 C 240.261719 91.949219 240.152344 92.0625 240.015625 92.0625 " fill-opacity="1" fill-rule="nonzero"></path>
  <path fill="#000000" d="M 246.296875 91.566406 L 254.726562 91.566406 L 254.726562 41.378906 L 246.296875 41.378906 Z M 254.972656 92.0625 L 246.050781 92.0625 C 245.914062 92.0625 245.804688 91.949219 245.804688 91.8125 L 245.804688 41.128906 C 245.804688 40.992188 245.914062 40.882812 246.050781 40.882812 L 254.972656 40.882812 C 255.109375 40.882812 255.222656 40.992188 255.222656 41.128906 L 255.222656 91.8125 C 255.222656 91.949219 255.109375 92.0625 254.972656 92.0625 " fill-opacity="1" fill-rule="nonzero"></path>
  <path fill="#000000" d="M 261.257812 91.566406 L 269.6875 91.566406 L 269.6875 41.378906 L 261.257812 41.378906 Z M 269.933594 92.0625 L 261.011719 92.0625 C 260.875 92.0625 260.761719 91.949219 260.761719 91.8125 L 260.761719 41.128906 C 260.761719 40.992188 260.875 40.882812 261.011719 40.882812 L 269.933594 40.882812 C 270.070312 40.882812 270.179688 40.992188 270.179688 41.128906 L 270.179688 91.8125 C 270.179688 91.949219 270.070312 92.0625 269.933594 92.0625 " fill-opacity="1" fill-rule="nonzero"></path>
  <path fill="#000000" d="M 276.21875 91.566406 L 284.648438 91.566406 L 284.648438 41.378906 L 276.21875 41.378906 Z M 284.894531 92.0625 L 275.972656 92.0625 C 275.832031 92.0625 275.722656 91.949219 275.722656 91.8125 L 275.722656 41.128906 C 275.722656 40.992188 275.832031 40.882812 275.972656 40.882812 L 284.894531 40.882812 C 285.03125 40.882812 285.140625 40.992188 285.140625 41.128906 L 285.140625 91.8125 C 285.140625 91.949219 285.03125 92.0625 284.894531 92.0625 " fill-opacity="1" fill-rule="nonzero"></path>
  <path fill="#ffffff" d="M 123.042969 167.121094 L 186.207031 167.121094 L 186.207031 106.871094 L 123.042969 106.871094 L 123.042969 167.121094 " fill-opacity="1" fill-rule="nonzero"></path>
  <path fill="#000000" d="M 123.289062 166.875 L 185.960938 166.875 L 185.960938 107.117188 L 123.289062 107.117188 Z M 186.207031 167.367188 L 123.042969 167.367188 C 122.902344 167.367188 122.792969 167.257812 122.792969 167.121094 L 122.792969 106.871094 C 122.792969 106.734375 122.902344 106.621094 123.042969 106.621094 L 186.207031 106.621094 C 186.34375 106.621094 186.453125 106.734375 186.453125 106.871094 L 186.453125 167.121094 C 186.453125 167.257812 186.34375 167.367188 186.207031 167.367188 " fill-opacity="1" fill-rule="nonzero"></path>
  <path fill="#ffffff" d="M 176.664062 133.457031 L 176.664062 157.292969 L 132.585938 157.292969 Z M 176.664062 133.457031 " fill-opacity="1" fill-rule="nonzero"></path>
  <path fill="#000000" d="M 176.664062 157.539062 L 132.585938 157.539062 C 132.449219 157.539062 132.335938 157.425781 132.335938 157.292969 C 132.335938 157.15625 132.449219 157.042969 132.585938 157.042969 L 176.417969 157.042969 L 176.417969 133.457031 C 176.417969 133.324219 176.527344 133.210938 176.664062 133.210938 C 176.800781 133.210938 176.910156 133.324219 176.910156 133.457031 L 176.910156 157.292969 C 176.910156 157.425781 176.800781 157.539062 176.664062 157.539062 " fill-opacity="1" fill-rule="nonzero"></path>
  <path fill="#000000" d="M 168.105469 154.152344 C 167.964844 154.152344 167.855469 154.042969 167.855469 153.90625 L 167.855469 136.804688 C 167.855469 136.667969 167.964844 136.554688 168.105469 136.554688 C 168.238281 136.554688 168.351562 136.667969 168.351562 136.804688 L 168.351562 153.90625 C 168.351562 154.042969 168.238281 154.152344 168.105469 154.152344 " fill-opacity="1" fill-rule="nonzero"></path>
  <path fill="#000000" d="M 159.542969 154.152344 C 159.40625 154.152344 159.296875 154.042969 159.296875 153.90625 L 159.296875 140.15625 C 159.296875 140.019531 159.40625 139.90625 159.542969 139.90625 C 159.679688 139.90625 159.789062 140.019531 159.789062 140.15625 L 159.789062 153.90625 C 159.789062 154.042969 159.679688 154.152344 159.542969 154.152344 " fill-opacity="1" fill-rule="nonzero"></path>
  <path fill="#000000" d="M 150.980469 154.152344 C 150.84375 154.152344 150.734375 154.042969 150.734375 153.90625 L 150.734375 126.40625 C 150.734375 126.269531 150.84375 126.15625 150.980469 126.15625 C 151.121094 126.15625 151.230469 126.269531 151.230469 126.40625 L 151.230469 153.90625 C 151.230469 154.042969 151.121094 154.152344 150.980469 154.152344 " fill-opacity="1" fill-rule="nonzero"></path>
  <path fill="#000000" d="M 142.421875 154.152344 C 142.285156 154.152344 142.175781 154.042969 142.175781 153.90625 L 142.175781 128.804688 C 142.175781 128.667969 142.285156 128.554688 142.421875 128.554688 C 142.558594 128.554688 142.667969 128.667969 142.667969 128.804688 L 142.667969 153.90625 C 142.667969 154.042969 142.558594 154.152344 142.421875 154.152344 " fill-opacity="1" fill-rule="nonzero"></path>
  <path fill="#000000" d="M 133.859375 154.152344 C 133.722656 154.152344 133.613281 154.042969 133.613281 153.90625 L 133.613281 116.699219 C 133.613281 116.5625 133.722656 116.453125 133.859375 116.453125 C 133.996094 116.453125 134.109375 116.5625 134.109375 116.699219 L 134.109375 153.90625 C 134.109375 154.042969 133.996094 154.152344 133.859375 154.152344 " fill-opacity="1" fill-rule="nonzero"></path>
  <path fill="#ffffff" d="M 197.589844 106.890625 C 197.589844 119.761719 187.15625 130.195312 174.285156 130.195312 C 161.414062 130.195312 150.980469 119.761719 150.980469 106.890625 C 150.980469 94.019531 161.414062 83.585938 174.285156 83.585938 C 187.15625 83.585938 197.589844 94.019531 197.589844 106.890625 " fill-opacity="1" fill-rule="nonzero"></path>
  <path fill="#000000" d="M 174.285156 83.832031 C 161.574219 83.832031 151.230469 94.175781 151.230469 106.890625 C 151.230469 119.605469 161.574219 129.949219 174.285156 129.949219 C 187 129.949219 197.34375 119.605469 197.34375 106.890625 C 197.34375 94.175781 187 83.832031 174.285156 83.832031 Z M 174.285156 130.441406 C 161.300781 130.441406 150.734375 119.878906 150.734375 106.890625 C 150.734375 93.902344 161.300781 83.339844 174.285156 83.339844 C 187.273438 83.339844 197.839844 93.902344 197.839844 106.890625 C 197.839844 119.878906 187.273438 130.441406 174.285156 130.441406 " fill-opacity="1" fill-rule="nonzero"></path>
  <path fill="#ffffff" d="M 164.121094 114.898438 L 172.050781 102.511719 L 177.0625 110.34375 L 185.914062 95.871094 L 164.121094 114.898438 " fill-opacity="1" fill-rule="nonzero"></path>
  <path fill="#000000" d="M 164.121094 115.148438 C 164.078125 115.148438 164.027344 115.132812 163.988281 115.109375 C 163.875 115.035156 163.839844 114.882812 163.914062 114.765625 L 171.839844 102.378906 C 171.933594 102.238281 172.164062 102.238281 172.257812 102.378906 L 177.054688 109.878906 L 185.421875 96.199219 C 185.492188 96.082031 185.644531 96.046875 185.761719 96.117188 C 185.878906 96.1875 185.914062 96.339844 185.84375 96.457031 L 177.269531 110.472656 C 177.226562 110.546875 177.148438 110.589844 177.0625 110.59375 C 176.96875 110.59375 176.898438 110.550781 176.851562 110.480469 L 172.050781 102.972656 L 164.332031 115.03125 C 164.285156 115.105469 164.203125 115.148438 164.121094 115.148438 " fill-opacity="1" fill-rule="nonzero"></path>
  <path fill="#000000" d="M 186.503906 98.78125 L 186.019531 98.878906 L 185.535156 96.488281 L 183.183594 97.148438 L 183.050781 96.671875 L 185.914062 95.871094 L 186.503906 98.78125 " fill-opacity="1" fill-rule="nonzero"></path>
  <path fill="#000000" d="M 186.757812 118.160156 L 161.816406 118.160156 C 161.675781 118.160156 161.566406 118.046875 161.566406 117.910156 L 161.566406 95.871094 C 161.566406 95.734375 161.675781 95.625 161.816406 95.625 C 161.949219 95.625 162.0625 95.734375 162.0625 95.871094 L 162.0625 117.664062 L 186.757812 117.664062 C 186.894531 117.664062 187.007812 117.773438 187.007812 117.910156 C 187.007812 118.046875 186.894531 118.160156 186.757812 118.160156 " fill-opacity="1" fill-rule="nonzero"></path>
  <path fill="#ffffff" d="M 245.671875 153.460938 L 235.871094 137.101562 L 224.1875 136.140625 L 222.824219 142.308594 L 230.410156 158.316406 L 245.671875 153.460938 " fill-opacity="1" fill-rule="nonzero"></path>
  <path fill="#000000" d="M 223.085938 142.277344 L 230.542969 158.015625 L 245.296875 153.316406 L 235.722656 137.339844 L 224.382812 136.40625 Z M 230.410156 158.566406 C 230.316406 158.566406 230.230469 158.511719 230.1875 158.421875 L 222.601562 142.414062 C 222.578125 142.367188 222.570312 142.308594 222.582031 142.253906 L 223.945312 136.085938 C 223.972656 135.96875 224.085938 135.882812 224.207031 135.894531 L 235.890625 136.855469 C 235.96875 136.863281 236.042969 136.90625 236.082031 136.976562 L 245.882812 153.332031 C 245.921875 153.398438 245.929688 153.476562 245.902344 153.546875 C 245.875 153.617188 245.816406 153.671875 245.746094 153.695312 L 230.484375 158.554688 C 230.460938 158.5625 230.433594 158.566406 230.410156 158.566406 " fill-opacity="1" fill-rule="nonzero"></path>
  <path fill="#ffffff" d="M 215.308594 120.222656 L 212.429688 142.308594 C 212.429688 142.308594 226.582031 147.476562 227.617188 142.941406 C 228.648438 138.410156 231.1875 126.871094 231.1875 126.871094 L 215.308594 120.222656 " fill-opacity="1" fill-rule="nonzero"></path>
  <path fill="#000000" d="M 212.699219 142.144531 C 214.128906 142.644531 223.320312 145.757812 226.445312 144.058594 C 226.953125 143.78125 227.257812 143.398438 227.375 142.886719 C 228.320312 138.738281 230.558594 128.578125 230.902344 127.019531 L 215.511719 120.574219 Z M 223.769531 145.050781 C 219.285156 145.050781 212.691406 142.667969 212.34375 142.539062 C 212.234375 142.5 212.167969 142.390625 212.183594 142.277344 L 215.0625 120.191406 C 215.074219 120.113281 215.117188 120.046875 215.1875 120.007812 C 215.253906 119.96875 215.332031 119.964844 215.402344 119.996094 L 231.28125 126.640625 C 231.394531 126.6875 231.457031 126.804688 231.429688 126.921875 C 231.402344 127.039062 228.878906 138.515625 227.859375 142.996094 C 227.710938 143.644531 227.3125 144.148438 226.683594 144.492188 C 225.949219 144.890625 224.929688 145.050781 223.769531 145.050781 " fill-opacity="1" fill-rule="nonzero"></path>
  <path fill="#000000" d="M 243.742188 130.011719 C 243.746094 127.691406 241.714844 125.554688 239.398438 125.441406 C 241.105469 121.179688 239.292969 116.019531 235.757812 113.09375 C 232.21875 110.164062 227.320312 109.265625 222.765625 109.855469 C 220.242188 110.183594 217.730469 110.957031 215.660156 112.441406 C 213.59375 113.921875 212 116.171875 211.652344 118.691406 C 211.304688 121.214844 212.34375 123.964844 214.480469 125.355469 C 214.773438 124.542969 215.070312 123.734375 215.367188 122.925781 C 216.316406 125.324219 218.492188 127.074219 220.867188 128.082031 C 223.246094 129.085938 225.839844 129.449219 228.394531 129.796875 C 227.898438 131.34375 227.878906 132.996094 227.652344 134.601562 C 227.425781 136.207031 226.9375 137.878906 225.738281 138.972656 C 224.070312 140.496094 221.492188 140.484375 219.316406 139.871094 C 217.144531 139.257812 215.121094 138.144531 212.902344 137.714844 C 212.136719 139.503906 211.367188 141.320312 211.113281 143.25 C 210.859375 145.179688 211.179688 147.269531 212.410156 148.773438 C 214.273438 151.054688 217.566406 151.410156 220.503906 151.59375 C 222.835938 151.738281 225.296875 151.859375 227.375 150.789062 C 229.96875 149.460938 231.378906 146.558594 232.019531 143.71875 C 232.664062 140.875 232.722656 137.914062 233.515625 135.109375 C 234.839844 135.058594 236.164062 135.007812 237.488281 134.957031 C 238.699219 134.90625 239.441406 134.832031 240.457031 134.363281 C 242.246094 133.535156 243.734375 132.144531 243.742188 130.011719 " fill-opacity="1" fill-rule="nonzero"></path>
  <path fill="#ffffff" d="M 233.109375 134.046875 C 233.109375 134.046875 235.746094 127.566406 239.78125 132.175781 C 243.816406 136.777344 236.964844 143.726562 232.476562 138.707031 L 233.109375 134.046875 " fill-opacity="1" fill-rule="nonzero"></path>
  <path fill="#000000" d="M 232.738281 138.625 C 234.824219 140.875 237.382812 140.445312 239.011719 139 C 240.8125 137.410156 241.589844 134.609375 239.597656 132.335938 C 238.558594 131.152344 237.535156 130.636719 236.5625 130.796875 C 234.6875 131.113281 233.480469 133.8125 233.351562 134.113281 Z M 236.011719 140.707031 C 234.765625 140.707031 233.457031 140.175781 232.292969 138.871094 C 232.246094 138.816406 232.222656 138.746094 232.234375 138.671875 L 232.867188 134.015625 C 232.871094 133.996094 232.875 133.972656 232.882812 133.953125 C 232.9375 133.820312 234.234375 130.6875 236.480469 130.308594 C 237.636719 130.117188 238.808594 130.6875 239.96875 132.011719 C 242.152344 134.5 241.273438 137.664062 239.339844 139.371094 C 238.425781 140.179688 237.25 140.707031 236.011719 140.707031 " fill-opacity="1" fill-rule="nonzero"></path>
  <path fill="#000000" d="M 234.914062 137.976562 C 234.886719 137.976562 234.855469 137.972656 234.828125 137.960938 C 234.699219 137.910156 234.636719 137.769531 234.683594 137.640625 C 235.207031 136.238281 236.4375 135.140625 237.894531 134.78125 C 238.023438 134.746094 238.160156 134.828125 238.191406 134.960938 C 238.226562 135.09375 238.144531 135.226562 238.011719 135.261719 C 236.714844 135.582031 235.617188 136.5625 235.144531 137.816406 C 235.109375 137.914062 235.015625 137.976562 234.914062 137.976562 " fill-opacity="1" fill-rule="nonzero"></path>
  <path fill="#000000" d="M 218.960938 132.683594 L 218.964844 132.683594 Z M 222.296875 129.878906 C 221.71875 129.878906 221.140625 130.082031 220.621094 130.476562 C 219.921875 131.003906 219.417969 131.808594 219.203125 132.742188 C 218.988281 133.671875 219.085938 134.617188 219.480469 135.398438 C 219.867188 136.167969 220.496094 136.683594 221.246094 136.859375 C 222.816406 137.222656 224.449219 135.964844 224.890625 134.058594 C 225.332031 132.148438 224.414062 130.300781 222.847656 129.9375 C 222.667969 129.898438 222.480469 129.878906 222.296875 129.878906 Z M 221.789062 137.414062 C 221.574219 137.414062 221.355469 137.390625 221.136719 137.339844 C 220.238281 137.132812 219.496094 136.523438 219.039062 135.621094 C 218.59375 134.738281 218.480469 133.671875 218.722656 132.628906 C 218.964844 131.585938 219.53125 130.679688 220.320312 130.082031 C 221.125 129.472656 222.0625 129.25 222.957031 129.457031 C 224.792969 129.882812 225.875 131.996094 225.375 134.167969 C 224.929688 136.082031 223.402344 137.414062 221.789062 137.414062 " fill-opacity="1" fill-rule="nonzero"></path>
  <path fill="#ffffff" d="M 210.546875 130.738281 C 210.070312 132.78125 211.070312 134.757812 212.773438 135.152344 C 214.476562 135.546875 216.242188 134.207031 216.714844 132.164062 C 217.1875 130.121094 216.191406 128.144531 214.484375 127.75 C 212.78125 127.355469 211.019531 128.695312 210.546875 130.738281 " fill-opacity="1" fill-rule="nonzero"></path>
  <path fill="#000000" d="M 210.785156 130.792969 C 210.34375 132.703125 211.261719 134.546875 212.832031 134.910156 C 214.398438 135.273438 216.03125 134.019531 216.472656 132.109375 C 216.914062 130.203125 216 128.355469 214.429688 127.992188 C 212.863281 127.628906 211.226562 128.886719 210.785156 130.792969 Z M 213.375 135.46875 C 213.15625 135.46875 212.9375 135.445312 212.71875 135.394531 C 210.882812 134.96875 209.800781 132.855469 210.304688 130.683594 C 210.804688 128.511719 212.707031 127.085938 214.542969 127.511719 C 216.375 127.933594 217.457031 130.046875 216.957031 132.222656 C 216.511719 134.136719 214.984375 135.46875 213.375 135.46875 " fill-opacity="1" fill-rule="nonzero"></path>
  <path fill="#000000" d="M 218.960938 132.933594 C 218.890625 132.933594 218.820312 132.902344 218.773438 132.84375 C 218.734375 132.800781 217.863281 131.773438 216.839844 132.378906 C 216.722656 132.449219 216.570312 132.410156 216.503906 132.289062 C 216.433594 132.175781 216.472656 132.023438 216.589844 131.953125 C 217.699219 131.296875 218.75 132.042969 219.152344 132.527344 C 219.238281 132.632812 219.226562 132.789062 219.121094 132.875 C 219.074219 132.914062 219.019531 132.933594 218.960938 132.933594 " fill-opacity="1" fill-rule="nonzero"></path>
  <path fill="#000000" d="M 225.132812 134.359375 C 225.003906 134.359375 224.894531 134.257812 224.886719 134.128906 C 224.875 133.992188 224.980469 133.875 225.117188 133.867188 L 233.097656 133.375 C 233.230469 133.367188 233.347656 133.46875 233.359375 133.605469 C 233.367188 133.742188 233.261719 133.859375 233.125 133.867188 L 225.148438 134.359375 C 225.140625 134.359375 225.136719 134.359375 225.132812 134.359375 " fill-opacity="1" fill-rule="nonzero"></path>
  <g clip-path="url(#80e4b94722)">
    <path fill="#5479f7" d="M 179.617188 200.683594 L 177.941406 192.152344 C 183.386719 183.992188 188.730469 176.605469 193.441406 170.105469 C 198.503906 163.117188 204.695312 157.058594 213.292969 156.371094 C 228.71875 155.140625 250.152344 154.734375 265.832031 154.617188 C 279.347656 154.515625 291.3125 163.46875 294.902344 176.503906 C 299.585938 193.507812 299.785156 210 299.871094 222.109375 C 299.976562 236.527344 279.234375 235.480469 279.234375 235.480469 L 217.113281 235.480469 L 211.140625 211.222656 L 200.398438 226.023438 C 195.285156 233.066406 186.019531 234.28125 178.1875 230.492188 C 176.410156 229.628906 174.6875 228.519531 173.027344 227.222656 C 178.707031 213.503906 179.617188 200.683594 179.617188 200.683594 " fill-opacity="1" fill-rule="nonzero"></path>
  </g>
  <path fill="#ffffff" d="M 152.585938 194.023438 L 171.425781 202.257812 C 173.589844 198.769531 175.773438 195.402344 177.941406 192.152344 L 179.617188 200.683594 C 179.617188 200.683594 193.265625 222.902344 173.027344 227.222656 C 161.988281 218.609375 153.796875 201.660156 152.585938 194.023438 " fill-opacity="1" fill-rule="nonzero"></path>
  <path fill="#000000" d="M 173.027344 227.472656 C 172.972656 227.472656 172.917969 227.453125 172.875 227.421875 C 167.941406 223.570312 162.984375 217.515625 158.90625 210.378906 C 155.507812 204.429688 152.992188 198.175781 152.34375 194.0625 C 152.320312 193.929688 152.414062 193.800781 152.546875 193.78125 C 152.683594 193.757812 152.808594 193.851562 152.832031 193.984375 C 153.941406 201.011719 161.691406 218.0625 173.179688 227.03125 C 173.285156 227.113281 173.304688 227.269531 173.222656 227.378906 C 173.171875 227.4375 173.101562 227.472656 173.027344 227.472656 " fill-opacity="1" fill-rule="nonzero"></path>
  <path fill="#000000" d="M 283.167969 212.371094 C 283.117188 212.371094 283.066406 212.355469 283.023438 212.324219 C 277.414062 208.269531 270.972656 204.972656 264.742188 201.789062 C 263.394531 201.097656 262.003906 200.386719 260.65625 199.683594 C 260.535156 199.621094 260.488281 199.472656 260.550781 199.351562 C 260.613281 199.230469 260.761719 199.183594 260.882812 199.246094 C 262.230469 199.945312 263.621094 200.660156 264.96875 201.347656 C 271.214844 204.542969 277.675781 207.84375 283.3125 211.925781 C 283.425781 212.003906 283.449219 212.160156 283.367188 212.269531 C 283.320312 212.335938 283.246094 212.371094 283.167969 212.371094 " fill-opacity="1" fill-rule="nonzero"></path>
  <path fill="#000000" d="M 271.992188 204.628906 C 271.871094 204.628906 271.765625 204.539062 271.75 204.417969 L 269.1875 186.277344 C 269.167969 186.140625 269.265625 186.015625 269.398438 185.996094 C 269.535156 185.976562 269.660156 186.074219 269.679688 186.207031 L 272.238281 204.347656 C 272.257812 204.484375 272.164062 204.605469 272.027344 204.625 C 272.015625 204.628906 272.003906 204.628906 271.992188 204.628906 " fill-opacity="1" fill-rule="nonzero"></path>
  <path fill="#000000" d="M 211.140625 211.46875 C 211.027344 211.46875 210.925781 211.390625 210.902344 211.273438 C 210.035156 207.34375 208.304688 200.984375 206.632812 194.835938 C 205.800781 191.769531 205.011719 188.871094 204.339844 186.304688 C 204.304688 186.171875 204.382812 186.039062 204.515625 186.003906 C 204.648438 185.96875 204.78125 186.046875 204.816406 186.179688 C 205.488281 188.742188 206.277344 191.640625 207.109375 194.703125 C 208.785156 200.859375 210.515625 207.222656 211.382812 211.167969 C 211.414062 211.300781 211.328125 211.433594 211.195312 211.464844 C 211.175781 211.464844 211.160156 211.46875 211.140625 211.46875 " fill-opacity="1" fill-rule="nonzero"></path>
  <path fill="#000000" d="M 280.652344 235.714844 C 271.410156 235.714844 263.628906 231.882812 258.601562 228.542969 C 252.789062 224.683594 249.304688 220.628906 249.273438 220.589844 C 249.183594 220.484375 249.195312 220.328125 249.300781 220.242188 C 249.402344 220.152344 249.558594 220.164062 249.648438 220.269531 C 249.683594 220.308594 253.128906 224.320312 258.886719 228.140625 C 264.191406 231.660156 272.597656 235.738281 282.53125 235.167969 C 282.667969 235.160156 282.785156 235.261719 282.792969 235.398438 C 282.800781 235.535156 282.695312 235.652344 282.5625 235.660156 C 281.917969 235.695312 281.28125 235.714844 280.652344 235.714844 " fill-opacity="1" fill-rule="nonzero"></path>
  <path fill="#000000" d="M 168.011719 221.007812 C 167.898438 221.007812 167.792969 220.925781 167.769531 220.8125 C 167.742188 220.675781 167.828125 220.546875 167.960938 220.519531 C 172.535156 219.570312 176.375 215.710938 177.304688 211.136719 C 177.332031 211.003906 177.464844 210.917969 177.597656 210.945312 C 177.730469 210.972656 177.816406 211.101562 177.789062 211.238281 C 176.820312 216 172.820312 220.015625 168.0625 221.003906 C 168.046875 221.007812 168.027344 221.007812 168.011719 221.007812 " fill-opacity="1" fill-rule="nonzero"></path>
  <path fill="#000000" d="M 173.929688 221.867188 C 173.433594 221.867188 173.027344 222.273438 173.027344 222.769531 C 173.027344 223.269531 173.433594 223.671875 173.929688 223.671875 C 174.429688 223.671875 174.832031 223.269531 174.832031 222.769531 C 174.832031 222.273438 174.429688 221.867188 173.929688 221.867188 Z M 173.929688 224.167969 C 173.160156 224.167969 172.53125 223.542969 172.53125 222.769531 C 172.53125 222 173.160156 221.371094 173.929688 221.371094 C 174.703125 221.371094 175.328125 222 175.328125 222.769531 C 175.328125 223.542969 174.703125 224.167969 173.929688 224.167969 " fill-opacity="1" fill-rule="nonzero"></path>
  <path fill="#5479f7" d="M 229.980469 155.410156 L 234.054688 163.101562 L 230.34375 170.058594 C 230.34375 170.058594 236.011719 192.824219 235.808594 192.667969 C 235.609375 192.515625 225.132812 192.667969 225.132812 192.667969 L 228.34375 170.058594 L 226.054688 163.101562 L 229.980469 155.410156 " fill-opacity="1" fill-rule="nonzero"></path>
  <path fill="#ffffff" d="M 244.863281 147.230469 L 230.34375 154.066406 L 227.066406 151.601562 L 222.046875 158.015625 L 226.054688 166.828125 L 230.410156 158.316406 L 234.246094 167.878906 L 250.679688 155.15625 L 244.863281 147.230469 " fill-opacity="1" fill-rule="nonzero"></path>
  <path fill="#000000" d="M 224.085938 155.65625 C 224.035156 155.65625 223.980469 155.636719 223.9375 155.601562 C 223.828125 155.519531 223.808594 155.363281 223.894531 155.253906 L 226.871094 151.449219 C 226.953125 151.34375 227.105469 151.324219 227.214844 151.40625 L 230.375 153.78125 L 244.757812 147.007812 C 244.863281 146.957031 244.992188 146.988281 245.0625 147.082031 L 250.878906 155.007812 C 250.957031 155.117188 250.9375 155.273438 250.824219 155.351562 C 250.714844 155.433594 250.558594 155.410156 250.480469 155.300781 L 244.785156 147.539062 L 230.449219 154.289062 C 230.367188 154.328125 230.269531 154.320312 230.195312 154.265625 L 227.109375 151.945312 L 224.28125 155.558594 C 224.234375 155.625 224.160156 155.65625 224.085938 155.65625 " fill-opacity="1" fill-rule="nonzero"></path>
  <path fill="#ffffff" d="M 259.964844 199.335938 C 259.964844 199.335938 253.949219 214.042969 249.460938 220.429688 C 249.460938 220.429688 232.792969 210.515625 226.003906 201.980469 C 226.003906 201.980469 222.046875 209.488281 219.933594 206.882812 C 219.933594 206.882812 216.96875 209.125 215.210938 205.964844 C 215.210938 205.964844 212.609375 205.316406 211.894531 202.480469 C 211.183594 199.644531 212.761719 196.816406 212.761719 196.816406 C 212.761719 196.816406 208.746094 202.171875 207.066406 201.09375 C 205.386719 200.015625 208.792969 193.578125 211.648438 190.835938 C 214.5 188.09375 219.0625 183.289062 230.472656 185.988281 C 240.898438 188.449219 259.964844 199.335938 259.964844 199.335938 " fill-opacity="1" fill-rule="nonzero"></path>
  <path fill="#000000" d="M 219.605469 206.800781 C 219.605469 206.800781 219.601562 206.800781 219.601562 206.800781 C 219.464844 206.796875 219.355469 206.683594 219.359375 206.546875 C 219.464844 202.351562 220.6875 198.25 222.894531 194.683594 C 222.96875 194.566406 223.121094 194.53125 223.238281 194.601562 C 223.351562 194.675781 223.386719 194.824219 223.316406 194.941406 C 221.152344 198.433594 219.957031 202.453125 219.855469 206.558594 C 219.851562 206.691406 219.742188 206.800781 219.605469 206.800781 " fill-opacity="1" fill-rule="nonzero"></path>
  <path fill="#000000" d="M 215.101562 205.59375 C 214.972656 205.59375 214.867188 205.496094 214.855469 205.371094 C 214.433594 200.828125 215.71875 196.097656 218.382812 192.398438 C 218.464844 192.285156 218.617188 192.261719 218.730469 192.339844 C 218.839844 192.421875 218.867188 192.574219 218.785156 192.6875 C 216.191406 196.292969 214.9375 200.898438 215.347656 205.324219 C 215.359375 205.460938 215.261719 205.582031 215.125 205.59375 C 215.117188 205.59375 215.109375 205.59375 215.101562 205.59375 " fill-opacity="1" fill-rule="nonzero"></path>
  <path fill="#000000" d="M 212.917969 196.964844 C 212.898438 196.964844 212.878906 196.964844 212.863281 196.960938 C 212.726562 196.929688 212.644531 196.796875 212.675781 196.664062 C 213.152344 194.628906 214.136719 192.730469 215.523438 191.167969 C 215.613281 191.066406 215.769531 191.054688 215.871094 191.144531 C 215.972656 191.238281 215.984375 191.394531 215.894531 191.496094 C 214.558594 192.996094 213.613281 194.820312 213.160156 196.777344 C 213.132812 196.890625 213.03125 196.964844 212.917969 196.964844 " fill-opacity="1" fill-rule="nonzero"></path>
  <path fill="#000000" d="M 226.449219 201.492188 C 226.402344 201.492188 226.355469 201.480469 226.3125 201.453125 C 226.199219 201.378906 226.167969 201.226562 226.242188 201.113281 L 228.34375 197.90625 C 228.417969 197.792969 228.570312 197.761719 228.683594 197.835938 C 228.800781 197.910156 228.832031 198.0625 228.753906 198.175781 L 226.65625 201.382812 C 226.609375 201.453125 226.527344 201.492188 226.449219 201.492188 " fill-opacity="1" fill-rule="nonzero"></path>
  <path fill="#000000" d="M 240.707031 213.753906 C 240.660156 213.753906 240.617188 213.742188 240.574219 213.714844 C 240.460938 213.640625 240.425781 213.488281 240.5 213.375 C 244.339844 207.375 247.214844 200.84375 249.050781 193.964844 C 249.085938 193.832031 249.222656 193.753906 249.355469 193.789062 C 249.484375 193.824219 249.5625 193.960938 249.527344 194.09375 C 247.679688 201.023438 244.78125 207.597656 240.914062 213.640625 C 240.867188 213.710938 240.789062 213.753906 240.707031 213.753906 " fill-opacity="1" fill-rule="nonzero"></path>
  <path fill="#000000" d="M 246.140625 213.46875 C 245.683594 213.46875 245.214844 213.757812 245.054688 214.191406 C 244.851562 214.730469 245.160156 215.414062 245.699219 215.625 C 246.238281 215.835938 246.925781 215.539062 247.144531 215.003906 C 247.359375 214.46875 247.074219 213.773438 246.542969 213.546875 C 246.53125 213.542969 246.523438 213.539062 246.511719 213.535156 C 246.503906 213.53125 246.492188 213.527344 246.480469 213.523438 C 246.371094 213.484375 246.257812 213.46875 246.140625 213.46875 Z M 246.066406 216.1875 C 245.882812 216.1875 245.695312 216.15625 245.519531 216.085938 C 244.726562 215.777344 244.292969 214.8125 244.589844 214.015625 C 244.886719 213.222656 245.851562 212.773438 246.648438 213.058594 C 246.660156 213.0625 246.675781 213.070312 246.6875 213.078125 C 246.703125 213.082031 246.71875 213.085938 246.734375 213.09375 C 247.515625 213.421875 247.921875 214.402344 247.601562 215.1875 C 247.355469 215.796875 246.710938 216.1875 246.066406 216.1875 " fill-opacity="1" fill-rule="nonzero"></path>
  <path fill="#000000" d="M 144.757812 179.742188 L 171.785156 179.742188 C 172.359375 179.742188 172.90625 180.007812 173.261719 180.460938 L 195.050781 208.183594 C 196.019531 209.414062 195.140625 211.222656 193.574219 211.222656 L 167.480469 211.222656 C 166.917969 211.222656 166.386719 210.96875 166.027344 210.535156 L 143.304688 182.8125 C 142.300781 181.585938 143.171875 179.742188 144.757812 179.742188 " fill-opacity="1" fill-rule="nonzero"></path>
  <path fill="#ffffff" d="M 156.707031 183.308594 C 157.023438 183.011719 157.476562 182.71875 157.855469 182.929688 C 158.1875 183.109375 158.25 183.5625 158.269531 183.941406 C 158.480469 187.695312 158.691406 191.449219 158.902344 195.203125 C 158.855469 191.847656 159.707031 188.375 161.832031 185.816406 C 162.359375 185.1875 163.28125 184.59375 163.898438 185.125 C 164.273438 185.445312 164.300781 186.011719 164.277344 186.511719 C 164.097656 190.722656 162.449219 195.078125 163.898438 199.027344 C 164.15625 196.519531 164.738281 194.042969 165.628906 191.6875 C 165.992188 190.722656 166.445312 189.730469 167.265625 189.132812 C 168.089844 188.53125 169.386719 188.496094 170.003906 189.316406 C 170.65625 190.1875 170.253906 191.425781 169.894531 192.460938 C 168.851562 195.460938 168.410156 198.675781 168.601562 201.855469 C 169.003906 199.371094 169.5 196.695312 171.308594 194.992188 C 171.839844 194.492188 172.496094 194.089844 173.210938 194.03125 C 173.929688 193.972656 174.710938 194.316406 175.019531 194.980469 C 175.363281 195.714844 175.078125 196.570312 174.851562 197.347656 C 173.96875 200.339844 173.988281 203.59375 174.847656 206.589844 C 175.488281 208.835938 178.242188 211.863281 175.328125 213.617188 C 174.328125 214.21875 173.097656 214.265625 171.949219 214.097656 C 168.707031 213.621094 165.886719 211.621094 163.351562 209.496094 C 160.765625 207.328125 158.308594 204.949219 156.417969 202.121094 C 154.53125 199.296875 152.734375 195.988281 152.640625 192.570312 C 152.542969 189.148438 154.242188 185.621094 156.707031 183.308594 " fill-opacity="1" fill-rule="nonzero"></path>
  <path fill="#ffffff" d="M 106.09375 166.996094 L -8.003906 166.996094 L -8.003906 75.855469 L 106.09375 75.855469 L 106.09375 166.996094 " fill-opacity="1" fill-rule="nonzero"></path>
  <path fill="#ffffff" d="M 106.09375 144.261719 L 106.09375 166.996094 L -8.003906 166.996094 L -8.003906 75.855469 L 32.90625 75.855469 L 106.09375 144.261719 " fill-opacity="1" fill-rule="nonzero"></path>
  <path fill="#000000" d="M 106.09375 167.246094 L -8.003906 167.246094 C -8.136719 167.246094 -8.25 167.132812 -8.25 166.996094 L -8.25 75.855469 C -8.25 75.71875 -8.136719 75.609375 -8.003906 75.609375 L 32.90625 75.609375 C 33.042969 75.609375 33.15625 75.71875 33.15625 75.855469 C 33.15625 75.992188 33.042969 76.105469 32.90625 76.105469 L -7.753906 76.105469 L -7.753906 166.75 L 105.847656 166.75 L 105.847656 144.261719 C 105.847656 144.125 105.957031 144.011719 106.09375 144.011719 C 106.230469 144.011719 106.339844 144.125 106.339844 144.261719 L 106.339844 166.996094 C 106.339844 167.132812 106.230469 167.246094 106.09375 167.246094 " fill-opacity="1" fill-rule="nonzero"></path>
  <path fill="#ffffff" d="M 36.6875 47.214844 C 36.6875 56.582031 45.394531 64.175781 56.132812 64.175781 C 66.871094 64.175781 75.578125 56.582031 75.578125 47.214844 C 75.578125 37.84375 66.871094 30.246094 56.132812 30.246094 C 45.394531 30.246094 36.6875 37.84375 36.6875 47.214844 " fill-opacity="1" fill-rule="nonzero"></path>
  <path fill="#000000" d="M 56.132812 30.496094 C 45.546875 30.496094 36.933594 37.996094 36.933594 47.214844 C 36.933594 56.429688 45.546875 63.929688 56.132812 63.929688 C 66.71875 63.929688 75.332031 56.429688 75.332031 47.214844 C 75.332031 37.996094 66.71875 30.496094 56.132812 30.496094 Z M 56.132812 64.425781 C 45.273438 64.425781 36.441406 56.703125 36.441406 47.214844 C 36.441406 37.722656 45.273438 30 56.132812 30 C 66.992188 30 75.824219 37.722656 75.824219 47.214844 C 75.824219 56.703125 66.992188 64.425781 56.132812 64.425781 " fill-opacity="1" fill-rule="nonzero"></path>
  <path fill="#ffffff" d="M 72.914062 38.859375 C 70.375 38.324219 66.570312 37.925781 61.386719 38.402344 C 54.886719 39 49.707031 44.167969 49.097656 50.667969 C 48.851562 53.324219 48.757812 56.472656 48.96875 60.105469 C 49.421875 67.882812 55.277344 74.308594 62.996094 75.382812 C 64.945312 75.65625 67.1875 75.851562 69.75 75.929688 C 73.933594 76.0625 77.535156 73.011719 78.078125 68.863281 C 78.894531 62.640625 79.519531 53.097656 77.664062 43.640625 C 77.191406 41.238281 75.308594 39.363281 72.914062 38.859375 " fill-opacity="1" fill-rule="nonzero"></path>
  <path fill="#000000" d="M 65.890625 38.433594 C 64.457031 38.433594 62.960938 38.507812 61.410156 38.648438 C 55.015625 39.238281 49.941406 44.300781 49.34375 50.691406 C 49.066406 53.65625 49.023438 56.820312 49.214844 60.089844 C 49.664062 67.757812 55.472656 74.085938 63.027344 75.140625 C 65.082031 75.425781 67.347656 75.609375 69.757812 75.683594 C 73.835938 75.8125 77.304688 72.867188 77.832031 68.832031 C 78.660156 62.539062 79.261719 53.066406 77.421875 43.691406 C 76.972656 41.390625 75.183594 39.589844 72.859375 39.101562 C 70.75 38.65625 68.417969 38.433594 65.890625 38.433594 Z M 70.011719 76.183594 C 69.921875 76.183594 69.832031 76.179688 69.742188 76.179688 C 67.3125 76.101562 65.03125 75.917969 62.960938 75.628906 C 55.171875 74.542969 49.183594 68.023438 48.722656 60.121094 C 48.527344 56.824219 48.574219 53.636719 48.851562 50.644531 C 49.472656 44.019531 54.734375 38.765625 61.363281 38.15625 C 65.707031 37.757812 69.609375 37.910156 72.964844 38.617188 C 75.476562 39.144531 77.417969 41.097656 77.90625 43.59375 C 79.757812 53.039062 79.15625 62.566406 78.324219 68.894531 C 77.773438 73.09375 74.222656 76.183594 70.011719 76.183594 " fill-opacity="1" fill-rule="nonzero"></path>
  <path fill="#5479f7" d="M 47.917969 68.074219 L 52.753906 68.074219 C 55.769531 68.074219 58.214844 65.628906 58.214844 62.617188 L 58.214844 53.121094 C 58.214844 50.109375 55.769531 47.664062 52.753906 47.664062 L 47.917969 47.664062 C 44.902344 47.664062 42.460938 50.109375 42.460938 53.121094 L 42.460938 62.617188 C 42.460938 65.628906 44.902344 68.074219 47.917969 68.074219 " fill-opacity="1" fill-rule="nonzero"></path>
  <path fill="#ffffff" d="M 7.046875 140.308594 L 36.6875 105.878906 L 29.027344 95.652344 C 26.527344 92.320312 21.648438 92.007812 18.730469 94.984375 C 11.597656 102.265625 0.046875 116.289062 -2.730469 133.042969 L 7.046875 140.308594 " fill-opacity="1" fill-rule="nonzero"></path>
  <path fill="#000000" d="M -2.460938 132.9375 L 7.007812 139.972656 L 36.371094 105.867188 L 28.828125 95.800781 C 27.683594 94.273438 25.933594 93.328125 24.027344 93.199219 C 22.117188 93.074219 20.25 93.789062 18.90625 95.160156 C 12.136719 102.066406 0.378906 116.148438 -2.460938 132.9375 Z M 7.042969 140.554688 C 6.992188 140.554688 6.941406 140.539062 6.898438 140.503906 L -2.878906 133.242188 C -2.953125 133.1875 -2.988281 133.09375 -2.972656 133.003906 C -0.15625 116.015625 11.722656 101.785156 18.554688 94.8125 C 19.996094 93.335938 22.003906 92.570312 24.058594 92.707031 C 26.109375 92.84375 27.992188 93.863281 29.222656 95.507812 L 36.886719 105.730469 C 36.957031 105.820312 36.953125 105.949219 36.875 106.039062 L 7.230469 140.46875 C 7.183594 140.523438 7.113281 140.554688 7.042969 140.554688 " fill-opacity="1" fill-rule="nonzero"></path>
  <path fill="#ffffff" d="M 120.847656 104.648438 C 120.847656 104.648438 92.109375 87.625 78 86.722656 C 78 86.722656 72 85.242188 70.910156 99.402344 L 74.136719 107.289062 C 74.136719 107.289062 105.839844 126.386719 120.285156 123 L 120.847656 104.648438 " fill-opacity="1" fill-rule="nonzero"></path>
  <path fill="#000000" d="M 74.335938 107.121094 C 76.003906 108.113281 106.105469 125.851562 120.042969 122.800781 L 120.597656 104.785156 C 118.507812 103.5625 91.398438 87.828125 77.984375 86.96875 C 77.96875 86.96875 77.953125 86.964844 77.9375 86.964844 C 77.890625 86.953125 76.714844 86.6875 75.328125 87.699219 C 73.75 88.851562 71.75 91.808594 71.164062 99.363281 Z M 116.390625 123.65625 C 110.40625 123.65625 102.125 121.304688 91.691406 116.640625 C 82.058594 112.335938 74.089844 107.550781 74.007812 107.503906 C 73.964844 107.476562 73.929688 107.433594 73.90625 107.382812 L 70.683594 99.496094 C 70.667969 99.460938 70.660156 99.421875 70.664062 99.382812 C 71.265625 91.574219 73.382812 88.496094 75.054688 87.285156 C 76.535156 86.214844 77.835938 86.4375 78.035156 86.476562 C 92.046875 87.386719 120.6875 104.261719 120.972656 104.433594 C 121.050781 104.480469 121.097656 104.5625 121.09375 104.652344 L 120.53125 123.003906 C 120.527344 123.117188 120.449219 123.214844 120.339844 123.238281 C 119.160156 123.515625 117.839844 123.65625 116.390625 123.65625 " fill-opacity="1" fill-rule="nonzero"></path>
  <path fill="#5479f7" d="M 112.628906 117.574219 C 114.578125 122.332031 120.011719 124.613281 124.769531 122.667969 C 129.527344 120.722656 131.808594 115.289062 129.863281 110.527344 C 127.917969 105.769531 122.484375 103.488281 117.722656 105.433594 C 112.964844 107.378906 110.683594 112.816406 112.628906 117.574219 " fill-opacity="1" fill-rule="nonzero"></path>
  <path fill="#ffffff" d="M 151.550781 81.707031 L 133.636719 115.808594 C 132.148438 118.640625 128.542969 119.578125 125.859375 117.828125 L 118.460938 113 C 115.789062 111.257812 115.1875 107.59375 117.164062 105.085938 L 141.015625 74.855469 C 143.121094 72.191406 146.972656 71.695312 149.683594 73.746094 L 149.789062 73.824219 C 152.226562 75.667969 152.972656 79.003906 151.550781 81.707031 " fill-opacity="1" fill-rule="nonzero"></path>
  <path fill="#000000" d="M 145.933594 72.742188 C 144.152344 72.742188 142.386719 73.519531 141.210938 75.007812 L 117.359375 105.242188 C 116.460938 106.382812 116.078125 107.855469 116.3125 109.289062 C 116.546875 110.722656 117.378906 112 118.597656 112.792969 L 125.996094 117.621094 C 127.214844 118.417969 128.722656 118.664062 130.132812 118.296875 C 131.542969 117.929688 132.738281 116.980469 133.417969 115.691406 L 151.332031 81.59375 C 152.703125 78.984375 151.992188 75.800781 149.640625 74.023438 L 149.53125 73.941406 C 148.460938 73.132812 147.195312 72.742188 145.933594 72.742188 Z M 128.832031 118.957031 C 127.738281 118.957031 126.65625 118.644531 125.722656 118.035156 L 118.328125 113.207031 C 116.992188 112.339844 116.082031 110.941406 115.824219 109.371094 C 115.566406 107.800781 115.984375 106.183594 116.972656 104.933594 L 140.824219 74.703125 C 142.992188 71.953125 147.035156 71.433594 149.832031 73.546875 L 149.941406 73.628906 C 152.484375 75.554688 153.253906 79 151.769531 81.824219 L 133.855469 115.921875 C 133.113281 117.332031 131.800781 118.375 130.257812 118.777344 C 129.789062 118.898438 129.308594 118.957031 128.832031 118.957031 " fill-opacity="1" fill-rule="nonzero"></path>
  <path fill="#ffffff" d="M 150.480469 82.996094 C 148.378906 83.875 145.855469 83.667969 143.925781 82.464844 C 141.992188 81.257812 140.699219 79.082031 140.566406 76.808594 L 150.480469 82.996094 " fill-opacity="1" fill-rule="nonzero"></path>
  <path fill="#000000" d="M 147.738281 83.785156 C 146.355469 83.785156 144.972656 83.40625 143.792969 82.671875 C 141.789062 81.421875 140.457031 79.179688 140.316406 76.820312 C 140.308594 76.6875 140.414062 76.570312 140.550781 76.5625 C 140.6875 76.550781 140.804688 76.65625 140.8125 76.792969 C 140.941406 78.996094 142.183594 81.085938 144.054688 82.253906 C 145.925781 83.421875 148.351562 83.617188 150.386719 82.769531 C 150.507812 82.714844 150.65625 82.773438 150.707031 82.902344 C 150.761719 83.027344 150.699219 83.171875 150.574219 83.226562 C 149.675781 83.597656 148.707031 83.785156 147.738281 83.785156 " fill-opacity="1" fill-rule="nonzero"></path>
  <path fill="#ffffff" d="M 174.542969 64.820312 C 174.542969 64.820312 170.96875 68.964844 165.316406 72.992188 C 160.507812 76.417969 153.855469 75.75 149.921875 71.339844 C 149.355469 70.707031 148.785156 70.015625 148.222656 69.269531 C 144.929688 64.894531 145.851562 58.664062 150.25 55.398438 C 155.496094 51.507812 161.546875 47.757812 162.570312 46.78125 L 170.289062 51.480469 L 174.542969 64.820312 " fill-opacity="1" fill-rule="nonzero"></path>
  <path fill="#000000" d="M 162.597656 47.085938 C 161.984375 47.609375 160.507812 48.601562 158.527344 49.9375 C 156.140625 51.542969 153.167969 53.542969 150.398438 55.597656 C 148.316406 57.144531 146.964844 59.410156 146.59375 61.976562 C 146.226562 64.527344 146.875 67.066406 148.421875 69.121094 C 148.953125 69.828125 149.519531 70.519531 150.105469 71.175781 C 153.945312 75.480469 160.425781 76.175781 165.171875 72.789062 C 170.246094 69.175781 173.675781 65.425781 174.265625 64.765625 L 170.082031 51.640625 Z M 158.511719 75.425781 C 155.253906 75.425781 152.042969 74.085938 149.738281 71.503906 C 149.140625 70.839844 148.566406 70.136719 148.023438 69.417969 C 146.398438 67.257812 145.71875 64.589844 146.105469 61.90625 C 146.492188 59.207031 147.914062 56.828125 150.101562 55.203125 C 152.882812 53.136719 155.859375 51.136719 158.25 49.527344 C 160.308594 48.140625 161.933594 47.046875 162.398438 46.601562 C 162.480469 46.527344 162.601562 46.511719 162.699219 46.570312 L 170.417969 51.269531 C 170.46875 51.296875 170.507812 51.347656 170.527344 51.402344 L 174.78125 64.746094 C 174.804688 64.828125 174.789062 64.917969 174.730469 64.984375 C 174.695312 65.023438 171.070312 69.195312 165.460938 73.191406 C 163.355469 74.695312 160.921875 75.425781 158.511719 75.425781 " fill-opacity="1" fill-rule="nonzero"></path>
  <path fill="#5479f7" d="M 195.277344 64.816406 L 158.050781 64.816406 L 158.050781 38.21875 L 195.277344 38.21875 L 195.277344 64.816406 " fill-opacity="1" fill-rule="nonzero"></path>
  <path fill="#ffffff" d="M 150.25 55.398438 L 157.433594 48.90625 C 158.949219 47.539062 160.917969 46.78125 162.957031 46.78125 L 169.828125 46.78125 C 171.125 46.78125 172.179688 47.832031 172.179688 49.132812 C 172.179688 50.425781 171.125 51.480469 169.828125 51.480469 L 165.773438 51.480469 C 164.742188 51.480469 163.78125 51.996094 163.214844 52.859375 L 155.363281 64.816406 L 150.25 55.398438 " fill-opacity="1" fill-rule="nonzero"></path>
  <path fill="#ffffff" d="M 150.25 55.398438 L 157.433594 48.90625 C 158.949219 47.539062 160.917969 46.78125 162.957031 46.78125 L 169.828125 46.78125 C 171.125 46.78125 172.179688 47.832031 172.179688 49.132812 C 172.179688 50.425781 171.125 51.480469 169.828125 51.480469 L 165.773438 51.480469 C 164.742188 51.480469 163.78125 51.996094 163.214844 52.859375 L 155.363281 64.816406 L 150.25 55.398438 " fill-opacity="1" fill-rule="nonzero"></path>
  <path fill="#000000" d="M 155.363281 65.066406 C 155.316406 65.066406 155.269531 65.050781 155.230469 65.023438 C 155.113281 64.949219 155.082031 64.796875 155.15625 64.683594 L 163.007812 52.722656 C 163.621094 51.789062 164.65625 51.230469 165.773438 51.230469 L 169.828125 51.230469 C 170.988281 51.230469 171.929688 50.289062 171.929688 49.132812 C 171.929688 47.972656 170.988281 47.03125 169.828125 47.03125 L 162.957031 47.03125 C 160.976562 47.03125 159.074219 47.761719 157.601562 49.089844 L 150.417969 55.585938 C 150.316406 55.675781 150.15625 55.667969 150.066406 55.566406 C 149.976562 55.464844 149.984375 55.308594 150.085938 55.214844 L 157.269531 48.722656 C 158.832031 47.3125 160.851562 46.535156 162.957031 46.535156 L 169.828125 46.535156 C 171.261719 46.535156 172.425781 47.699219 172.425781 49.132812 C 172.425781 50.5625 171.261719 51.726562 169.828125 51.726562 L 165.773438 51.726562 C 164.820312 51.726562 163.945312 52.199219 163.421875 52.992188 L 155.570312 64.953125 C 155.523438 65.027344 155.445312 65.066406 155.363281 65.066406 " fill-opacity="1" fill-rule="nonzero"></path>
  <path fill="#ffffff" d="M 48.761719 86.363281 L 61.789062 86.363281 C 62.933594 86.363281 63.863281 85.433594 63.863281 84.289062 L 63.863281 80.445312 C 63.863281 79.296875 62.933594 78.371094 61.789062 78.371094 L 48.761719 78.371094 C 47.617188 78.371094 46.6875 79.296875 46.6875 80.445312 L 46.6875 84.289062 C 46.6875 85.433594 47.617188 86.363281 48.761719 86.363281 " fill-opacity="1" fill-rule="nonzero"></path>
  <path fill="#000000" d="M 48.761719 78.617188 C 47.753906 78.617188 46.933594 79.4375 46.933594 80.445312 L 46.933594 84.289062 C 46.933594 85.296875 47.753906 86.117188 48.761719 86.117188 L 61.789062 86.117188 C 62.796875 86.117188 63.617188 85.296875 63.617188 84.289062 L 63.617188 80.445312 C 63.617188 79.4375 62.796875 78.617188 61.789062 78.617188 Z M 61.789062 86.609375 L 48.761719 86.609375 C 47.480469 86.609375 46.441406 85.570312 46.441406 84.289062 L 46.441406 80.445312 C 46.441406 79.164062 47.480469 78.121094 48.761719 78.121094 L 61.789062 78.121094 C 63.070312 78.121094 64.109375 79.164062 64.109375 80.445312 L 64.109375 84.289062 C 64.109375 85.570312 63.070312 86.609375 61.789062 86.609375 " fill-opacity="1" fill-rule="nonzero"></path>
  <path fill="#ffffff" d="M 34.757812 88.484375 L 79.140625 88.484375 C 84.253906 88.484375 88.253906 92.898438 87.75 97.988281 L 83.386719 141.96875 C 82.929688 146.550781 79.078125 150.042969 74.46875 150.042969 L 39.425781 150.042969 C 34.820312 150.042969 30.964844 146.550781 30.511719 141.96875 L 26.148438 97.988281 C 25.644531 92.898438 29.640625 88.484375 34.757812 88.484375 " fill-opacity="1" fill-rule="nonzero"></path>
  <path fill="#000000" d="M 34.757812 88.730469 C 32.386719 88.730469 30.117188 89.738281 28.527344 91.492188 C 26.9375 93.246094 26.160156 95.605469 26.394531 97.964844 L 30.757812 141.945312 C 31.203125 146.421875 34.929688 149.796875 39.425781 149.796875 L 74.46875 149.796875 C 78.96875 149.796875 82.695312 146.421875 83.140625 141.945312 L 87.503906 97.964844 C 87.738281 95.605469 86.957031 93.246094 85.367188 91.492188 C 83.777344 89.738281 81.507812 88.730469 79.140625 88.730469 Z M 74.46875 150.292969 L 39.425781 150.292969 C 34.671875 150.292969 30.734375 146.722656 30.265625 141.992188 L 25.902344 98.011719 C 25.65625 95.515625 26.480469 93.019531 28.160156 91.160156 C 29.847656 89.300781 32.25 88.234375 34.757812 88.234375 L 79.140625 88.234375 C 81.648438 88.234375 84.050781 89.300781 85.734375 91.160156 C 87.417969 93.019531 88.242188 95.515625 87.996094 98.011719 L 83.632812 141.992188 C 83.164062 146.722656 79.222656 150.292969 74.46875 150.292969 " fill-opacity="1" fill-rule="nonzero"></path>
  <path fill="#5479f7" d="M -3.683594 135.132812 C -3.683594 138.945312 -0.59375 142.039062 3.222656 142.039062 C 7.035156 142.039062 10.128906 138.945312 10.128906 135.132812 C 10.128906 131.316406 7.035156 128.226562 3.222656 128.226562 C -0.59375 128.226562 -3.683594 131.316406 -3.683594 135.132812 " fill-opacity="1" fill-rule="nonzero"></path>
  <path fill="#ffffff" d="M 52.292969 134.019531 C 52.292969 134.019531 24.75 130.011719 8.296875 131.660156 C 5.496094 131.941406 3.1875 133.949219 2.523438 136.679688 C 2.253906 137.78125 2.011719 139.042969 1.875 140.40625 C 1.472656 144.421875 4.089844 148.128906 8.015625 149.0625 C 17.308594 151.28125 36.089844 154.292969 50.492188 147.097656 L 52.292969 134.019531 " fill-opacity="1" fill-rule="nonzero"></path>
  <path fill="#000000" d="M 17.429688 131.515625 C 14.195312 131.515625 11.09375 131.628906 8.320312 131.90625 C 5.632812 132.175781 3.402344 134.117188 2.761719 136.738281 C 2.460938 137.976562 2.246094 139.21875 2.121094 140.429688 C 1.730469 144.3125 4.289062 147.921875 8.070312 148.824219 C 17.753906 151.132812 36.085938 153.949219 50.265625 146.933594 L 52.011719 134.230469 C 49.746094 133.914062 32.179688 131.515625 17.429688 131.515625 Z M 28.582031 151.878906 C 20.550781 151.878906 13.058594 150.523438 7.957031 149.304688 C 3.933594 148.34375 1.214844 144.511719 1.628906 140.382812 C 1.753906 139.148438 1.972656 137.882812 2.28125 136.621094 C 2.96875 133.796875 5.378906 131.707031 8.269531 131.414062 C 24.566406 129.78125 52.050781 133.738281 52.328125 133.777344 C 52.460938 133.796875 52.554688 133.921875 52.535156 134.054688 L 50.738281 147.132812 C 50.726562 147.210938 50.675781 147.28125 50.601562 147.320312 C 43.75 150.742188 35.9375 151.878906 28.582031 151.878906 " fill-opacity="1" fill-rule="nonzero"></path>
  <path fill="#5479f7" d="M 38.230469 157.808594 L 87.835938 157.808594 L 103.570312 105.039062 L 53.960938 105.039062 L 38.230469 157.808594 " fill-opacity="1" fill-rule="nonzero"></path>
  <path fill="#ffffff" d="M 57.621094 139.253906 L 57.742188 138.707031 C 57.980469 137.636719 57.308594 136.574219 56.238281 136.335938 L 44.964844 133.824219 L 43.976562 138.246094 L 55.25 140.757812 C 56.320312 140.996094 57.382812 140.324219 57.621094 139.253906 " fill-opacity="1" fill-rule="nonzero"></path>
  <path fill="#ffffff" d="M 43.203125 138.703125 C 44.753906 139.050781 46.296875 138.074219 46.640625 136.523438 C 46.988281 134.96875 46.011719 133.429688 44.460938 133.082031 C 42.910156 132.738281 41.371094 133.714844 41.023438 135.265625 C 40.675781 136.816406 41.652344 138.355469 43.203125 138.703125 " fill-opacity="1" fill-rule="nonzero"></path>
  <path fill="#000000" d="M 43.257812 138.460938 C 43.945312 138.617188 44.648438 138.492188 45.242188 138.117188 C 45.835938 137.742188 46.246094 137.15625 46.402344 136.46875 C 46.554688 135.78125 46.429688 135.078125 46.054688 134.484375 C 45.679688 133.890625 45.09375 133.480469 44.40625 133.324219 C 42.992188 133.007812 41.582031 133.902344 41.265625 135.320312 C 40.945312 136.734375 41.839844 138.144531 43.257812 138.460938 Z M 43.839844 139.023438 C 43.609375 139.023438 43.378906 138.996094 43.148438 138.945312 C 41.46875 138.570312 40.40625 136.894531 40.78125 135.210938 C 41.15625 133.527344 42.835938 132.46875 44.515625 132.84375 C 45.332031 133.023438 46.027344 133.515625 46.472656 134.21875 C 46.921875 134.925781 47.066406 135.761719 46.882812 136.578125 C 46.703125 137.390625 46.214844 138.085938 45.507812 138.535156 C 45 138.855469 44.425781 139.023438 43.839844 139.023438 " fill-opacity="1" fill-rule="nonzero"></path>
  <path fill="#ffffff" d="M 54.3125 144.90625 L 54.4375 144.359375 C 54.675781 143.289062 54.003906 142.226562 52.933594 141.988281 L 43.601562 139.910156 L 42.613281 144.328125 L 51.941406 146.410156 C 53.011719 146.648438 54.074219 145.976562 54.3125 144.90625 " fill-opacity="1" fill-rule="nonzero"></path>
  <path fill="#ffffff" d="M 41.84375 144.789062 C 43.394531 145.132812 44.933594 144.15625 45.28125 142.605469 C 45.628906 141.054688 44.652344 139.515625 43.101562 139.167969 C 41.546875 138.820312 40.007812 139.796875 39.660156 141.347656 C 39.316406 142.902344 40.292969 144.441406 41.84375 144.789062 " fill-opacity="1" fill-rule="nonzero"></path>
  <path fill="#000000" d="M 41.898438 144.546875 C 43.3125 144.863281 44.722656 143.96875 45.039062 142.550781 C 45.355469 141.136719 44.460938 139.722656 43.046875 139.410156 C 42.359375 139.253906 41.65625 139.378906 41.0625 139.753906 C 40.46875 140.128906 40.054688 140.714844 39.902344 141.402344 C 39.75 142.089844 39.871094 142.792969 40.25 143.386719 C 40.625 143.980469 41.210938 144.390625 41.898438 144.546875 Z M 42.472656 145.105469 C 42.246094 145.105469 42.019531 145.078125 41.789062 145.027344 C 40.972656 144.847656 40.277344 144.355469 39.832031 143.652344 C 39.382812 142.945312 39.238281 142.109375 39.421875 141.292969 C 39.601562 140.480469 40.089844 139.785156 40.796875 139.335938 C 41.5 138.890625 42.339844 138.742188 43.152344 138.925781 C 44.835938 139.300781 45.898438 140.976562 45.523438 142.660156 C 45.199219 144.113281 43.902344 145.105469 42.472656 145.105469 " fill-opacity="1" fill-rule="nonzero"></path>
  <path fill="#ffffff" d="M 57 132.734375 L 57.121094 132.1875 C 57.359375 131.117188 56.6875 130.054688 55.617188 129.816406 L 46.289062 127.734375 L 45.300781 132.15625 L 54.628906 134.234375 C 55.699219 134.476562 56.761719 133.800781 57 132.734375 " fill-opacity="1" fill-rule="nonzero"></path>
  <path fill="#ffffff" d="M 44.527344 132.613281 C 46.082031 132.960938 47.621094 131.984375 47.96875 130.429688 C 48.3125 128.878906 47.335938 127.339844 45.785156 126.992188 C 44.234375 126.644531 42.695312 127.621094 42.347656 129.175781 C 42 130.726562 42.976562 132.265625 44.527344 132.613281 " fill-opacity="1" fill-rule="nonzero"></path>
  <path fill="#000000" d="M 45.152344 127.167969 C 44.660156 127.167969 44.175781 127.308594 43.746094 127.578125 C 43.152344 127.957031 42.742188 128.542969 42.589844 129.226562 C 42.4375 129.914062 42.558594 130.621094 42.933594 131.210938 C 43.3125 131.804688 43.898438 132.21875 44.582031 132.371094 C 45.269531 132.523438 45.972656 132.402344 46.566406 132.027344 C 47.160156 131.648438 47.574219 131.0625 47.726562 130.378906 C 47.878906 129.691406 47.757812 128.988281 47.378906 128.394531 C 47.003906 127.800781 46.417969 127.386719 45.730469 127.234375 C 45.539062 127.191406 45.34375 127.167969 45.152344 127.167969 Z M 45.164062 132.929688 C 44.933594 132.929688 44.703125 132.90625 44.476562 132.855469 C 43.660156 132.671875 42.964844 132.183594 42.515625 131.476562 C 42.070312 130.773438 41.921875 129.933594 42.105469 129.121094 C 42.289062 128.304688 42.777344 127.609375 43.484375 127.164062 C 44.1875 126.714844 45.023438 126.570312 45.839844 126.75 C 46.65625 126.933594 47.351562 127.421875 47.796875 128.128906 C 48.246094 128.832031 48.390625 129.671875 48.207031 130.484375 C 48.027344 131.300781 47.539062 131.996094 46.832031 132.441406 C 46.324219 132.765625 45.75 132.929688 45.164062 132.929688 " fill-opacity="1" fill-rule="nonzero"></path>
  <path fill="#ffffff" d="M 50.851562 150.953125 L 51.152344 149.59375 C 51.34375 148.75 50.8125 147.90625 49.964844 147.71875 L 42.242188 145.992188 L 41.253906 150.414062 L 48.976562 152.140625 C 49.820312 152.332031 50.660156 151.796875 50.851562 150.953125 " fill-opacity="1" fill-rule="nonzero"></path>
  <path fill="#ffffff" d="M 40.484375 150.871094 C 42.035156 151.21875 43.574219 150.238281 43.921875 148.6875 C 44.269531 147.136719 43.292969 145.597656 41.738281 145.25 C 40.1875 144.902344 38.648438 145.878906 38.300781 147.429688 C 37.953125 148.984375 38.929688 150.523438 40.484375 150.871094 " fill-opacity="1" fill-rule="nonzero"></path>
  <path fill="#000000" d="M 41.109375 145.429688 C 39.90625 145.429688 38.816406 146.261719 38.542969 147.484375 C 38.390625 148.171875 38.511719 148.875 38.886719 149.46875 C 39.265625 150.0625 39.851562 150.476562 40.535156 150.628906 C 41.949219 150.945312 43.363281 150.050781 43.679688 148.632812 C 43.996094 147.21875 43.101562 145.808594 41.683594 145.492188 C 41.492188 145.449219 41.300781 145.429688 41.109375 145.429688 Z M 41.117188 151.1875 C 40.886719 151.1875 40.65625 151.160156 40.429688 151.113281 C 39.613281 150.929688 38.917969 150.441406 38.472656 149.734375 C 38.023438 149.03125 37.878906 148.191406 38.058594 147.378906 C 38.4375 145.695312 40.109375 144.632812 41.792969 145.007812 C 43.476562 145.386719 44.539062 147.058594 44.164062 148.742188 C 43.980469 149.558594 43.492188 150.253906 42.785156 150.699219 C 42.277344 151.019531 41.703125 151.1875 41.117188 151.1875 " fill-opacity="1" fill-rule="nonzero"></path>
</svg>
