<svg xmlns="http://www.w3.org/2000/svg" xmlns:xlink="http://www.w3.org/1999/xlink" width="400" viewBox="0 0 300 299.999988" height="400" preserveAspectRatio="xMidYMid meet"><path fill="#ffffff" d="M 86.007812 12.226562 C 68.644531 18.234375 52.820312 27.390625 39.84375 40.246094 C 5.402344 74.34375 0 123.984375 8.394531 168.265625 C 10.0625 177.050781 10.816406 185.976562 12.5 194.757812 C 17.910156 222.996094 33.488281 249.757812 57.292969 267.511719 C 90.125 292 133.070312 299.984375 168.980469 277.023438 C 185.015625 266.773438 199.882812 254.675781 216.710938 245.6875 C 232.75 237.121094 249.753906 230.851562 262.777344 217.570312 C 302.253906 177.316406 300.527344 105.558594 271.902344 59.820312 C 264.070312 47.300781 253.867188 36.320312 241.824219 27.773438 C 223.105469 14.484375 198.859375 8.660156 176.230469 4.902344 C 146.671875 -0.0078125 114.269531 2.445312 86.007812 12.226562 " fill-opacity="1" fill-rule="nonzero"></path><path fill="#5479f7" d="M 278.433594 55.988281 C 274.445312 60.804688 267.15625 61.445312 262.160156 57.425781 C 257.167969 53.402344 256.355469 46.242188 260.347656 41.425781 C 264.339844 36.609375 271.625 35.96875 276.621094 39.992188 C 281.613281 44.011719 282.425781 51.175781 278.433594 55.988281 Z M 285.902344 57.820312 C 286.40625 56.921875 286.828125 55.988281 287.164062 55.03125 L 292.058594 54.792969 L 292.730469 50.449219 L 288.15625 48.597656 C 288.125 47.574219 288.011719 46.550781 287.808594 45.539062 L 291.878906 42.925781 L 290.242188 38.78125 L 285.390625 39.402344 C 284.847656 38.527344 284.226562 37.6875 283.527344 36.894531 L 285.675781 32.605469 L 282.164062 29.773438 L 278.328125 32.703125 C 277.398438 32.1875 276.4375 31.753906 275.457031 31.40625 L 275.109375 26.597656 L 270.660156 25.839844 L 268.875 30.292969 C 267.832031 30.300781 266.789062 30.390625 265.761719 30.566406 L 263.011719 26.515625 L 258.824219 28.035156 L 259.558594 32.808594 C 258.675781 33.320312 257.835938 33.914062 257.039062 34.582031 L 252.621094 32.382812 L 249.816406 35.765625 L 252.882812 39.59375 C 252.378906 40.496094 251.957031 41.429688 251.621094 42.382812 L 246.726562 42.621094 L 246.050781 46.964844 L 250.628906 48.820312 C 250.65625 49.84375 250.773438 50.867188 250.976562 51.878906 L 246.90625 54.492188 L 248.542969 58.632812 L 253.394531 58.011719 C 253.9375 58.890625 254.558594 59.730469 255.257812 60.523438 L 253.105469 64.8125 L 256.621094 67.640625 L 260.457031 64.710938 C 261.386719 65.226562 262.347656 65.664062 263.328125 66.011719 L 263.671875 70.816406 L 268.121094 71.574219 L 269.910156 67.125 C 270.953125 67.117188 271.996094 67.027344 273.019531 66.847656 L 275.773438 70.898438 L 279.960938 69.382812 L 279.222656 64.609375 C 280.101562 64.09375 280.945312 63.5 281.742188 62.835938 L 286.160156 65.035156 L 288.96875 61.648438 L 285.902344 57.820312 " fill-opacity="1" fill-rule="nonzero"></path><path fill="#5479f7" d="M 268.847656 37.199219 C 265.367188 37.199219 261.972656 38.792969 259.875 41.777344 C 258.246094 44.09375 257.632812 46.910156 258.144531 49.710938 C 258.671875 52.617188 260.335938 55.152344 262.828125 56.851562 C 267.882812 60.292969 274.789062 59.128906 278.210938 54.25 C 279.839844 51.933594 280.457031 49.117188 279.945312 46.316406 C 279.417969 43.410156 277.75 40.875 275.261719 39.179688 C 273.296875 37.839844 271.054688 37.199219 268.847656 37.199219 Z M 269.238281 59.871094 C 266.828125 59.871094 264.382812 59.171875 262.242188 57.710938 C 259.515625 55.855469 257.695312 53.082031 257.117188 49.898438 C 256.554688 46.820312 257.230469 43.726562 259.019531 41.179688 C 262.773438 35.835938 270.320312 34.550781 275.847656 38.316406 C 278.570312 40.171875 280.390625 42.945312 280.972656 46.128906 C 281.53125 49.207031 280.855469 52.300781 279.066406 54.847656 C 276.769531 58.121094 273.046875 59.871094 269.238281 59.871094 Z M 265.566406 70.027344 L 269.230469 70.351562 L 270.535156 66.175781 C 270.597656 65.972656 270.777344 65.828125 270.988281 65.808594 C 271.996094 65.722656 273.003906 65.550781 273.980469 65.300781 C 274.179688 65.25 274.390625 65.320312 274.515625 65.480469 L 277.332031 68.980469 L 280.625 67.476562 L 279.605469 63.195312 C 279.558594 62.988281 279.640625 62.769531 279.816406 62.648438 C 280.625 62.085938 281.398438 61.445312 282.117188 60.738281 C 282.265625 60.589844 282.488281 60.546875 282.679688 60.625 L 286.875 62.3125 L 288.921875 59.394531 L 285.847656 56.132812 C 285.703125 55.980469 285.664062 55.753906 285.753906 55.558594 C 286.175781 54.648438 286.511719 53.707031 286.757812 52.765625 C 286.8125 52.5625 286.984375 52.410156 287.199219 52.382812 L 291.632812 51.808594 L 291.894531 48.257812 L 287.582031 46.902344 C 287.386719 46.839844 287.242188 46.667969 287.21875 46.460938 C 287.113281 45.472656 286.917969 44.484375 286.648438 43.527344 C 286.585938 43.320312 286.664062 43.097656 286.832031 42.96875 L 290.339844 40.296875 L 288.742188 37.046875 L 284.355469 37.96875 C 284.15625 38.011719 283.949219 37.933594 283.828125 37.769531 C 283.238281 36.96875 282.566406 36.195312 281.828125 35.480469 C 281.675781 35.332031 281.625 35.105469 281.707031 34.910156 L 283.347656 30.851562 L 280.304688 28.78125 L 277.019531 31.734375 C 276.863281 31.875 276.644531 31.90625 276.457031 31.820312 C 275.511719 31.394531 274.542969 31.046875 273.574219 30.785156 C 273.375 30.730469 273.226562 30.566406 273.195312 30.359375 L 272.523438 26 L 268.855469 25.675781 L 267.554688 29.851562 C 267.492188 30.054688 267.3125 30.199219 267.101562 30.21875 C 266.089844 30.304688 265.085938 30.476562 264.105469 30.726562 C 263.90625 30.773438 263.699219 30.707031 263.570312 30.546875 L 260.757812 27.046875 L 257.460938 28.550781 L 258.480469 32.832031 C 258.53125 33.039062 258.449219 33.257812 258.269531 33.378906 C 257.464844 33.9375 256.691406 34.582031 255.96875 35.289062 C 255.820312 35.4375 255.601562 35.480469 255.40625 35.402344 L 251.210938 33.714844 L 249.167969 36.628906 L 252.238281 39.894531 C 252.382812 40.046875 252.421875 40.273438 252.332031 40.46875 C 251.914062 41.378906 251.574219 42.320312 251.328125 43.261719 C 251.273438 43.464844 251.101562 43.617188 250.894531 43.644531 L 246.453125 44.21875 L 246.191406 47.769531 L 250.507812 49.125 C 250.703125 49.1875 250.84375 49.363281 250.867188 49.566406 C 250.976562 50.554688 251.167969 51.542969 251.441406 52.5 C 251.5 52.707031 251.425781 52.929688 251.257812 53.058594 L 247.75 55.730469 L 249.34375 58.980469 L 253.730469 58.058594 C 253.933594 58.015625 254.140625 58.09375 254.261719 58.257812 C 254.851562 59.0625 255.523438 59.832031 256.261719 60.546875 C 256.414062 60.695312 256.460938 60.917969 256.378906 61.117188 L 254.738281 65.171875 L 257.78125 67.242188 L 261.066406 64.292969 C 261.222656 64.15625 261.445312 64.121094 261.632812 64.207031 C 262.574219 64.632812 263.542969 64.980469 264.515625 65.242188 C 264.714844 65.292969 264.863281 65.460938 264.894531 65.667969 Z M 269.605469 71.429688 C 269.589844 71.429688 269.574219 71.429688 269.558594 71.425781 L 265.066406 71.027344 C 264.824219 71.007812 264.632812 70.824219 264.59375 70.589844 L 263.914062 66.15625 C 263.109375 65.925781 262.304688 65.636719 261.515625 65.292969 L 258.175781 68.296875 C 257.996094 68.453125 257.730469 68.472656 257.535156 68.335938 L 253.804688 65.796875 C 253.601562 65.660156 253.523438 65.398438 253.617188 65.171875 L 255.285156 61.046875 C 254.683594 60.445312 254.128906 59.808594 253.625 59.144531 L 249.164062 60.082031 C 248.925781 60.132812 248.691406 60.015625 248.585938 59.804688 L 246.625 55.804688 C 246.515625 55.582031 246.578125 55.3125 246.777344 55.160156 L 250.34375 52.441406 C 250.132812 51.644531 249.976562 50.832031 249.871094 50.019531 L 245.484375 48.640625 C 245.253906 48.566406 245.101562 48.347656 245.121094 48.105469 L 245.445312 43.71875 C 245.464844 43.472656 245.652344 43.269531 245.898438 43.238281 L 250.414062 42.65625 C 250.632812 41.878906 250.910156 41.109375 251.242188 40.355469 L 248.117188 37.035156 C 247.945312 36.855469 247.929688 36.582031 248.066406 36.378906 L 250.597656 32.78125 C 250.734375 32.582031 250.992188 32.507812 251.21875 32.597656 L 255.484375 34.308594 C 256.085938 33.738281 256.722656 33.207031 257.382812 32.726562 L 256.351562 28.371094 C 256.292969 28.128906 256.414062 27.878906 256.640625 27.777344 L 260.695312 25.929688 C 260.910156 25.832031 261.167969 25.890625 261.316406 26.078125 L 264.175781 29.636719 C 264.992188 29.441406 265.824219 29.300781 266.660156 29.210938 L 267.988281 24.964844 C 268.058594 24.730469 268.28125 24.574219 268.53125 24.601562 L 273.023438 25 C 273.261719 25.019531 273.453125 25.203125 273.492188 25.4375 L 274.171875 29.871094 C 274.980469 30.101562 275.785156 30.390625 276.574219 30.730469 L 279.914062 27.734375 C 280.089844 27.574219 280.355469 27.554688 280.554688 27.691406 L 284.28125 30.230469 C 284.484375 30.367188 284.566406 30.628906 284.472656 30.855469 L 282.804688 34.976562 C 283.402344 35.585938 283.960938 36.222656 284.464844 36.882812 L 288.925781 35.945312 C 289.160156 35.894531 289.394531 36.007812 289.5 36.222656 L 291.464844 40.222656 C 291.574219 40.445312 291.511719 40.714844 291.3125 40.867188 L 287.746094 43.585938 C 287.953125 44.382812 288.113281 45.195312 288.21875 46.007812 L 292.605469 47.386719 C 292.835938 47.457031 292.984375 47.679688 292.96875 47.921875 L 292.640625 52.308594 C 292.625 52.554688 292.433594 52.753906 292.1875 52.785156 L 287.671875 53.371094 C 287.453125 54.148438 287.175781 54.917969 286.847656 55.671875 L 289.972656 58.992188 C 290.140625 59.171875 290.164062 59.445312 290.019531 59.648438 L 287.488281 63.246094 C 287.351562 63.445312 287.09375 63.523438 286.871094 63.429688 L 282.605469 61.71875 C 282 62.289062 281.363281 62.820312 280.703125 63.300781 L 281.738281 67.65625 C 281.796875 67.898438 281.671875 68.144531 281.449219 68.25 L 277.394531 70.097656 C 277.175781 70.199219 276.917969 70.136719 276.769531 69.949219 L 273.914062 66.390625 C 273.097656 66.585938 272.265625 66.726562 271.425781 66.816406 L 270.101562 71.0625 C 270.03125 71.285156 269.828125 71.429688 269.605469 71.429688 " fill-opacity="1" fill-rule="nonzero"></path><path fill="#5479f7" d="M 229.628906 46.714844 C 226.648438 55.617188 216.800781 60.460938 207.628906 57.539062 C 198.457031 54.613281 193.445312 45.027344 196.421875 36.125 C 199.402344 27.222656 209.253906 22.378906 218.421875 25.300781 C 227.59375 28.226562 232.609375 37.8125 229.628906 46.714844 Z M 241.070312 45.230469 C 241.289062 43.699219 241.375 42.164062 241.328125 40.648438 L 248.050781 37.664062 L 246.636719 31.214844 L 239.230469 31.101562 C 238.632812 29.679688 237.917969 28.3125 237.089844 27.007812 L 241.367188 21.140625 L 236.832031 16.234375 L 230.378906 19.730469 C 229.144531 18.792969 227.816406 17.957031 226.410156 17.222656 L 227.097656 10.058594 L 220.644531 8 L 216.859375 14.175781 C 215.28125 13.960938 213.703125 13.871094 212.144531 13.914062 L 209.050781 7.375 L 202.417969 8.722656 L 202.324219 15.921875 C 200.867188 16.5 199.460938 17.191406 198.117188 17.992188 L 192.070312 13.816406 L 187.03125 18.210938 L 190.652344 24.492188 C 189.695312 25.6875 188.835938 26.972656 188.082031 28.339844 L 180.707031 27.652344 L 178.613281 33.914062 L 184.980469 37.609375 C 184.761719 39.144531 184.675781 40.675781 184.722656 42.191406 L 178.003906 45.179688 L 179.414062 51.628906 L 186.824219 51.738281 C 187.417969 53.160156 188.132812 54.527344 188.964844 55.835938 L 184.683594 61.699219 L 189.21875 66.609375 L 195.675781 63.113281 C 196.90625 64.046875 198.234375 64.882812 199.640625 65.617188 L 198.957031 72.785156 L 205.40625 74.839844 L 209.191406 68.664062 C 210.769531 68.878906 212.347656 68.96875 213.910156 68.925781 L 217 75.464844 L 223.632812 74.117188 L 223.726562 66.917969 C 225.1875 66.339844 226.589844 65.648438 227.929688 64.847656 L 233.980469 69.023438 L 239.019531 64.632812 L 235.402344 58.351562 C 236.355469 57.152344 237.214844 55.867188 237.96875 54.503906 L 245.34375 55.191406 L 247.4375 48.925781 L 241.070312 45.230469 " fill-opacity="1" fill-rule="nonzero"></path><path fill="#5479f7" d="M 210.6875 26.085938 C 203.710938 26.085938 197.183594 30.304688 194.757812 37.046875 C 193.296875 41.113281 193.527344 45.507812 195.402344 49.421875 C 197.351562 53.484375 200.816406 56.542969 205.164062 58.035156 C 213.984375 61.066406 223.664062 56.574219 226.738281 48.019531 C 228.203125 43.953125 227.972656 39.5625 226.09375 35.644531 C 224.148438 31.585938 220.683594 28.527344 216.332031 27.035156 C 214.464844 26.390625 212.5625 26.085938 210.6875 26.085938 Z M 210.808594 60.023438 C 208.824219 60.023438 206.804688 59.703125 204.828125 59.023438 C 200.214844 57.4375 196.53125 54.1875 194.464844 49.875 C 192.464844 45.703125 192.21875 41.027344 193.777344 36.695312 C 197.046875 27.609375 207.316406 22.832031 216.675781 26.046875 C 221.285156 27.632812 224.964844 30.882812 227.035156 35.195312 C 229.035156 39.363281 229.28125 44.042969 227.722656 48.375 C 225.144531 55.539062 218.210938 60.023438 210.808594 60.023438 Z M 211.019531 69.53125 C 211.226562 69.53125 211.410156 69.652344 211.496094 69.839844 L 214.273438 76.074219 L 220.121094 75.019531 L 220.359375 68.242188 C 220.367188 68.035156 220.5 67.847656 220.699219 67.773438 C 222.140625 67.242188 223.542969 66.589844 224.871094 65.835938 C 225.050781 65.734375 225.269531 65.746094 225.4375 65.867188 L 231.058594 69.941406 L 235.554688 66.195312 L 232.285156 60.210938 C 232.183594 60.019531 232.203125 59.789062 232.34375 59.625 C 233.296875 58.480469 234.175781 57.230469 234.941406 55.90625 C 235.046875 55.730469 235.25 55.628906 235.453125 55.652344 L 242.402344 56.453125 L 244.351562 51.03125 L 238.433594 47.414062 C 238.25 47.304688 238.152344 47.09375 238.1875 46.886719 C 238.4375 45.386719 238.554688 43.875 238.539062 42.398438 C 238.535156 42.1875 238.664062 41.996094 238.859375 41.914062 L 245.253906 39.242188 L 244.148438 33.582031 L 237.15625 33.324219 C 236.949219 33.3125 236.769531 33.183594 236.691406 32.992188 C 236.136719 31.589844 235.460938 30.226562 234.679688 28.933594 C 234.570312 28.746094 234.582031 28.515625 234.714844 28.34375 L 238.859375 22.917969 L 234.988281 18.53125 L 228.816406 21.699219 C 228.636719 21.792969 228.417969 21.769531 228.257812 21.644531 C 227.074219 20.707031 225.785156 19.851562 224.417969 19.097656 C 224.234375 18.996094 224.125 18.789062 224.152344 18.582031 L 224.945312 11.851562 L 219.328125 9.917969 L 215.628906 15.667969 C 215.515625 15.839844 215.3125 15.929688 215.109375 15.898438 C 213.5625 15.652344 212.007812 15.527344 210.484375 15.539062 C 210.480469 15.539062 210.480469 15.539062 210.480469 15.539062 C 210.273438 15.539062 210.089844 15.417969 210.003906 15.230469 L 207.222656 8.992188 L 201.378906 10.046875 L 201.140625 16.824219 C 201.132812 17.035156 200.996094 17.222656 200.800781 17.296875 C 199.359375 17.828125 197.957031 18.480469 196.625 19.234375 C 196.449219 19.335938 196.230469 19.324219 196.0625 19.203125 L 190.4375 15.128906 L 185.941406 18.875 L 189.214844 24.859375 C 189.316406 25.050781 189.292969 25.28125 189.15625 25.445312 C 188.199219 26.589844 187.324219 27.839844 186.554688 29.160156 C 186.449219 29.339844 186.25 29.441406 186.046875 29.417969 L 179.097656 28.613281 L 177.148438 34.039062 L 183.066406 37.652344 C 183.25 37.765625 183.34375 37.972656 183.308594 38.183594 C 183.0625 39.6875 182.945312 41.195312 182.957031 42.671875 C 182.964844 42.882812 182.835938 43.078125 182.640625 43.160156 L 176.246094 45.828125 L 177.347656 51.484375 L 184.339844 51.75 C 184.546875 51.753906 184.730469 51.882812 184.804688 52.078125 C 185.359375 53.476562 186.035156 54.84375 186.816406 56.136719 C 186.929688 56.324219 186.917969 56.554688 186.785156 56.726562 L 182.636719 62.152344 L 186.511719 66.539062 L 192.679688 63.371094 C 192.859375 63.277344 193.082031 63.296875 193.242188 63.425781 C 194.421875 64.359375 195.714844 65.21875 197.082031 65.972656 C 197.265625 66.074219 197.371094 66.277344 197.347656 66.488281 L 196.550781 73.222656 L 202.171875 75.148438 L 205.867188 69.402344 C 205.980469 69.230469 206.183594 69.132812 206.390625 69.167969 C 207.9375 69.417969 209.5 69.539062 211.015625 69.53125 C 211.019531 69.53125 211.019531 69.53125 211.019531 69.53125 Z M 213.960938 77.183594 C 213.761719 77.183594 213.574219 77.0625 213.488281 76.875 L 210.679688 70.574219 C 209.320312 70.5625 207.941406 70.453125 206.5625 70.25 L 202.828125 76.058594 C 202.695312 76.261719 202.445312 76.347656 202.21875 76.269531 L 195.816406 74.070312 C 195.582031 73.988281 195.441406 73.757812 195.46875 73.515625 L 196.269531 66.710938 C 195.066406 66.03125 193.921875 65.273438 192.859375 64.449219 L 186.628906 67.648438 C 186.414062 67.761719 186.15625 67.710938 186 67.53125 L 181.570312 62.519531 C 181.40625 62.332031 181.394531 62.054688 181.546875 61.859375 L 185.742188 56.371094 C 185.066406 55.21875 184.46875 54.011719 183.964844 52.777344 L 176.898438 52.511719 C 176.65625 52.503906 176.453125 52.328125 176.40625 52.09375 L 175.140625 45.609375 C 175.09375 45.367188 175.222656 45.125 175.449219 45.03125 L 181.917969 42.328125 C 181.921875 41.023438 182.023438 39.691406 182.226562 38.363281 L 176.242188 34.707031 C 176.027344 34.578125 175.9375 34.320312 176.023438 34.085938 L 178.253906 27.871094 C 178.339844 27.644531 178.566406 27.503906 178.808594 27.53125 L 185.828125 28.34375 C 186.519531 27.183594 187.292969 26.078125 188.128906 25.050781 L 184.820312 19 C 184.703125 18.78125 184.753906 18.507812 184.945312 18.347656 L 190.082031 14.070312 C 190.265625 13.914062 190.527344 13.90625 190.722656 14.046875 L 196.402344 18.164062 C 197.59375 17.507812 198.835938 16.925781 200.109375 16.441406 L 200.351562 9.59375 C 200.359375 9.347656 200.539062 9.140625 200.777344 9.097656 L 207.441406 7.894531 C 207.675781 7.855469 207.914062 7.976562 208.007812 8.199219 L 210.820312 14.496094 C 212.175781 14.503906 213.558594 14.613281 214.9375 14.816406 L 218.671875 9.011719 C 218.800781 8.808594 219.054688 8.722656 219.28125 8.800781 L 225.683594 11 C 225.914062 11.078125 226.058594 11.308594 226.03125 11.554688 L 225.230469 18.355469 C 226.429688 19.039062 227.574219 19.796875 228.636719 20.621094 L 234.871094 17.417969 C 235.082031 17.308594 235.34375 17.359375 235.5 17.539062 L 239.925781 22.546875 C 240.09375 22.734375 240.101562 23.011719 239.953125 23.210938 L 235.757812 28.695312 C 236.433594 29.851562 237.027344 31.058594 237.535156 32.292969 L 244.601562 32.558594 C 244.84375 32.566406 245.046875 32.742188 245.09375 32.980469 L 246.359375 39.460938 C 246.40625 39.703125 246.277344 39.945312 246.046875 40.039062 L 239.582031 42.738281 C 239.578125 44.050781 239.472656 45.382812 239.273438 46.707031 L 245.257812 50.359375 C 245.472656 50.488281 245.5625 50.75 245.476562 50.984375 L 243.242188 57.195312 C 243.160156 57.425781 242.929688 57.566406 242.691406 57.539062 L 235.667969 56.726562 C 234.976562 57.886719 234.203125 58.992188 233.367188 60.019531 L 236.675781 66.066406 C 236.796875 66.289062 236.746094 66.558594 236.550781 66.71875 L 231.414062 71 C 231.234375 71.152344 230.972656 71.164062 230.777344 71.023438 L 225.09375 66.90625 C 223.90625 67.5625 222.664062 68.140625 221.390625 68.628906 L 221.148438 75.476562 C 221.140625 75.722656 220.960938 75.925781 220.722656 75.972656 L 214.058594 77.171875 C 214.027344 77.179688 213.996094 77.183594 213.960938 77.183594 " fill-opacity="1" fill-rule="nonzero"></path><path fill="#5479f7" d="M 225.417969 220.273438 C 219.714844 216.195312 213.804688 212.394531 207.800781 208.765625 C 195.617188 201.40625 182.984375 194.824219 170.265625 188.449219 C 163.570312 185.097656 156.703125 182.0625 149.898438 178.941406 C 143.054688 175.800781 136.199219 172.6875 129.339844 169.578125 C 123.074219 166.738281 116.808594 163.894531 110.550781 161.039062 C 89.707031 116.792969 66.695312 66.640625 69.519531 66.640625 L 283.03125 60.582031 C 288.082031 60.582031 292.191406 64.691406 292.191406 69.742188 L 292.191406 218.007812 C 292.191406 223.058594 288.082031 227.164062 283.03125 227.164062 L 235.28125 227.164062 C 232.050781 224.792969 228.679688 222.605469 225.417969 220.273438 " fill-opacity="1" fill-rule="nonzero"></path><path fill="#000000" d="M 69.546875 67.160156 L 69.53125 67.160156 C 69.53125 67.160156 69.542969 67.160156 69.546875 67.160156 Z M 235.449219 226.644531 L 283.03125 226.644531 C 287.792969 226.644531 291.667969 222.769531 291.667969 218.007812 L 291.667969 69.742188 C 291.667969 64.980469 287.792969 61.105469 283.03125 61.105469 L 69.789062 67.152344 C 69.714844 69.398438 75.320312 85.035156 110.941406 160.640625 C 117.359375 163.574219 123.835938 166.511719 129.554688 169.105469 C 136.515625 172.261719 143.324219 175.351562 150.117188 178.464844 C 151.65625 179.171875 153.195312 179.875 154.738281 180.574219 C 159.933594 182.941406 165.308594 185.386719 170.496094 187.984375 C 181.851562 193.675781 195.195312 200.542969 208.070312 208.320312 C 214.675781 212.3125 220.449219 216.085938 225.722656 219.851562 C 227.140625 220.863281 228.605469 221.871094 230.023438 222.84375 C 231.816406 224.070312 233.664062 225.339844 235.449219 226.644531 Z M 283.03125 227.6875 L 235.109375 227.6875 L 234.96875 227.585938 C 233.15625 226.253906 231.265625 224.960938 229.4375 223.703125 C 228.011719 222.730469 226.542969 221.71875 225.117188 220.699219 C 219.867188 216.949219 214.113281 213.191406 207.53125 209.214844 C 194.6875 201.453125 181.367188 194.597656 170.03125 188.917969 C 164.859375 186.324219 159.492188 183.886719 154.304688 181.523438 C 152.761719 180.824219 151.21875 180.121094 149.679688 179.414062 C 142.890625 176.296875 136.082031 173.210938 129.125 170.054688 C 123.355469 167.4375 116.8125 164.46875 110.332031 161.511719 L 110.160156 161.433594 L 110.078125 161.261719 C 66.902344 69.625 68.363281 67.320312 68.914062 66.453125 C 69.050781 66.242188 69.269531 66.117188 69.519531 66.117188 L 283.015625 60.0625 C 288.367188 60.0625 292.710938 64.40625 292.710938 69.742188 L 292.710938 218.007812 C 292.710938 223.34375 288.367188 227.6875 283.03125 227.6875 " fill-opacity="1" fill-rule="nonzero"></path><path fill="#ffffff" d="M 62.421875 61.101562 L 278.671875 61.101562 C 283.445312 61.101562 287.3125 64.972656 287.3125 69.742188 L 287.3125 218.007812 C 287.3125 222.777344 283.445312 226.648438 278.671875 226.648438 L 62.421875 226.648438 C 57.648438 226.648438 53.78125 222.777344 53.78125 218.007812 L 53.78125 69.742188 C 53.78125 64.972656 57.648438 61.101562 62.421875 61.101562 " fill-opacity="1" fill-rule="nonzero"></path><path fill="#000000" d="M 62.421875 61.621094 C 57.945312 61.621094 54.300781 65.265625 54.300781 69.742188 L 54.300781 218.007812 C 54.300781 222.484375 57.945312 226.128906 62.421875 226.128906 L 278.671875 226.128906 C 283.152344 226.128906 286.789062 222.484375 286.789062 218.007812 L 286.789062 69.742188 C 286.789062 65.265625 283.152344 61.621094 278.671875 61.621094 Z M 278.671875 227.171875 L 62.421875 227.171875 C 57.367188 227.171875 53.257812 223.058594 53.257812 218.007812 L 53.257812 69.742188 C 53.257812 64.691406 57.367188 60.578125 62.421875 60.578125 L 278.671875 60.578125 C 283.722656 60.578125 287.835938 64.691406 287.835938 69.742188 L 287.835938 218.007812 C 287.835938 223.058594 283.722656 227.171875 278.671875 227.171875 " fill-opacity="1" fill-rule="nonzero"></path><path fill="#5479f7" d="M 191.21875 227.308594 L 279.5 227.308594 C 283.058594 227.308594 285.953125 230.203125 285.953125 233.761719 C 285.953125 237.324219 283.058594 240.21875 279.5 240.21875 L 188.582031 240.21875 C 185.023438 240.21875 191.21875 227.308594 191.21875 227.308594 " fill-opacity="1" fill-rule="nonzero"></path><path fill="#000000" d="M 191.546875 227.828125 C 189.714844 231.714844 187.28125 238.070312 188.179688 239.5 C 188.246094 239.601562 188.335938 239.695312 188.582031 239.695312 L 279.5 239.695312 C 282.769531 239.695312 285.433594 237.035156 285.433594 233.761719 C 285.433594 230.492188 282.769531 227.828125 279.5 227.828125 Z M 279.5 240.738281 L 188.582031 240.738281 C 188.023438 240.738281 187.574219 240.503906 187.296875 240.058594 C 185.800781 237.675781 189.910156 228.832031 190.75 227.082031 L 190.890625 226.785156 L 279.5 226.785156 C 283.34375 226.785156 286.476562 229.917969 286.476562 233.761719 C 286.476562 237.609375 283.34375 240.738281 279.5 240.738281 " fill-opacity="1" fill-rule="nonzero"></path><path fill="#5479f7" d="M 12.421875 227.308594 L 220.816406 227.308594 C 224.378906 227.308594 227.269531 230.199219 227.269531 233.761719 C 227.269531 237.328125 224.378906 240.21875 220.816406 240.21875 L 12.421875 240.21875 C 8.859375 240.21875 5.96875 237.328125 5.96875 233.761719 C 5.96875 230.199219 8.859375 227.308594 12.421875 227.308594 " fill-opacity="1" fill-rule="nonzero"></path><path fill="#000000" d="M 12.421875 227.828125 C 9.152344 227.828125 6.488281 230.492188 6.488281 233.761719 C 6.488281 237.035156 9.152344 239.695312 12.421875 239.695312 L 220.816406 239.695312 C 224.085938 239.695312 226.75 237.035156 226.75 233.761719 C 226.75 230.492188 224.085938 227.828125 220.816406 227.828125 Z M 220.816406 240.738281 L 12.421875 240.738281 C 8.574219 240.738281 5.445312 237.609375 5.445312 233.761719 C 5.445312 229.917969 8.574219 226.785156 12.421875 226.785156 L 220.816406 226.785156 C 224.660156 226.785156 227.789062 229.917969 227.789062 233.761719 C 227.789062 237.609375 224.660156 240.738281 220.816406 240.738281 " fill-opacity="1" fill-rule="nonzero"></path><path fill="#ffffff" d="M 70.195312 67.359375 L 272.171875 67.359375 C 276.628906 67.359375 280.246094 70.984375 280.246094 75.457031 L 280.246094 214.378906 C 280.246094 218.851562 276.628906 222.476562 272.171875 222.476562 L 70.195312 222.476562 C 65.738281 222.476562 62.121094 218.851562 62.121094 214.378906 L 62.121094 75.457031 C 62.121094 70.984375 65.738281 67.359375 70.195312 67.359375 " fill-opacity="1" fill-rule="nonzero"></path><path fill="#5479f7" d="M 280.28125 80.398438 L 280.515625 75.382812 C 280.515625 70.949219 276.746094 67.421875 272.285156 67.421875 L 70.308594 67.421875 C 65.851562 67.421875 62.199219 70.949219 62.199219 75.382812 L 61.96875 81.558594 L 280.28125 80.398438 " fill-opacity="1" fill-rule="nonzero"></path><path fill="#ffffff" d="M 74.886719 75.589844 C 74.886719 77.03125 73.71875 78.199219 72.28125 78.199219 C 70.839844 78.199219 69.671875 77.03125 69.671875 75.589844 C 69.671875 74.152344 70.839844 72.984375 72.28125 72.984375 C 73.71875 72.984375 74.886719 74.152344 74.886719 75.589844 " fill-opacity="1" fill-rule="nonzero"></path><path fill="#ffffff" d="M 83.230469 75.417969 C 83.230469 76.855469 82.0625 78.023438 80.625 78.023438 C 79.183594 78.023438 78.015625 76.855469 78.015625 75.417969 C 78.015625 73.976562 79.183594 72.808594 80.625 72.808594 C 82.0625 72.808594 83.230469 73.976562 83.230469 75.417969 " fill-opacity="1" fill-rule="nonzero"></path><path fill="#ffffff" d="M 92.269531 75.765625 C 92.269531 77.207031 91.101562 78.375 89.660156 78.375 C 88.222656 78.375 87.054688 77.207031 87.054688 75.765625 C 87.054688 74.328125 88.222656 73.160156 89.660156 73.160156 C 91.101562 73.160156 92.269531 74.328125 92.269531 75.765625 " fill-opacity="1" fill-rule="nonzero"></path><path fill="#5479f7" d="M 269.734375 197.433594 L 73.570312 197.433594 C 72.589844 197.433594 71.800781 196.640625 71.800781 195.664062 L 71.800781 102.5625 C 71.800781 101.585938 72.589844 100.792969 73.570312 100.792969 L 269.734375 100.792969 C 270.710938 100.792969 271.503906 101.585938 271.503906 102.5625 L 271.503906 195.664062 C 271.503906 196.640625 270.710938 197.433594 269.734375 197.433594 " fill-opacity="1" fill-rule="nonzero"></path><path fill="#ffffff" d="M 110.171875 114.875 L 80.140625 114.875 L 80.140625 107.253906 L 110.171875 107.253906 L 110.171875 114.875 " fill-opacity="1" fill-rule="nonzero"></path><path fill="#ffffff" d="M 235.320312 115.214844 L 128.597656 115.214844 L 128.597656 107.59375 L 235.320312 107.59375 L 235.320312 115.214844 " fill-opacity="1" fill-rule="nonzero"></path><path fill="#ffffff" d="M 109.824219 152.8125 L 79.792969 152.8125 L 79.792969 145.191406 L 109.824219 145.191406 L 109.824219 152.8125 " fill-opacity="1" fill-rule="nonzero"></path><path fill="#ffffff" d="M 234.972656 153.15625 L 128.25 153.15625 L 128.25 145.53125 L 234.972656 145.53125 L 234.972656 153.15625 " fill-opacity="1" fill-rule="nonzero"></path><path fill="#ffffff" d="M 109.132812 190.078125 L 79.097656 190.078125 L 79.097656 182.453125 L 109.132812 182.453125 L 109.132812 190.078125 " fill-opacity="1" fill-rule="nonzero"></path><path fill="#ffffff" d="M 234.277344 190.414062 L 127.554688 190.414062 L 127.554688 182.792969 L 234.277344 182.792969 L 234.277344 190.414062 " fill-opacity="1" fill-rule="nonzero"></path><path fill="#ffffff" d="M 156.429688 128.082031 L 128.46875 128.082031 L 128.46875 120.460938 L 156.429688 120.460938 L 156.429688 128.082031 " fill-opacity="1" fill-rule="nonzero"></path><path fill="#ffffff" d="M 259.65625 128.421875 L 160.304688 128.421875 L 160.304688 120.800781 L 259.65625 120.800781 L 259.65625 128.421875 " fill-opacity="1" fill-rule="nonzero"></path><path fill="#ffffff" d="M 156.082031 140.617188 L 128.121094 140.617188 L 128.121094 132.996094 L 156.082031 132.996094 L 156.082031 140.617188 " fill-opacity="1" fill-rule="nonzero"></path><path fill="#ffffff" d="M 259.304688 140.957031 L 159.953125 140.957031 L 159.953125 133.335938 L 259.304688 133.335938 L 259.304688 140.957031 " fill-opacity="1" fill-rule="nonzero"></path><path fill="#ffffff" d="M 156.082031 165.6875 L 128.121094 165.6875 L 128.121094 158.066406 L 156.082031 158.066406 L 156.082031 165.6875 " fill-opacity="1" fill-rule="nonzero"></path><path fill="#ffffff" d="M 259.304688 166.027344 L 159.953125 166.027344 L 159.953125 158.402344 L 259.304688 158.402344 L 259.304688 166.027344 " fill-opacity="1" fill-rule="nonzero"></path><path fill="#ffffff" d="M 155.734375 178.21875 L 127.773438 178.21875 L 127.773438 170.597656 L 155.734375 170.597656 L 155.734375 178.21875 " fill-opacity="1" fill-rule="nonzero"></path><path fill="#ffffff" d="M 258.960938 178.558594 L 159.609375 178.558594 L 159.609375 170.9375 L 258.960938 170.9375 L 258.960938 178.558594 " fill-opacity="1" fill-rule="nonzero"></path><path fill="#5479f7" d="M 218.90625 94.003906 L 72.976562 94.003906 L 72.976562 86.382812 L 218.90625 86.382812 L 218.90625 94.003906 " fill-opacity="1" fill-rule="nonzero"></path><path fill="#5479f7" d="M 270.433594 93.65625 L 247.953125 93.65625 L 247.953125 86.035156 L 270.433594 86.035156 L 270.433594 93.65625 " fill-opacity="1" fill-rule="nonzero"></path><path fill="#5479f7" d="M 271.125 212.546875 L 71.238281 212.546875 L 71.238281 204.925781 L 271.125 204.925781 L 271.125 212.546875 " fill-opacity="1" fill-rule="nonzero"></path><path fill="#5479f7" d="M 182.136719 275.441406 L 270.304688 275.441406 C 272.566406 275.441406 274.394531 273.609375 274.394531 271.351562 L 274.394531 103.882812 C 274.394531 101.625 272.566406 99.792969 270.304688 99.792969 L 182.136719 99.792969 C 179.875 99.792969 178.042969 101.625 178.042969 103.882812 L 178.042969 271.351562 C 178.042969 273.609375 179.875 275.441406 182.136719 275.441406 " fill-opacity="1" fill-rule="nonzero"></path><path fill="#000000" d="M 187.082031 100.316406 C 182.386719 100.316406 178.566406 104.136719 178.566406 108.832031 L 178.566406 266.402344 C 178.566406 271.097656 182.386719 274.921875 187.082031 274.921875 L 265.355469 274.921875 C 270.050781 274.921875 273.875 271.097656 273.875 266.402344 L 273.875 108.832031 C 273.875 104.136719 270.050781 100.316406 265.355469 100.316406 Z M 265.355469 275.964844 L 187.082031 275.964844 C 181.8125 275.964844 177.523438 271.675781 177.523438 266.402344 L 177.523438 108.832031 C 177.523438 103.5625 181.8125 99.273438 187.082031 99.273438 L 265.355469 99.273438 C 270.628906 99.273438 274.917969 103.5625 274.917969 108.832031 L 274.917969 266.402344 C 274.917969 271.675781 270.628906 275.964844 265.355469 275.964844 " fill-opacity="1" fill-rule="nonzero"></path><path fill="#ffffff" d="M 269.617188 269.71875 L 269.617188 113.308594 C 269.617188 112.789062 269.195312 112.367188 268.671875 112.367188 L 183.765625 112.367188 C 183.246094 112.367188 182.820312 112.789062 182.820312 113.308594 L 182.820312 269.71875 C 182.820312 270.242188 183.246094 270.664062 183.765625 270.664062 L 268.671875 270.664062 C 269.195312 270.664062 269.617188 270.242188 269.617188 269.71875 " fill-opacity="1" fill-rule="nonzero"></path><path fill="#ffffff" d="M 226.21875 108.066406 C 227.5625 108.066406 228.65625 106.976562 228.65625 105.628906 C 228.65625 104.285156 227.5625 103.195312 226.21875 103.195312 C 224.875 103.195312 223.78125 104.285156 223.78125 105.628906 C 223.78125 106.976562 224.875 108.066406 226.21875 108.066406 " fill-opacity="1" fill-rule="nonzero"></path><path fill="#5479f7" d="M 182.503906 124.78125 L 182.503906 114.453125 C 182.503906 113.300781 183.582031 112.265625 184.734375 112.265625 L 267.355469 112.265625 C 268.507812 112.265625 269.414062 113.300781 269.414062 114.453125 L 269.414062 124.78125 L 182.503906 124.78125 " fill-opacity="1" fill-rule="nonzero"></path><path fill="#ffffff" d="M 261.335938 119.042969 C 261.335938 120.484375 262.503906 121.652344 263.945312 121.652344 C 265.382812 121.652344 266.550781 120.484375 266.550781 119.042969 C 266.550781 117.601562 265.382812 116.4375 263.945312 116.4375 C 262.503906 116.4375 261.335938 117.601562 261.335938 119.042969 " fill-opacity="1" fill-rule="nonzero"></path><path fill="#ffffff" d="M 252.996094 118.867188 C 252.996094 120.308594 254.164062 121.476562 255.601562 121.476562 C 257.039062 121.476562 258.207031 120.308594 258.207031 118.867188 C 258.207031 117.429688 257.039062 116.261719 255.601562 116.261719 C 254.164062 116.261719 252.996094 117.429688 252.996094 118.867188 " fill-opacity="1" fill-rule="nonzero"></path><path fill="#ffffff" d="M 243.957031 119.214844 C 243.957031 120.65625 245.121094 121.824219 246.5625 121.824219 C 248.003906 121.824219 249.171875 120.65625 249.171875 119.214844 C 249.171875 117.777344 248.003906 116.609375 246.5625 116.609375 C 245.121094 116.609375 243.957031 117.777344 243.957031 119.214844 " fill-opacity="1" fill-rule="nonzero"></path><path fill="#5479f7" d="M 186.511719 249.578125 L 264.894531 249.578125 C 265.328125 249.578125 265.679688 249.226562 265.679688 248.792969 L 265.679688 145.378906 C 265.679688 144.945312 265.328125 144.59375 264.894531 144.59375 L 186.511719 144.59375 C 186.078125 144.59375 185.726562 144.945312 185.726562 145.378906 L 185.726562 248.792969 C 185.726562 249.226562 186.078125 249.578125 186.511719 249.578125 " fill-opacity="1" fill-rule="nonzero"></path><path fill="#ffffff" d="M 250.210938 162.847656 L 262.605469 162.847656 L 262.605469 155.226562 L 250.210938 155.226562 L 250.210938 162.847656 " fill-opacity="1" fill-rule="nonzero"></path><path fill="#ffffff" d="M 198.550781 163.1875 L 242.605469 163.1875 L 242.605469 155.566406 L 198.550781 155.566406 L 198.550781 163.1875 " fill-opacity="1" fill-rule="nonzero"></path><path fill="#ffffff" d="M 250.351562 200.789062 L 262.746094 200.789062 L 262.746094 193.167969 L 250.351562 193.167969 L 250.351562 200.789062 " fill-opacity="1" fill-rule="nonzero"></path><path fill="#ffffff" d="M 198.695312 201.128906 L 242.746094 201.128906 L 242.746094 193.503906 L 198.695312 193.503906 L 198.695312 201.128906 " fill-opacity="1" fill-rule="nonzero"></path><path fill="#ffffff" d="M 250.640625 238.050781 L 263.035156 238.050781 L 263.035156 230.429688 L 250.640625 230.429688 L 250.640625 238.050781 " fill-opacity="1" fill-rule="nonzero"></path><path fill="#ffffff" d="M 198.980469 238.390625 L 243.03125 238.390625 L 243.03125 230.769531 L 198.980469 230.769531 L 198.980469 238.390625 " fill-opacity="1" fill-rule="nonzero"></path><path fill="#ffffff" d="M 231.113281 176.058594 L 242.65625 176.058594 L 242.65625 168.4375 L 231.113281 168.4375 L 231.113281 176.058594 " fill-opacity="1" fill-rule="nonzero"></path><path fill="#ffffff" d="M 188.507812 176.398438 L 229.515625 176.398438 L 229.515625 168.773438 L 188.507812 168.773438 L 188.507812 176.398438 " fill-opacity="1" fill-rule="nonzero"></path><path fill="#ffffff" d="M 231.257812 188.59375 L 242.796875 188.59375 L 242.796875 180.96875 L 231.257812 180.96875 L 231.257812 188.59375 " fill-opacity="1" fill-rule="nonzero"></path><path fill="#ffffff" d="M 188.652344 188.929688 L 229.660156 188.929688 L 229.660156 181.308594 L 188.652344 181.308594 L 188.652344 188.929688 " fill-opacity="1" fill-rule="nonzero"></path><path fill="#ffffff" d="M 231.257812 213.660156 L 242.796875 213.660156 L 242.796875 206.039062 L 231.257812 206.039062 L 231.257812 213.660156 " fill-opacity="1" fill-rule="nonzero"></path><path fill="#ffffff" d="M 188.652344 214 L 229.660156 214 L 229.660156 206.378906 L 188.652344 206.378906 L 188.652344 214 " fill-opacity="1" fill-rule="nonzero"></path><path fill="#ffffff" d="M 231.402344 226.191406 L 242.945312 226.191406 L 242.945312 218.570312 L 231.402344 218.570312 L 231.402344 226.191406 " fill-opacity="1" fill-rule="nonzero"></path><path fill="#ffffff" d="M 188.792969 226.535156 L 229.800781 226.535156 L 229.800781 218.914062 L 188.792969 218.914062 L 188.792969 226.535156 " fill-opacity="1" fill-rule="nonzero"></path><path fill="#ffffff" d="M 206.753906 139.890625 L 265.332031 139.890625 L 265.332031 132.269531 L 206.753906 132.269531 L 206.753906 139.890625 " fill-opacity="1" fill-rule="nonzero"></path><path fill="#ffffff" d="M 185.378906 139.542969 L 198.933594 139.542969 L 198.933594 131.921875 L 185.378906 131.921875 L 185.378906 139.542969 " fill-opacity="1" fill-rule="nonzero"></path><path fill="#5479f7" d="M 186.417969 263.652344 L 265.332031 263.652344 L 265.332031 256.03125 L 186.417969 256.03125 L 186.417969 263.652344 " fill-opacity="1" fill-rule="nonzero"></path><path fill="#000000" d="M 184.910156 112.886719 C 184.046875 112.886719 183.34375 113.589844 183.34375 114.453125 L 183.34375 268.578125 C 183.34375 269.441406 184.046875 270.144531 184.910156 270.144531 L 267.53125 270.144531 C 268.394531 270.144531 269.097656 269.441406 269.097656 268.578125 L 269.097656 114.453125 C 269.097656 113.589844 268.394531 112.886719 267.53125 112.886719 Z M 267.53125 271.1875 L 184.910156 271.1875 C 183.46875 271.1875 182.300781 270.015625 182.300781 268.578125 L 182.300781 114.453125 C 182.300781 113.015625 183.46875 111.84375 184.910156 111.84375 L 267.53125 111.84375 C 268.96875 111.84375 270.140625 113.015625 270.140625 114.453125 L 270.140625 268.578125 C 270.140625 270.015625 268.96875 271.1875 267.53125 271.1875 " fill-opacity="1" fill-rule="nonzero"></path><path fill="#000000" d="M 120.59375 276.960938 C 120.320312 276.960938 120.09375 276.75 120.074219 276.476562 C 120.054688 276.1875 120.273438 275.9375 120.558594 275.917969 C 136.324219 274.882812 151.300781 271.472656 165.078125 265.777344 C 165.34375 265.667969 165.648438 265.796875 165.757812 266.0625 C 165.867188 266.328125 165.742188 266.632812 165.476562 266.742188 C 151.59375 272.476562 136.503906 275.917969 120.628906 276.960938 C 120.617188 276.960938 120.605469 276.960938 120.59375 276.960938 " fill-opacity="1" fill-rule="nonzero"></path><path fill="#000000" d="M 120.175781 285.175781 C 119.664062 285.175781 119.152344 285.171875 118.640625 285.160156 C 118.351562 285.152344 118.125 284.914062 118.128906 284.628906 C 118.136719 284.339844 118.382812 284.101562 118.664062 284.117188 C 132.488281 284.402344 146.464844 280.675781 155.742188 277.496094 C 156.015625 277.398438 156.3125 277.546875 156.40625 277.816406 C 156.5 278.09375 156.355469 278.386719 156.082031 278.480469 C 147.066406 281.570312 133.65625 285.175781 120.175781 285.175781 " fill-opacity="1" fill-rule="nonzero"></path><path fill="#000000" d="M 115.15625 284.621094 C 115.152344 284.621094 115.144531 284.621094 115.136719 284.621094 L 110.519531 284.449219 C 110.234375 284.4375 110.011719 284.195312 110.019531 283.90625 C 110.03125 283.621094 110.277344 283.394531 110.5625 283.40625 L 115.175781 283.578125 C 115.464844 283.589844 115.6875 283.832031 115.675781 284.121094 C 115.667969 284.402344 115.4375 284.621094 115.15625 284.621094 " fill-opacity="1" fill-rule="nonzero"></path><path fill="#000000" d="M 99.289062 281.722656 C 99.664062 283.128906 101.113281 283.964844 102.519531 283.59375 C 103.199219 283.410156 103.769531 282.976562 104.125 282.363281 C 104.476562 281.753906 104.574219 281.042969 104.390625 280.359375 C 104.015625 278.953125 102.566406 278.113281 101.160156 278.488281 C 100.476562 278.671875 99.90625 279.105469 99.554688 279.71875 C 99.199219 280.328125 99.105469 281.039062 99.289062 281.722656 Z M 101.839844 284.722656 C 100.210938 284.722656 98.71875 283.636719 98.28125 281.988281 C 97.757812 280.027344 98.929688 278.003906 100.890625 277.480469 C 102.855469 276.957031 104.875 278.128906 105.398438 280.09375 C 105.652344 281.042969 105.519531 282.035156 105.027344 282.886719 C 104.535156 283.738281 103.738281 284.347656 102.789062 284.597656 C 102.472656 284.683594 102.152344 284.722656 101.839844 284.722656 " fill-opacity="1" fill-rule="nonzero"></path><path fill="#000000" d="M 178.644531 11.355469 C 178.410156 11.355469 178.195312 11.195312 178.140625 10.957031 C 178.070312 10.679688 178.238281 10.394531 178.519531 10.328125 L 180.058594 9.945312 C 180.335938 9.878906 180.625 10.050781 180.691406 10.328125 C 180.761719 10.605469 180.589844 10.890625 180.3125 10.957031 L 178.769531 11.339844 C 178.726562 11.351562 178.683594 11.355469 178.644531 11.355469 " fill-opacity="1" fill-rule="nonzero"></path><path fill="#000000" d="M 171.265625 13.175781 C 171.03125 13.175781 170.816406 13.015625 170.757812 12.78125 C 170.691406 12.5 170.859375 12.21875 171.140625 12.148438 L 172.679688 11.769531 C 172.960938 11.699219 173.242188 11.871094 173.3125 12.148438 C 173.382812 12.429688 173.210938 12.710938 172.929688 12.78125 L 171.390625 13.160156 C 171.347656 13.171875 171.304688 13.175781 171.265625 13.175781 " fill-opacity="1" fill-rule="nonzero"></path><path fill="#000000" d="M 176.851562 16.546875 C 176.617188 16.546875 176.40625 16.390625 176.34375 16.152344 L 175.957031 14.609375 C 175.886719 14.328125 176.054688 14.046875 176.335938 13.972656 C 176.613281 13.90625 176.898438 14.074219 176.96875 14.355469 L 177.355469 15.898438 C 177.425781 16.175781 177.257812 16.460938 176.980469 16.53125 C 176.933594 16.542969 176.894531 16.546875 176.851562 16.546875 " fill-opacity="1" fill-rule="nonzero"></path><path fill="#000000" d="M 174.988281 9.148438 C 174.753906 9.148438 174.542969 8.992188 174.480469 8.753906 L 174.089844 7.210938 C 174.019531 6.929688 174.191406 6.644531 174.472656 6.578125 C 174.753906 6.507812 175.03125 6.675781 175.101562 6.957031 L 175.492188 8.5 C 175.5625 8.78125 175.394531 9.0625 175.117188 9.132812 C 175.070312 9.144531 175.027344 9.148438 174.988281 9.148438 " fill-opacity="1" fill-rule="nonzero"></path><path fill="#000000" d="M 14.203125 114.550781 C 14.105469 114.550781 14.011719 114.523438 13.925781 114.472656 C 13.679688 114.320312 13.605469 113.996094 13.757812 113.753906 L 14.597656 112.40625 C 14.75 112.160156 15.074219 112.089844 15.316406 112.238281 C 15.5625 112.390625 15.636719 112.714844 15.484375 112.957031 L 14.644531 114.304688 C 14.546875 114.464844 14.375 114.550781 14.203125 114.550781 " fill-opacity="1" fill-rule="nonzero"></path><path fill="#000000" d="M 10.179688 121 C 10.082031 121 9.988281 120.972656 9.902344 120.917969 C 9.65625 120.765625 9.582031 120.445312 9.734375 120.203125 L 10.574219 118.855469 C 10.726562 118.609375 11.050781 118.535156 11.292969 118.6875 C 11.539062 118.839844 11.613281 119.160156 11.460938 119.40625 L 10.621094 120.753906 C 10.523438 120.910156 10.351562 121 10.179688 121 " fill-opacity="1" fill-rule="nonzero"></path><path fill="#000000" d="M 16.535156 119.523438 C 16.441406 119.523438 16.34375 119.5 16.261719 119.445312 L 14.90625 118.609375 C 14.660156 118.457031 14.582031 118.136719 14.734375 117.890625 C 14.886719 117.648438 15.207031 117.570312 15.453125 117.722656 L 16.808594 118.558594 C 17.054688 118.710938 17.128906 119.03125 16.976562 119.277344 C 16.878906 119.4375 16.707031 119.523438 16.535156 119.523438 " fill-opacity="1" fill-rule="nonzero"></path><path fill="#000000" d="M 10.042969 115.515625 C 9.949219 115.515625 9.851562 115.492188 9.769531 115.4375 L 8.414062 114.601562 C 8.167969 114.449219 8.089844 114.128906 8.242188 113.882812 C 8.394531 113.636719 8.714844 113.5625 8.960938 113.710938 L 10.316406 114.550781 C 10.5625 114.703125 10.636719 115.023438 10.484375 115.269531 C 10.386719 115.425781 10.214844 115.515625 10.042969 115.515625 " fill-opacity="1" fill-rule="nonzero"></path><path fill="#000000" d="M 22.460938 98.277344 C 22.410156 98.277344 22.359375 98.273438 22.308594 98.257812 C 22.035156 98.171875 21.878906 97.882812 21.960938 97.605469 C 29.054688 74.171875 42.242188 58.453125 52.058594 49.394531 C 62.699219 39.578125 71.800781 35.238281 71.890625 35.195312 C 72.148438 35.070312 72.460938 35.183594 72.582031 35.445312 C 72.707031 35.703125 72.59375 36.015625 72.335938 36.136719 C 72.246094 36.179688 63.261719 40.46875 52.734375 50.191406 C 43.027344 59.15625 29.980469 74.714844 22.960938 97.910156 C 22.890625 98.132812 22.683594 98.277344 22.460938 98.277344 " fill-opacity="1" fill-rule="nonzero"></path><path fill="#000000" d="M 38.96875 50.996094 C 38.867188 50.996094 38.765625 50.964844 38.675781 50.90625 C 38.4375 50.746094 38.375 50.421875 38.535156 50.183594 C 38.574219 50.121094 42.664062 44.085938 50.128906 37.359375 C 57.023438 31.148438 68.300781 23.046875 82.871094 19.726562 C 83.15625 19.664062 83.433594 19.839844 83.496094 20.121094 C 83.5625 20.402344 83.386719 20.679688 83.105469 20.742188 C 55.640625 27 39.558594 50.527344 39.398438 50.761719 C 39.300781 50.914062 39.136719 50.996094 38.96875 50.996094 " fill-opacity="1" fill-rule="nonzero"></path><path fill="#000000" d="M 141.804688 48.269531 C 141.578125 48.269531 141.375 48.125 141.304688 47.902344 L 128.945312 7.746094 C 128.859375 7.472656 129.015625 7.179688 129.292969 7.09375 C 129.566406 7.011719 129.859375 7.164062 129.941406 7.441406 L 142.300781 47.59375 C 142.386719 47.871094 142.234375 48.164062 141.957031 48.246094 C 141.90625 48.261719 141.855469 48.269531 141.804688 48.269531 " fill-opacity="1" fill-rule="nonzero"></path><path fill="#000000" d="M 135.34375 52.453125 C 135.171875 52.453125 135 52.367188 134.902344 52.210938 L 124.648438 36.132812 C 124.496094 35.890625 124.566406 35.566406 124.808594 35.410156 C 125.050781 35.257812 125.371094 35.328125 125.527344 35.570312 L 135.78125 51.648438 C 135.9375 51.894531 135.867188 52.214844 135.621094 52.371094 C 135.535156 52.425781 135.4375 52.453125 135.34375 52.453125 " fill-opacity="1" fill-rule="nonzero"></path><path fill="#5479f7" d="M 44.820312 250.757812 C 44.820312 250.757812 39.113281 255.339844 38.472656 259.144531 L 38.023438 260.5625 L 31.167969 250.191406 L 32.542969 250.003906 C 34.855469 249.152344 37.144531 248.882812 38.820312 247.074219 L 44.820312 250.757812 " fill-opacity="1" fill-rule="nonzero"></path><path fill="#ffffff" d="M 40.476562 257.671875 L 39.894531 259.394531 C 38.738281 262.800781 38.425781 266.4375 38.988281 269.992188 L 39.421875 272.726562 C 39.464844 272.984375 39.371094 273.246094 39.179688 273.425781 L 39.082031 273.519531 C 38 274.539062 34.308594 274.71875 30.726562 270.683594 C 28.507812 268.1875 24.355469 261.769531 22.878906 252.015625 C 22.785156 251.402344 23.101562 250.796875 23.664062 250.527344 C 25.707031 249.539062 30.691406 247.367188 34.027344 247.828125 C 34.398438 247.878906 34.652344 248.234375 34.5625 248.59375 L 33.707031 252.097656 C 33.324219 253.671875 34.289062 255.257812 35.863281 255.632812 L 39.882812 256.597656 C 40.359375 256.710938 40.632812 257.210938 40.476562 257.671875 " fill-opacity="1" fill-rule="nonzero"></path><path fill="#000000" d="M 33.035156 248.285156 C 29.875 248.285156 25.667969 250.136719 23.890625 250.996094 C 23.53125 251.164062 23.335938 251.546875 23.394531 251.9375 C 25.082031 263.078125 30.121094 269.21875 31.117188 270.339844 C 33.542969 273.070312 35.757812 273.558594 36.863281 273.609375 C 37.824219 273.65625 38.453125 273.394531 38.726562 273.136719 L 38.824219 273.046875 C 38.890625 272.984375 38.921875 272.894531 38.90625 272.804688 L 38.476562 270.074219 C 37.902344 266.453125 38.21875 262.699219 39.398438 259.226562 L 39.984375 257.503906 C 40.019531 257.390625 39.984375 257.300781 39.960938 257.253906 C 39.9375 257.210938 39.878906 257.132812 39.761719 257.105469 L 35.742188 256.140625 C 34.84375 255.925781 34.085938 255.375 33.605469 254.585938 C 33.125 253.800781 32.980469 252.871094 33.199219 251.976562 L 34.054688 248.472656 C 34.0625 248.445312 34.058594 248.417969 34.042969 248.394531 C 34.03125 248.378906 34.003906 248.351562 33.957031 248.34375 C 33.664062 248.304688 33.355469 248.285156 33.035156 248.285156 Z M 37.070312 274.65625 C 36.984375 274.65625 36.902344 274.65625 36.816406 274.652344 C 35.546875 274.59375 33.015625 274.046875 30.335938 271.03125 C 29.308594 269.875 24.09375 263.527344 22.363281 252.09375 C 22.234375 251.246094 22.664062 250.425781 23.4375 250.054688 C 25.480469 249.070312 30.609375 246.828125 34.101562 247.3125 C 34.425781 247.355469 34.71875 247.535156 34.902344 247.808594 C 35.085938 248.074219 35.144531 248.40625 35.070312 248.71875 L 34.210938 252.222656 C 34.058594 252.847656 34.160156 253.496094 34.496094 254.042969 C 34.832031 254.59375 35.359375 254.976562 35.984375 255.125 L 40.003906 256.089844 C 40.375 256.175781 40.691406 256.417969 40.875 256.753906 C 41.058594 257.082031 41.09375 257.480469 40.96875 257.839844 L 40.386719 259.558594 C 39.261719 262.875 38.957031 266.453125 39.503906 269.914062 L 39.9375 272.644531 C 40.003906 273.074219 39.855469 273.507812 39.539062 273.808594 L 39.441406 273.898438 C 38.921875 274.386719 38.066406 274.65625 37.070312 274.65625 " fill-opacity="1" fill-rule="nonzero"></path><path fill="#000000" d="M 39.199219 272.238281 C 39.089844 272.238281 38.976562 272.203125 38.882812 272.128906 L 38.390625 271.746094 C 35.691406 269.660156 33.9375 266.515625 33.585938 263.121094 L 33.472656 262.019531 C 33.460938 261.933594 33.40625 261.898438 33.359375 261.886719 C 33.316406 261.871094 33.25 261.867188 33.191406 261.933594 L 32.476562 262.75 C 32.199219 263.066406 31.78125 263.230469 31.363281 263.195312 C 30.945312 263.152344 30.566406 262.914062 30.355469 262.546875 C 28.363281 259.136719 27.125 255.417969 26.675781 251.496094 L 26.421875 249.3125 C 26.390625 249.023438 26.597656 248.765625 26.882812 248.734375 C 27.164062 248.703125 27.429688 248.90625 27.460938 249.191406 L 27.710938 251.378906 C 28.144531 255.15625 29.335938 258.738281 31.253906 262.023438 C 31.316406 262.125 31.410156 262.148438 31.464844 262.15625 C 31.515625 262.160156 31.613281 262.152344 31.691406 262.0625 L 32.40625 261.246094 C 32.726562 260.878906 33.214844 260.742188 33.675781 260.890625 C 34.140625 261.039062 34.457031 261.429688 34.507812 261.910156 L 34.621094 263.011719 C 34.945312 266.125 36.550781 269.007812 39.027344 270.921875 L 39.519531 271.304688 C 39.746094 271.480469 39.789062 271.808594 39.613281 272.035156 C 39.511719 272.167969 39.355469 272.238281 39.199219 272.238281 " fill-opacity="1" fill-rule="nonzero"></path><path fill="#5479f7" d="M 77.066406 271.785156 C 77.066406 271.785156 75.328125 277.292969 77.066406 280.476562 L 77.539062 281.78125 L 66.75 278.78125 L 67.539062 277.703125 C 68.949219 275.785156 70.429688 272.523438 70.742188 270.246094 L 77.066406 271.785156 " fill-opacity="1" fill-rule="nonzero"></path><path fill="#ffffff" d="M 77.535156 276.769531 L 78.382812 278.140625 C 80.058594 280.859375 82.367188 283.128906 85.117188 284.753906 L 87.226562 286 C 87.429688 286.117188 87.558594 286.328125 87.574219 286.5625 L 87.578125 286.679688 C 87.664062 288 85.699219 290.621094 80.917969 290.792969 C 78.039062 290.894531 71.589844 290.144531 64.339844 285.964844 C 63.480469 285.472656 63.074219 284.453125 63.332031 283.496094 C 63.929688 281.28125 65.207031 277.386719 67.183594 275.59375 C 67.425781 275.371094 67.792969 275.417969 67.988281 275.679688 C 68.417969 276.257812 69.191406 277.300781 69.898438 278.246094 C 70.757812 279.398438 72.386719 279.632812 73.535156 278.769531 L 76.464844 276.566406 C 76.8125 276.304688 77.308594 276.402344 77.535156 276.769531 " fill-opacity="1" fill-rule="nonzero"></path><path fill="#000000" d="M 67.183594 275.59375 L 67.53125 275.980469 C 65.652344 277.6875 64.410156 281.507812 63.835938 283.632812 C 63.636719 284.367188 63.953125 285.140625 64.601562 285.515625 C 72.890625 290.296875 79.628906 290.3125 80.898438 290.269531 C 84.117188 290.15625 85.691406 288.933594 86.34375 288.210938 C 86.902344 287.59375 87.078125 287.035156 87.058594 286.714844 L 87.050781 286.597656 C 87.046875 286.535156 87.015625 286.480469 86.960938 286.449219 L 84.851562 285.199219 C 82.042969 283.539062 79.652344 281.191406 77.9375 278.414062 L 77.09375 277.042969 C 77.046875 276.972656 76.984375 276.953125 76.949219 276.945312 C 76.914062 276.9375 76.84375 276.933594 76.777344 276.984375 L 73.847656 279.1875 C 73.179688 279.6875 72.359375 279.898438 71.535156 279.78125 C 70.707031 279.664062 69.980469 279.226562 69.480469 278.558594 L 67.570312 275.992188 Z M 80.472656 291.320312 C 78.40625 291.320312 71.886719 290.917969 64.078125 286.417969 C 63.023438 285.808594 62.507812 284.550781 62.828125 283.359375 C 63.433594 281.125 64.753906 277.09375 66.832031 275.207031 C 67.054688 275.003906 67.351562 274.90625 67.644531 274.933594 C 67.945312 274.964844 68.222656 275.121094 68.40625 275.367188 L 70.316406 277.9375 C 70.648438 278.378906 71.132812 278.667969 71.679688 278.746094 C 72.230469 278.828125 72.777344 278.6875 73.222656 278.355469 L 76.152344 276.152344 C 76.433594 275.9375 76.796875 275.855469 77.140625 275.921875 C 77.488281 275.984375 77.792969 276.195312 77.980469 276.496094 L 78.824219 277.867188 C 80.449219 280.503906 82.71875 282.726562 85.382812 284.300781 L 87.492188 285.550781 C 87.84375 285.757812 88.066406 286.125 88.09375 286.53125 L 88.101562 286.648438 C 88.144531 287.347656 87.785156 288.171875 87.117188 288.910156 C 86.351562 289.753906 84.535156 291.183594 80.9375 291.3125 C 80.824219 291.316406 80.667969 291.320312 80.472656 291.320312 " fill-opacity="1" fill-rule="nonzero"></path><path fill="#000000" d="M 75.335938 286.519531 C 75.269531 286.519531 75.203125 286.515625 75.136719 286.503906 C 71.671875 285.933594 68.421875 284.675781 65.480469 282.761719 L 63.84375 281.699219 C 63.601562 281.539062 63.535156 281.21875 63.691406 280.976562 C 63.847656 280.734375 64.171875 280.667969 64.414062 280.824219 L 66.050781 281.886719 C 68.871094 283.722656 71.984375 284.929688 75.304688 285.472656 C 75.386719 285.488281 75.4375 285.449219 75.460938 285.425781 C 75.488281 285.398438 75.527344 285.34375 75.511719 285.265625 L 75.359375 284.316406 C 75.285156 283.863281 75.476562 283.433594 75.859375 283.1875 C 76.242188 282.941406 76.714844 282.945312 77.09375 283.199219 L 77.910156 283.742188 C 80.207031 285.269531 83.070312 285.800781 85.761719 285.195312 L 86.300781 285.074219 C 86.582031 285.007812 86.859375 285.1875 86.921875 285.464844 C 86.984375 285.746094 86.808594 286.027344 86.527344 286.089844 L 85.988281 286.210938 C 83.019531 286.882812 79.863281 286.296875 77.332031 284.609375 L 76.515625 284.066406 C 76.503906 284.058594 76.46875 284.035156 76.425781 284.066406 C 76.378906 284.09375 76.386719 284.132812 76.386719 284.148438 L 76.542969 285.097656 C 76.605469 285.488281 76.476562 285.882812 76.199219 286.160156 C 75.96875 286.390625 75.65625 286.519531 75.335938 286.519531 " fill-opacity="1" fill-rule="nonzero"></path><path fill="#000000" d="M 77.832031 175.542969 C 77.832031 175.542969 70.191406 189.144531 75.410156 201.160156 C 82.445312 217.347656 69.527344 248.234375 69.796875 270.992188 C 69.800781 271.425781 70.113281 271.796875 70.539062 271.886719 L 76.691406 273.183594 C 77.101562 273.265625 77.515625 273.074219 77.710938 272.703125 C 80.351562 267.628906 98.496094 232.394531 100.113281 220.160156 C 101.449219 210.046875 101.765625 199.753906 99.429688 189.820312 L 95.785156 174.320312 L 77.832031 175.542969 " fill-opacity="1" fill-rule="nonzero"></path><path fill="#000000" d="M 72.636719 175.890625 C 72.636719 175.890625 64.539062 184.722656 64.242188 196.101562 C 63.945312 207.480469 58.019531 215.476562 54.371094 219.023438 C 50.765625 222.523438 43.433594 231.8125 37.839844 246.957031 C 37.703125 247.324219 37.746094 247.738281 37.953125 248.070312 C 38.601562 249.109375 40.308594 251.316406 43.484375 252.273438 C 43.855469 252.382812 44.253906 252.320312 44.574219 252.101562 C 47.835938 249.867188 66.699219 236.671875 75.292969 224.550781 C 84.714844 211.253906 91.996094 187.03125 91.996094 187.03125 C 91.996094 187.03125 77.472656 184.9375 72.636719 175.890625 " fill-opacity="1" fill-rule="nonzero"></path><path fill="#ffffff" d="M 75.972656 225.792969 C 75.949219 225.792969 75.921875 225.792969 75.898438 225.789062 C 75.613281 225.746094 75.414062 225.480469 75.457031 225.195312 L 75.601562 224.21875 C 76.894531 215.457031 77.914062 208.539062 75.4375 202.835938 C 73.867188 199.226562 73.285156 195.128906 73.699219 190.660156 C 73.722656 190.371094 73.972656 190.15625 74.265625 190.1875 C 74.550781 190.214844 74.761719 190.46875 74.734375 190.753906 C 74.339844 195.050781 74.894531 198.972656 76.394531 202.417969 C 78.988281 208.394531 77.949219 215.445312 76.632812 224.371094 L 76.488281 225.347656 C 76.449219 225.605469 76.226562 225.792969 75.972656 225.792969 " fill-opacity="1" fill-rule="nonzero"></path><path fill="#ffffff" d="M 99.027344 199.59375 C 99.011719 199.59375 98.996094 199.589844 98.980469 199.589844 C 92.839844 199.050781 91.96875 192.558594 91.960938 192.496094 C 91.925781 192.207031 92.128906 191.945312 92.414062 191.914062 C 92.703125 191.875 92.960938 192.082031 92.996094 192.363281 C 93.027344 192.601562 93.777344 198.085938 99.074219 198.550781 C 99.359375 198.574219 99.570312 198.828125 99.546875 199.113281 C 99.523438 199.386719 99.296875 199.59375 99.027344 199.59375 " fill-opacity="1" fill-rule="nonzero"></path><path fill="#000000" d="M 77.480469 104.117188 C 79.019531 103.179688 80.933594 101.957031 85.085938 102.046875 C 88.828125 102.125 92.746094 105.835938 92.179688 110.414062 C 91.714844 114.152344 87.742188 115.097656 85.835938 117.015625 C 79.664062 123.214844 84.949219 130.519531 80.058594 136.765625 C 75.398438 142.714844 68.976562 138.160156 59.773438 144.804688 C 52.527344 150.035156 57.285156 152.4375 48.121094 157.886719 C 40.8125 162.230469 27.539062 161.203125 20.4375 152.226562 C 13.6875 143.695312 12.636719 131.320312 20.238281 125.742188 C 27.074219 120.722656 31.421875 127.167969 38.675781 122.5 C 45.832031 117.898438 41.511719 111.582031 50.808594 108.304688 C 57.941406 105.789062 65.730469 110.738281 68.085938 110.652344 C 72.949219 110.472656 73.476562 106.558594 77.480469 104.117188 " fill-opacity="1" fill-rule="nonzero"></path><path fill="#ffffff" d="M 167.253906 94.722656 C 167.730469 109.507812 156.136719 121.886719 141.351562 122.367188 C 126.5625 122.847656 114.1875 111.25 113.707031 96.460938 C 113.226562 81.675781 124.824219 69.300781 139.609375 68.820312 C 154.398438 68.339844 166.773438 79.9375 167.253906 94.722656 " fill-opacity="1" fill-rule="nonzero"></path><path fill="#ffffff" d="M 140.457031 118.882812 C 137.589844 118.882812 134.785156 118.359375 132.117188 117.332031 C 131.847656 117.230469 131.714844 116.929688 131.816406 116.660156 C 131.921875 116.390625 132.222656 116.257812 132.492188 116.359375 C 135.269531 117.429688 138.203125 117.921875 141.203125 117.828125 C 143.746094 117.742188 146.226562 117.238281 148.578125 116.316406 C 148.847656 116.214844 149.148438 116.347656 149.253906 116.613281 C 149.359375 116.882812 149.226562 117.183594 148.957031 117.289062 C 146.496094 118.25 143.898438 118.78125 141.234375 118.871094 C 140.976562 118.878906 140.71875 118.882812 140.457031 118.882812 " fill-opacity="1" fill-rule="nonzero"></path><path fill="#ffffff" d="M 117.058594 94.558594 C 117.042969 94.558594 117.03125 94.558594 117.015625 94.554688 C 116.726562 94.535156 116.515625 94.28125 116.539062 93.996094 C 116.75 91.363281 117.40625 88.792969 118.496094 86.359375 C 118.8125 85.640625 119.175781 84.933594 119.5625 84.25 C 119.707031 84 120.027344 83.914062 120.277344 84.058594 C 120.527344 84.203125 120.613281 84.519531 120.46875 84.769531 C 120.097656 85.421875 119.753906 86.097656 119.445312 86.785156 C 118.40625 89.109375 117.78125 91.5625 117.578125 94.078125 C 117.554688 94.351562 117.328125 94.558594 117.058594 94.558594 " fill-opacity="1" fill-rule="nonzero"></path><path fill="#ffffff" d="M 163.8125 92.507812 C 163.566406 92.507812 163.34375 92.328125 163.300781 92.074219 C 161.40625 81.207031 153.675781 76.890625 151.132812 75.472656 C 148.910156 74.230469 146.523438 73.386719 144.035156 72.960938 C 143.753906 72.914062 143.566406 72.644531 143.613281 72.359375 C 143.660156 72.074219 143.925781 71.882812 144.214844 71.933594 C 146.816406 72.378906 149.316406 73.261719 151.644531 74.5625 C 154.289062 76.039062 162.347656 80.539062 164.328125 91.894531 C 164.378906 92.179688 164.1875 92.449219 163.902344 92.496094 C 163.871094 92.503906 163.84375 92.507812 163.8125 92.507812 " fill-opacity="1" fill-rule="nonzero"></path><path fill="#000000" d="M 125.535156 137.203125 C 126.375 137.566406 127.347656 137.179688 127.707031 136.335938 L 132.832031 124.308594 L 129.792969 122.984375 L 124.671875 135.011719 C 124.3125 135.855469 124.699219 136.835938 125.535156 137.203125 " fill-opacity="1" fill-rule="nonzero"></path><path fill="#000000" d="M 115.269531 101.367188 C 112.050781 87.3125 120.730469 73.332031 134.652344 70.144531 C 148.574219 66.957031 162.46875 75.761719 165.6875 89.820312 C 168.910156 103.875 160.230469 117.851562 146.308594 121.042969 C 132.386719 124.230469 118.488281 115.421875 115.269531 101.367188 Z M 111.441406 102.242188 C 115.152344 118.429688 131.15625 128.578125 147.191406 124.902344 C 163.230469 121.234375 173.222656 105.132812 169.515625 88.941406 C 165.808594 72.753906 149.800781 62.609375 133.765625 66.28125 C 117.730469 69.953125 107.734375 86.054688 111.441406 102.242188 " fill-opacity="1" fill-rule="nonzero"></path><path fill="#ffffff" d="M 127.007812 140.472656 C 127.386719 140.601562 128.589844 139.03125 128.871094 138.753906 C 129.980469 137.664062 132.554688 136.378906 133.078125 134.101562 C 133.753906 131.144531 132.464844 127.972656 131.714844 128.070312 C 130.960938 128.167969 130.003906 133.777344 127.054688 133.980469 C 127.054688 133.980469 126.390625 133.902344 126.464844 131.132812 C 126.476562 130.746094 126.058594 130.476562 125.714844 130.65625 C 125.242188 130.902344 124.640625 131.429688 124.144531 132.558594 C 123.511719 133.992188 123.632812 135.652344 123.734375 136.644531 C 123.800781 137.300781 123.5625 139.273438 124.0625 139.449219 L 127.007812 140.472656 " fill-opacity="1" fill-rule="nonzero"></path><path fill="#000000" d="M 124.335938 138.992188 L 127.042969 139.929688 C 127.324219 139.742188 127.917969 139.046875 128.15625 138.773438 C 128.308594 138.59375 128.433594 138.449219 128.503906 138.378906 C 128.824219 138.070312 129.242188 137.75 129.683594 137.414062 C 130.816406 136.550781 132.226562 135.472656 132.570312 133.984375 C 133.105469 131.636719 132.304688 129.289062 131.8125 128.699219 C 131.667969 128.953125 131.472656 129.410156 131.308594 129.800781 C 130.539062 131.609375 129.378906 134.34375 127.089844 134.503906 L 127.042969 134.503906 L 126.992188 134.5 C 126.476562 134.4375 125.875 133.800781 125.941406 131.121094 C 125.59375 131.304688 125.070312 131.746094 124.621094 132.765625 C 124.007812 134.160156 124.179688 135.863281 124.253906 136.589844 C 124.273438 136.808594 124.269531 137.109375 124.261719 137.460938 C 124.253906 137.875 124.234375 138.710938 124.335938 138.992188 Z M 127.054688 141.003906 C 126.980469 141.003906 126.910156 140.988281 126.835938 140.964844 L 123.890625 139.941406 C 123.175781 139.691406 123.195312 138.597656 123.21875 137.4375 C 123.226562 137.136719 123.230469 136.851562 123.214844 136.695312 C 123.085938 135.4375 123.023438 133.804688 123.664062 132.347656 C 124.125 131.300781 124.734375 130.578125 125.472656 130.195312 C 125.796875 130.023438 126.179688 130.042969 126.492188 130.238281 C 126.8125 130.4375 126.996094 130.777344 126.984375 131.148438 C 126.945312 132.644531 127.132812 133.230469 127.230469 133.433594 C 128.753906 133.140625 129.710938 130.898438 130.347656 129.394531 C 130.832031 128.253906 131.097656 127.625 131.644531 127.554688 C 131.859375 127.527344 132.1875 127.574219 132.535156 127.957031 C 133.34375 128.847656 134.183594 131.589844 133.585938 134.214844 C 133.160156 136.074219 131.582031 137.277344 130.316406 138.242188 C 129.898438 138.558594 129.507812 138.859375 129.238281 139.125 C 129.175781 139.183594 129.074219 139.304688 128.945312 139.453125 C 128.136719 140.394531 127.574219 141.003906 127.054688 141.003906 " fill-opacity="1" fill-rule="nonzero"></path><path fill="#5479f7" d="M 128.917969 139.871094 L 122.992188 137.695312 C 120.660156 141.855469 118.160156 145.433594 115.375 147.671875 C 113.734375 148.988281 111.960938 150.058594 110.097656 150.894531 C 109.261719 151.269531 108.28125 150.878906 107.945312 150.023438 C 107.019531 147.671875 105.484375 143.964844 102.757812 139.59375 C 100.714844 136.3125 96.8125 132.929688 93.992188 131.53125 C 89.609375 129.359375 81.738281 128.636719 76.828125 129.257812 C 58.421875 131.589844 49.878906 155.550781 53.234375 162.382812 C 57.351562 170.761719 68.449219 165.859375 68.449219 165.859375 C 68.449219 165.859375 68.675781 169.726562 66.359375 175.074219 C 63.546875 181.574219 66.3125 183.253906 66.3125 183.253906 C 77.730469 195.316406 103.039062 183.929688 100.898438 178.757812 C 98.609375 173.222656 98.570312 166.207031 98.570312 166.207031 C 101.734375 169.335938 106.058594 168.84375 106.058594 168.84375 C 106.058594 168.84375 108.554688 168.65625 110.28125 167.945312 C 125.269531 162.972656 128.917969 139.871094 128.917969 139.871094 " fill-opacity="1" fill-rule="nonzero"></path><path fill="#000000" d="M 68.589844 162.058594 C 68.375 162.058594 68.171875 161.921875 68.097656 161.707031 C 64.9375 152.558594 66.363281 145.382812 66.421875 145.078125 C 66.480469 144.796875 66.757812 144.617188 67.039062 144.675781 C 67.320312 144.734375 67.503906 145.007812 67.445312 145.289062 C 67.429688 145.359375 66.019531 152.503906 69.082031 161.367188 C 69.175781 161.640625 69.03125 161.9375 68.761719 162.03125 C 68.703125 162.050781 68.648438 162.058594 68.589844 162.058594 " fill-opacity="1" fill-rule="nonzero"></path><path fill="#000000" d="M 98.382812 166.773438 C 98.253906 166.773438 98.121094 166.726562 98.019531 166.628906 C 93.066406 161.789062 89.632812 150.601562 89.488281 150.125 C 89.402344 149.851562 89.558594 149.558594 89.835938 149.476562 C 90.113281 149.394531 90.402344 149.546875 90.484375 149.824219 C 90.519531 149.9375 93.988281 161.230469 98.75 165.882812 C 98.953125 166.082031 98.957031 166.410156 98.757812 166.617188 C 98.65625 166.722656 98.519531 166.773438 98.382812 166.773438 " fill-opacity="1" fill-rule="nonzero"></path><path fill="#ffffff" d="M 80.21875 117.089844 C 80.476562 117.179688 80.75 117.03125 80.800781 116.765625 C 81.039062 115.496094 81.632812 113.503906 82.832031 112.386719 C 84.164062 111.140625 87.863281 110.253906 88.464844 111.78125 C 88.992188 113.117188 89.195312 115.574219 91.011719 117.011719 C 91.1875 117.148438 91.121094 117.441406 90.972656 117.609375 L 90.210938 118.570312 C 90.046875 118.757812 89.984375 119.289062 90.007812 119.535156 C 90.089844 120.304688 90.324219 121.925781 90.105469 122.1875 C 89.679688 122.691406 87.113281 123.054688 87.113281 123.054688 L 86.5625 130.074219 C 86.539062 130.355469 86.546875 130.730469 87.0625 130.9375 L 88.890625 131.636719 C 89.269531 131.785156 89.40625 132.246094 89.175781 132.578125 C 88.460938 133.617188 86.628906 135.664062 82.066406 135.539062 C 77.339844 135.410156 74.652344 133.652344 74.035156 132.402344 C 73.808594 131.933594 74.15625 131.441406 74.667969 131.355469 C 76.515625 131.042969 81.851562 129.097656 81.21875 121.921875 C 81.199219 121.71875 81.078125 121.542969 80.894531 121.457031 C 80.203125 121.128906 78.308594 120.128906 78.316406 118.71875 C 78.324219 117.230469 79.34375 116.792969 80.21875 117.089844 " fill-opacity="1" fill-rule="nonzero"></path><path fill="#000000" d="M 80.386719 116.597656 Z M 79.699219 117.523438 C 79.527344 117.523438 79.371094 117.570312 79.242188 117.660156 C 78.980469 117.847656 78.839844 118.214844 78.839844 118.722656 C 78.832031 119.816406 80.582031 120.730469 81.117188 120.988281 C 81.464844 121.152344 81.703125 121.492188 81.738281 121.875 C 82.34375 128.738281 77.632812 131.386719 74.753906 131.867188 C 74.644531 131.886719 74.546875 131.949219 74.503906 132.03125 C 74.480469 132.078125 74.480469 132.121094 74.503906 132.171875 C 75.011719 133.207031 77.519531 134.894531 82.082031 135.019531 C 85.148438 135.097656 87.453125 134.15625 88.746094 132.285156 C 88.773438 132.242188 88.769531 132.207031 88.761719 132.1875 C 88.753906 132.15625 88.734375 132.136719 88.703125 132.125 L 86.875 131.421875 C 86.265625 131.179688 85.988281 130.710938 86.042969 130.03125 L 86.59375 123.015625 C 86.613281 122.769531 86.800781 122.574219 87.039062 122.539062 C 88.1875 122.378906 89.359375 122.078125 89.664062 121.882812 C 89.714844 121.535156 89.59375 120.472656 89.539062 120.003906 C 89.519531 119.851562 89.503906 119.710938 89.492188 119.589844 C 89.460938 119.3125 89.503906 118.585938 89.820312 118.226562 L 90.546875 117.304688 C 89.164062 116.128906 88.703125 114.457031 88.328125 113.101562 C 88.210938 112.679688 88.101562 112.28125 87.980469 111.972656 C 87.898438 111.769531 87.691406 111.628906 87.355469 111.554688 C 86.238281 111.296875 84.09375 111.925781 83.1875 112.769531 C 81.980469 113.890625 81.476562 116.003906 81.316406 116.859375 C 81.265625 117.132812 81.097656 117.367188 80.859375 117.503906 C 80.617188 117.648438 80.320312 117.675781 80.050781 117.582031 C 80.050781 117.582031 80.050781 117.582031 80.046875 117.582031 C 79.929688 117.542969 79.8125 117.523438 79.699219 117.523438 Z M 82.457031 136.066406 C 82.324219 136.066406 82.1875 136.0625 82.054688 136.0625 C 77.316406 135.933594 74.335938 134.191406 73.570312 132.628906 C 73.398438 132.289062 73.402344 131.894531 73.578125 131.554688 C 73.769531 131.179688 74.144531 130.914062 74.582031 130.839844 C 75.277344 130.722656 81.363281 129.484375 80.699219 121.96875 C 80.695312 121.949219 80.6875 121.933594 80.671875 121.929688 C 79.59375 121.417969 77.785156 120.320312 77.796875 118.71875 C 77.800781 117.871094 78.101562 117.195312 78.636719 116.8125 C 79.109375 116.476562 79.710938 116.390625 80.308594 116.574219 C 80.507812 115.5625 81.085938 113.296875 82.476562 112.003906 C 83.523438 111.027344 85.984375 110.175781 87.585938 110.535156 C 88.445312 110.730469 88.804688 111.214844 88.949219 111.589844 C 89.09375 111.949219 89.210938 112.375 89.335938 112.824219 C 89.679688 114.078125 90.109375 115.632812 91.335938 116.601562 C 91.507812 116.738281 91.613281 116.9375 91.632812 117.164062 C 91.660156 117.4375 91.558594 117.730469 91.367188 117.949219 L 90.621094 118.894531 C 90.5625 118.988281 90.511719 119.320312 90.527344 119.480469 C 90.539062 119.597656 90.554688 119.734375 90.574219 119.882812 C 90.769531 121.570312 90.785156 122.1875 90.503906 122.523438 C 90.082031 123.027344 88.644531 123.339844 87.601562 123.511719 L 87.082031 130.117188 C 87.0625 130.339844 87.074219 130.382812 87.257812 130.453125 L 89.078125 131.148438 C 89.40625 131.277344 89.65625 131.542969 89.757812 131.878906 C 89.863281 132.21875 89.808594 132.582031 89.605469 132.875 C 88.160156 134.96875 85.695312 136.066406 82.457031 136.066406 " fill-opacity="1" fill-rule="nonzero"></path><path fill="#000000" d="M 148.59375 90.632812 C 149.929688 90.289062 151.277344 90.316406 152.644531 91.046875 C 153.738281 92.035156 153.34375 93.128906 152.480469 93.050781 C 151.113281 92.058594 149.78125 91.960938 148.472656 92.5 L 148.59375 90.632812 " fill-opacity="1" fill-rule="nonzero"></path><path fill="#000000" d="M 148.429688 100.359375 C 149.765625 100.011719 151.113281 100.042969 152.480469 100.773438 C 153.574219 101.761719 153.183594 102.855469 152.316406 102.777344 C 150.945312 101.78125 149.613281 101.6875 148.308594 102.226562 L 148.429688 100.359375 " fill-opacity="1" fill-rule="nonzero"></path><path fill="#000000" d="M 134.023438 87.742188 C 132.964844 86.859375 131.738281 86.308594 130.1875 86.375 C 128.773438 86.800781 128.660156 87.957031 129.472656 88.253906 C 131.136719 87.945312 132.382812 88.4375 133.332031 89.484375 L 134.023438 87.742188 " fill-opacity="1" fill-rule="nonzero"></path><path fill="#000000" d="M 129.988281 96.597656 C 128.929688 95.710938 127.703125 95.160156 126.152344 95.230469 C 124.738281 95.652344 124.625 96.808594 125.4375 97.109375 C 127.101562 96.800781 128.34375 97.289062 129.296875 98.335938 L 129.988281 96.597656 " fill-opacity="1" fill-rule="nonzero"></path><path fill="#5479f7" d="M 148.925781 98.03125 C 146.917969 106.902344 141.238281 113.179688 136.238281 112.046875 C 131.234375 110.917969 128.804688 102.808594 130.808594 93.9375 C 132.8125 85.066406 138.265625 81.792969 143.269531 82.921875 C 148.269531 84.054688 150.929688 89.160156 148.925781 98.03125 " fill-opacity="1" fill-rule="nonzero"></path><path fill="#000000" d="M 148.925781 98.03125 C 146.917969 106.902344 141.238281 113.179688 136.238281 112.046875 C 131.234375 110.917969 128.804688 102.808594 130.808594 93.9375 C 132.8125 85.066406 138.265625 81.792969 143.269531 82.921875 C 148.269531 84.054688 150.929688 89.160156 148.925781 98.03125 " fill-opacity="1" fill-rule="nonzero"></path><path fill="#5479f7" d="M 134.164062 86.8125 C 137.21875 85.710938 140.304688 85.523438 143.429688 86.542969 C 140.082031 95.386719 138.269531 107.445312 132.503906 111.25 C 132.121094 111.503906 131.601562 111.300781 131.511719 110.847656 C 129.832031 102.355469 130.007812 94.207031 134.164062 86.8125 " fill-opacity="1" fill-rule="nonzero"></path><path fill="#5479f7" d="M 148.308594 89.632812 C 145.929688 87.425781 143.164062 86.046875 139.886719 85.765625 C 139.515625 95.210938 136.46875 107.015625 140.289062 112.777344 C 140.542969 113.15625 141.101562 113.175781 141.359375 112.796875 C 146.226562 105.632812 149.246094 98.066406 148.308594 89.632812 " fill-opacity="1" fill-rule="nonzero"></path><path fill="#5479f7" d="M 134.335938 86.230469 C 137.539062 85.710938 140.605469 86.09375 143.488281 87.671875 C 138.566406 95.75 134.566406 107.265625 128.199219 109.941406 C 127.773438 110.121094 127.300781 109.824219 127.292969 109.367188 C 127.210938 100.707031 128.882812 92.734375 134.335938 86.230469 " fill-opacity="1" fill-rule="nonzero"></path><path fill="#5479f7" d="M 149.195312 89.554688 C 146.445312 87.832031 143.46875 86.996094 140.199219 87.328125 C 141.601562 96.683594 140.816406 108.847656 145.644531 113.789062 C 145.96875 114.117188 146.519531 114.03125 146.703125 113.609375 C 150.140625 105.660156 151.695312 97.664062 149.195312 89.554688 " fill-opacity="1" fill-rule="nonzero"></path><path fill="#000000" d="M 149.449219 90.339844 C 148.863281 86.164062 146.582031 83.671875 143.265625 82.921875 C 139.886719 82.15625 136.292969 83.414062 133.703125 87.050781 C 138.421875 85.453125 146.171875 88.109375 149.449219 90.339844 " fill-opacity="1" fill-rule="nonzero"></path><path fill="#000000" d="M 141.746094 83.355469 C 141.671875 83.355469 141.597656 83.34375 141.523438 83.308594 C 141.261719 83.183594 141.148438 82.875 141.273438 82.613281 C 141.90625 81.269531 142.238281 79.132812 141.546875 77.398438 C 141.160156 76.425781 140.515625 75.757812 139.625 75.410156 C 138.636719 75.023438 137.429688 75.28125 136.824219 76.007812 C 136.542969 76.347656 136.429688 76.855469 136.550781 77.242188 C 136.632812 77.503906 136.816406 77.675781 137.097656 77.75 C 137.375 77.828125 137.539062 78.113281 137.464844 78.390625 C 137.390625 78.667969 137.105469 78.832031 136.828125 78.757812 C 136.199219 78.589844 135.75 78.164062 135.558594 77.554688 C 135.324219 76.824219 135.507812 75.957031 136.023438 75.339844 C 136.921875 74.265625 138.59375 73.890625 140.003906 74.4375 C 141.160156 74.890625 142.027344 75.78125 142.515625 77.011719 C 143.324219 79.039062 142.949219 81.507812 142.21875 83.058594 C 142.128906 83.246094 141.9375 83.355469 141.746094 83.355469 " fill-opacity="1" fill-rule="nonzero"></path><path fill="#000000" d="M 144.519531 85.804688 C 144.484375 85.804688 144.441406 85.800781 144.402344 85.792969 C 144.121094 85.730469 143.945312 85.449219 144.011719 85.167969 C 144.425781 83.351562 144.980469 81.789062 145.75 80.253906 C 146.285156 79.191406 147.902344 75.957031 151.03125 76.753906 C 152.09375 77.023438 152.808594 77.699219 153.042969 78.65625 C 153.292969 79.664062 152.933594 80.816406 152.148438 81.523438 C 151.441406 82.160156 150.496094 82.332031 149.558594 81.992188 C 149.285156 81.890625 149.148438 81.59375 149.246094 81.324219 C 149.34375 81.050781 149.644531 80.910156 149.914062 81.011719 C 150.648438 81.277344 151.15625 81.015625 151.453125 80.746094 C 151.949219 80.296875 152.1875 79.539062 152.03125 78.90625 C 151.890625 78.332031 151.457031 77.9375 150.773438 77.765625 C 149.199219 77.363281 147.898438 78.300781 146.683594 80.71875 C 145.9375 82.203125 145.429688 83.644531 145.027344 85.402344 C 144.972656 85.640625 144.757812 85.804688 144.519531 85.804688 " fill-opacity="1" fill-rule="nonzero"></path><path fill="#000000" d="M 225.636719 222.304688 C 225.890625 221.070312 226.464844 219.976562 227.617188 219.152344 C 228.871094 218.65625 229.605469 219.417969 229.191406 220.097656 C 227.820312 220.820312 227.207031 221.871094 227.117188 223.160156 L 225.636719 222.304688 " fill-opacity="1" fill-rule="nonzero"></path><path fill="#000000" d="M 233.542969 226.378906 C 233.800781 225.144531 234.371094 224.050781 235.523438 223.226562 C 236.777344 222.730469 237.515625 223.496094 237.097656 224.171875 C 235.730469 224.890625 235.113281 225.945312 235.023438 227.238281 L 233.542969 226.378906 " fill-opacity="1" fill-rule="nonzero"></path><path fill="#000000" d="M 217.367188 233.082031 C 216.210938 233.589844 215.261719 234.375 214.695312 235.671875 C 214.464844 237 215.367188 237.566406 215.945312 237.019531 C 216.363281 235.53125 217.269531 234.707031 218.511719 234.355469 L 217.367188 233.082031 " fill-opacity="1" fill-rule="nonzero"></path><path fill="#000000" d="M 222.988281 239.976562 C 221.832031 240.480469 220.882812 241.265625 220.3125 242.566406 C 220.085938 243.894531 220.988281 244.457031 221.5625 243.910156 C 221.984375 242.421875 222.890625 241.601562 224.132812 241.246094 L 222.988281 239.976562 " fill-opacity="1" fill-rule="nonzero"></path><path fill="#5479f7" d="M 231.835938 225.03125 C 238.292969 230.269531 241.140625 237.464844 238.1875 241.109375 C 235.230469 244.753906 227.601562 243.460938 221.140625 238.222656 C 214.683594 232.988281 214.203125 227.191406 217.15625 223.550781 C 220.109375 219.90625 225.375 219.792969 231.835938 225.03125 " fill-opacity="1" fill-rule="nonzero"></path><path fill="#000000" d="M 231.835938 225.03125 C 238.292969 230.269531 241.140625 237.464844 238.1875 241.109375 C 235.230469 244.753906 227.601562 243.460938 221.140625 238.222656 C 214.683594 232.988281 214.203125 227.191406 217.15625 223.550781 C 220.109375 219.90625 225.375 219.792969 231.835938 225.03125 " fill-opacity="1" fill-rule="nonzero"></path><path fill="#ffffff" d="M 216.660156 232.585938 C 216.992188 229.636719 218.089844 227.035156 220.191406 224.882812 C 226.082031 231.210938 235.234375 237.578125 236.019531 243.847656 C 236.074219 244.261719 235.699219 244.609375 235.292969 244.5 C 227.648438 242.433594 221.039062 238.992188 216.660156 232.585938 " fill-opacity="1" fill-rule="nonzero"></path><path fill="#ffffff" d="M 224.699219 222.132812 C 221.925781 223.191406 219.675781 224.898438 218.117188 227.472656 C 225.710938 231.605469 234.15625 238.882812 240.425781 238.082031 C 240.839844 238.03125 241.082031 237.578125 240.875 237.214844 C 236.972656 230.320312 231.992188 224.78125 224.699219 222.132812 " fill-opacity="1" fill-rule="nonzero"></path><path fill="#5479f7" d="M 216.25 232.210938 C 217.121094 229.375 218.679688 227.019531 221.140625 225.292969 C 225.765625 232.597656 233.589844 240.542969 233.203125 246.847656 C 233.179688 247.269531 232.746094 247.535156 232.367188 247.355469 C 225.230469 243.917969 219.375 239.316406 216.25 232.210938 " fill-opacity="1" fill-rule="nonzero"></path><path fill="#5479f7" d="M 224.992188 221.375 C 222.46875 222.933594 220.578125 225.03125 219.527344 227.851562 C 227.761719 230.488281 237.417969 236.0625 243.425781 234.101562 C 243.824219 233.972656 243.976562 233.484375 243.707031 233.164062 C 238.582031 227.125 232.65625 222.613281 224.992188 221.375 " fill-opacity="1" fill-rule="nonzero"></path><path fill="#000000" d="M 225.742188 221.488281 C 222.082031 220.273438 219.113281 221.136719 217.15625 223.550781 C 215.160156 226.015625 214.734375 229.464844 216.667969 233.058594 C 217.265625 228.546875 222.585938 223.273438 225.742188 221.488281 " fill-opacity="1" fill-rule="nonzero"></path><path fill="#000000" d="M 209.902344 227.765625 C 209.8125 227.765625 209.71875 227.757812 209.628906 227.742188 C 208.917969 227.632812 208.269531 227.121094 207.964844 226.4375 C 207.441406 225.25 207.8125 223.703125 208.851562 222.757812 C 209.699219 221.984375 210.789062 221.628906 212.011719 221.726562 C 214.015625 221.886719 215.898438 223.203125 216.878906 224.4375 C 217.058594 224.664062 217.019531 224.992188 216.796875 225.171875 C 216.570312 225.351562 216.242188 225.3125 216.0625 225.085938 C 215.070312 223.835938 213.371094 222.882812 211.929688 222.765625 C 210.988281 222.691406 210.191406 222.945312 209.554688 223.527344 C 208.851562 224.167969 208.578125 225.238281 208.917969 226.015625 C 209.078125 226.371094 209.433594 226.65625 209.785156 226.710938 C 210.023438 226.75 210.21875 226.675781 210.386719 226.484375 C 210.578125 226.269531 210.90625 226.25 211.121094 226.4375 C 211.335938 226.628906 211.359375 226.957031 211.167969 227.175781 C 210.828125 227.558594 210.386719 227.765625 209.902344 227.765625 " fill-opacity="1" fill-rule="nonzero"></path><path fill="#000000" d="M 219.601562 224.003906 C 219.484375 224.003906 219.367188 223.964844 219.269531 223.882812 C 217.949219 222.808594 216.890625 221.714844 215.941406 220.457031 C 215.277344 219.585938 213.269531 216.925781 215.210938 214.65625 C 215.863281 213.894531 216.746094 213.570312 217.628906 213.761719 C 218.574219 213.972656 219.386719 214.746094 219.648438 215.6875 C 219.890625 216.542969 219.644531 217.402344 218.972656 218.046875 C 218.765625 218.246094 218.433594 218.238281 218.234375 218.03125 C 218.035156 217.824219 218.042969 217.492188 218.25 217.292969 C 218.75 216.816406 218.742188 216.3125 218.648438 215.972656 C 218.484375 215.394531 217.976562 214.90625 217.402344 214.78125 C 216.894531 214.667969 216.410156 214.859375 216.003906 215.332031 C 215.050781 216.449219 215.292969 217.875 216.769531 219.828125 C 217.683594 221.039062 218.65625 222.039062 219.929688 223.074219 C 220.152344 223.257812 220.1875 223.585938 220.003906 223.8125 C 219.902344 223.9375 219.753906 224.003906 219.601562 224.003906 " fill-opacity="1" fill-rule="nonzero"></path></svg>