<?xml version="1.0" encoding="UTF-8"?>
<svg xmlns="http://www.w3.org/2000/svg" xmlns:xlink="http://www.w3.org/1999/xlink" width="400" zoomAndPan="magnify" viewBox="0 0 300 299.999988" height="400" preserveAspectRatio="xMidYMid meet" version="1.0">
  <defs>
    <clipPath id="0ccf4e75cf">
      <path d="M 189 95 L 294.75 95 L 294.75 174 L 189 174 Z M 189 95 " clip-rule="nonzero"></path>
    </clipPath>
    <clipPath id="8bfcb55ee1">
      <path d="M 173 173 L 294.75 173 L 294.75 181 L 173 181 Z M 173 173 " clip-rule="nonzero"></path>
    </clipPath>
    <clipPath id="ceccf8cbbb">
      <path d="M 172 172 L 294.75 172 L 294.75 182 L 172 182 Z M 172 172 " clip-rule="nonzero"></path>
    </clipPath>
    <clipPath id="fdd8d07b5a">
      <path d="M 100 39.832031 L 132 39.832031 L 132 79 L 100 79 Z M 100 39.832031 " clip-rule="nonzero"></path>
    </clipPath>
    <clipPath id="4acc28e5bd">
      <path d="M 138 39.832031 L 169 39.832031 L 169 77 L 138 77 Z M 138 39.832031 " clip-rule="nonzero"></path>
    </clipPath>
    <clipPath id="065a451979">
      <path d="M 141 39.832031 L 149 39.832031 L 149 47 L 141 47 Z M 141 39.832031 " clip-rule="nonzero"></path>
    </clipPath>
    <clipPath id="2eeef0f5ea">
      <path d="M 43 195 L 230 195 L 230 236.332031 L 43 236.332031 Z M 43 195 " clip-rule="nonzero"></path>
    </clipPath>
  </defs>
  <path fill="#5479f7" d="M 139.140625 126.875 C 139.140625 127.226562 139.105469 127.570312 139.039062 127.914062 C 138.96875 128.257812 138.867188 128.589844 138.734375 128.910156 C 138.601562 129.234375 138.4375 129.539062 138.242188 129.828125 C 138.050781 130.121094 137.828125 130.386719 137.582031 130.636719 C 137.335938 130.882812 137.066406 131.101562 136.773438 131.296875 C 136.484375 131.488281 136.179688 131.652344 135.855469 131.785156 C 135.53125 131.921875 135.199219 132.019531 134.855469 132.089844 C 134.515625 132.15625 134.167969 132.191406 133.820312 132.191406 C 133.46875 132.191406 133.125 132.15625 132.78125 132.089844 C 132.4375 132.019531 132.105469 131.921875 131.78125 131.785156 C 131.460938 131.652344 131.152344 131.488281 130.863281 131.296875 C 130.570312 131.101562 130.304688 130.882812 130.054688 130.636719 C 129.808594 130.386719 129.589844 130.121094 129.394531 129.828125 C 129.199219 129.539062 129.035156 129.234375 128.902344 128.910156 C 128.769531 128.589844 128.667969 128.257812 128.601562 127.914062 C 128.53125 127.570312 128.496094 127.226562 128.496094 126.875 C 128.496094 126.527344 128.53125 126.183594 128.597656 125.839844 C 128.667969 125.496094 128.769531 125.164062 128.902344 124.84375 C 129.035156 124.519531 129.199219 124.214844 129.394531 123.925781 C 129.589844 123.632812 129.808594 123.367188 130.054688 123.117188 C 130.304688 122.871094 130.570312 122.652344 130.863281 122.457031 C 131.152344 122.265625 131.460938 122.101562 131.78125 121.964844 C 132.105469 121.832031 132.4375 121.730469 132.78125 121.664062 C 133.125 121.597656 133.46875 121.5625 133.820312 121.5625 C 134.167969 121.5625 134.515625 121.597656 134.855469 121.664062 C 135.199219 121.730469 135.53125 121.832031 135.855469 121.964844 C 136.179688 122.101562 136.484375 122.265625 136.773438 122.457031 C 137.066406 122.652344 137.335938 122.871094 137.582031 123.117188 C 137.828125 123.367188 138.050781 123.632812 138.242188 123.925781 C 138.4375 124.214844 138.601562 124.519531 138.734375 124.84375 C 138.867188 125.164062 138.96875 125.496094 139.039062 125.839844 C 139.105469 126.183594 139.140625 126.527344 139.140625 126.875 Z M 139.140625 126.875 " fill-opacity="1" fill-rule="nonzero"></path>
  <path fill="#5479f7" d="M 157.039062 134.695312 C 157.039062 135.007812 157.007812 135.320312 156.949219 135.628906 C 156.886719 135.9375 156.796875 136.234375 156.675781 136.527344 C 156.554688 136.816406 156.40625 137.09375 156.230469 137.355469 C 156.054688 137.617188 155.859375 137.855469 155.636719 138.078125 C 155.414062 138.300781 155.171875 138.5 154.910156 138.675781 C 154.648438 138.851562 154.371094 138.996094 154.078125 139.117188 C 153.789062 139.238281 153.488281 139.328125 153.179688 139.390625 C 152.871094 139.453125 152.558594 139.480469 152.246094 139.480469 C 151.929688 139.480469 151.617188 139.453125 151.308594 139.390625 C 151 139.328125 150.699219 139.238281 150.410156 139.117188 C 150.121094 138.996094 149.84375 138.851562 149.582031 138.675781 C 149.320312 138.5 149.078125 138.300781 148.855469 138.078125 C 148.632812 137.855469 148.433594 137.617188 148.257812 137.355469 C 148.082031 137.09375 147.9375 136.816406 147.816406 136.527344 C 147.695312 136.234375 147.605469 135.9375 147.542969 135.628906 C 147.480469 135.320312 147.449219 135.007812 147.449219 134.695312 C 147.449219 134.378906 147.480469 134.066406 147.542969 133.757812 C 147.605469 133.449219 147.695312 133.152344 147.816406 132.859375 C 147.9375 132.570312 148.082031 132.292969 148.257812 132.03125 C 148.433594 131.769531 148.632812 131.53125 148.855469 131.308594 C 149.078125 131.085938 149.320312 130.886719 149.582031 130.710938 C 149.84375 130.535156 150.121094 130.390625 150.410156 130.269531 C 150.699219 130.148438 151 130.058594 151.308594 129.996094 C 151.617188 129.933594 151.929688 129.90625 152.246094 129.90625 C 152.558594 129.90625 152.871094 129.933594 153.179688 129.996094 C 153.488281 130.058594 153.789062 130.148438 154.078125 130.269531 C 154.371094 130.390625 154.648438 130.535156 154.910156 130.710938 C 155.171875 130.886719 155.414062 131.085938 155.636719 131.308594 C 155.859375 131.53125 156.054688 131.769531 156.230469 132.03125 C 156.40625 132.292969 156.554688 132.570312 156.675781 132.859375 C 156.796875 133.152344 156.886719 133.449219 156.949219 133.757812 C 157.007812 134.066406 157.039062 134.378906 157.039062 134.695312 Z M 157.039062 134.695312 " fill-opacity="1" fill-rule="nonzero"></path>
  <path fill="#5479f7" d="M 162.757812 150.234375 C 162.957031 150.429688 163.132812 150.644531 163.285156 150.878906 C 163.441406 151.109375 163.574219 151.355469 163.679688 151.613281 C 163.789062 151.871094 163.867188 152.136719 163.921875 152.410156 C 163.976562 152.683594 164.003906 152.960938 164.003906 153.242188 C 164.003906 153.519531 163.976562 153.796875 163.921875 154.070312 C 163.867188 154.34375 163.789062 154.609375 163.679688 154.867188 C 163.574219 155.125 163.441406 155.371094 163.285156 155.601562 C 163.132812 155.835938 162.957031 156.050781 162.757812 156.246094 C 162.558594 156.445312 162.34375 156.621094 162.113281 156.777344 C 161.878906 156.929688 161.636719 157.0625 161.375 157.167969 C 161.117188 157.277344 160.851562 157.355469 160.578125 157.410156 C 160.304688 157.464844 160.027344 157.492188 159.746094 157.492188 C 159.46875 157.492188 159.191406 157.464844 158.917969 157.410156 C 158.644531 157.355469 158.375 157.277344 158.117188 157.167969 C 157.859375 157.0625 157.613281 156.929688 157.382812 156.777344 C 157.148438 156.621094 156.933594 156.445312 156.738281 156.246094 C 156.539062 156.050781 156.363281 155.835938 156.207031 155.601562 C 156.050781 155.371094 155.921875 155.125 155.8125 154.867188 C 155.707031 154.609375 155.625 154.34375 155.570312 154.070312 C 155.515625 153.796875 155.492188 153.519531 155.492188 153.242188 C 155.488281 152.960938 155.515625 152.683594 155.570312 152.410156 C 155.625 152.136719 155.707031 151.871094 155.8125 151.613281 C 155.921875 151.355469 156.050781 151.109375 156.207031 150.878906 C 156.363281 150.644531 156.539062 150.429688 156.738281 150.234375 C 156.933594 150.035156 157.148438 149.859375 157.382812 149.707031 C 157.613281 149.550781 157.859375 149.417969 158.117188 149.3125 C 158.375 149.207031 158.644531 149.125 158.917969 149.070312 C 159.191406 149.015625 159.46875 148.988281 159.746094 148.988281 C 160.027344 148.988281 160.304688 149.015625 160.578125 149.070312 C 160.851562 149.125 161.117188 149.207031 161.375 149.3125 C 161.632812 149.417969 161.878906 149.550781 162.113281 149.707031 C 162.34375 149.859375 162.558594 150.035156 162.757812 150.234375 Z M 162.757812 150.234375 " fill-opacity="1" fill-rule="nonzero"></path>
  <path fill="#5479f7" d="M 155.664062 171.652344 C 155.664062 172.144531 155.570312 172.621094 155.378906 173.078125 C 155.191406 173.53125 154.921875 173.9375 154.570312 174.285156 C 154.222656 174.632812 153.816406 174.902344 153.359375 175.09375 C 152.902344 175.28125 152.429688 175.375 151.933594 175.375 C 151.4375 175.375 150.960938 175.28125 150.503906 175.09375 C 150.046875 174.902344 149.644531 174.632812 149.296875 174.285156 C 148.945312 173.9375 148.675781 173.53125 148.488281 173.078125 C 148.296875 172.621094 148.203125 172.144531 148.203125 171.652344 C 148.203125 171.15625 148.296875 170.679688 148.488281 170.226562 C 148.675781 169.769531 148.945312 169.367188 149.296875 169.015625 C 149.644531 168.667969 150.046875 168.398438 150.503906 168.207031 C 150.960938 168.019531 151.4375 167.925781 151.933594 167.925781 C 152.429688 167.925781 152.902344 168.019531 153.359375 168.207031 C 153.816406 168.398438 154.222656 168.667969 154.570312 169.015625 C 154.921875 169.367188 155.191406 169.769531 155.378906 170.226562 C 155.570312 170.679688 155.664062 171.15625 155.664062 171.652344 Z M 155.664062 171.652344 " fill-opacity="1" fill-rule="nonzero"></path>
  <path fill="#5479f7" d="M 135.433594 177.078125 C 135.707031 177.351562 135.917969 177.667969 136.066406 178.027344 C 136.214844 178.382812 136.289062 178.757812 136.289062 179.144531 C 136.289062 179.53125 136.214844 179.902344 136.066406 180.261719 C 135.917969 180.621094 135.707031 180.933594 135.433594 181.207031 C 135.15625 181.484375 134.839844 181.695312 134.484375 181.84375 C 134.125 181.988281 133.753906 182.0625 133.363281 182.0625 C 132.976562 182.0625 132.605469 181.988281 132.246094 181.84375 C 131.886719 181.695312 131.570312 181.484375 131.296875 181.207031 C 131.023438 180.933594 130.8125 180.621094 130.664062 180.261719 C 130.515625 179.902344 130.441406 179.53125 130.441406 179.144531 C 130.441406 178.757812 130.515625 178.382812 130.664062 178.027344 C 130.8125 177.667969 131.023438 177.351562 131.296875 177.078125 C 131.570312 176.804688 131.886719 176.59375 132.246094 176.445312 C 132.601562 176.296875 132.976562 176.222656 133.363281 176.222656 C 133.753906 176.222656 134.125 176.296875 134.484375 176.445312 C 134.839844 176.59375 135.15625 176.804688 135.433594 177.078125 Z M 135.433594 177.078125 " fill-opacity="1" fill-rule="nonzero"></path>
  <path fill="#5479f7" d="M 116.984375 171.328125 C 116.984375 171.601562 116.929688 171.863281 116.828125 172.113281 C 116.722656 172.363281 116.574219 172.585938 116.382812 172.777344 C 116.191406 172.972656 115.96875 173.117188 115.714844 173.222656 C 115.464844 173.328125 115.203125 173.378906 114.929688 173.378906 C 114.65625 173.378906 114.394531 173.328125 114.144531 173.222656 C 113.894531 173.117188 113.671875 172.972656 113.480469 172.777344 C 113.285156 172.585938 113.136719 172.363281 113.035156 172.113281 C 112.929688 171.863281 112.878906 171.601562 112.878906 171.328125 C 112.878906 171.054688 112.929688 170.792969 113.035156 170.542969 C 113.136719 170.292969 113.285156 170.070312 113.476562 169.878906 C 113.671875 169.6875 113.894531 169.539062 114.144531 169.433594 C 114.394531 169.328125 114.65625 169.277344 114.929688 169.277344 C 115.203125 169.277344 115.464844 169.328125 115.714844 169.433594 C 115.96875 169.539062 116.191406 169.6875 116.382812 169.878906 C 116.574219 170.070312 116.722656 170.292969 116.828125 170.542969 C 116.929688 170.792969 116.984375 171.054688 116.984375 171.328125 Z M 116.984375 171.328125 " fill-opacity="1" fill-rule="nonzero"></path>
  <path fill="#5479f7" d="M 109.027344 152.785156 C 109.027344 152.996094 108.988281 153.203125 108.90625 153.398438 C 108.824219 153.59375 108.710938 153.765625 108.558594 153.917969 C 108.410156 154.066406 108.234375 154.183594 108.039062 154.261719 C 107.84375 154.34375 107.640625 154.386719 107.425781 154.386719 C 107.214844 154.386719 107.011719 154.34375 106.8125 154.261719 C 106.617188 154.183594 106.445312 154.066406 106.292969 153.917969 C 106.144531 153.765625 106.027344 153.59375 105.945312 153.398438 C 105.867188 153.203125 105.824219 152.996094 105.824219 152.785156 C 105.824219 152.574219 105.867188 152.371094 105.945312 152.171875 C 106.027344 151.976562 106.144531 151.804688 106.292969 151.652344 C 106.445312 151.503906 106.617188 151.386719 106.8125 151.308594 C 107.011719 151.226562 107.214844 151.1875 107.425781 151.1875 C 107.640625 151.1875 107.84375 151.226562 108.039062 151.308594 C 108.234375 151.386719 108.410156 151.503906 108.558594 151.652344 C 108.710938 151.804688 108.824219 151.976562 108.90625 152.171875 C 108.988281 152.371094 109.027344 152.574219 109.027344 152.785156 Z M 109.027344 152.785156 " fill-opacity="1" fill-rule="nonzero"></path>
  <path fill="#5479f7" d="M 116.144531 134.414062 C 116.144531 134.550781 116.117188 134.683594 116.066406 134.8125 C 116.011719 134.941406 115.9375 135.054688 115.839844 135.152344 C 115.742188 135.25 115.628906 135.324219 115.5 135.375 C 115.375 135.429688 115.242188 135.457031 115.101562 135.457031 C 114.964844 135.457031 114.832031 135.429688 114.703125 135.375 C 114.574219 135.324219 114.460938 135.25 114.363281 135.152344 C 114.265625 135.054688 114.191406 134.941406 114.140625 134.8125 C 114.085938 134.683594 114.058594 134.550781 114.058594 134.414062 C 114.058594 134.277344 114.085938 134.144531 114.140625 134.015625 C 114.191406 133.886719 114.265625 133.777344 114.363281 133.679688 C 114.460938 133.582031 114.574219 133.503906 114.703125 133.453125 C 114.832031 133.398438 114.964844 133.371094 115.101562 133.371094 C 115.242188 133.371094 115.375 133.398438 115.5 133.453125 C 115.628906 133.503906 115.742188 133.582031 115.839844 133.679688 C 115.9375 133.777344 116.011719 133.886719 116.066406 134.015625 C 116.117188 134.144531 116.144531 134.277344 116.144531 134.414062 Z M 116.144531 134.414062 " fill-opacity="1" fill-rule="nonzero"></path>
  <path fill="#000000" d="M 67.113281 102.589844 L 79.863281 102.589844 L 79.863281 167.957031 L 69.433594 167.957031 Z M 67.113281 102.589844 " fill-opacity="1" fill-rule="nonzero"></path>
  <path fill="#ffffff" d="M 20.082031 93.96875 L 5.75 108.269531 L 5.75 144.023438 L 69.488281 144.023438 L 69.488281 93.96875 Z M 20.082031 93.96875 " fill-opacity="1" fill-rule="nonzero"></path>
  <path fill="#000000" d="M 69.488281 144.261719 L 5.75 144.261719 C 5.621094 144.261719 5.511719 144.152344 5.511719 144.023438 L 5.511719 108.269531 C 5.511719 108.203125 5.535156 108.152344 5.578125 108.097656 L 19.898438 93.796875 C 19.941406 93.753906 20.003906 93.730469 20.070312 93.730469 L 69.488281 93.730469 C 69.617188 93.730469 69.726562 93.839844 69.726562 93.96875 L 69.726562 144.023438 C 69.726562 144.152344 69.617188 144.261719 69.488281 144.261719 Z M 5.988281 143.789062 L 69.253906 143.789062 L 69.253906 94.203125 L 20.175781 94.203125 L 5.988281 108.375 Z M 5.988281 143.789062 " fill-opacity="1" fill-rule="nonzero"></path>
  <path fill="#000000" d="M 20.082031 108.503906 L 5.75 108.503906 C 5.621094 108.503906 5.511719 108.398438 5.511719 108.269531 C 5.511719 108.140625 5.621094 108.03125 5.75 108.03125 L 19.832031 108.03125 L 19.832031 93.96875 C 19.832031 93.839844 19.941406 93.730469 20.070312 93.730469 C 20.199219 93.730469 20.304688 93.839844 20.304688 93.96875 L 20.304688 108.269531 C 20.316406 108.398438 20.210938 108.503906 20.082031 108.503906 Z M 20.082031 108.503906 " fill-opacity="1" fill-rule="nonzero"></path>
  <path fill="#5479f7" d="M 67.382812 130.699219 L 67.382812 127.671875 C 67.382812 126.125 66.125 124.867188 64.574219 124.867188 L 47.964844 124.867188 C 46.417969 124.867188 45.160156 126.125 45.160156 127.671875 L 45.160156 130.710938 L 0.03125 130.710938 L 0.03125 177.910156 C 0.03125 180.820312 2.386719 183.171875 5.296875 183.171875 L 75.195312 183.171875 L 75.195312 130.710938 L 67.382812 130.710938 Z M 67.382812 130.699219 " fill-opacity="1" fill-rule="nonzero"></path>
  <g clip-path="url(#0ccf4e75cf)">
    <path fill="#ffffff" d="M 289.699219 95.847656 L 194.613281 95.847656 C 191.96875 95.847656 189.828125 97.984375 189.828125 100.613281 L 189.828125 168.527344 C 189.828125 171.15625 191.96875 173.292969 194.613281 173.292969 L 294.484375 173.292969 L 294.484375 100.601562 C 294.484375 97.984375 292.332031 95.847656 289.699219 95.847656 Z M 289.699219 95.847656 " fill-opacity="1" fill-rule="nonzero"></path>
    <path fill="#000000" d="M 294.472656 173.550781 L 194.601562 173.550781 C 191.839844 173.550781 189.582031 171.308594 189.582031 168.546875 L 189.582031 100.625 C 189.582031 97.863281 191.828125 95.621094 194.601562 95.621094 L 289.6875 95.621094 C 292.449219 95.621094 294.707031 97.863281 294.707031 100.625 L 294.707031 173.316406 C 294.71875 173.445312 294.613281 173.550781 294.472656 173.550781 Z M 194.613281 96.082031 C 192.105469 96.082031 190.066406 98.113281 190.066406 100.613281 L 190.066406 168.527344 C 190.066406 171.027344 192.105469 173.058594 194.613281 173.058594 L 294.234375 173.058594 L 294.234375 100.625 C 294.234375 98.121094 292.191406 96.09375 289.6875 96.09375 L 194.613281 96.09375 Z M 194.613281 96.082031 " fill-opacity="1" fill-rule="nonzero"></path>
  </g>
  <path fill="#ffffff" d="M 196.40625 169.984375 C 194.902344 169.984375 193.675781 168.761719 193.675781 167.257812 L 193.675781 101.902344 C 193.675781 100.398438 194.902344 99.175781 196.40625 99.175781 L 287.902344 99.175781 C 289.410156 99.175781 290.632812 100.398438 290.632812 101.902344 L 290.632812 166.882812 C 290.632812 168.589844 289.246094 169.976562 287.539062 169.976562 L 196.40625 169.976562 Z M 196.40625 169.984375 " fill-opacity="1" fill-rule="nonzero"></path>
  <path fill="#000000" d="M 287.539062 170.222656 L 196.417969 170.222656 C 194.785156 170.222656 193.449219 168.890625 193.449219 167.257812 L 193.449219 101.902344 C 193.449219 100.269531 194.785156 98.9375 196.417969 98.9375 L 287.914062 98.9375 C 289.546875 98.9375 290.882812 100.269531 290.882812 101.902344 L 290.882812 166.882812 C 290.871094 168.71875 289.375 170.222656 287.539062 170.222656 Z M 196.40625 99.410156 C 195.03125 99.410156 193.914062 100.527344 193.914062 101.902344 L 193.914062 167.25 C 193.914062 168.621094 195.03125 169.738281 196.40625 169.738281 L 287.527344 169.738281 C 289.109375 169.738281 290.386719 168.460938 290.386719 166.882812 L 290.386719 101.902344 C 290.386719 100.527344 289.269531 99.410156 287.894531 99.410156 Z M 196.40625 99.410156 " fill-opacity="1" fill-rule="nonzero"></path>
  <g clip-path="url(#8bfcb55ee1)">
    <path fill="#ffffff" d="M 286.808594 180.875 L 180.796875 180.875 C 176.5625 180.875 173.121094 177.4375 173.121094 173.207031 L 294.484375 173.207031 C 294.484375 177.4375 291.042969 180.875 286.808594 180.875 Z M 286.808594 180.875 " fill-opacity="1" fill-rule="nonzero"></path>
  </g>
  <g clip-path="url(#ceccf8cbbb)">
    <path fill="#000000" d="M 286.808594 181.109375 L 180.796875 181.109375 C 176.433594 181.109375 172.886719 177.566406 172.886719 173.207031 C 172.886719 173.078125 172.992188 172.972656 173.121094 172.972656 L 294.484375 172.972656 C 294.613281 172.972656 294.71875 173.078125 294.71875 173.207031 C 294.71875 177.566406 291.160156 181.109375 286.808594 181.109375 Z M 173.359375 173.445312 C 173.488281 177.425781 176.765625 180.636719 180.796875 180.636719 L 286.808594 180.636719 C 290.828125 180.636719 294.117188 177.4375 294.246094 173.445312 Z M 173.359375 173.445312 " fill-opacity="1" fill-rule="nonzero"></path>
  </g>
  <path fill="#ffffff" d="M 260.824219 113.144531 L 260.53125 149.210938 L 233.472656 149.253906 L 233.699219 120.605469 L 242.117188 120.507812 L 242.492188 113.175781 Z M 260.824219 113.144531 " fill-opacity="1" fill-rule="nonzero"></path>
  <path fill="#000000" d="M 233.472656 149.488281 C 233.410156 149.488281 233.355469 149.46875 233.300781 149.425781 C 233.257812 149.382812 233.238281 149.316406 233.238281 149.253906 L 233.464844 120.605469 C 233.464844 120.476562 233.570312 120.371094 233.699219 120.371094 L 241.890625 120.273438 L 242.257812 113.15625 C 242.269531 113.027344 242.363281 112.929688 242.492188 112.929688 L 260.824219 112.898438 C 260.886719 112.898438 260.941406 112.917969 260.996094 112.960938 C 261.039062 113.003906 261.058594 113.070312 261.058594 113.132812 L 260.769531 149.199219 C 260.769531 149.328125 260.664062 149.433594 260.53125 149.433594 Z M 233.9375 120.84375 L 233.710938 149.015625 L 260.296875 148.972656 L 260.585938 113.378906 L 242.71875 113.414062 L 242.355469 120.53125 C 242.34375 120.660156 242.246094 120.757812 242.117188 120.757812 Z M 233.9375 120.84375 " fill-opacity="1" fill-rule="nonzero"></path>
  <path fill="#ffffff" d="M 259.40625 111.222656 L 259.113281 147.289062 L 232.042969 147.332031 L 232.257812 120.605469 L 241.472656 120.59375 L 241.675781 111.242188 Z M 259.40625 111.222656 " fill-opacity="1" fill-rule="nonzero"></path>
  <path fill="#000000" d="M 232.042969 147.566406 C 231.980469 147.566406 231.925781 147.546875 231.871094 147.503906 C 231.828125 147.460938 231.808594 147.394531 231.808594 147.332031 L 232.023438 120.605469 C 232.023438 120.476562 232.128906 120.371094 232.257812 120.371094 L 241.234375 120.359375 L 241.441406 111.242188 C 241.441406 111.113281 241.546875 111.007812 241.675781 111.007812 L 259.394531 110.976562 C 259.457031 110.984375 259.523438 110.996094 259.566406 111.039062 C 259.609375 111.082031 259.628906 111.148438 259.628906 111.210938 L 259.339844 147.277344 C 259.339844 147.40625 259.230469 147.511719 259.101562 147.511719 Z M 232.496094 120.84375 L 232.28125 147.09375 L 258.867188 147.050781 L 259.15625 111.457031 L 241.902344 111.480469 L 241.699219 120.59375 C 241.699219 120.722656 241.589844 120.832031 241.460938 120.832031 Z M 232.496094 120.84375 " fill-opacity="1" fill-rule="nonzero"></path>
  <path fill="#ffffff" d="M 230.796875 118.542969 L 238.601562 110.75 L 257.921875 110.71875 L 257.640625 145.367188 L 230.582031 145.410156 Z M 230.796875 118.542969 " fill-opacity="1" fill-rule="nonzero"></path>
  <path fill="#000000" d="M 230.582031 145.644531 C 230.519531 145.644531 230.464844 145.625 230.410156 145.582031 C 230.367188 145.539062 230.347656 145.472656 230.347656 145.410156 L 230.5625 118.542969 C 230.5625 118.480469 230.582031 118.425781 230.625 118.382812 L 238.417969 110.589844 C 238.460938 110.546875 238.527344 110.523438 238.589844 110.523438 L 257.921875 110.492188 C 257.984375 110.492188 258.039062 110.511719 258.09375 110.554688 C 258.136719 110.597656 258.15625 110.664062 258.15625 110.726562 L 257.878906 145.375 C 257.878906 145.503906 257.769531 145.613281 257.640625 145.613281 Z M 231.035156 118.640625 L 230.820312 145.160156 L 257.40625 145.117188 L 257.683594 110.941406 L 238.699219 110.976562 Z M 231.035156 118.640625 " fill-opacity="1" fill-rule="nonzero"></path>
  <path fill="#000000" d="M 230.796875 118.78125 C 230.667969 118.78125 230.5625 118.671875 230.5625 118.542969 C 230.5625 118.414062 230.667969 118.308594 230.796875 118.308594 L 238.300781 118.296875 L 238.367188 110.75 C 238.367188 110.621094 238.472656 110.511719 238.601562 110.511719 C 238.730469 110.511719 238.839844 110.621094 238.839844 110.75 L 238.773438 118.535156 C 238.773438 118.664062 238.667969 118.769531 238.539062 118.769531 Z M 230.796875 118.78125 " fill-opacity="1" fill-rule="nonzero"></path>
  <path fill="#5479f7" d="M 228.488281 130.195312 L 228.636719 128.605469 C 228.710938 127.800781 229.433594 127.132812 230.25 127.132812 L 238.945312 127.132812 C 239.753906 127.132812 240.355469 127.789062 240.269531 128.605469 L 240.117188 130.195312 L 263.746094 130.195312 L 261.359375 154.910156 C 261.210938 156.4375 259.855469 157.671875 258.339844 157.671875 L 221.734375 157.671875 L 224.378906 130.207031 L 228.488281 130.207031 Z M 228.488281 130.195312 " fill-opacity="1" fill-rule="nonzero"></path>
  <path fill="#ffffff" d="M 221.746094 157.671875 L 220.378906 133.566406 L 224.066406 133.566406 Z M 221.746094 157.671875 " fill-opacity="1" fill-rule="nonzero"></path>
  <path fill="#000000" d="M 221.507812 157.679688 L 220.121094 133.328125 L 224.066406 133.328125 L 224.066406 133.800781 L 220.628906 133.800781 L 221.980469 157.660156 Z M 221.507812 157.679688 " fill-opacity="1" fill-rule="nonzero"></path>
  <path fill="#ffffff" d="M 62.996094 59.8125 L 60.738281 67.984375 L 75.109375 93.257812 L 98.332031 80.09375 L 80.992188 49.601562 Z M 62.996094 59.8125 " fill-opacity="1" fill-rule="nonzero"></path>
  <path fill="#000000" d="M 75.109375 93.503906 C 75.023438 93.503906 74.949219 93.460938 74.90625 93.386719 L 60.535156 68.101562 C 60.5 68.046875 60.492188 67.984375 60.511719 67.917969 L 62.769531 59.75 C 62.792969 59.683594 62.824219 59.640625 62.878906 59.609375 L 80.875 49.398438 C 80.925781 49.367188 80.992188 49.355469 81.054688 49.375 C 81.121094 49.398438 81.164062 49.429688 81.195312 49.484375 L 98.535156 79.976562 C 98.601562 80.09375 98.558594 80.234375 98.449219 80.300781 L 75.230469 93.460938 C 75.1875 93.496094 75.152344 93.503906 75.109375 93.503906 Z M 60.996094 67.953125 L 75.207031 92.9375 L 98.007812 80 L 80.90625 49.914062 L 63.199219 59.953125 Z M 60.996094 67.953125 " fill-opacity="1" fill-rule="nonzero"></path>
  <path fill="#000000" d="M 60.738281 68.21875 C 60.652344 68.21875 60.578125 68.175781 60.535156 68.101562 C 60.46875 67.984375 60.511719 67.84375 60.621094 67.78125 L 65.628906 64.933594 L 62.78125 59.929688 C 62.714844 59.8125 62.757812 59.671875 62.867188 59.609375 C 62.984375 59.542969 63.125 59.585938 63.1875 59.695312 L 66.15625 64.902344 C 66.1875 64.957031 66.199219 65.019531 66.175781 65.085938 C 66.15625 65.148438 66.125 65.191406 66.070312 65.222656 L 60.855469 68.1875 C 60.8125 68.210938 60.78125 68.21875 60.738281 68.21875 Z M 60.738281 68.21875 " fill-opacity="1" fill-rule="nonzero"></path>
  <path fill="#ffffff" d="M 105.554688 43.042969 L 100.480469 49.828125 L 104.640625 78.601562 L 131.066406 74.78125 L 126.046875 40.078125 Z M 105.554688 43.042969 " fill-opacity="1" fill-rule="nonzero"></path>
  <g clip-path="url(#fdd8d07b5a)">
    <path fill="#000000" d="M 104.640625 78.839844 C 104.523438 78.839844 104.425781 78.753906 104.40625 78.636719 L 100.234375 49.859375 C 100.222656 49.796875 100.246094 49.730469 100.277344 49.6875 L 105.363281 42.902344 C 105.394531 42.847656 105.460938 42.816406 105.511719 42.804688 L 126.003906 39.839844 C 126.066406 39.832031 126.132812 39.851562 126.175781 39.882812 C 126.230469 39.917969 126.261719 39.980469 126.273438 40.035156 L 131.292969 74.738281 C 131.3125 74.867188 131.21875 74.984375 131.089844 75.003906 L 104.664062 78.816406 C 104.664062 78.839844 104.652344 78.839844 104.640625 78.839844 Z M 100.730469 49.890625 L 104.847656 78.335938 L 130.796875 74.585938 L 125.84375 40.347656 L 105.683594 43.257812 Z M 100.730469 49.890625 " fill-opacity="1" fill-rule="nonzero"></path>
  </g>
  <path fill="#000000" d="M 100.480469 50.0625 C 100.363281 50.0625 100.265625 49.976562 100.246094 49.859375 C 100.222656 49.730469 100.320312 49.613281 100.449219 49.589844 L 106.15625 48.765625 L 105.332031 43.0625 C 105.308594 42.933594 105.40625 42.816406 105.535156 42.792969 C 105.664062 42.773438 105.78125 42.871094 105.804688 43 L 106.664062 48.925781 C 106.683594 49.054688 106.589844 49.171875 106.460938 49.195312 L 100.523438 50.050781 C 100.503906 50.0625 100.492188 50.0625 100.480469 50.0625 Z M 100.480469 50.0625 " fill-opacity="1" fill-rule="nonzero"></path>
  <path fill="#ffffff" d="M 147.828125 40.132812 L 141.355469 45.628906 L 139.023438 74.609375 L 165.640625 76.746094 L 168.457031 41.796875 Z M 147.828125 40.132812 " fill-opacity="1" fill-rule="nonzero"></path>
  <g clip-path="url(#4acc28e5bd)">
    <path fill="#000000" d="M 165.640625 76.980469 C 165.628906 76.980469 165.628906 76.980469 165.617188 76.980469 L 139 74.84375 C 138.9375 74.84375 138.882812 74.8125 138.839844 74.757812 C 138.796875 74.714844 138.773438 74.652344 138.785156 74.585938 L 141.117188 45.609375 C 141.117188 45.542969 141.152344 45.488281 141.203125 45.445312 L 147.664062 39.949219 C 147.707031 39.90625 147.773438 39.882812 147.835938 39.894531 L 168.46875 41.558594 C 168.597656 41.570312 168.691406 41.6875 168.683594 41.816406 L 165.867188 76.765625 C 165.867188 76.882812 165.757812 76.980469 165.640625 76.980469 Z M 139.28125 74.394531 L 165.425781 76.5 L 168.210938 42.019531 L 147.902344 40.378906 L 141.589844 45.746094 Z M 139.28125 74.394531 " fill-opacity="1" fill-rule="nonzero"></path>
  </g>
  <g clip-path="url(#065a451979)">
    <path fill="#000000" d="M 147.34375 46.347656 C 147.332031 46.347656 147.332031 46.347656 147.320312 46.347656 L 141.34375 45.863281 C 141.214844 45.855469 141.117188 45.738281 141.128906 45.609375 C 141.140625 45.480469 141.246094 45.382812 141.386719 45.394531 L 147.128906 45.855469 L 147.589844 40.121094 C 147.601562 39.992188 147.71875 39.894531 147.847656 39.90625 C 147.976562 39.917969 148.074219 40.035156 148.0625 40.164062 L 147.578125 46.132812 C 147.570312 46.25 147.460938 46.347656 147.34375 46.347656 Z M 147.34375 46.347656 " fill-opacity="1" fill-rule="nonzero"></path>
  </g>
  <path fill="#ffffff" d="M 194.878906 52.960938 L 186.515625 54.378906 L 169.660156 78.085938 L 191.429688 93.527344 L 211.757812 64.933594 Z M 194.878906 52.960938 " fill-opacity="1" fill-rule="nonzero"></path>
  <path fill="#000000" d="M 191.429688 93.761719 C 191.375 93.761719 191.332031 93.753906 191.289062 93.71875 L 169.519531 78.28125 C 169.46875 78.25 169.433594 78.183594 169.425781 78.128906 C 169.414062 78.066406 169.425781 78 169.46875 77.957031 L 186.324219 54.261719 C 186.355469 54.207031 186.421875 54.175781 186.472656 54.164062 L 194.835938 52.746094 C 194.902344 52.738281 194.964844 52.746094 195.011719 52.789062 L 211.886719 64.761719 C 211.996094 64.835938 212.015625 64.988281 211.941406 65.09375 L 191.613281 93.675781 C 191.582031 93.730469 191.515625 93.761719 191.460938 93.773438 C 191.453125 93.761719 191.441406 93.761719 191.429688 93.761719 Z M 169.992188 78.023438 L 191.375 93.195312 L 211.4375 64.988281 L 194.835938 53.210938 L 186.667969 54.59375 Z M 169.992188 78.023438 " fill-opacity="1" fill-rule="nonzero"></path>
  <path fill="#000000" d="M 191.410156 58.085938 C 191.367188 58.085938 191.3125 58.074219 191.269531 58.042969 L 186.378906 54.574219 C 186.269531 54.496094 186.25 54.347656 186.324219 54.238281 C 186.398438 54.132812 186.550781 54.109375 186.65625 54.1875 L 191.355469 57.515625 L 194.6875 52.824219 C 194.761719 52.714844 194.914062 52.695312 195.019531 52.769531 C 195.128906 52.84375 195.148438 52.996094 195.074219 53.101562 L 191.601562 57.988281 C 191.558594 58.050781 191.484375 58.085938 191.410156 58.085938 Z M 191.410156 58.085938 " fill-opacity="1" fill-rule="nonzero"></path>
  <path fill="#5479f7" d="M 87.570312 119.671875 C 87.515625 119.671875 87.453125 119.652344 87.410156 119.609375 C 87.3125 119.523438 87.3125 119.371094 87.398438 119.273438 C 87.945312 118.707031 88.507812 118.136719 89.074219 117.589844 C 89.171875 117.503906 89.324219 117.503906 89.410156 117.589844 C 89.496094 117.6875 89.496094 117.835938 89.410156 117.921875 C 88.851562 118.46875 88.292969 119.027344 87.742188 119.597656 C 87.699219 119.652344 87.636719 119.671875 87.570312 119.671875 Z M 183.605469 117.300781 C 183.550781 117.300781 183.484375 117.277344 183.441406 117.234375 C 182.871094 116.699219 182.28125 116.160156 181.699219 115.644531 C 181.605469 115.558594 181.59375 115.410156 181.679688 115.3125 C 181.765625 115.214844 181.914062 115.207031 182.011719 115.292969 C 182.605469 115.816406 183.195312 116.355469 183.765625 116.890625 C 183.863281 116.976562 183.863281 117.128906 183.777344 117.222656 C 183.734375 117.277344 183.667969 117.300781 183.605469 117.300781 Z M 90.96875 116.375 C 90.902344 116.375 90.839844 116.355469 90.796875 116.300781 C 90.710938 116.203125 90.71875 116.054688 90.816406 115.96875 C 91.410156 115.429688 92.011719 114.90625 92.601562 114.398438 C 92.699219 114.3125 92.847656 114.324219 92.933594 114.433594 C 93.019531 114.527344 93.011719 114.679688 92.902344 114.765625 C 92.3125 115.269531 91.710938 115.785156 91.128906 116.320312 C 91.085938 116.355469 91.023438 116.375 90.96875 116.375 Z M 180.054688 114.175781 C 180.003906 114.175781 179.949219 114.152344 179.90625 114.121094 C 179.292969 113.628906 178.667969 113.132812 178.054688 112.660156 C 177.949219 112.585938 177.925781 112.433594 178.011719 112.328125 C 178.089844 112.21875 178.238281 112.210938 178.347656 112.285156 C 178.96875 112.757812 179.59375 113.261719 180.207031 113.757812 C 180.304688 113.84375 180.324219 113.992188 180.238281 114.089844 C 180.183594 114.152344 180.121094 114.175781 180.054688 114.175781 Z M 94.589844 113.328125 C 94.515625 113.328125 94.449219 113.292969 94.40625 113.242188 C 94.320312 113.132812 94.34375 112.992188 94.449219 112.90625 C 95.074219 112.425781 95.707031 111.941406 96.34375 111.46875 C 96.449219 111.394531 96.601562 111.414062 96.675781 111.523438 C 96.75 111.628906 96.730469 111.78125 96.621094 111.855469 C 95.988281 112.316406 95.355469 112.800781 94.742188 113.285156 C 94.6875 113.304688 94.632812 113.328125 94.589844 113.328125 Z M 176.292969 111.308594 C 176.25 111.308594 176.195312 111.296875 176.152344 111.265625 C 175.519531 110.8125 174.863281 110.363281 174.207031 109.933594 C 174.101562 109.859375 174.066406 109.71875 174.144531 109.601562 C 174.21875 109.492188 174.359375 109.460938 174.476562 109.535156 C 175.132812 109.964844 175.800781 110.417969 176.433594 110.878906 C 176.539062 110.953125 176.5625 111.105469 176.488281 111.210938 C 176.433594 111.277344 176.359375 111.308594 176.292969 111.308594 Z M 98.40625 110.523438 C 98.332031 110.523438 98.257812 110.492188 98.214844 110.417969 C 98.136719 110.308594 98.171875 110.160156 98.277344 110.082031 C 98.933594 109.644531 99.601562 109.203125 100.265625 108.785156 C 100.375 108.71875 100.523438 108.753906 100.589844 108.859375 C 100.652344 108.96875 100.621094 109.117188 100.515625 109.183594 C 99.847656 109.601562 99.191406 110.03125 98.546875 110.46875 C 98.492188 110.511719 98.449219 110.523438 98.40625 110.523438 Z M 172.335938 108.699219 C 172.292969 108.699219 172.25 108.6875 172.21875 108.667969 C 171.550781 108.257812 170.863281 107.863281 170.1875 107.476562 C 170.070312 107.410156 170.035156 107.269531 170.101562 107.152344 C 170.164062 107.035156 170.304688 107.003906 170.421875 107.066406 C 171.113281 107.453125 171.800781 107.863281 172.476562 108.269531 C 172.585938 108.332031 172.628906 108.484375 172.550781 108.589844 C 172.488281 108.65625 172.414062 108.699219 172.335938 108.699219 Z M 102.40625 108 C 102.320312 108 102.246094 107.957031 102.203125 107.882812 C 102.136719 107.777344 102.167969 107.625 102.289062 107.5625 C 102.964844 107.164062 103.664062 106.777344 104.363281 106.402344 C 104.480469 106.335938 104.621094 106.378906 104.683594 106.496094 C 104.75 106.617188 104.707031 106.753906 104.589844 106.820312 C 103.902344 107.195312 103.203125 107.582031 102.535156 107.96875 C 102.492188 107.988281 102.449219 108 102.40625 108 Z M 168.210938 106.378906 C 168.175781 106.378906 168.132812 106.367188 168.101562 106.359375 C 167.402344 105.992188 166.695312 105.648438 165.984375 105.304688 C 165.867188 105.253906 165.8125 105.113281 165.875 104.996094 C 165.929688 104.875 166.070312 104.824219 166.1875 104.886719 C 166.898438 105.230469 167.617188 105.585938 168.316406 105.949219 C 168.433594 106.015625 168.476562 106.152344 168.414062 106.273438 C 168.382812 106.324219 168.296875 106.378906 168.210938 106.378906 Z M 106.578125 105.757812 C 106.492188 105.757812 106.40625 105.714844 106.363281 105.628906 C 106.308594 105.511719 106.351562 105.371094 106.46875 105.304688 C 107.179688 104.953125 107.898438 104.617188 108.621094 104.296875 C 108.738281 104.242188 108.878906 104.296875 108.933594 104.414062 C 108.984375 104.53125 108.933594 104.671875 108.8125 104.726562 C 108.105469 105.046875 107.382812 105.382812 106.683594 105.734375 C 106.640625 105.757812 106.609375 105.757812 106.578125 105.757812 Z M 163.929688 104.339844 C 163.898438 104.339844 163.867188 104.328125 163.832031 104.316406 C 163.113281 104.007812 162.382812 103.707031 161.652344 103.417969 C 161.53125 103.375 161.46875 103.234375 161.523438 103.105469 C 161.566406 102.988281 161.707031 102.921875 161.835938 102.976562 C 162.566406 103.265625 163.308594 103.566406 164.027344 103.878906 C 164.144531 103.929688 164.199219 104.070312 164.144531 104.1875 C 164.113281 104.285156 164.027344 104.339844 163.929688 104.339844 Z M 110.886719 103.8125 C 110.792969 103.8125 110.707031 103.757812 110.671875 103.664062 C 110.621094 103.546875 110.683594 103.40625 110.800781 103.351562 C 111.535156 103.050781 112.273438 102.761719 113.015625 102.492188 C 113.136719 102.449219 113.273438 102.515625 113.316406 102.632812 C 113.359375 102.75 113.296875 102.890625 113.179688 102.933594 C 112.445312 103.203125 111.707031 103.492188 110.984375 103.792969 C 110.953125 103.8125 110.921875 103.8125 110.886719 103.8125 Z M 159.523438 102.609375 C 159.5 102.609375 159.46875 102.609375 159.449219 102.601562 C 158.707031 102.34375 157.953125 102.085938 157.210938 101.847656 C 157.082031 101.804688 157.019531 101.675781 157.0625 101.546875 C 157.105469 101.417969 157.234375 101.355469 157.363281 101.398438 C 158.113281 101.632812 158.878906 101.890625 159.621094 102.148438 C 159.738281 102.191406 159.800781 102.332031 159.757812 102.449219 C 159.707031 102.546875 159.621094 102.609375 159.523438 102.609375 Z M 115.328125 102.171875 C 115.230469 102.171875 115.132812 102.105469 115.101562 102.007812 C 115.058594 101.878906 115.125 101.75 115.253906 101.707031 C 116.003906 101.460938 116.769531 101.226562 117.519531 101 C 117.648438 100.96875 117.777344 101.03125 117.8125 101.160156 C 117.84375 101.289062 117.777344 101.417969 117.648438 101.453125 C 116.898438 101.667969 116.144531 101.902344 115.402344 102.148438 C 115.371094 102.171875 115.351562 102.171875 115.328125 102.171875 Z M 154.996094 101.195312 C 154.976562 101.195312 154.953125 101.195312 154.933594 101.183594 C 154.179688 100.980469 153.40625 100.773438 152.644531 100.59375 C 152.511719 100.558594 152.4375 100.429688 152.46875 100.300781 C 152.503906 100.171875 152.632812 100.097656 152.761719 100.128906 C 153.523438 100.3125 154.296875 100.515625 155.0625 100.722656 C 155.191406 100.753906 155.265625 100.882812 155.222656 101.011719 C 155.203125 101.117188 155.105469 101.195312 154.996094 101.195312 Z M 119.863281 100.851562 C 119.757812 100.851562 119.660156 100.773438 119.640625 100.667969 C 119.605469 100.539062 119.683594 100.410156 119.8125 100.378906 C 120.574219 100.183594 121.347656 100 122.121094 99.828125 C 122.25 99.796875 122.378906 99.882812 122.402344 100.011719 C 122.433594 100.140625 122.347656 100.269531 122.21875 100.292969 C 121.457031 100.464844 120.683594 100.644531 119.929688 100.828125 C 119.90625 100.851562 119.886719 100.851562 119.863281 100.851562 Z M 150.386719 100.085938 C 150.375 100.085938 150.351562 100.085938 150.34375 100.085938 C 149.578125 99.9375 148.792969 99.785156 148.019531 99.65625 C 147.890625 99.636719 147.804688 99.519531 147.828125 99.390625 C 147.847656 99.261719 147.964844 99.175781 148.09375 99.195312 C 148.878906 99.324219 149.664062 99.476562 150.4375 99.625 C 150.566406 99.648438 150.652344 99.777344 150.621094 99.90625 C 150.601562 100.011719 150.503906 100.085938 150.386719 100.085938 Z M 124.488281 99.839844 C 124.378906 99.839844 124.273438 99.765625 124.25 99.648438 C 124.230469 99.519531 124.316406 99.402344 124.445312 99.367188 C 125.21875 99.230469 126.003906 99.101562 126.789062 98.980469 C 126.917969 98.960938 127.035156 99.058594 127.058594 99.1875 C 127.078125 99.316406 126.980469 99.433594 126.851562 99.453125 C 126.078125 99.574219 125.292969 99.691406 124.53125 99.828125 C 124.519531 99.839844 124.5 99.839844 124.488281 99.839844 Z M 145.707031 99.316406 C 145.699219 99.316406 145.6875 99.316406 145.675781 99.316406 C 144.902344 99.21875 144.105469 99.121094 143.332031 99.046875 C 143.203125 99.035156 143.105469 98.917969 143.117188 98.789062 C 143.128906 98.660156 143.246094 98.5625 143.375 98.574219 C 144.160156 98.648438 144.957031 98.734375 145.742188 98.84375 C 145.871094 98.863281 145.964844 98.980469 145.945312 99.109375 C 145.933594 99.230469 145.828125 99.316406 145.707031 99.316406 Z M 129.164062 99.152344 C 129.046875 99.152344 128.9375 99.066406 128.925781 98.9375 C 128.917969 98.808594 129.003906 98.691406 129.132812 98.679688 C 129.917969 98.59375 130.710938 98.519531 131.496094 98.457031 C 131.625 98.445312 131.742188 98.542969 131.753906 98.671875 C 131.765625 98.800781 131.667969 98.917969 131.539062 98.929688 C 130.753906 98.992188 129.96875 99.058594 129.183594 99.144531 C 129.183594 99.152344 129.175781 99.152344 129.164062 99.152344 Z M 140.988281 98.863281 C 140.988281 98.863281 140.980469 98.863281 140.980469 98.863281 C 140.195312 98.820312 139.398438 98.777344 138.625 98.757812 C 138.496094 98.757812 138.386719 98.648438 138.398438 98.507812 C 138.398438 98.378906 138.515625 98.273438 138.644531 98.285156 C 139.429688 98.304688 140.226562 98.335938 141.023438 98.390625 C 141.152344 98.402344 141.246094 98.507812 141.246094 98.636719 C 141.214844 98.765625 141.117188 98.863281 140.988281 98.863281 Z M 133.894531 98.800781 C 133.765625 98.800781 133.667969 98.703125 133.65625 98.574219 C 133.648438 98.445312 133.753906 98.335938 133.882812 98.328125 C 134.667969 98.292969 135.464844 98.273438 136.257812 98.273438 C 136.386719 98.273438 136.496094 98.378906 136.496094 98.507812 C 136.496094 98.636719 136.386719 98.746094 136.257812 98.746094 C 135.472656 98.746094 134.679688 98.765625 133.894531 98.800781 Z M 133.894531 98.800781 " fill-opacity="1" fill-rule="nonzero"></path>
  <path fill="#5479f7" d="M 180.5625 117.6875 C 180.433594 117.6875 180.324219 117.589844 180.324219 117.460938 C 180.324219 117.332031 180.421875 117.222656 180.550781 117.214844 L 183.636719 117.09375 L 183.519531 114.015625 C 183.519531 113.886719 183.613281 113.777344 183.742188 113.765625 C 183.742188 113.765625 183.753906 113.765625 183.753906 113.765625 C 183.882812 113.765625 183.992188 113.863281 183.992188 113.992188 L 184.121094 117.308594 C 184.121094 117.4375 184.023438 117.546875 183.894531 117.558594 Z M 180.5625 117.6875 " fill-opacity="1" fill-rule="nonzero"></path>
  <g clip-path="url(#2eeef0f5ea)">
    <path fill="#5479f7" d="M 134.9375 236.332031 C 134.613281 236.332031 134.292969 236.332031 133.96875 236.332031 C 133.839844 236.332031 133.734375 236.222656 133.734375 236.09375 C 133.734375 235.964844 133.839844 235.859375 133.96875 235.859375 C 134.753906 235.871094 135.550781 235.859375 136.335938 235.859375 C 136.464844 235.859375 136.570312 235.964844 136.570312 236.09375 C 136.570312 236.222656 136.464844 236.332031 136.335938 236.332031 C 135.871094 236.332031 135.410156 236.332031 134.9375 236.332031 Z M 131.605469 236.289062 C 130.808594 236.265625 130.011719 236.246094 129.226562 236.210938 C 129.097656 236.203125 128.992188 236.09375 129.003906 235.964844 C 129.011719 235.835938 129.121094 235.742188 129.25 235.742188 C 130.035156 235.773438 130.832031 235.804688 131.613281 235.816406 C 131.742188 235.816406 131.851562 235.921875 131.839844 236.0625 C 131.839844 236.191406 131.734375 236.289062 131.605469 236.289062 Z M 138.710938 236.277344 C 138.582031 236.277344 138.472656 236.179688 138.472656 236.050781 C 138.472656 235.921875 138.570312 235.816406 138.699219 235.804688 C 139.484375 235.785156 140.28125 235.75 141.066406 235.71875 C 141.195312 235.707031 141.300781 235.816406 141.3125 235.945312 C 141.324219 236.074219 141.214844 236.179688 141.085938 236.191406 C 140.300781 236.222656 139.503906 236.253906 138.710938 236.277344 Z M 126.875 236.085938 C 126.875 236.085938 126.863281 236.085938 126.863281 236.085938 C 126.066406 236.042969 125.273438 235.976562 124.488281 235.921875 C 124.359375 235.914062 124.261719 235.792969 124.273438 235.664062 C 124.285156 235.535156 124.390625 235.441406 124.53125 235.449219 C 125.304688 235.515625 126.101562 235.570312 126.894531 235.613281 C 127.023438 235.621094 127.121094 235.730469 127.121094 235.859375 C 127.101562 235.988281 127.003906 236.085938 126.875 236.085938 Z M 143.441406 236.0625 C 143.3125 236.0625 143.214844 235.964844 143.203125 235.835938 C 143.191406 235.707031 143.289062 235.589844 143.429688 235.589844 C 144.214844 235.535156 145 235.484375 145.785156 235.417969 C 145.914062 235.40625 146.03125 235.503906 146.042969 235.632812 C 146.050781 235.761719 145.957031 235.878906 145.828125 235.890625 C 145.042969 235.957031 144.246094 236.007812 143.460938 236.0625 C 143.449219 236.0625 143.441406 236.0625 143.441406 236.0625 Z M 122.132812 235.71875 C 122.121094 235.71875 122.121094 235.71875 122.113281 235.71875 C 121.316406 235.644531 120.519531 235.558594 119.746094 235.472656 C 119.617188 235.460938 119.519531 235.34375 119.542969 235.214844 C 119.5625 235.085938 119.683594 234.988281 119.800781 235.011719 C 120.574219 235.097656 121.371094 235.183594 122.15625 235.257812 C 122.285156 235.269531 122.378906 235.386719 122.371094 235.515625 C 122.359375 235.621094 122.261719 235.71875 122.132812 235.71875 Z M 148.160156 235.675781 C 148.042969 235.675781 147.933594 235.589844 147.921875 235.460938 C 147.914062 235.332031 148.007812 235.214844 148.136719 235.203125 C 148.921875 235.128906 149.707031 235.042969 150.492188 234.945312 C 150.621094 234.933594 150.738281 235.019531 150.75 235.148438 C 150.761719 235.277344 150.675781 235.398438 150.546875 235.40625 C 149.761719 235.503906 148.976562 235.589844 148.191406 235.664062 C 148.171875 235.675781 148.171875 235.675781 148.160156 235.675781 Z M 117.414062 235.171875 C 117.402344 235.171875 117.390625 235.171875 117.382812 235.171875 C 116.597656 235.0625 115.800781 234.957031 115.027344 234.839844 C 114.898438 234.816406 114.8125 234.699219 114.832031 234.570312 C 114.855469 234.441406 114.972656 234.355469 115.101562 234.375 C 115.875 234.496094 116.671875 234.601562 117.445312 234.710938 C 117.574219 234.730469 117.671875 234.847656 117.648438 234.976562 C 117.640625 235.085938 117.53125 235.171875 117.414062 235.171875 Z M 152.859375 235.117188 C 152.738281 235.117188 152.644531 235.03125 152.621094 234.914062 C 152.601562 234.785156 152.695312 234.667969 152.824219 234.644531 C 153.597656 234.539062 154.382812 234.429688 155.160156 234.300781 C 155.289062 234.28125 155.40625 234.367188 155.425781 234.496094 C 155.449219 234.625 155.363281 234.742188 155.234375 234.761719 C 154.460938 234.882812 153.664062 235 152.890625 235.105469 C 152.878906 235.117188 152.867188 235.117188 152.859375 235.117188 Z M 112.726562 234.460938 C 112.714844 234.460938 112.707031 234.460938 112.683594 234.460938 C 111.910156 234.332031 111.113281 234.183594 110.339844 234.042969 C 110.210938 234.023438 110.125 233.894531 110.148438 233.765625 C 110.167969 233.636719 110.296875 233.550781 110.425781 233.570312 C 111.199219 233.722656 111.984375 233.863281 112.757812 233.992188 C 112.886719 234.011719 112.972656 234.128906 112.953125 234.257812 C 112.941406 234.375 112.835938 234.460938 112.726562 234.460938 Z M 157.523438 234.398438 C 157.40625 234.398438 157.308594 234.3125 157.285156 234.203125 C 157.265625 234.074219 157.351562 233.957031 157.480469 233.9375 C 158.253906 233.796875 159.039062 233.65625 159.800781 233.507812 C 159.929688 233.484375 160.050781 233.570312 160.082031 233.691406 C 160.101562 233.820312 160.015625 233.949219 159.898438 233.96875 C 159.136719 234.117188 158.351562 234.257812 157.566406 234.398438 C 157.542969 234.386719 157.535156 234.398438 157.523438 234.398438 Z M 108.0625 233.570312 C 108.050781 233.570312 108.027344 233.570312 108.007812 233.570312 C 107.234375 233.410156 106.449219 233.238281 105.683594 233.066406 C 105.554688 233.035156 105.480469 232.90625 105.503906 232.789062 C 105.535156 232.660156 105.652344 232.582031 105.78125 232.605469 C 106.546875 232.777344 107.328125 232.949219 108.09375 233.109375 C 108.222656 233.132812 108.308594 233.261719 108.277344 233.390625 C 108.265625 233.496094 108.167969 233.570312 108.0625 233.570312 Z M 162.15625 233.507812 C 162.050781 233.507812 161.953125 233.433594 161.921875 233.324219 C 161.886719 233.195312 161.972656 233.066406 162.101562 233.046875 C 162.878906 232.882812 163.652344 232.710938 164.402344 232.539062 C 164.53125 232.507812 164.660156 232.59375 164.683594 232.722656 C 164.714844 232.851562 164.628906 232.980469 164.5 233.003906 C 163.738281 233.175781 162.964844 233.347656 162.1875 233.507812 C 162.199219 233.496094 162.179688 233.507812 162.15625 233.507812 Z M 103.425781 232.519531 C 103.40625 232.519531 103.382812 232.519531 103.375 232.507812 C 102.609375 232.316406 101.835938 232.121094 101.074219 231.917969 C 100.945312 231.886719 100.867188 231.757812 100.902344 231.628906 C 100.933594 231.5 101.0625 231.425781 101.191406 231.457031 C 101.953125 231.660156 102.71875 231.855469 103.480469 232.046875 C 103.609375 232.078125 103.6875 232.207031 103.652344 232.335938 C 103.632812 232.453125 103.535156 232.519531 103.425781 232.519531 Z M 166.769531 232.445312 C 166.660156 232.445312 166.5625 232.367188 166.542969 232.261719 C 166.511719 232.132812 166.585938 232.003906 166.714844 231.972656 C 167.476562 231.777344 168.242188 231.585938 168.992188 231.382812 C 169.121094 231.347656 169.25 231.425781 169.285156 231.554688 C 169.316406 231.683594 169.242188 231.8125 169.113281 231.84375 C 168.347656 232.046875 167.585938 232.25 166.824219 232.433594 C 166.800781 232.445312 166.789062 232.445312 166.769531 232.445312 Z M 98.847656 231.304688 C 98.828125 231.304688 98.804688 231.304688 98.785156 231.296875 C 98.019531 231.082031 97.257812 230.855469 96.503906 230.617188 C 96.375 230.574219 96.3125 230.445312 96.34375 230.316406 C 96.386719 230.1875 96.515625 230.125 96.644531 230.15625 C 97.386719 230.382812 98.148438 230.609375 98.914062 230.832031 C 99.042969 230.867188 99.105469 231.003906 99.074219 231.125 C 99.042969 231.230469 98.945312 231.304688 98.847656 231.304688 Z M 171.328125 231.21875 C 171.21875 231.21875 171.132812 231.15625 171.101562 231.046875 C 171.070312 230.917969 171.132812 230.789062 171.261719 230.757812 C 172.027344 230.542969 172.777344 230.316406 173.519531 230.082031 C 173.648438 230.039062 173.777344 230.113281 173.820312 230.242188 C 173.863281 230.371094 173.789062 230.5 173.660156 230.542969 C 172.917969 230.769531 172.15625 231.003906 171.390625 231.21875 C 171.371094 231.210938 171.347656 231.21875 171.328125 231.21875 Z M 94.3125 229.910156 C 94.289062 229.910156 94.257812 229.910156 94.234375 229.898438 C 93.484375 229.652344 92.730469 229.40625 91.976562 229.148438 C 91.847656 229.105469 91.785156 228.964844 91.828125 228.847656 C 91.871094 228.71875 92.011719 228.652344 92.128906 228.695312 C 92.871094 228.953125 93.625 229.210938 94.375 229.449219 C 94.503906 229.492188 94.570312 229.621094 94.527344 229.75 C 94.503906 229.855469 94.40625 229.910156 94.3125 229.910156 Z M 175.84375 229.824219 C 175.746094 229.824219 175.648438 229.761719 175.617188 229.664062 C 175.574219 229.535156 175.636719 229.40625 175.765625 229.363281 C 176.507812 229.117188 177.261719 228.867188 178.003906 228.609375 C 178.121094 228.566406 178.261719 228.632812 178.304688 228.761719 C 178.347656 228.878906 178.28125 229.019531 178.152344 229.0625 C 177.410156 229.320312 176.648438 229.578125 175.90625 229.824219 C 175.894531 229.824219 175.875 229.824219 175.84375 229.824219 Z M 89.828125 228.363281 C 89.796875 228.363281 89.773438 228.363281 89.742188 228.351562 C 88.988281 228.074219 88.25 227.796875 87.515625 227.515625 C 87.398438 227.472656 87.335938 227.332031 87.378906 227.203125 C 87.421875 227.085938 87.558594 227.023438 87.6875 227.066406 C 88.410156 227.34375 89.160156 227.625 89.902344 227.902344 C 90.023438 227.945312 90.085938 228.085938 90.042969 228.203125 C 90.011719 228.308594 89.925781 228.363281 89.828125 228.363281 Z M 180.3125 228.265625 C 180.21875 228.265625 180.132812 228.203125 180.089844 228.117188 C 180.046875 228 180.109375 227.859375 180.226562 227.816406 C 180.96875 227.539062 181.710938 227.257812 182.433594 226.980469 C 182.550781 226.9375 182.691406 226.988281 182.742188 227.117188 C 182.785156 227.238281 182.734375 227.375 182.605469 227.429688 C 181.882812 227.710938 181.132812 228 180.390625 228.265625 C 180.367188 228.265625 180.335938 228.265625 180.3125 228.265625 Z M 85.398438 226.65625 C 85.367188 226.65625 85.335938 226.644531 85.3125 226.636719 C 84.59375 226.335938 83.851562 226.035156 83.121094 225.722656 C 83 225.667969 82.949219 225.53125 82.992188 225.410156 C 83.042969 225.292969 83.183594 225.238281 83.304688 225.28125 C 84.035156 225.59375 84.765625 225.90625 85.484375 226.195312 C 85.601562 226.25 85.667969 226.378906 85.613281 226.507812 C 85.582031 226.59375 85.496094 226.65625 85.398438 226.65625 Z M 184.722656 226.550781 C 184.625 226.550781 184.539062 226.496094 184.507812 226.398438 C 184.453125 226.28125 184.515625 226.140625 184.636719 226.085938 C 185.355469 225.785156 186.085938 225.488281 186.808594 225.175781 C 186.925781 225.121094 187.066406 225.175781 187.117188 225.292969 C 187.171875 225.410156 187.117188 225.550781 187 225.605469 C 186.269531 225.914062 185.539062 226.226562 184.820312 226.527344 C 184.777344 226.550781 184.742188 226.550781 184.722656 226.550781 Z M 81.046875 224.777344 C 81.011719 224.777344 80.980469 224.765625 80.949219 224.757812 C 80.226562 224.433594 79.507812 224.101562 78.789062 223.757812 C 78.667969 223.703125 78.617188 223.566406 78.679688 223.445312 C 78.734375 223.328125 78.875 223.273438 78.992188 223.339844 C 79.703125 223.671875 80.421875 224.003906 81.140625 224.328125 C 81.261719 224.378906 81.3125 224.519531 81.261719 224.636719 C 81.226562 224.722656 81.132812 224.777344 81.046875 224.777344 Z M 189.066406 224.679688 C 188.980469 224.679688 188.894531 224.628906 188.851562 224.542969 C 188.796875 224.421875 188.851562 224.285156 188.96875 224.230469 C 189.6875 223.90625 190.410156 223.574219 191.105469 223.230469 C 191.226562 223.179688 191.367188 223.222656 191.417969 223.339844 C 191.472656 223.457031 191.429688 223.597656 191.3125 223.652344 C 190.601562 223.984375 189.882812 224.328125 189.160156 224.648438 C 189.128906 224.671875 189.097656 224.679688 189.066406 224.679688 Z M 76.765625 222.75 C 76.734375 222.75 76.691406 222.738281 76.660156 222.726562 C 75.949219 222.371094 75.238281 222.019531 74.542969 221.652344 C 74.421875 221.589844 74.378906 221.449219 74.445312 221.332031 C 74.507812 221.214844 74.648438 221.171875 74.765625 221.234375 C 75.457031 221.601562 76.164062 221.953125 76.875 222.308594 C 76.992188 222.363281 77.035156 222.511719 76.980469 222.628906 C 76.929688 222.707031 76.851562 222.75 76.765625 222.75 Z M 193.332031 222.640625 C 193.246094 222.640625 193.160156 222.597656 193.117188 222.511719 C 193.0625 222.394531 193.105469 222.253906 193.226562 222.191406 C 193.925781 221.847656 194.632812 221.480469 195.332031 221.117188 C 195.449219 221.050781 195.589844 221.105469 195.65625 221.214844 C 195.71875 221.332031 195.664062 221.472656 195.558594 221.535156 C 194.859375 221.898438 194.148438 222.265625 193.449219 222.609375 C 193.398438 222.640625 193.363281 222.640625 193.332031 222.640625 Z M 72.550781 220.570312 C 72.507812 220.570312 72.476562 220.558594 72.445312 220.535156 C 71.746094 220.160156 71.046875 219.773438 70.371094 219.386719 C 70.253906 219.324219 70.21875 219.183594 70.285156 219.066406 C 70.347656 218.949219 70.488281 218.914062 70.605469 218.980469 C 71.285156 219.367188 71.984375 219.753906 72.671875 220.128906 C 72.789062 220.191406 72.832031 220.332031 72.769531 220.449219 C 72.722656 220.527344 72.636719 220.570312 72.550781 220.570312 Z M 197.523438 220.460938 C 197.4375 220.460938 197.363281 220.417969 197.320312 220.34375 C 197.257812 220.226562 197.300781 220.085938 197.417969 220.019531 C 198.105469 219.644531 198.792969 219.257812 199.480469 218.871094 C 199.601562 218.808594 199.738281 218.851562 199.804688 218.957031 C 199.867188 219.078125 199.824219 219.214844 199.71875 219.28125 C 199.03125 219.667969 198.332031 220.0625 197.644531 220.429688 C 197.601562 220.449219 197.566406 220.460938 197.523438 220.460938 Z M 68.433594 218.238281 C 68.390625 218.238281 68.347656 218.226562 68.316406 218.207031 C 67.640625 217.808594 66.953125 217.390625 66.285156 216.984375 C 66.175781 216.917969 66.132812 216.769531 66.210938 216.660156 C 66.273438 216.554688 66.425781 216.511719 66.53125 216.585938 C 67.199219 216.992188 67.875 217.402344 68.554688 217.808594 C 68.660156 217.875 68.703125 218.023438 68.640625 218.132812 C 68.585938 218.195312 68.511719 218.238281 68.433594 218.238281 Z M 201.644531 218.121094 C 201.558594 218.121094 201.480469 218.078125 201.4375 218.003906 C 201.375 217.894531 201.40625 217.746094 201.523438 217.679688 C 202.191406 217.285156 202.878906 216.875 203.546875 216.457031 C 203.652344 216.390625 203.804688 216.425781 203.867188 216.53125 C 203.933594 216.640625 203.898438 216.789062 203.792969 216.855469 C 203.117188 217.273438 202.4375 217.679688 201.761719 218.078125 C 201.71875 218.109375 201.6875 218.121094 201.644531 218.121094 Z M 64.394531 215.757812 C 64.351562 215.757812 64.308594 215.746094 64.265625 215.726562 C 63.609375 215.308594 62.941406 214.867188 62.273438 214.425781 C 62.167969 214.351562 62.136719 214.210938 62.210938 214.09375 C 62.285156 213.988281 62.425781 213.953125 62.542969 214.03125 C 63.199219 214.46875 63.867188 214.898438 64.523438 215.320312 C 64.628906 215.394531 64.660156 215.53125 64.597656 215.640625 C 64.542969 215.714844 64.46875 215.757812 64.394531 215.757812 Z M 205.664062 215.640625 C 205.589844 215.640625 205.511719 215.597656 205.460938 215.53125 C 205.382812 215.425781 205.417969 215.277344 205.535156 215.210938 C 206.199219 214.78125 206.855469 214.351562 207.511719 213.921875 C 207.621094 213.847656 207.769531 213.878906 207.84375 213.988281 C 207.921875 214.09375 207.890625 214.246094 207.78125 214.320312 C 207.125 214.761719 206.457031 215.191406 205.804688 215.617188 C 205.761719 215.628906 205.707031 215.640625 205.664062 215.640625 Z M 60.449219 213.128906 C 60.40625 213.128906 60.351562 213.117188 60.308594 213.085938 C 59.652344 212.632812 59.007812 212.171875 58.371094 211.722656 C 58.265625 211.644531 58.242188 211.496094 58.320312 211.386719 C 58.394531 211.28125 58.542969 211.261719 58.652344 211.335938 C 59.285156 211.785156 59.933594 212.246094 60.585938 212.699219 C 60.695312 212.773438 60.726562 212.925781 60.652344 213.03125 C 60.597656 213.097656 60.523438 213.128906 60.449219 213.128906 Z M 209.597656 213.011719 C 209.523438 213.011719 209.449219 212.976562 209.40625 212.914062 C 209.328125 212.804688 209.363281 212.65625 209.46875 212.582031 C 210.113281 212.128906 210.757812 211.667969 211.394531 211.21875 C 211.5 211.140625 211.652344 211.164062 211.726562 211.269531 C 211.800781 211.378906 211.78125 211.527344 211.671875 211.601562 C 211.039062 212.066406 210.382812 212.527344 209.738281 212.976562 C 209.695312 213 209.652344 213.011719 209.597656 213.011719 Z M 56.597656 210.367188 C 56.546875 210.367188 56.503906 210.359375 56.460938 210.324219 C 55.835938 209.851562 55.191406 209.371094 54.566406 208.886719 C 54.460938 208.8125 54.449219 208.660156 54.523438 208.554688 C 54.597656 208.445312 54.75 208.4375 54.859375 208.511719 C 55.480469 208.996094 56.117188 209.476562 56.738281 209.9375 C 56.847656 210.015625 56.867188 210.164062 56.78125 210.273438 C 56.75 210.335938 56.675781 210.367188 56.597656 210.367188 Z M 213.4375 210.238281 C 213.359375 210.238281 213.296875 210.207031 213.242188 210.144531 C 213.167969 210.035156 213.1875 209.886719 213.285156 209.808594 C 213.917969 209.335938 214.542969 208.855469 215.167969 208.382812 C 215.273438 208.296875 215.414062 208.316406 215.5 208.425781 C 215.574219 208.53125 215.5625 208.671875 215.457031 208.757812 C 214.84375 209.242188 214.210938 209.722656 213.574219 210.195312 C 213.542969 210.230469 213.488281 210.238281 213.4375 210.238281 Z M 52.859375 207.46875 C 52.804688 207.46875 52.75 207.449219 52.707031 207.414062 C 52.09375 206.921875 51.472656 206.417969 50.867188 205.914062 C 50.773438 205.828125 50.75 205.675781 50.835938 205.578125 C 50.921875 205.484375 51.074219 205.460938 51.171875 205.546875 C 51.773438 206.050781 52.386719 206.558594 52.996094 207.039062 C 53.09375 207.125 53.117188 207.277344 53.03125 207.371094 C 52.996094 207.4375 52.933594 207.46875 52.859375 207.46875 Z M 217.175781 207.339844 C 217.113281 207.339844 217.039062 207.308594 216.996094 207.253906 C 216.910156 207.15625 216.929688 207.007812 217.027344 206.921875 C 217.628906 206.4375 218.242188 205.933594 218.855469 205.417969 C 218.949219 205.332031 219.101562 205.34375 219.1875 205.449219 C 219.273438 205.546875 219.261719 205.699219 219.15625 205.785156 C 218.542969 206.300781 217.929688 206.804688 217.328125 207.285156 C 217.285156 207.320312 217.230469 207.339844 217.175781 207.339844 Z M 49.222656 204.429688 C 49.171875 204.429688 49.117188 204.410156 49.074219 204.378906 C 48.484375 203.863281 47.878906 203.335938 47.289062 202.808594 C 47.191406 202.722656 47.183594 202.574219 47.269531 202.476562 C 47.355469 202.378906 47.503906 202.371094 47.601562 202.457031 C 48.191406 202.980469 48.785156 203.507812 49.375 204.011719 C 49.472656 204.097656 49.480469 204.25 49.394531 204.34375 C 49.351562 204.410156 49.289062 204.429688 49.222656 204.429688 Z M 220.8125 204.300781 C 220.746094 204.300781 220.679688 204.269531 220.628906 204.214844 C 220.542969 204.121094 220.550781 203.96875 220.648438 203.882812 C 221.242188 203.367188 221.832031 202.84375 222.421875 202.316406 C 222.519531 202.230469 222.671875 202.242188 222.757812 202.335938 C 222.84375 202.433594 222.832031 202.585938 222.734375 202.671875 C 222.15625 203.195312 221.550781 203.722656 220.960938 204.238281 C 220.917969 204.28125 220.863281 204.300781 220.8125 204.300781 Z M 45.699219 201.273438 C 45.644531 201.273438 45.578125 201.253906 45.535156 201.210938 C 44.957031 200.671875 44.386719 200.125 43.816406 199.578125 C 43.71875 199.492188 43.71875 199.339844 43.804688 199.246094 C 43.890625 199.148438 44.042969 199.148438 44.140625 199.234375 C 44.710938 199.78125 45.277344 200.328125 45.859375 200.855469 C 45.957031 200.941406 45.957031 201.089844 45.871094 201.1875 C 45.828125 201.242188 45.761719 201.273438 45.699219 201.273438 Z M 224.324219 201.132812 C 224.261719 201.132812 224.195312 201.113281 224.152344 201.058594 C 224.066406 200.960938 224.066406 200.8125 224.164062 200.726562 C 224.734375 200.199219 225.316406 199.652344 225.875 199.09375 C 225.972656 199.007812 226.121094 199.007812 226.207031 199.105469 C 226.292969 199.203125 226.292969 199.351562 226.195312 199.4375 C 225.625 199.984375 225.046875 200.535156 224.476562 201.070312 C 224.445312 201.113281 224.378906 201.132812 224.324219 201.132812 Z M 227.722656 197.847656 C 227.660156 197.847656 227.605469 197.828125 227.550781 197.785156 C 227.453125 197.6875 227.453125 197.539062 227.550781 197.453125 C 228.109375 196.894531 228.660156 196.324219 229.207031 195.765625 C 229.292969 195.667969 229.441406 195.667969 229.539062 195.753906 C 229.636719 195.839844 229.636719 195.992188 229.550781 196.089844 C 229.003906 196.65625 228.441406 197.226562 227.894531 197.785156 C 227.851562 197.828125 227.789062 197.847656 227.722656 197.847656 Z M 227.722656 197.847656 " fill-opacity="1" fill-rule="nonzero"></path>
  </g>
  <path fill="#5479f7" d="M 43.945312 205.957031 C 43.816406 205.957031 43.710938 205.859375 43.710938 205.730469 L 43.460938 199.351562 C 43.460938 199.222656 43.558594 199.117188 43.6875 199.105469 L 50.074219 198.859375 C 50.191406 198.847656 50.308594 198.953125 50.320312 199.082031 C 50.320312 199.210938 50.222656 199.320312 50.09375 199.332031 L 43.945312 199.566406 L 44.183594 205.707031 C 44.191406 205.835938 44.085938 205.945312 43.945312 205.957031 C 43.957031 205.957031 43.957031 205.957031 43.945312 205.957031 Z M 43.945312 205.957031 " fill-opacity="1" fill-rule="nonzero"></path>
</svg>
