<svg xmlns="http://www.w3.org/2000/svg" xmlns:xlink="http://www.w3.org/1999/xlink" width="400" viewBox="0 0 300 299.999988" height="400" preserveAspectRatio="xMidYMid meet"><defs><clipPath id="4c00a5cc33"><path d="M 48 20.160156 L 251 20.160156 L 251 42 L 48 42 Z M 48 20.160156 " clip-rule="nonzero"></path></clipPath><clipPath id="436f1d5add"><path d="M 48 41 L 251 41 L 251 244 L 48 244 Z M 48 41 " clip-rule="nonzero"></path></clipPath><clipPath id="64db844250"><path d="M 48.929688 41.839844 L 250.402344 41.839844 L 250.402344 224.347656 C 250.402344 226.820312 249.917969 229.269531 248.96875 231.554688 C 248.019531 233.839844 246.636719 235.917969 244.882812 237.667969 C 243.132812 239.414062 241.054688 240.804688 238.769531 241.75 C 236.480469 242.695312 234.03125 243.183594 231.554688 243.183594 L 67.78125 243.183594 C 65.304688 243.183594 62.855469 242.695312 60.566406 241.75 C 58.28125 240.804688 56.203125 239.414062 54.453125 237.667969 C 52.703125 235.917969 51.3125 233.839844 50.367188 231.554688 C 49.417969 229.269531 48.929688 226.820312 48.929688 224.347656 Z M 48.929688 41.839844 " clip-rule="nonzero"></path></clipPath><linearGradient x1="2460.587598" gradientTransform="matrix(0.0661905, 0, 0, 0.0661483, 0.0458187, 20.158539)" y1="50.043209" x2="3016.201647" gradientUnits="userSpaceOnUse" y2="3495.165884" id="ee0201769f"><stop stop-opacity="1" stop-color="rgb(85.400391%, 90.440369%, 100%)" offset="0"></stop><stop stop-opacity="1" stop-color="rgb(85.289001%, 90.367126%, 100%)" offset="0.015625"></stop><stop stop-opacity="1" stop-color="rgb(85.066223%, 90.220642%, 100%)" offset="0.03125"></stop><stop stop-opacity="1" stop-color="rgb(84.841919%, 90.075684%, 100%)" offset="0.046875"></stop><stop stop-opacity="1" stop-color="rgb(84.619141%, 89.929199%, 100%)" offset="0.0625"></stop><stop stop-opacity="1" stop-color="rgb(84.394836%, 89.782715%, 100%)" offset="0.078125"></stop><stop stop-opacity="1" stop-color="rgb(84.172058%, 89.63623%, 100%)" offset="0.09375"></stop><stop stop-opacity="1" stop-color="rgb(83.947754%, 89.489746%, 100%)" offset="0.109375"></stop><stop stop-opacity="1" stop-color="rgb(83.724976%, 89.343262%, 100%)" offset="0.125"></stop><stop stop-opacity="1" stop-color="rgb(83.500671%, 89.196777%, 100%)" offset="0.138877"></stop><stop stop-opacity="1" stop-color="rgb(83.389282%, 89.123535%, 100%)" offset="0.140625"></stop><stop stop-opacity="1" stop-color="rgb(83.277893%, 89.050293%, 100%)" offset="0.15625"></stop><stop stop-opacity="1" stop-color="rgb(83.055115%, 88.903809%, 100%)" offset="0.171875"></stop><stop stop-opacity="1" stop-color="rgb(82.830811%, 88.75885%, 100%)" offset="0.1875"></stop><stop stop-opacity="1" stop-color="rgb(82.608032%, 88.612366%, 100%)" offset="0.203125"></stop><stop stop-opacity="1" stop-color="rgb(82.383728%, 88.465881%, 100%)" offset="0.21875"></stop><stop stop-opacity="1" stop-color="rgb(82.16095%, 88.319397%, 100%)" offset="0.234375"></stop><stop stop-opacity="1" stop-color="rgb(81.936646%, 88.172913%, 100%)" offset="0.25"></stop><stop stop-opacity="1" stop-color="rgb(81.713867%, 88.026428%, 100%)" offset="0.265625"></stop><stop stop-opacity="1" stop-color="rgb(81.489563%, 87.879944%, 100%)" offset="0.28125"></stop><stop stop-opacity="1" stop-color="rgb(81.266785%, 87.733459%, 100%)" offset="0.296875"></stop><stop stop-opacity="1" stop-color="rgb(81.04248%, 87.586975%, 100%)" offset="0.3125"></stop><stop stop-opacity="1" stop-color="rgb(80.819702%, 87.442017%, 100%)" offset="0.328125"></stop><stop stop-opacity="1" stop-color="rgb(80.596924%, 87.295532%, 100%)" offset="0.34375"></stop><stop stop-opacity="1" stop-color="rgb(80.37262%, 87.149048%, 100%)" offset="0.359375"></stop><stop stop-opacity="1" stop-color="rgb(80.149841%, 87.002563%, 100%)" offset="0.375"></stop><stop stop-opacity="1" stop-color="rgb(79.925537%, 86.856079%, 100%)" offset="0.390625"></stop><stop stop-opacity="1" stop-color="rgb(79.702759%, 86.709595%, 100%)" offset="0.40625"></stop><stop stop-opacity="1" stop-color="rgb(79.478455%, 86.56311%, 100%)" offset="0.421875"></stop><stop stop-opacity="1" stop-color="rgb(79.255676%, 86.416626%, 100%)" offset="0.4375"></stop><stop stop-opacity="1" stop-color="rgb(79.031372%, 86.270142%, 100%)" offset="0.453125"></stop><stop stop-opacity="1" stop-color="rgb(78.808594%, 86.125183%, 100%)" offset="0.46875"></stop><stop stop-opacity="1" stop-color="rgb(78.58429%, 85.978699%, 100%)" offset="0.484375"></stop><stop stop-opacity="1" stop-color="rgb(78.361511%, 85.832214%, 100%)" offset="0.5"></stop><stop stop-opacity="1" stop-color="rgb(78.138733%, 85.68573%, 100%)" offset="0.515625"></stop><stop stop-opacity="1" stop-color="rgb(77.914429%, 85.539246%, 100%)" offset="0.53125"></stop><stop stop-opacity="1" stop-color="rgb(77.69165%, 85.392761%, 100%)" offset="0.546875"></stop><stop stop-opacity="1" stop-color="rgb(77.467346%, 85.246277%, 100%)" offset="0.5625"></stop><stop stop-opacity="1" stop-color="rgb(77.244568%, 85.099792%, 100%)" offset="0.578125"></stop><stop stop-opacity="1" stop-color="rgb(77.020264%, 84.953308%, 100%)" offset="0.59375"></stop><stop stop-opacity="1" stop-color="rgb(76.797485%, 84.80835%, 100%)" offset="0.609375"></stop><stop stop-opacity="1" stop-color="rgb(76.573181%, 84.661865%, 100%)" offset="0.625"></stop><stop stop-opacity="1" stop-color="rgb(76.350403%, 84.515381%, 100%)" offset="0.640625"></stop><stop stop-opacity="1" stop-color="rgb(76.127625%, 84.368896%, 100%)" offset="0.65625"></stop><stop stop-opacity="1" stop-color="rgb(75.90332%, 84.222412%, 100%)" offset="0.671875"></stop><stop stop-opacity="1" stop-color="rgb(75.680542%, 84.075928%, 100%)" offset="0.6875"></stop><stop stop-opacity="1" stop-color="rgb(75.456238%, 83.929443%, 100%)" offset="0.703125"></stop><stop stop-opacity="1" stop-color="rgb(75.233459%, 83.782959%, 100%)" offset="0.71875"></stop><stop stop-opacity="1" stop-color="rgb(75.009155%, 83.636475%, 100%)" offset="0.734375"></stop><stop stop-opacity="1" stop-color="rgb(74.786377%, 83.491516%, 100%)" offset="0.75"></stop><stop stop-opacity="1" stop-color="rgb(74.562073%, 83.345032%, 100%)" offset="0.765625"></stop><stop stop-opacity="1" stop-color="rgb(74.339294%, 83.198547%, 100%)" offset="0.78125"></stop><stop stop-opacity="1" stop-color="rgb(74.11499%, 83.052063%, 100%)" offset="0.796875"></stop><stop stop-opacity="1" stop-color="rgb(73.892212%, 82.905579%, 100%)" offset="0.8125"></stop><stop stop-opacity="1" stop-color="rgb(73.669434%, 82.759094%, 100%)" offset="0.828125"></stop><stop stop-opacity="1" stop-color="rgb(73.445129%, 82.61261%, 100%)" offset="0.84375"></stop><stop stop-opacity="1" stop-color="rgb(73.222351%, 82.466125%, 100%)" offset="0.859375"></stop><stop stop-opacity="1" stop-color="rgb(72.998047%, 82.319641%, 100%)" offset="0.861123"></stop><stop stop-opacity="1" stop-color="rgb(72.886658%, 82.247925%, 100%)" offset="0.875"></stop><stop stop-opacity="1" stop-color="rgb(72.775269%, 82.174683%, 100%)" offset="0.890625"></stop><stop stop-opacity="1" stop-color="rgb(72.550964%, 82.028198%, 100%)" offset="0.90625"></stop><stop stop-opacity="1" stop-color="rgb(72.328186%, 81.881714%, 100%)" offset="0.921875"></stop><stop stop-opacity="1" stop-color="rgb(72.103882%, 81.735229%, 100%)" offset="0.9375"></stop><stop stop-opacity="1" stop-color="rgb(71.881104%, 81.588745%, 100%)" offset="0.953125"></stop><stop stop-opacity="1" stop-color="rgb(71.658325%, 81.442261%, 100%)" offset="0.96875"></stop><stop stop-opacity="1" stop-color="rgb(71.434021%, 81.295776%, 100%)" offset="0.984375"></stop><stop stop-opacity="1" stop-color="rgb(71.211243%, 81.149292%, 100%)" offset="1"></stop></linearGradient><clipPath id="f49ffbbe5c"><path d="M 144 160 L 217 160 L 217 209 L 144 209 Z M 144 160 " clip-rule="nonzero"></path></clipPath><clipPath id="5ef190a0b2"><path d="M 207.183594 208.222656 L 153.703125 208.222656 C 152.671875 208.222656 151.671875 207.847656 150.894531 207.160156 C 150.121094 206.476562 149.621094 205.535156 149.492188 204.507812 L 144.558594 165.140625 C 144.480469 164.542969 144.535156 163.9375 144.710938 163.363281 C 144.890625 162.785156 145.1875 162.257812 145.585938 161.804688 C 145.984375 161.355469 146.472656 160.992188 147.023438 160.746094 C 147.570312 160.5 148.167969 160.371094 148.769531 160.371094 L 212.117188 160.371094 C 212.71875 160.371094 213.3125 160.5 213.863281 160.746094 C 214.410156 160.992188 214.902344 161.355469 215.300781 161.804688 C 215.699219 162.257812 215.996094 162.785156 216.171875 163.363281 C 216.351562 163.9375 216.402344 164.542969 216.328125 165.140625 L 211.394531 204.507812 C 211.265625 205.535156 210.765625 206.476562 209.992188 207.160156 C 209.214844 207.847656 208.214844 208.222656 207.183594 208.222656 Z M 207.183594 208.222656 " clip-rule="nonzero"></path></clipPath><linearGradient x1="2695.840303" gradientTransform="matrix(0.0661905, 0, 0, 0.0661483, 0.0458187, 20.158539)" y1="2082.523338" x2="2753.496991" gradientUnits="userSpaceOnUse" y2="2880.305812" id="93d60e639e"><stop stop-opacity="1" stop-color="rgb(100%, 100%, 100%)" offset="0"></stop><stop stop-opacity="1" stop-color="rgb(100%, 100%, 100%)" offset="0.03125"></stop><stop stop-opacity="1" stop-color="rgb(99.972534%, 99.981689%, 100%)" offset="0.046875"></stop><stop stop-opacity="1" stop-color="rgb(99.775696%, 99.85199%, 100%)" offset="0.0625"></stop><stop stop-opacity="1" stop-color="rgb(99.436951%, 99.630737%, 100%)" offset="0.078125"></stop><stop stop-opacity="1" stop-color="rgb(99.09668%, 99.407959%, 100%)" offset="0.09375"></stop><stop stop-opacity="1" stop-color="rgb(98.757935%, 99.186707%, 100%)" offset="0.0979228"></stop><stop stop-opacity="1" stop-color="rgb(98.588562%, 99.075317%, 100%)" offset="0.109375"></stop><stop stop-opacity="1" stop-color="rgb(98.419189%, 98.963928%, 100%)" offset="0.125"></stop><stop stop-opacity="1" stop-color="rgb(98.080444%, 98.742676%, 100%)" offset="0.140625"></stop><stop stop-opacity="1" stop-color="rgb(97.740173%, 98.519897%, 100%)" offset="0.15625"></stop><stop stop-opacity="1" stop-color="rgb(97.401428%, 98.298645%, 100%)" offset="0.171875"></stop><stop stop-opacity="1" stop-color="rgb(97.062683%, 98.075867%, 100%)" offset="0.1875"></stop><stop stop-opacity="1" stop-color="rgb(96.723938%, 97.854614%, 100%)" offset="0.203125"></stop><stop stop-opacity="1" stop-color="rgb(96.383667%, 97.631836%, 100%)" offset="0.21875"></stop><stop stop-opacity="1" stop-color="rgb(96.044922%, 97.410583%, 100%)" offset="0.234375"></stop><stop stop-opacity="1" stop-color="rgb(95.706177%, 97.187805%, 100%)" offset="0.25"></stop><stop stop-opacity="1" stop-color="rgb(95.367432%, 96.966553%, 100%)" offset="0.265625"></stop><stop stop-opacity="1" stop-color="rgb(95.027161%, 96.743774%, 100%)" offset="0.28125"></stop><stop stop-opacity="1" stop-color="rgb(94.688416%, 96.522522%, 100%)" offset="0.296875"></stop><stop stop-opacity="1" stop-color="rgb(94.34967%, 96.299744%, 100%)" offset="0.3125"></stop><stop stop-opacity="1" stop-color="rgb(94.010925%, 96.076965%, 100%)" offset="0.328125"></stop><stop stop-opacity="1" stop-color="rgb(93.670654%, 95.855713%, 100%)" offset="0.34375"></stop><stop stop-opacity="1" stop-color="rgb(93.331909%, 95.632935%, 100%)" offset="0.359375"></stop><stop stop-opacity="1" stop-color="rgb(92.993164%, 95.411682%, 100%)" offset="0.375"></stop><stop stop-opacity="1" stop-color="rgb(92.654419%, 95.188904%, 100%)" offset="0.390625"></stop><stop stop-opacity="1" stop-color="rgb(92.314148%, 94.967651%, 100%)" offset="0.40625"></stop><stop stop-opacity="1" stop-color="rgb(91.975403%, 94.744873%, 100%)" offset="0.421875"></stop><stop stop-opacity="1" stop-color="rgb(91.636658%, 94.523621%, 100%)" offset="0.4375"></stop><stop stop-opacity="1" stop-color="rgb(91.297913%, 94.300842%, 100%)" offset="0.453125"></stop><stop stop-opacity="1" stop-color="rgb(90.957642%, 94.07959%, 100%)" offset="0.46875"></stop><stop stop-opacity="1" stop-color="rgb(90.618896%, 93.856812%, 100%)" offset="0.484375"></stop><stop stop-opacity="1" stop-color="rgb(90.280151%, 93.635559%, 100%)" offset="0.5"></stop><stop stop-opacity="1" stop-color="rgb(89.941406%, 93.412781%, 100%)" offset="0.515625"></stop><stop stop-opacity="1" stop-color="rgb(89.601135%, 93.191528%, 100%)" offset="0.53125"></stop><stop stop-opacity="1" stop-color="rgb(89.26239%, 92.96875%, 100%)" offset="0.546875"></stop><stop stop-opacity="1" stop-color="rgb(88.923645%, 92.747498%, 100%)" offset="0.5625"></stop><stop stop-opacity="1" stop-color="rgb(88.5849%, 92.524719%, 100%)" offset="0.578125"></stop><stop stop-opacity="1" stop-color="rgb(88.244629%, 92.303467%, 100%)" offset="0.59375"></stop><stop stop-opacity="1" stop-color="rgb(87.905884%, 92.080688%, 100%)" offset="0.609375"></stop><stop stop-opacity="1" stop-color="rgb(87.567139%, 91.859436%, 100%)" offset="0.625"></stop><stop stop-opacity="1" stop-color="rgb(87.228394%, 91.636658%, 100%)" offset="0.640625"></stop><stop stop-opacity="1" stop-color="rgb(86.888123%, 91.413879%, 100%)" offset="0.65625"></stop><stop stop-opacity="1" stop-color="rgb(86.549377%, 91.192627%, 100%)" offset="0.671875"></stop><stop stop-opacity="1" stop-color="rgb(86.210632%, 90.969849%, 100%)" offset="0.6875"></stop><stop stop-opacity="1" stop-color="rgb(85.871887%, 90.748596%, 100%)" offset="0.703125"></stop><stop stop-opacity="1" stop-color="rgb(85.531616%, 90.525818%, 100%)" offset="0.71875"></stop><stop stop-opacity="1" stop-color="rgb(85.192871%, 90.304565%, 100%)" offset="0.734375"></stop><stop stop-opacity="1" stop-color="rgb(84.854126%, 90.081787%, 100%)" offset="0.75"></stop><stop stop-opacity="1" stop-color="rgb(84.513855%, 89.860535%, 100%)" offset="0.765625"></stop><stop stop-opacity="1" stop-color="rgb(84.17511%, 89.637756%, 100%)" offset="0.78125"></stop><stop stop-opacity="1" stop-color="rgb(83.836365%, 89.416504%, 100%)" offset="0.796875"></stop><stop stop-opacity="1" stop-color="rgb(83.49762%, 89.193726%, 100%)" offset="0.8125"></stop><stop stop-opacity="1" stop-color="rgb(83.157349%, 88.972473%, 100%)" offset="0.828125"></stop><stop stop-opacity="1" stop-color="rgb(82.818604%, 88.749695%, 100%)" offset="0.84375"></stop><stop stop-opacity="1" stop-color="rgb(82.479858%, 88.528442%, 100%)" offset="0.859375"></stop><stop stop-opacity="1" stop-color="rgb(82.141113%, 88.305664%, 100%)" offset="0.875"></stop><stop stop-opacity="1" stop-color="rgb(81.800842%, 88.084412%, 100%)" offset="0.890625"></stop><stop stop-opacity="1" stop-color="rgb(81.462097%, 87.861633%, 100%)" offset="0.902077"></stop><stop stop-opacity="1" stop-color="rgb(81.292725%, 87.75177%, 100%)" offset="0.90625"></stop><stop stop-opacity="1" stop-color="rgb(81.123352%, 87.640381%, 100%)" offset="0.921875"></stop><stop stop-opacity="1" stop-color="rgb(80.784607%, 87.417603%, 100%)" offset="0.9375"></stop><stop stop-opacity="1" stop-color="rgb(80.444336%, 87.19635%, 100%)" offset="0.953125"></stop><stop stop-opacity="1" stop-color="rgb(80.105591%, 86.973572%, 100%)" offset="0.96875"></stop><stop stop-opacity="1" stop-color="rgb(79.766846%, 86.750793%, 100%)" offset="0.984375"></stop><stop stop-opacity="1" stop-color="rgb(79.428101%, 86.529541%, 100%)" offset="1"></stop></linearGradient><clipPath id="51b3b16a31"><path d="M 0.078125 20.160156 L 62 20.160156 L 62 92 L 0.078125 92 Z M 0.078125 20.160156 " clip-rule="nonzero"></path></clipPath><clipPath id="19eddbf38f"><path d="M 0.078125 25 L 69 25 L 69 104 L 0.078125 104 Z M 0.078125 25 " clip-rule="nonzero"></path></clipPath><clipPath id="0182f843c0"><path d="M 175 150 L 289 150 L 289 279.632812 L 175 279.632812 Z M 175 150 " clip-rule="nonzero"></path></clipPath><clipPath id="cc53a13ad6"><path d="M 204 130 L 295.429688 130 L 295.429688 237 L 204 237 Z M 204 130 " clip-rule="nonzero"></path></clipPath><clipPath id="80db37b470"><path d="M 195 143 L 295.429688 143 L 295.429688 253 L 195 253 Z M 195 143 " clip-rule="nonzero"></path></clipPath><clipPath id="365cd32a69"><path d="M 0.078125 229 L 45 229 L 45 255 L 0.078125 255 Z M 0.078125 229 " clip-rule="nonzero"></path></clipPath><clipPath id="edcfea6776"><path d="M 141 170 L 295.429688 170 L 295.429688 279.632812 L 141 279.632812 Z M 141 170 " clip-rule="nonzero"></path></clipPath><clipPath id="6cbba91b73"><path d="M 74 212 L 134 212 L 134 263 L 74 263 Z M 74 212 " clip-rule="nonzero"></path></clipPath><clipPath id="4e08d28931"><path d="M 79.113281 213.023438 C 87.183594 215.328125 106.074219 219.445312 130.824219 216.605469 C 131.222656 216.546875 131.625 216.578125 132.011719 216.695312 C 132.394531 216.808594 132.75 217.007812 133.050781 217.273438 C 133.351562 217.542969 133.589844 217.871094 133.75 218.238281 C 133.910156 218.605469 133.988281 219.003906 133.980469 219.40625 L 133.980469 257.578125 C 133.960938 258.421875 133.648438 259.230469 133.089844 259.863281 C 132.535156 260.496094 131.773438 260.914062 130.941406 261.039062 C 122.128906 262.242188 95.960938 264.820312 76.460938 256.40625 C 75.964844 256.183594 75.542969 255.820312 75.25 255.363281 C 74.957031 254.902344 74.808594 254.363281 74.820312 253.820312 L 74.820312 216.402344 C 74.820312 214.1875 77.050781 212.4375 79.113281 213.023438 Z M 79.113281 213.023438 " clip-rule="nonzero"></path></clipPath><linearGradient x1="1550.379648" gradientTransform="matrix(0.0661905, 0, 0, 0.0661483, 0.0458187, 20.158539)" y1="2868.585732" x2="1628.914184" gradientUnits="userSpaceOnUse" y2="3734.468316" id="d4f5fffea2"><stop stop-opacity="1" stop-color="rgb(100%, 100%, 100%)" offset="0"></stop><stop stop-opacity="1" stop-color="rgb(99.859619%, 99.908447%, 100%)" offset="0.0625"></stop><stop stop-opacity="1" stop-color="rgb(99.542236%, 99.699402%, 100%)" offset="0.078125"></stop><stop stop-opacity="1" stop-color="rgb(99.185181%, 99.465942%, 100%)" offset="0.0928925"></stop><stop stop-opacity="1" stop-color="rgb(99.006653%, 99.34845%, 100%)" offset="0.09375"></stop><stop stop-opacity="1" stop-color="rgb(98.828125%, 99.230957%, 100%)" offset="0.109375"></stop><stop stop-opacity="1" stop-color="rgb(98.469543%, 98.997498%, 100%)" offset="0.125"></stop><stop stop-opacity="1" stop-color="rgb(98.112488%, 98.764038%, 100%)" offset="0.140625"></stop><stop stop-opacity="1" stop-color="rgb(97.755432%, 98.530579%, 100%)" offset="0.15625"></stop><stop stop-opacity="1" stop-color="rgb(97.398376%, 98.295593%, 100%)" offset="0.171875"></stop><stop stop-opacity="1" stop-color="rgb(97.041321%, 98.062134%, 100%)" offset="0.1875"></stop><stop stop-opacity="1" stop-color="rgb(96.684265%, 97.828674%, 100%)" offset="0.203125"></stop><stop stop-opacity="1" stop-color="rgb(96.327209%, 97.595215%, 100%)" offset="0.21875"></stop><stop stop-opacity="1" stop-color="rgb(95.970154%, 97.360229%, 100%)" offset="0.234375"></stop><stop stop-opacity="1" stop-color="rgb(95.613098%, 97.12677%, 100%)" offset="0.25"></stop><stop stop-opacity="1" stop-color="rgb(95.256042%, 96.893311%, 100%)" offset="0.265625"></stop><stop stop-opacity="1" stop-color="rgb(94.898987%, 96.658325%, 100%)" offset="0.28125"></stop><stop stop-opacity="1" stop-color="rgb(94.541931%, 96.424866%, 100%)" offset="0.296875"></stop><stop stop-opacity="1" stop-color="rgb(94.184875%, 96.191406%, 100%)" offset="0.3125"></stop><stop stop-opacity="1" stop-color="rgb(93.82782%, 95.957947%, 100%)" offset="0.328125"></stop><stop stop-opacity="1" stop-color="rgb(93.470764%, 95.722961%, 100%)" offset="0.34375"></stop><stop stop-opacity="1" stop-color="rgb(93.112183%, 95.489502%, 100%)" offset="0.359375"></stop><stop stop-opacity="1" stop-color="rgb(92.755127%, 95.256042%, 100%)" offset="0.375"></stop><stop stop-opacity="1" stop-color="rgb(92.398071%, 95.022583%, 100%)" offset="0.390625"></stop><stop stop-opacity="1" stop-color="rgb(92.041016%, 94.787598%, 100%)" offset="0.40625"></stop><stop stop-opacity="1" stop-color="rgb(91.68396%, 94.554138%, 100%)" offset="0.421875"></stop><stop stop-opacity="1" stop-color="rgb(91.326904%, 94.320679%, 100%)" offset="0.4375"></stop><stop stop-opacity="1" stop-color="rgb(90.969849%, 94.087219%, 100%)" offset="0.453125"></stop><stop stop-opacity="1" stop-color="rgb(90.612793%, 93.852234%, 100%)" offset="0.46875"></stop><stop stop-opacity="1" stop-color="rgb(90.255737%, 93.618774%, 100%)" offset="0.484375"></stop><stop stop-opacity="1" stop-color="rgb(89.898682%, 93.385315%, 100%)" offset="0.5"></stop><stop stop-opacity="1" stop-color="rgb(89.541626%, 93.151855%, 100%)" offset="0.515625"></stop><stop stop-opacity="1" stop-color="rgb(89.18457%, 92.91687%, 100%)" offset="0.53125"></stop><stop stop-opacity="1" stop-color="rgb(88.827515%, 92.683411%, 100%)" offset="0.546875"></stop><stop stop-opacity="1" stop-color="rgb(88.470459%, 92.449951%, 100%)" offset="0.5625"></stop><stop stop-opacity="1" stop-color="rgb(88.111877%, 92.216492%, 100%)" offset="0.578125"></stop><stop stop-opacity="1" stop-color="rgb(87.754822%, 91.981506%, 100%)" offset="0.59375"></stop><stop stop-opacity="1" stop-color="rgb(87.397766%, 91.748047%, 100%)" offset="0.609375"></stop><stop stop-opacity="1" stop-color="rgb(87.04071%, 91.514587%, 100%)" offset="0.625"></stop><stop stop-opacity="1" stop-color="rgb(86.683655%, 91.281128%, 100%)" offset="0.640625"></stop><stop stop-opacity="1" stop-color="rgb(86.326599%, 91.046143%, 100%)" offset="0.65625"></stop><stop stop-opacity="1" stop-color="rgb(85.969543%, 90.812683%, 100%)" offset="0.671875"></stop><stop stop-opacity="1" stop-color="rgb(85.612488%, 90.579224%, 100%)" offset="0.6875"></stop><stop stop-opacity="1" stop-color="rgb(85.255432%, 90.344238%, 100%)" offset="0.703125"></stop><stop stop-opacity="1" stop-color="rgb(84.898376%, 90.110779%, 100%)" offset="0.71875"></stop><stop stop-opacity="1" stop-color="rgb(84.541321%, 89.877319%, 100%)" offset="0.734375"></stop><stop stop-opacity="1" stop-color="rgb(84.184265%, 89.64386%, 100%)" offset="0.75"></stop><stop stop-opacity="1" stop-color="rgb(83.827209%, 89.408875%, 100%)" offset="0.765625"></stop><stop stop-opacity="1" stop-color="rgb(83.470154%, 89.175415%, 100%)" offset="0.78125"></stop><stop stop-opacity="1" stop-color="rgb(83.113098%, 88.941956%, 100%)" offset="0.796875"></stop><stop stop-opacity="1" stop-color="rgb(82.754517%, 88.708496%, 100%)" offset="0.8125"></stop><stop stop-opacity="1" stop-color="rgb(82.397461%, 88.473511%, 100%)" offset="0.828125"></stop><stop stop-opacity="1" stop-color="rgb(82.040405%, 88.240051%, 100%)" offset="0.84375"></stop><stop stop-opacity="1" stop-color="rgb(81.68335%, 88.006592%, 100%)" offset="0.859375"></stop><stop stop-opacity="1" stop-color="rgb(81.326294%, 87.773132%, 100%)" offset="0.875"></stop><stop stop-opacity="1" stop-color="rgb(80.969238%, 87.538147%, 100%)" offset="0.890625"></stop><stop stop-opacity="1" stop-color="rgb(80.612183%, 87.304688%, 100%)" offset="0.90625"></stop><stop stop-opacity="1" stop-color="rgb(80.255127%, 87.071228%, 100%)" offset="0.907108"></stop><stop stop-opacity="1" stop-color="rgb(80.076599%, 86.955261%, 100%)" offset="0.921875"></stop><stop stop-opacity="1" stop-color="rgb(79.898071%, 86.837769%, 100%)" offset="0.9375"></stop><stop stop-opacity="1" stop-color="rgb(79.541016%, 86.602783%, 100%)" offset="0.953125"></stop><stop stop-opacity="1" stop-color="rgb(79.18396%, 86.369324%, 100%)" offset="0.96875"></stop><stop stop-opacity="1" stop-color="rgb(78.826904%, 86.135864%, 100%)" offset="0.984375"></stop><stop stop-opacity="1" stop-color="rgb(78.469849%, 85.902405%, 100%)" offset="1"></stop></linearGradient><clipPath id="b927697055"><path d="M 214 25 L 295.429688 25 L 295.429688 122 L 214 122 Z M 214 25 " clip-rule="nonzero"></path></clipPath><clipPath id="d5cced0461"><path d="M 290.84375 26.253906 C 280.292969 33.992188 260.996094 53.515625 218.878906 60 C 215.652344 60.496094 214.445312 62.789062 214.445312 65.324219 L 214.445312 118.691406 C 214.460938 119.433594 214.734375 120.144531 215.21875 120.707031 C 215.699219 121.269531 216.359375 121.652344 217.089844 121.785156 C 227.710938 123.570312 268.628906 113.140625 293.09375 92.140625 C 295.429688 90.136719 295.429688 86.773438 295.429688 86.074219 L 295.429688 28.914062 C 295.429688 26.542969 292.648438 24.929688 290.84375 26.253906 Z M 290.84375 26.253906 " clip-rule="nonzero"></path></clipPath><linearGradient x1="4019.741734" gradientTransform="matrix(0.0661905, 0, 0, 0.0661483, 0.0458187, 20.158539)" y1="-77.555598" x2="4338.875811" gradientUnits="userSpaceOnUse" y2="1587.069253" id="db6d294d17"><stop stop-opacity="1" stop-color="rgb(85.510254%, 90.512085%, 100%)" offset="0"></stop><stop stop-opacity="1" stop-color="rgb(85.395813%, 90.437317%, 100%)" offset="0.015625"></stop><stop stop-opacity="1" stop-color="rgb(85.166931%, 90.287781%, 100%)" offset="0.03125"></stop><stop stop-opacity="1" stop-color="rgb(84.938049%, 90.138245%, 100%)" offset="0.046875"></stop><stop stop-opacity="1" stop-color="rgb(84.710693%, 89.988708%, 100%)" offset="0.0625"></stop><stop stop-opacity="1" stop-color="rgb(84.481812%, 89.839172%, 100%)" offset="0.078125"></stop><stop stop-opacity="1" stop-color="rgb(84.25293%, 89.689636%, 100%)" offset="0.09375"></stop><stop stop-opacity="1" stop-color="rgb(84.025574%, 89.5401%, 100%)" offset="0.109375"></stop><stop stop-opacity="1" stop-color="rgb(83.796692%, 89.390564%, 100%)" offset="0.125"></stop><stop stop-opacity="1" stop-color="rgb(83.569336%, 89.241028%, 100%)" offset="0.135919"></stop><stop stop-opacity="1" stop-color="rgb(83.454895%, 89.16626%, 100%)" offset="0.140625"></stop><stop stop-opacity="1" stop-color="rgb(83.340454%, 89.091492%, 100%)" offset="0.15625"></stop><stop stop-opacity="1" stop-color="rgb(83.111572%, 88.941956%, 100%)" offset="0.171875"></stop><stop stop-opacity="1" stop-color="rgb(82.884216%, 88.792419%, 100%)" offset="0.1875"></stop><stop stop-opacity="1" stop-color="rgb(82.655334%, 88.642883%, 100%)" offset="0.203125"></stop><stop stop-opacity="1" stop-color="rgb(82.426453%, 88.493347%, 100%)" offset="0.21875"></stop><stop stop-opacity="1" stop-color="rgb(82.199097%, 88.343811%, 100%)" offset="0.234375"></stop><stop stop-opacity="1" stop-color="rgb(81.970215%, 88.194275%, 100%)" offset="0.25"></stop><stop stop-opacity="1" stop-color="rgb(81.741333%, 88.044739%, 100%)" offset="0.265625"></stop><stop stop-opacity="1" stop-color="rgb(81.513977%, 87.895203%, 100%)" offset="0.28125"></stop><stop stop-opacity="1" stop-color="rgb(81.285095%, 87.745667%, 100%)" offset="0.296875"></stop><stop stop-opacity="1" stop-color="rgb(81.056213%, 87.59613%, 100%)" offset="0.3125"></stop><stop stop-opacity="1" stop-color="rgb(80.828857%, 87.446594%, 100%)" offset="0.328125"></stop><stop stop-opacity="1" stop-color="rgb(80.599976%, 87.297058%, 100%)" offset="0.34375"></stop><stop stop-opacity="1" stop-color="rgb(80.371094%, 87.147522%, 100%)" offset="0.359375"></stop><stop stop-opacity="1" stop-color="rgb(80.143738%, 86.997986%, 100%)" offset="0.375"></stop><stop stop-opacity="1" stop-color="rgb(79.914856%, 86.84845%, 100%)" offset="0.390625"></stop><stop stop-opacity="1" stop-color="rgb(79.685974%, 86.698914%, 100%)" offset="0.40625"></stop><stop stop-opacity="1" stop-color="rgb(79.458618%, 86.549377%, 100%)" offset="0.421875"></stop><stop stop-opacity="1" stop-color="rgb(79.229736%, 86.399841%, 100%)" offset="0.4375"></stop><stop stop-opacity="1" stop-color="rgb(79.00238%, 86.250305%, 100%)" offset="0.453125"></stop><stop stop-opacity="1" stop-color="rgb(78.773499%, 86.100769%, 100%)" offset="0.46875"></stop><stop stop-opacity="1" stop-color="rgb(78.544617%, 85.951233%, 100%)" offset="0.484375"></stop><stop stop-opacity="1" stop-color="rgb(78.317261%, 85.801697%, 100%)" offset="0.5"></stop><stop stop-opacity="1" stop-color="rgb(78.088379%, 85.653687%, 100%)" offset="0.515625"></stop><stop stop-opacity="1" stop-color="rgb(77.859497%, 85.50415%, 100%)" offset="0.53125"></stop><stop stop-opacity="1" stop-color="rgb(77.632141%, 85.354614%, 100%)" offset="0.546875"></stop><stop stop-opacity="1" stop-color="rgb(77.403259%, 85.205078%, 100%)" offset="0.5625"></stop><stop stop-opacity="1" stop-color="rgb(77.174377%, 85.055542%, 100%)" offset="0.578125"></stop><stop stop-opacity="1" stop-color="rgb(76.947021%, 84.906006%, 100%)" offset="0.59375"></stop><stop stop-opacity="1" stop-color="rgb(76.71814%, 84.75647%, 100%)" offset="0.609375"></stop><stop stop-opacity="1" stop-color="rgb(76.489258%, 84.606934%, 100%)" offset="0.625"></stop><stop stop-opacity="1" stop-color="rgb(76.261902%, 84.457397%, 100%)" offset="0.640625"></stop><stop stop-opacity="1" stop-color="rgb(76.03302%, 84.307861%, 100%)" offset="0.65625"></stop><stop stop-opacity="1" stop-color="rgb(75.804138%, 84.158325%, 100%)" offset="0.671875"></stop><stop stop-opacity="1" stop-color="rgb(75.576782%, 84.008789%, 100%)" offset="0.6875"></stop><stop stop-opacity="1" stop-color="rgb(75.3479%, 83.859253%, 100%)" offset="0.703125"></stop><stop stop-opacity="1" stop-color="rgb(75.120544%, 83.709717%, 100%)" offset="0.71875"></stop><stop stop-opacity="1" stop-color="rgb(74.891663%, 83.560181%, 100%)" offset="0.734375"></stop><stop stop-opacity="1" stop-color="rgb(74.662781%, 83.410645%, 100%)" offset="0.75"></stop><stop stop-opacity="1" stop-color="rgb(74.435425%, 83.261108%, 100%)" offset="0.765625"></stop><stop stop-opacity="1" stop-color="rgb(74.206543%, 83.111572%, 100%)" offset="0.78125"></stop><stop stop-opacity="1" stop-color="rgb(73.977661%, 82.962036%, 100%)" offset="0.796875"></stop><stop stop-opacity="1" stop-color="rgb(73.750305%, 82.8125%, 100%)" offset="0.8125"></stop><stop stop-opacity="1" stop-color="rgb(73.521423%, 82.662964%, 100%)" offset="0.828125"></stop><stop stop-opacity="1" stop-color="rgb(73.292542%, 82.513428%, 100%)" offset="0.84375"></stop><stop stop-opacity="1" stop-color="rgb(73.065186%, 82.363892%, 100%)" offset="0.859375"></stop><stop stop-opacity="1" stop-color="rgb(72.836304%, 82.214355%, 100%)" offset="0.864081"></stop><stop stop-opacity="1" stop-color="rgb(72.721863%, 82.139587%, 100%)" offset="0.875"></stop><stop stop-opacity="1" stop-color="rgb(72.607422%, 82.064819%, 100%)" offset="0.890625"></stop><stop stop-opacity="1" stop-color="rgb(72.380066%, 81.915283%, 100%)" offset="0.90625"></stop><stop stop-opacity="1" stop-color="rgb(72.151184%, 81.765747%, 100%)" offset="0.921875"></stop><stop stop-opacity="1" stop-color="rgb(71.922302%, 81.616211%, 100%)" offset="0.9375"></stop><stop stop-opacity="1" stop-color="rgb(71.694946%, 81.466675%, 100%)" offset="0.953125"></stop><stop stop-opacity="1" stop-color="rgb(71.466064%, 81.317139%, 100%)" offset="0.96875"></stop><stop stop-opacity="1" stop-color="rgb(71.237183%, 81.167603%, 100%)" offset="0.984375"></stop><stop stop-opacity="1" stop-color="rgb(71.009827%, 81.018066%, 100%)" offset="1"></stop></linearGradient><clipPath id="a7c23c0d7d"><path d="M 220 20.160156 L 295.429688 20.160156 L 295.429688 102 L 220 102 Z M 220 20.160156 " clip-rule="nonzero"></path></clipPath><clipPath id="28267af7ec"><path d="M 220 20.160156 L 295.429688 20.160156 L 295.429688 115 L 220 115 Z M 220 20.160156 " clip-rule="nonzero"></path></clipPath><clipPath id="7bfd596642"><path d="M 220 25 L 295.429688 25 L 295.429688 127 L 220 127 Z M 220 25 " clip-rule="nonzero"></path></clipPath><clipPath id="55b15a421c"><path d="M 220 39 L 295.429688 39 L 295.429688 141 L 220 141 Z M 220 39 " clip-rule="nonzero"></path></clipPath></defs><g clip-path="url(#4c00a5cc33)"><path fill="#1c85e8" d="M 59.242188 20.160156 L 240.09375 20.160156 C 242.828125 20.160156 245.449219 21.242188 247.386719 23.175781 C 249.316406 25.109375 250.402344 27.730469 250.402344 30.460938 L 250.402344 41.839844 L 48.929688 41.839844 L 48.929688 30.460938 C 48.929688 27.730469 50.019531 25.109375 51.953125 23.175781 C 53.886719 21.242188 56.507812 20.160156 59.242188 20.160156 Z M 59.242188 20.160156 " fill-opacity="1" fill-rule="nonzero"></path></g><g clip-path="url(#436f1d5add)"><g clip-path="url(#64db844250)"><path fill="url(#ee0201769f)" d="M 48.929688 41.839844 L 48.929688 243.183594 L 250.402344 243.183594 L 250.402344 41.839844 Z M 48.929688 41.839844 " fill-rule="nonzero"></path></g></g><path fill="#ffccb3" d="M 180.570312 171.304688 L 125.308594 171.304688 L 125.308594 198.121094 L 180.570312 198.121094 Z M 180.570312 171.304688 " fill-opacity="1" fill-rule="nonzero"></path><path fill="#1f2d49" d="M 124.984375 187.835938 C 118.5 194.210938 115.953125 225.59375 116.292969 243.183594 L 193.441406 243.183594 C 193.441406 243.183594 193.300781 204.828125 187.453125 191.902344 C 182.074219 180.011719 173.132812 197.546875 124.984375 187.835938 Z M 124.984375 187.835938 " fill-opacity="1" fill-rule="nonzero"></path><path fill="#1c85e8" d="M 137.734375 113.078125 C 137.734375 113.078125 147.660156 124.210938 144.359375 127.78125 C 137.820312 135.121094 120.433594 148.914062 114.734375 153.480469 C 114.488281 153.667969 114.207031 153.808594 113.90625 153.886719 C 113.609375 153.964844 113.296875 153.984375 112.988281 153.941406 C 112.683594 153.902344 112.386719 153.796875 112.121094 153.640625 C 111.851562 153.484375 111.617188 153.277344 111.433594 153.03125 L 97.957031 135.328125 C 97.433594 134.644531 97.1875 133.789062 97.273438 132.929688 C 97.359375 132.074219 97.769531 131.28125 98.421875 130.71875 L 124.519531 108.230469 Z M 137.734375 113.078125 " fill-opacity="1" fill-rule="nonzero"></path><path fill="#0e66af" d="M 122.066406 127.230469 C 122.066406 127.230469 109.695312 134.578125 108.582031 149.339844 L 111.042969 152.503906 C 111.042969 152.503906 112.589844 155.195312 114.734375 153.480469 C 116.878906 151.765625 126.792969 143.828125 126.792969 143.828125 Z M 122.066406 127.230469 " fill-opacity="1" fill-rule="nonzero"></path><path fill="#1c85e8" d="M 133.628906 132.828125 C 141.34375 132.828125 147.601562 126.578125 147.601562 118.867188 C 147.601562 111.15625 141.34375 104.902344 133.628906 104.902344 C 125.914062 104.902344 119.660156 111.15625 119.660156 118.867188 C 119.660156 126.578125 125.914062 132.828125 133.628906 132.828125 Z M 133.628906 132.828125 " fill-opacity="1" fill-rule="nonzero"></path><path fill="#ffccb3" d="M 97.25 162.628906 L 85.042969 146.476562 L 96.601562 137.507812 L 98.410156 136.050781 L 111.074219 152.601562 L 108.871094 154.1875 Z M 97.25 162.628906 " fill-opacity="1" fill-rule="nonzero"></path><path fill="#ff967c" d="M 108.871094 154.1875 C 105.601562 149.8125 99.449219 141.257812 96.601562 137.507812 L 98.410156 136.050781 L 111.042969 152.503906 Z M 108.871094 154.1875 " fill-opacity="1" fill-rule="nonzero"></path><path fill="#ffccb3" d="M 90.960938 164.871094 C 96.5625 164.871094 101.101562 160.335938 101.101562 154.738281 C 101.101562 149.136719 96.5625 144.601562 90.960938 144.601562 C 85.359375 144.601562 80.820312 149.136719 80.820312 154.738281 C 80.820312 160.335938 85.359375 164.871094 90.960938 164.871094 Z M 90.960938 164.871094 " fill-opacity="1" fill-rule="nonzero"></path><path fill="#ffccb3" d="M 99.546875 149.285156 C 99.546875 149.285156 66.832031 101.269531 65.320312 97.191406 C 63.847656 93.210938 56.121094 102.792969 56.121094 102.792969 L 81.441406 158 Z M 99.546875 149.285156 " fill-opacity="1" fill-rule="nonzero"></path><path fill="#ffccb3" d="M 144.585938 82.328125 L 140.65625 109.730469 C 140.65625 109.730469 139.621094 113.367188 144.203125 113.917969 C 148.785156 114.46875 158.554688 113.238281 162.042969 109.523438 C 165.535156 105.804688 164.3125 103.964844 164.3125 103.964844 L 156.914062 74.222656 Z M 144.585938 82.328125 " fill-opacity="1" fill-rule="nonzero"></path><path fill="#ff967c" d="M 144.039062 85.875 L 153.660156 82.476562 L 141.742188 100.128906 Z M 144.039062 85.875 " fill-opacity="1" fill-rule="nonzero"></path><path fill="#ffccb3" d="M 133.703125 48.480469 C 133.703125 48.480469 125.449219 67.859375 129.75 81.144531 C 132.554688 89.804688 138.664062 91.363281 152.65625 84.871094 C 165.484375 78.917969 168.816406 74.417969 168.816406 74.417969 L 170.707031 52.8125 C 170.707031 52.8125 142.085938 31.207031 133.703125 48.480469 Z M 133.703125 48.480469 " fill-opacity="1" fill-rule="nonzero"></path><path fill="#1c85e8" d="M 140.585938 101.851562 C 140.585938 101.851562 130.011719 104.785156 127.867188 106.503906 C 125.71875 108.21875 122.320312 116.992188 122.320312 127.035156 C 122.320312 141.273438 124.28125 148.917969 124.28125 157.761719 C 124.28125 166.605469 119.621094 200.335938 119.621094 200.335938 L 188.207031 200.335938 C 186.453125 166.550781 188.207031 106.203125 188.207031 106.203125 L 162.070312 100.183594 C 156.175781 101.199219 140.585938 101.851562 140.585938 101.851562 Z M 140.585938 101.851562 " fill-opacity="1" fill-rule="nonzero"></path><path fill="#0e66af" d="M 175.539062 118.867188 C 175.539062 118.867188 166.425781 124.886719 169.109375 130.964844 C 172.128906 137.796875 169.109375 145.320312 169.109375 155.816406 C 168.070312 158.960938 167.46875 161.960938 167.46875 164.507812 C 167.46875 167.058594 166.066406 164.621094 166.066406 172.019531 C 166.066406 177.289062 182.628906 181.855469 182.199219 177.597656 C 179.316406 149.125 191.289062 131.097656 175.539062 118.867188 Z M 175.539062 118.867188 " fill-opacity="1" fill-rule="nonzero"></path><path fill="#ffccb3" d="M 207.105469 173.339844 L 186.917969 174.992188 L 183.46875 160.371094 L 179.316406 149.125 L 200.566406 146.582031 L 203.222656 159.167969 Z M 207.105469 173.339844 " fill-opacity="1" fill-rule="nonzero"></path><path fill="#ff967c" d="M 201.285156 149.984375 L 202.027344 153.511719 L 181.101562 153.960938 L 179.726562 150.234375 Z M 201.285156 149.984375 " fill-opacity="1" fill-rule="nonzero"></path><path fill="#1c85e8" d="M 184.734375 133.6875 C 192.449219 133.6875 198.703125 127.4375 198.703125 119.726562 C 198.703125 112.015625 192.449219 105.765625 184.734375 105.765625 C 177.019531 105.765625 170.765625 112.015625 170.765625 119.726562 C 170.765625 127.4375 177.019531 133.6875 184.734375 133.6875 Z M 184.734375 133.6875 " fill-opacity="1" fill-rule="nonzero"></path><path fill="#1c85e8" d="M 182.039062 113.164062 C 182.039062 113.164062 196.761719 110.75 198.015625 115.445312 C 200.714844 124.894531 204.035156 140.0625 204.84375 147.316406 C 204.871094 147.625 204.835938 147.9375 204.742188 148.230469 C 204.648438 148.527344 204.5 148.800781 204.296875 149.039062 C 204.097656 149.273438 203.855469 149.46875 203.578125 149.609375 C 203.304688 149.75 203.003906 149.835938 202.695312 149.863281 L 180.519531 151.753906 C 179.660156 151.832031 178.804688 151.582031 178.125 151.050781 C 177.449219 150.519531 177 149.75 176.871094 148.894531 L 170.867188 121.722656 Z M 182.039062 113.164062 " fill-opacity="1" fill-rule="nonzero"></path><path fill="#080b09" d="M 138.847656 46.636719 C 138.847656 46.636719 139.371094 56.050781 147.351562 60.613281 C 147.351562 60.613281 149.683594 67.832031 158.394531 69.53125 C 158.394531 69.53125 157.878906 62.894531 162.027344 62.964844 C 169.078125 63.085938 165.609375 73.769531 160.84375 75.523438 C 157.605469 76.714844 155.65625 80.941406 160.464844 90.578125 C 171.5 86.644531 179.265625 70.753906 176.222656 53.125 C 173.785156 39.007812 156.269531 34.394531 152.671875 34.855469 C 152.671875 34.855469 137.730469 29.695312 129.859375 43.847656 C 123.132812 55.941406 129.414062 63.160156 129.414062 63.160156 L 133 52.394531 C 133 52.394531 134.496094 53.445312 138.847656 46.636719 Z M 138.847656 46.636719 " fill-opacity="1" fill-rule="nonzero"></path><g clip-path="url(#f49ffbbe5c)"><g clip-path="url(#5ef190a0b2)"><path fill="url(#93d60e639e)" d="M 144.480469 160.371094 L 144.480469 208.222656 L 216.402344 208.222656 L 216.402344 160.371094 Z M 144.480469 160.371094 " fill-rule="nonzero"></path></g></g><path fill="#ffffff" d="M 180.570312 187.3125 C 182.640625 187.3125 184.324219 185.632812 184.324219 183.5625 C 184.324219 181.492188 182.640625 179.8125 180.570312 179.8125 C 178.496094 179.8125 176.816406 181.492188 176.816406 183.5625 C 176.816406 185.632812 178.496094 187.3125 180.570312 187.3125 Z M 180.570312 187.3125 " fill-opacity="1" fill-rule="nonzero"></path><path fill="#ffccb3" d="M 57.511719 105.945312 L 54.289062 99.769531 C 54.289062 99.769531 42.894531 93.253906 41.574219 90.898438 C 40.253906 88.542969 39.734375 81.820312 42.074219 80.097656 C 42.074219 80.097656 32.980469 73.273438 34.527344 71.890625 C 36.070312 70.410156 53.933594 83.667969 53.933594 83.667969 C 53.933594 83.667969 51.757812 73.898438 55.0625 73.441406 C 55.957031 77.230469 57.492188 80.835938 59.597656 84.105469 C 63.078125 89.484375 63.503906 94.296875 63.503906 94.296875 L 67.605469 102.164062 Z M 57.511719 105.945312 " fill-opacity="1" fill-rule="nonzero"></path><path stroke-linecap="round" transform="matrix(0.0661905, 0, 0, 0.0661483, 0.0458187, 20.158526)" fill="none" stroke-linejoin="round" d="M 644.167201 908.730251 L 727.378676 961.169202 " stroke="#ff967c" stroke-width="13.016" stroke-opacity="1" stroke-miterlimit="4"></path><path stroke-linecap="round" transform="matrix(0.0661905, 0, 0, 0.0661483, 0.0458187, 20.158526)" fill="none" stroke-linejoin="round" d="M 631.774003 968.72797 L 702.415234 1012.604254 " stroke="#ff967c" stroke-width="13.016" stroke-opacity="1" stroke-miterlimit="4"></path><path stroke-linecap="round" transform="matrix(0.0661905, 0, 0, 0.0661483, 0.0458187, 20.158526)" fill="none" stroke-linejoin="round" d="M 645.524551 1033.568024 L 692.618706 1063.330672 " stroke="#ff967c" stroke-width="13.016" stroke-opacity="1" stroke-miterlimit="4"></path><path fill="#ffffff" d="M 64.222656 33.621094 C 65.671875 33.621094 66.847656 32.449219 66.847656 31 C 66.847656 29.550781 65.671875 28.375 64.222656 28.375 C 62.773438 28.375 61.597656 29.550781 61.597656 31 C 61.597656 32.449219 62.773438 33.621094 64.222656 33.621094 Z M 64.222656 33.621094 " fill-opacity="1" fill-rule="nonzero"></path><path fill="#ffffff" d="M 74.820312 33.621094 C 76.269531 33.621094 77.445312 32.449219 77.445312 31 C 77.445312 29.550781 76.269531 28.375 74.820312 28.375 C 73.371094 28.375 72.195312 29.550781 72.195312 31 C 72.195312 32.449219 73.371094 33.621094 74.820312 33.621094 Z M 74.820312 33.621094 " fill-opacity="1" fill-rule="nonzero"></path><path fill="#ffffff" d="M 84.777344 33.621094 C 86.226562 33.621094 87.402344 32.449219 87.402344 31 C 87.402344 29.550781 86.226562 28.375 84.777344 28.375 C 83.328125 28.375 82.152344 29.550781 82.152344 31 C 82.152344 32.449219 83.328125 33.621094 84.777344 33.621094 Z M 84.777344 33.621094 " fill-opacity="1" fill-rule="nonzero"></path><path fill="#febb94" d="M 5.957031 30.675781 C 16.507812 39.667969 44.328125 60.171875 79.664062 61.148438 C 80.386719 61.171875 81.070312 61.472656 81.574219 61.992188 C 82.078125 62.511719 82.359375 63.207031 82.355469 63.929688 L 82.355469 119.878906 C 82.355469 120.59375 82.082031 121.28125 81.589844 121.796875 C 81.097656 122.3125 80.425781 122.621094 79.710938 122.65625 C 69.089844 123.1875 28.804688 123.125 2.109375 94.5625 C 1.632812 94.050781 1.371094 93.375 1.371094 92.675781 L 1.371094 32.796875 C 1.371094 32.265625 1.523438 31.746094 1.808594 31.296875 C 2.097656 30.851562 2.503906 30.496094 2.988281 30.269531 C 3.46875 30.046875 4.003906 29.96875 4.53125 30.039062 C 5.058594 30.113281 5.554688 30.332031 5.957031 30.675781 Z M 5.957031 30.675781 " fill-opacity="0.7" fill-rule="nonzero"></path><g clip-path="url(#51b3b16a31)"><path stroke-linecap="round" transform="matrix(0.0661905, 0, 0, 0.0661483, 0.0458187, 20.158526)" fill="none" stroke-linejoin="miter" d="M 149.796614 408.257153 C 149.796614 408.257153 275.55807 530.4966 447.469437 606.379542 " stroke="#ffffff" stroke-width="33.686001" stroke-opacity="1" stroke-miterlimit="10"></path></g><g clip-path="url(#19eddbf38f)"><path stroke-linecap="round" transform="matrix(0.0661905, 0, 0, 0.0661483, 0.0458187, 20.158526)" fill="none" stroke-linejoin="miter" d="M 149.796614 556.420811 C 149.796614 556.420811 324.835788 719.702005 552.516548 780.349305 " stroke="#ffffff" stroke-width="33.686001" stroke-opacity="0.4" stroke-miterlimit="10"></path></g><path fill="#ffffff" d="M 8.234375 92.800781 L 8.234375 69.433594 L 16.433594 75.296875 L 16.433594 99.230469 Z M 8.234375 92.800781 " fill-opacity="1" fill-rule="nonzero"></path><path fill="#ffffff" d="M 22.070312 102.246094 L 22.070312 85.59375 L 30.269531 90.496094 L 30.269531 106.957031 Z M 22.070312 102.246094 " fill-opacity="1" fill-rule="nonzero"></path><path fill="#ffffff" d="M 57.128906 115.28125 L 57.128906 98.628906 L 48.929688 97.507812 L 48.929688 113.96875 Z M 57.128906 115.28125 " fill-opacity="1" fill-rule="nonzero"></path><path fill="#ffffff" d="M 70.597656 115.996094 L 70.597656 86.839844 L 62.398438 86.839844 L 62.398438 115.804688 Z M 70.597656 115.996094 " fill-opacity="1" fill-rule="nonzero"></path><path fill="#ffffff" d="M 35.503906 109.542969 L 35.503906 101.929688 L 43.699219 104.234375 L 43.699219 112.507812 Z M 35.503906 109.542969 " fill-opacity="1" fill-rule="nonzero"></path><path fill="#96bafd" d="M 26.492188 146.617188 C 37.042969 154.355469 64.863281 174.558594 100.195312 171.351562 C 100.539062 171.308594 100.890625 171.34375 101.21875 171.449219 C 101.546875 171.554688 101.851562 171.730469 102.105469 171.964844 C 102.363281 172.199219 102.5625 172.484375 102.699219 172.800781 C 102.835938 173.121094 102.898438 173.464844 102.890625 173.808594 L 102.890625 229.761719 C 102.875 230.5 102.601562 231.214844 102.117188 231.777344 C 101.636719 232.339844 100.976562 232.71875 100.246094 232.851562 C 89.621094 234.640625 45.4375 233.757812 22.644531 210.957031 C 22.40625 210.71875 22.222656 210.441406 22.09375 210.132812 C 21.96875 209.824219 21.902344 209.492188 21.90625 209.15625 L 21.90625 149.277344 C 21.90625 146.90625 24.6875 145.289062 26.492188 146.617188 Z M 26.492188 146.617188 " fill-opacity="0.7" fill-rule="nonzero"></path><path fill="#ffccb3" d="M 196.292969 206.617188 C 196.292969 206.617188 199.121094 206.851562 198.695312 208.277344 C 198.265625 209.703125 195.742188 209.042969 193.441406 210.46875 C 191.136719 211.894531 182.027344 212.914062 177.476562 212.152344 C 172.925781 211.394531 171.664062 206.617188 171.664062 206.617188 C 171.664062 206.617188 170.902344 202.082031 178.941406 201.617188 C 186.976562 201.152344 190.71875 203.726562 192.113281 206.523438 Z M 196.292969 206.617188 " fill-opacity="1" fill-rule="nonzero"></path><path stroke-linecap="round" transform="matrix(0.0661905, 0, 0, 0.0661483, 0.0458187, 20.158526)" fill="none" stroke-linejoin="miter" d="M 2644.370415 2753.837265 L 2670.632193 2824.405448 " stroke="#e56441" stroke-width="10.147" stroke-opacity="1" stroke-miterlimit="4"></path><path stroke-linecap="round" transform="matrix(0.0661905, 0, 0, 0.0661483, 0.0458187, 20.158526)" fill="none" stroke-linejoin="miter" d="M 2712.296946 2742.381008 L 2738.558724 2812.890138 " stroke="#e56441" stroke-width="10.147" stroke-opacity="1" stroke-miterlimit="4"></path><path stroke-linecap="round" transform="matrix(0.0661905, 0, 0, 0.0661483, 0.0458187, 20.158526)" fill="none" stroke-linejoin="miter" d="M 2784.059467 2748.345348 L 2810.262229 2818.854478 " stroke="#e56441" stroke-width="10.147" stroke-opacity="1" stroke-miterlimit="4"></path><g clip-path="url(#0182f843c0)"><path fill="#1c85e8" d="M 281.824219 151.167969 C 267.109375 163.710938 228.300781 192.304688 179.015625 193.671875 C 178.003906 193.703125 177.050781 194.125 176.347656 194.847656 C 175.644531 195.570312 175.253906 196.539062 175.253906 197.546875 L 175.253906 275.59375 C 175.253906 276.589844 175.636719 277.546875 176.324219 278.269531 C 177.011719 278.992188 177.949219 279.421875 178.945312 279.46875 C 193.761719 280.207031 249.957031 280.121094 287.195312 240.28125 C 287.855469 239.566406 288.226562 238.625 288.222656 237.648438 L 288.222656 154.121094 C 288.222656 153.382812 288.007812 152.65625 287.609375 152.03125 C 287.210938 151.410156 286.640625 150.910156 285.96875 150.601562 C 285.296875 150.289062 284.546875 150.175781 283.816406 150.277344 C 283.082031 150.378906 282.390625 150.6875 281.824219 151.167969 Z M 281.824219 151.167969 " fill-opacity="0.7" fill-rule="nonzero"></path></g><g clip-path="url(#cc53a13ad6)"><path stroke-linecap="round" transform="matrix(0.0661905, 0, 0, 0.0661483, 0.0458187, 20.158526)" fill="none" stroke-linejoin="miter" d="M 4172.74686 2328.24321 C 4172.74686 2328.24321 3997.353595 2498.669801 3757.515697 2604.551603 " stroke="#ffffff" stroke-width="46.988998" stroke-opacity="1" stroke-miterlimit="10"></path></g><g clip-path="url(#80db37b470)"><path stroke-linecap="round" transform="matrix(0.0661905, 0, 0, 0.0661483, 0.0458187, 20.158526)" fill="none" stroke-linejoin="miter" d="M 4172.74686 2534.869213 C 4172.74686 2534.869213 3928.600851 2762.636143 3610.980879 2847.199857 " stroke="#ffffff" stroke-width="46.988998" stroke-opacity="0.4" stroke-miterlimit="10"></path></g><path fill="#ffffff" d="M 268.695312 126.476562 L 223.777344 126.476562 C 222.894531 126.476562 222.023438 126.648438 221.207031 126.988281 C 220.394531 127.324219 219.652344 127.816406 219.03125 128.441406 C 218.40625 129.0625 217.914062 129.800781 217.578125 130.617188 C 217.238281 131.429688 217.066406 132.300781 217.066406 133.183594 L 217.066406 147.070312 C 217.066406 147.953125 217.238281 148.824219 217.578125 149.636719 C 217.914062 150.453125 218.40625 151.191406 219.03125 151.8125 C 219.652344 152.4375 220.394531 152.929688 221.207031 153.269531 C 222.023438 153.605469 222.894531 153.777344 223.777344 153.777344 L 239.722656 153.777344 L 244.429688 158.480469 C 244.867188 158.921875 245.464844 159.167969 246.089844 159.167969 C 246.714844 159.167969 247.308594 158.921875 247.75 158.480469 L 252.457031 153.777344 L 268.695312 153.777344 C 270.476562 153.777344 272.183594 153.070312 273.441406 151.8125 C 274.703125 150.554688 275.40625 148.851562 275.40625 147.070312 L 275.40625 133.183594 C 275.40625 131.402344 274.703125 129.699219 273.441406 128.441406 C 272.183594 127.183594 270.476562 126.476562 268.695312 126.476562 Z M 268.695312 126.476562 " fill-opacity="1" fill-rule="nonzero"></path><path fill="#f4608a" d="M 236.121094 135.722656 C 235.519531 135.167969 234.734375 134.859375 233.917969 134.859375 C 233.101562 134.859375 232.316406 135.167969 231.71875 135.722656 L 230.886719 136.488281 L 230.058594 135.722656 C 229.457031 135.167969 228.671875 134.859375 227.855469 134.859375 C 227.039062 134.859375 226.253906 135.167969 225.652344 135.722656 C 225.339844 136.007812 225.085938 136.359375 224.910156 136.746094 C 224.738281 137.136719 224.648438 137.558594 224.648438 137.988281 C 224.648438 138.414062 224.738281 138.835938 224.910156 139.226562 C 225.085938 139.613281 225.339844 139.964844 225.652344 140.25 L 230.886719 145.097656 L 236.121094 140.3125 C 236.453125 140.03125 236.71875 139.675781 236.898438 139.28125 C 237.082031 138.886719 237.175781 138.453125 237.175781 138.019531 C 237.175781 137.582031 237.082031 137.152344 236.898438 136.753906 C 236.71875 136.359375 236.453125 136.007812 236.121094 135.722656 Z M 236.121094 135.722656 " fill-opacity="1" fill-rule="nonzero"></path><path fill="#1c85e8" d="M 241.964844 138.554688 C 242.011719 137.96875 242.238281 137.507812 242.644531 137.175781 C 243.054688 136.84375 243.585938 136.675781 244.234375 136.675781 C 244.671875 136.675781 245.046875 136.757812 245.359375 136.917969 C 245.679688 137.070312 245.917969 137.28125 246.078125 137.546875 C 246.242188 137.816406 246.328125 138.121094 246.328125 138.457031 C 246.328125 138.855469 246.210938 139.195312 245.980469 139.484375 C 245.757812 139.769531 245.460938 139.957031 245.101562 140.039062 L 245.101562 140.085938 C 245.511719 140.1875 245.84375 140.390625 246.085938 140.691406 C 246.328125 140.992188 246.453125 141.382812 246.453125 141.867188 C 246.453125 142.234375 246.367188 142.5625 246.199219 142.855469 C 246.035156 143.144531 245.785156 143.371094 245.453125 143.535156 C 245.121094 143.703125 244.722656 143.785156 244.257812 143.785156 C 243.578125 143.785156 243.023438 143.609375 242.589844 143.257812 C 242.152344 142.898438 241.910156 142.394531 241.859375 141.746094 L 242.703125 141.746094 C 242.746094 142.128906 242.902344 142.441406 243.171875 142.683594 C 243.441406 142.925781 243.800781 143.046875 244.246094 143.046875 C 244.695312 143.046875 245.035156 142.933594 245.261719 142.703125 C 245.5 142.464844 245.617188 142.164062 245.617188 141.792969 C 245.617188 141.3125 245.457031 140.96875 245.140625 140.757812 C 244.816406 140.546875 244.335938 140.441406 243.691406 140.441406 L 243.472656 140.441406 L 243.472656 139.714844 L 243.703125 139.714844 C 244.285156 139.707031 244.734375 139.613281 245.035156 139.425781 C 245.332031 139.234375 245.484375 138.941406 245.484375 138.542969 C 245.484375 138.207031 245.371094 137.9375 245.148438 137.730469 C 244.929688 137.527344 244.617188 137.425781 244.207031 137.425781 C 243.8125 137.425781 243.492188 137.527344 243.25 137.730469 C 243.003906 137.9375 242.863281 138.210938 242.820312 138.554688 Z M 248.671875 142.53125 L 247.601562 145.105469 L 247.015625 145.105469 L 247.714844 142.53125 Z M 253.945312 137.566406 L 250.582031 137.566406 L 250.582031 139.753906 C 250.730469 139.546875 250.945312 139.382812 251.234375 139.253906 C 251.523438 139.121094 251.832031 139.054688 252.164062 139.054688 C 252.695312 139.054688 253.128906 139.164062 253.457031 139.386719 C 253.789062 139.605469 254.027344 139.890625 254.167969 140.242188 C 254.316406 140.585938 254.386719 140.953125 254.386719 141.34375 C 254.386719 141.800781 254.304688 142.214844 254.128906 142.578125 C 253.957031 142.941406 253.691406 143.230469 253.332031 143.441406 C 252.984375 143.652344 252.546875 143.757812 252.019531 143.757812 C 251.351562 143.757812 250.808594 143.582031 250.390625 143.238281 C 249.976562 142.894531 249.722656 142.433594 249.636719 141.859375 L 250.488281 141.859375 C 250.570312 142.222656 250.746094 142.507812 251.015625 142.710938 C 251.28125 142.917969 251.621094 143.019531 252.027344 143.019531 C 252.535156 143.019531 252.914062 142.867188 253.171875 142.570312 C 253.425781 142.261719 253.554688 141.859375 253.554688 141.363281 C 253.554688 140.863281 253.425781 140.480469 253.171875 140.210938 C 252.914062 139.9375 252.539062 139.800781 252.042969 139.800781 C 251.703125 139.800781 251.40625 139.882812 251.148438 140.050781 C 250.898438 140.207031 250.71875 140.429688 250.601562 140.710938 L 249.78125 140.710938 L 249.78125 136.800781 L 253.945312 136.800781 Z M 255.441406 143.039062 C 256.253906 142.386719 256.890625 141.851562 257.347656 141.4375 C 257.808594 141.015625 258.195312 140.578125 258.507812 140.125 C 258.828125 139.667969 258.988281 139.214844 258.988281 138.773438 C 258.988281 138.359375 258.886719 138.035156 258.683594 137.796875 C 258.484375 137.554688 258.160156 137.433594 257.714844 137.433594 C 257.277344 137.433594 256.941406 137.570312 256.695312 137.847656 C 256.460938 138.113281 256.335938 138.476562 256.3125 138.929688 L 255.46875 138.929688 C 255.496094 138.214844 255.710938 137.660156 256.121094 137.273438 C 256.53125 136.882812 257.058594 136.6875 257.703125 136.6875 C 258.363281 136.6875 258.882812 136.871094 259.265625 137.234375 C 259.65625 137.597656 259.851562 138.097656 259.851562 138.738281 C 259.851562 139.265625 259.691406 139.785156 259.375 140.289062 C 259.058594 140.785156 258.699219 141.226562 258.296875 141.609375 C 257.898438 141.988281 257.378906 142.429688 256.753906 142.933594 L 260.050781 142.933594 L 260.050781 143.660156 L 255.441406 143.660156 Z M 265.324219 137.492188 L 262.660156 143.738281 L 261.777344 143.738281 L 264.480469 137.578125 L 260.78125 137.578125 L 260.78125 136.832031 L 265.324219 136.832031 Z M 265.324219 137.492188 " fill-opacity="1" fill-rule="nonzero"></path><g clip-path="url(#365cd32a69)"><path fill="#1c85e8" d="M 5.136719 254.308594 L 39.003906 254.308594 C 39.671875 254.308594 40.328125 254.179688 40.941406 253.921875 C 41.554688 253.671875 42.113281 253.296875 42.582031 252.828125 C 43.054688 252.359375 43.425781 251.800781 43.679688 251.1875 C 43.933594 250.574219 44.066406 249.917969 44.066406 249.253906 L 44.066406 238.78125 C 44.066406 238.117188 43.933594 237.460938 43.679688 236.847656 C 43.425781 236.234375 43.054688 235.675781 42.582031 235.207031 C 42.113281 234.734375 41.554688 234.363281 40.941406 234.109375 C 40.328125 233.855469 39.671875 233.722656 39.003906 233.722656 L 26.984375 233.722656 L 23.433594 230.179688 C 23.101562 229.847656 22.652344 229.660156 22.183594 229.660156 C 21.714844 229.660156 21.261719 229.847656 20.929688 230.179688 L 17.382812 233.722656 L 5.136719 233.722656 C 3.796875 233.722656 2.507812 234.257812 1.5625 235.207031 C 0.613281 236.152344 0.078125 237.441406 0.078125 238.78125 L 0.078125 249.253906 C 0.078125 250.59375 0.613281 251.878906 1.5625 252.828125 C 2.507812 253.777344 3.796875 254.308594 5.136719 254.308594 Z M 5.136719 254.308594 " fill-opacity="0.7" fill-rule="nonzero"></path></g><path fill="#ffffff" d="M 21.09375 246.589844 C 21.707031 246.097656 22.183594 245.699219 22.53125 245.382812 C 22.878906 245.066406 23.167969 244.738281 23.40625 244.394531 C 23.648438 244.046875 23.765625 243.707031 23.765625 243.375 C 23.765625 243.0625 23.691406 242.820312 23.535156 242.640625 C 23.386719 242.457031 23.144531 242.367188 22.804688 242.367188 C 22.476562 242.367188 22.222656 242.46875 22.039062 242.675781 C 21.863281 242.878906 21.765625 243.152344 21.75 243.492188 L 21.113281 243.492188 C 21.132812 242.953125 21.296875 242.535156 21.605469 242.242188 C 21.914062 241.949219 22.3125 241.800781 22.796875 241.800781 C 23.292969 241.800781 23.6875 241.9375 23.976562 242.214844 C 24.269531 242.488281 24.417969 242.867188 24.417969 243.347656 C 24.417969 243.746094 24.296875 244.136719 24.054688 244.519531 C 23.820312 244.894531 23.550781 245.226562 23.246094 245.515625 C 22.941406 245.796875 22.554688 246.128906 22.082031 246.511719 L 24.570312 246.511719 L 24.570312 247.058594 L 21.09375 247.058594 Z M 25.171875 245.957031 L 25.171875 245.457031 L 27.707031 241.945312 L 28.496094 241.945312 L 28.496094 245.382812 L 29.21875 245.382812 L 29.21875 245.957031 L 28.496094 245.957031 L 28.496094 247.117188 L 27.84375 247.117188 L 27.84375 245.957031 Z M 27.871094 242.632812 L 25.929688 245.382812 L 27.871094 245.382812 Z M 29.859375 243.210938 C 29.894531 242.765625 30.0625 242.421875 30.371094 242.171875 C 30.679688 241.921875 31.082031 241.796875 31.570312 241.796875 C 31.898438 241.796875 32.179688 241.855469 32.417969 241.976562 C 32.660156 242.089844 32.839844 242.25 32.960938 242.453125 C 33.085938 242.65625 33.148438 242.882812 33.148438 243.136719 C 33.148438 243.4375 33.0625 243.695312 32.886719 243.910156 C 32.71875 244.128906 32.496094 244.265625 32.222656 244.328125 L 32.222656 244.367188 C 32.535156 244.441406 32.785156 244.59375 32.96875 244.820312 C 33.148438 245.046875 33.242188 245.34375 33.242188 245.710938 C 33.242188 245.984375 33.179688 246.230469 33.054688 246.453125 C 32.929688 246.667969 32.742188 246.839844 32.488281 246.964844 C 32.238281 247.089844 31.9375 247.152344 31.585938 247.152344 C 31.074219 247.152344 30.65625 247.023438 30.328125 246.757812 C 30 246.488281 29.820312 246.105469 29.78125 245.617188 L 30.414062 245.617188 C 30.449219 245.90625 30.566406 246.140625 30.769531 246.324219 C 30.972656 246.507812 31.242188 246.597656 31.578125 246.597656 C 31.917969 246.597656 32.171875 246.511719 32.34375 246.335938 C 32.523438 246.160156 32.613281 245.929688 32.613281 245.652344 C 32.613281 245.289062 32.492188 245.03125 32.25 244.871094 C 32.011719 244.710938 31.648438 244.632812 31.160156 244.632812 L 30.992188 244.632812 L 30.992188 244.085938 L 31.167969 244.085938 C 31.609375 244.078125 31.945312 244.007812 32.171875 243.867188 C 32.398438 243.722656 32.511719 243.5 32.511719 243.203125 C 32.511719 242.949219 32.425781 242.742188 32.257812 242.589844 C 32.09375 242.433594 31.859375 242.359375 31.550781 242.359375 C 31.25 242.359375 31.011719 242.433594 30.828125 242.589844 C 30.644531 242.742188 30.535156 242.949219 30.503906 243.210938 Z M 37.042969 243.136719 C 36.9375 242.605469 36.605469 242.335938 36.050781 242.335938 C 35.621094 242.335938 35.300781 242.503906 35.089844 242.835938 C 34.878906 243.164062 34.773438 243.703125 34.78125 244.460938 C 34.890625 244.210938 35.074219 244.015625 35.328125 243.875 C 35.589844 243.730469 35.878906 243.660156 36.195312 243.660156 C 36.691406 243.660156 37.085938 243.8125 37.382812 244.121094 C 37.679688 244.429688 37.828125 244.855469 37.828125 245.398438 C 37.828125 245.726562 37.765625 246.019531 37.632812 246.28125 C 37.507812 246.539062 37.316406 246.746094 37.054688 246.902344 C 36.800781 247.054688 36.488281 247.132812 36.125 247.132812 C 35.628906 247.132812 35.238281 247.023438 34.960938 246.800781 C 34.679688 246.578125 34.484375 246.273438 34.375 245.882812 C 34.265625 245.492188 34.207031 245.011719 34.207031 244.4375 C 34.207031 242.671875 34.824219 241.789062 36.058594 241.789062 C 36.53125 241.789062 36.902344 241.914062 37.171875 242.171875 C 37.441406 242.425781 37.601562 242.75 37.648438 243.136719 Z M 36.058594 244.214844 C 35.851562 244.214844 35.65625 244.257812 35.472656 244.34375 C 35.289062 244.425781 35.140625 244.554688 35.023438 244.726562 C 34.914062 244.894531 34.859375 245.101562 34.859375 245.347656 C 34.859375 245.714844 34.964844 246.011719 35.175781 246.242188 C 35.390625 246.46875 35.691406 246.582031 36.085938 246.582031 C 36.425781 246.582031 36.691406 246.480469 36.890625 246.273438 C 37.09375 246.0625 37.191406 245.777344 37.191406 245.421875 C 37.191406 245.046875 37.097656 244.75 36.902344 244.539062 C 36.710938 244.324219 36.429688 244.214844 36.058594 244.214844 Z M 36.058594 244.214844 " fill-opacity="1" fill-rule="nonzero"></path><g clip-path="url(#edcfea6776)"><path stroke-linecap="round" transform="matrix(0.0661905, 0, 0, 0.0661483, 0.0458187, 20.158526)" fill="none" stroke-linejoin="miter" d="M 2800.34767 3408.084044 C 2800.34767 3408.084044 2963.524783 3373.892431 3038.120035 3294.761581 C 3136.970546 3189.883679 3159.80944 3064.10106 3268.102389 3051.16848 C 3438.066253 3030.854292 3536.621688 3630.949587 3742.938935 3549.751887 C 3949.315197 3468.613239 3900.509601 3020.460987 4023.320296 2944.518992 C 4107.889122 2892.198147 4151.855469 3047.802467 4270.240021 3007.17409 " stroke="#ffffff" stroke-width="46.988998" stroke-opacity="1" stroke-miterlimit="10"></path></g><g clip-path="url(#6cbba91b73)"><g clip-path="url(#4e08d28931)"><path fill="url(#d4f5fffea2)" d="M 74.808594 212.4375 L 74.808594 264.820312 L 133.988281 264.820312 L 133.988281 212.4375 Z M 74.808594 212.4375 " fill-rule="nonzero"></path></g></g><path fill="#ffffff" d="M 6.695312 248.175781 L 7.804688 248.175781 C 8.007812 248.175781 8.207031 248.09375 8.351562 247.945312 C 8.5 247.800781 8.582031 247.605469 8.582031 247.398438 L 8.582031 242.296875 C 8.582031 242.089844 8.5 241.894531 8.351562 241.75 C 8.207031 241.601562 8.007812 241.519531 7.804688 241.519531 L 6.695312 241.519531 C 6.488281 241.519531 6.289062 241.601562 6.144531 241.75 C 6 241.894531 5.917969 242.089844 5.917969 242.296875 L 5.917969 247.398438 C 5.917969 247.605469 6 247.800781 6.144531 247.945312 C 6.289062 248.09375 6.488281 248.175781 6.695312 248.175781 Z M 6.695312 248.175781 " fill-opacity="1" fill-rule="nonzero"></path><path fill="#ffffff" d="M 11.589844 238.304688 C 11.144531 238.304688 10.925781 238.527344 10.925781 239.636719 C 10.925781 240.691406 9.902344 241.539062 9.246094 241.972656 L 9.246094 247.46875 C 9.957031 247.796875 11.378906 248.285156 13.585938 248.285156 L 14.296875 248.285156 C 14.714844 248.285156 15.121094 248.136719 15.441406 247.867188 C 15.761719 247.597656 15.976562 247.226562 16.046875 246.8125 L 16.542969 243.929688 C 16.585938 243.675781 16.574219 243.414062 16.507812 243.164062 C 16.441406 242.914062 16.320312 242.683594 16.152344 242.484375 C 15.984375 242.289062 15.777344 242.128906 15.542969 242.019531 C 15.308594 241.910156 15.054688 241.851562 14.792969 241.851562 L 12.699219 241.851562 C 12.933594 241.292969 13.050781 240.6875 13.03125 240.078125 C 13.03125 238.75 12.035156 238.304688 11.589844 238.304688 Z M 11.589844 238.304688 " fill-opacity="1" fill-rule="nonzero"></path><path fill="#ffffff" d="M 43.660156 203.226562 C 37.773438 201.152344 33 194.699219 33 188.816406 C 33 182.933594 37.773438 179.847656 43.660156 181.921875 L 43.660156 175.082031 C 34.148438 171.730469 26.441406 176.71875 26.441406 186.226562 C 26.441406 195.730469 34.148438 206.152344 43.660156 209.5 C 52.769531 212.710938 60.222656 208.269531 60.835938 199.539062 L 54.277344 197.226562 C 53.816406 202.519531 49.238281 205.191406 43.660156 203.226562 Z M 43.660156 203.226562 " fill-opacity="1" fill-rule="nonzero"></path><path fill="#1c85e8" d="M 45.847656 173.667969 L 45.847656 180.507812 C 51.734375 182.582031 56.507812 189.03125 56.507812 194.914062 C 56.507812 195.222656 56.492188 195.519531 56.464844 195.8125 L 63.019531 198.121094 C 63.046875 197.738281 63.066406 197.347656 63.066406 196.945312 C 63.066406 187.441406 55.355469 177.019531 45.847656 173.667969 Z M 45.847656 173.667969 " fill-opacity="1" fill-rule="nonzero"></path><path stroke-linecap="butt" transform="matrix(0.0661905, 0, 0, 0.0661483, 0.0458187, 20.158526)" fill="none" stroke-linejoin="miter" d="M 658.921009 2767.537532 L 658.921009 2862.376446 " stroke="#ffffff" stroke-width="11.005" stroke-opacity="1" stroke-miterlimit="10"></path><path stroke-linecap="butt" transform="matrix(0.0661905, 0, 0, 0.0661483, 0.0458187, 20.158526)" fill="none" stroke-linejoin="miter" d="M 497.868444 2549.691484 L 398.781872 2514.732183 " stroke="#ffffff" stroke-width="11.005" stroke-opacity="1" stroke-miterlimit="10"></path><path stroke-linecap="round" transform="matrix(0.0661905, 0, 0, 0.0661483, 0.0458187, 20.158526)" fill="none" stroke-linejoin="miter" d="M 1076.15869 2564.454702 L 1260.050149 2599.414003 " stroke="#ffffff" stroke-width="46.988998" stroke-opacity="1" stroke-miterlimit="10"></path><path stroke-linecap="round" transform="matrix(0.0661905, 0, 0, 0.0661483, 0.0458187, 20.158526)" fill="none" stroke-linejoin="miter" d="M 1076.15869 2852.691775 L 1260.050149 2887.651075 " stroke="#ffffff" stroke-width="46.988998" stroke-opacity="0.4" stroke-miterlimit="10"></path><path stroke-linecap="round" transform="matrix(0.0661905, 0, 0, 0.0661483, 0.0458187, 20.158526)" fill="none" stroke-linejoin="miter" d="M 1076.15869 2711.496355 L 1340.369878 2761.75035 " stroke="#ffffff" stroke-width="46.988998" stroke-opacity="1" stroke-miterlimit="10"></path><g clip-path="url(#b927697055)"><g clip-path="url(#d5cced0461)"><path fill="url(#db6d294d17)" d="M 214.445312 24.929688 L 214.445312 123.570312 L 295.429688 123.570312 L 295.429688 24.929688 Z M 214.445312 24.929688 " fill-rule="nonzero"></path></g></g><path fill="#ffffff" d="M 220.011719 69.511719 L 220.011719 102.519531 C 220.011719 102.808594 220.078125 103.09375 220.203125 103.351562 C 220.328125 103.609375 220.507812 103.835938 220.730469 104.015625 C 220.957031 104.199219 221.21875 104.324219 221.496094 104.390625 C 221.777344 104.453125 222.070312 104.457031 222.351562 104.390625 C 228.367188 103.046875 244.640625 99.152344 254.917969 94.308594 C 255.25 94.152344 255.523438 93.90625 255.71875 93.597656 C 255.910156 93.292969 256.015625 92.9375 256.011719 92.574219 L 256.011719 60.425781 C 256.015625 60.105469 255.933594 59.789062 255.777344 59.507812 C 255.625 59.226562 255.402344 58.984375 255.132812 58.8125 C 254.859375 58.640625 254.550781 58.535156 254.230469 58.515625 C 253.910156 58.492188 253.589844 58.550781 253.296875 58.683594 C 247.570312 61.320312 233.804688 67.078125 221.835938 67.597656 C 221.34375 67.621094 220.878906 67.832031 220.539062 68.1875 C 220.199219 68.546875 220.011719 69.019531 220.011719 69.511719 Z M 220.011719 69.511719 " fill-opacity="1" fill-rule="nonzero"></path><path fill="#1c85e8" d="M 221.5 97.207031 L 221.5 100.679688 C 221.5 100.941406 221.5625 101.203125 221.679688 101.4375 C 221.796875 101.671875 221.964844 101.878906 222.171875 102.039062 C 222.382812 102.195312 222.625 102.304688 222.882812 102.355469 C 223.140625 102.40625 223.410156 102.398438 223.660156 102.328125 L 241.664062 97.410156 C 241.949219 97.332031 242.207031 97.183594 242.417969 96.976562 C 242.628906 96.769531 242.777344 96.511719 242.859375 96.226562 C 242.941406 95.945312 242.945312 95.648438 242.875 95.359375 C 242.808594 95.074219 242.667969 94.8125 242.46875 94.597656 L 232.816406 84.21875 C 232.640625 84.03125 232.429688 83.886719 232.195312 83.792969 C 231.957031 83.699219 231.703125 83.660156 231.449219 83.675781 C 231.195312 83.695312 230.949219 83.769531 230.726562 83.890625 C 230.503906 84.015625 230.3125 84.191406 230.164062 84.398438 L 221.816406 96.222656 C 221.609375 96.507812 221.5 96.855469 221.5 97.207031 Z M 221.5 97.207031 " fill-opacity="1" fill-rule="nonzero"></path><path fill="#1c85e8" d="M 239.855469 89.0625 L 245.257812 94.792969 C 245.433594 94.976562 245.65625 95.105469 245.902344 95.160156 C 246.148438 95.21875 246.40625 95.195312 246.644531 95.105469 C 248.242188 94.480469 251.824219 93.074219 253.640625 92.292969 C 253.867188 92.195312 254.058594 92.03125 254.199219 91.824219 C 254.332031 91.617188 254.40625 91.375 254.40625 91.128906 L 254.40625 85.761719 C 254.40625 85.484375 254.316406 85.21875 254.152344 85 L 246.558594 74.832031 C 246.417969 74.648438 246.234375 74.507812 246.027344 74.417969 C 245.816406 74.332031 245.585938 74.300781 245.359375 74.335938 C 245.136719 74.367188 244.921875 74.457031 244.742188 74.601562 C 244.566406 74.742188 244.429688 74.929688 244.351562 75.144531 L 239.59375 87.746094 C 239.507812 87.96875 239.488281 88.207031 239.535156 88.441406 C 239.582031 88.675781 239.695312 88.890625 239.855469 89.0625 Z M 239.855469 89.0625 " fill-opacity="0.6" fill-rule="nonzero"></path><path fill="#febb94" d="M 235.113281 80.117188 C 236.714844 80.117188 238.015625 78.820312 238.015625 77.21875 C 238.015625 75.617188 236.714844 74.320312 235.113281 74.320312 C 233.511719 74.320312 232.210938 75.617188 232.210938 77.21875 C 232.210938 78.820312 233.511719 80.117188 235.113281 80.117188 Z M 235.113281 80.117188 " fill-opacity="1" fill-rule="nonzero"></path><g clip-path="url(#a7c23c0d7d)"><path stroke-linecap="round" transform="matrix(0.0661905, 0, 0, 0.0661483, 0.0458187, 20.158526)" fill="none" stroke-linejoin="miter" d="M 3993.458589 566.105482 C 4105.941619 509.11946 4214.175552 444.102247 4317.27516 371.585319 " stroke="#ffffff" stroke-width="46.988998" stroke-opacity="1" stroke-miterlimit="10"></path></g><g clip-path="url(#28267af7ec)"><path stroke-linecap="round" transform="matrix(0.0661905, 0, 0, 0.0661483, 0.0458187, 20.158526)" fill="none" stroke-linejoin="miter" d="M 3993.458589 755.428993 C 3993.458589 755.428993 4067.168612 719.465793 4168.261703 658.168911 " stroke="#ffffff" stroke-width="46.988998" stroke-opacity="1" stroke-miterlimit="10"></path></g><g clip-path="url(#7bfd596642)"><path stroke-linecap="round" transform="matrix(0.0661905, 0, 0, 0.0661483, 0.0458187, 20.158526)" fill="none" stroke-linejoin="miter" d="M 3993.458589 940.441644 C 4105.941619 883.455621 4214.175552 818.438408 4317.27516 745.92148 " stroke="#ffffff" stroke-width="46.988998" stroke-opacity="1" stroke-miterlimit="10"></path></g><g clip-path="url(#55b15a421c)"><path stroke-linecap="round" transform="matrix(0.0661905, 0, 0, 0.0661483, 0.0458187, 20.158526)" fill="none" stroke-linejoin="miter" d="M 3993.458589 1148.248703 C 4105.941619 1091.203628 4214.175552 1026.186415 4317.27516 953.72854 " stroke="#ffffff" stroke-width="46.988998" stroke-opacity="1" stroke-miterlimit="10"></path></g><path fill="#ffffff" d="M 224.152344 113.914062 C 225.613281 113.914062 226.800781 112.726562 226.800781 111.265625 C 226.800781 109.804688 225.613281 108.617188 224.152344 108.617188 C 222.6875 108.617188 221.5 109.804688 221.5 111.265625 C 221.5 112.726562 222.6875 113.914062 224.152344 113.914062 Z M 224.152344 113.914062 " fill-opacity="1" fill-rule="nonzero"></path><path fill="#ffffff" d="M 239.511719 109.628906 C 240.972656 109.628906 242.160156 108.445312 242.160156 106.980469 C 242.160156 105.519531 240.972656 104.335938 239.511719 104.335938 C 238.046875 104.335938 236.863281 105.519531 236.863281 106.980469 C 236.863281 108.445312 238.046875 109.628906 239.511719 109.628906 Z M 239.511719 109.628906 " fill-opacity="1" fill-rule="nonzero"></path><path fill="#ffffff" d="M 253.363281 104.902344 C 254.828125 104.902344 256.011719 103.714844 256.011719 102.253906 C 256.011719 100.789062 254.828125 99.605469 253.363281 99.605469 C 251.902344 99.605469 250.714844 100.789062 250.714844 102.253906 C 250.714844 103.714844 251.902344 104.902344 253.363281 104.902344 Z M 253.363281 104.902344 " fill-opacity="1" fill-rule="nonzero"></path></svg>