<?xml version="1.0" encoding="UTF-8"?>
<svg xmlns="http://www.w3.org/2000/svg" xmlns:xlink="http://www.w3.org/1999/xlink" width="400" zoomAndPan="magnify" viewBox="0 0 300 299.999988" height="400" preserveAspectRatio="xMidYMid meet" version="1.0">
  <defs>
    <clipPath id="fb7d7cd18c">
      <path d="M 111 41.144531 L 300 41.144531 L 300 148 L 111 148 Z M 111 41.144531 " clip-rule="nonzero"></path>
    </clipPath>
    <clipPath id="832f5a28e5">
      <path d="M 12 41.144531 L 27 41.144531 L 27 87 L 12 87 Z M 12 41.144531 " clip-rule="nonzero"></path>
    </clipPath>
    <clipPath id="2e605e1e2a">
      <path d="M 0 161 L 28 161 L 28 242.144531 L 0 242.144531 Z M 0 161 " clip-rule="nonzero"></path>
    </clipPath>
  </defs>
  <path fill="#ffffff" d="M 240.023438 149.410156 L 171.339844 149.410156 L 171.339844 197.0625 L 240.023438 198.617188 Z M 240.023438 149.410156 " fill-opacity="1" fill-rule="nonzero"></path>
  <path fill="#000000" d="M 240.023438 198.859375 L 171.328125 197.304688 C 171.199219 197.304688 171.089844 197.195312 171.089844 197.0625 L 171.089844 149.410156 C 171.089844 149.28125 171.199219 149.171875 171.328125 149.171875 L 240.023438 149.171875 C 240.15625 149.171875 240.265625 149.28125 240.265625 149.410156 L 240.265625 198.617188 C 240.265625 198.683594 240.242188 198.75 240.1875 198.792969 C 240.15625 198.835938 240.089844 198.859375 240.023438 198.859375 Z M 171.578125 196.832031 L 239.785156 198.378906 L 239.785156 149.652344 L 171.578125 149.652344 Z M 171.578125 196.832031 " fill-opacity="1" fill-rule="nonzero"></path>
  <path fill="#ffffff" d="M 297.171875 145.339844 L 118.957031 145.339844 L 111.605469 146.410156 L 111.605469 149.160156 C 111.605469 152.476562 114.28125 155.160156 117.589844 155.160156 L 293.773438 155.160156 C 297.082031 155.160156 299.757812 152.476562 299.757812 149.160156 L 299.757812 146.960938 Z M 297.171875 145.339844 " fill-opacity="1" fill-rule="nonzero"></path>
  <path fill="#ffffff" d="M 292.929688 42.042969 L 294.261719 42.042969 C 297.300781 42.042969 299.757812 44.507812 299.757812 47.550781 L 299.757812 146.960938 L 111.605469 146.960938 L 111.605469 47.550781 C 111.605469 44.507812 114.0625 42.042969 117.101562 42.042969 Z M 292.929688 42.042969 " fill-opacity="1" fill-rule="nonzero"></path>
  <g clip-path="url(#fb7d7cd18c)">
    <path fill="#000000" d="M 299.757812 147.199219 L 111.605469 147.199219 C 111.472656 147.199219 111.363281 147.089844 111.363281 146.960938 L 111.363281 47.550781 C 111.363281 44.386719 113.929688 41.800781 117.101562 41.800781 L 294.261719 41.800781 C 297.421875 41.800781 300 44.375 300 47.550781 L 300 146.960938 C 300 147.089844 299.890625 147.199219 299.757812 147.199219 Z M 111.84375 146.71875 L 299.519531 146.71875 L 299.519531 47.550781 C 299.519531 44.648438 297.160156 42.285156 294.261719 42.285156 L 117.101562 42.285156 C 114.203125 42.285156 111.84375 44.648438 111.84375 47.550781 Z M 111.84375 146.71875 " fill-opacity="1" fill-rule="nonzero"></path>
  </g>
  <path fill="#000000" d="M 293.773438 155.398438 L 117.589844 155.398438 C 114.160156 155.398438 111.363281 152.597656 111.363281 149.160156 C 111.363281 149.027344 111.472656 148.917969 111.605469 148.917969 C 111.734375 148.917969 111.84375 149.027344 111.84375 149.160156 C 111.84375 152.335938 114.421875 154.917969 117.589844 154.917969 L 293.773438 154.917969 C 296.492188 154.917969 298.863281 152.980469 299.398438 150.320312 C 299.421875 150.1875 299.550781 150.101562 299.683594 150.132812 C 299.8125 150.15625 299.902344 150.285156 299.867188 150.417969 C 299.277344 153.296875 296.722656 155.398438 293.773438 155.398438 Z M 293.773438 155.398438 " fill-opacity="1" fill-rule="nonzero"></path>
  <path fill="#ffffff" d="M 213.832031 140.730469 L 178.648438 140.730469 L 178.648438 76.539062 L 213.832031 86.675781 Z M 213.832031 140.730469 " fill-opacity="1" fill-rule="nonzero"></path>
  <path fill="#000000" d="M 213.832031 140.972656 L 178.648438 140.972656 C 178.519531 140.972656 178.410156 140.863281 178.410156 140.730469 L 178.410156 76.539062 C 178.410156 76.460938 178.441406 76.394531 178.507812 76.339844 C 178.574219 76.296875 178.648438 76.285156 178.714844 76.296875 L 213.898438 86.421875 C 213.996094 86.457031 214.074219 86.542969 214.074219 86.652344 L 214.074219 140.71875 C 214.074219 140.871094 213.964844 140.972656 213.832031 140.972656 Z M 178.890625 140.488281 L 213.59375 140.488281 L 213.59375 86.847656 L 178.890625 76.855469 Z M 178.890625 140.488281 " fill-opacity="1" fill-rule="nonzero"></path>
  <path fill="#ffffff" d="M 292.363281 140.730469 L 262.597656 140.730469 L 262.597656 76.539062 L 292.363281 86.675781 Z M 292.363281 140.730469 " fill-opacity="1" fill-rule="nonzero"></path>
  <path fill="#000000" d="M 292.363281 140.972656 L 262.597656 140.972656 C 262.46875 140.972656 262.359375 140.863281 262.359375 140.730469 L 262.359375 76.539062 C 262.359375 76.460938 262.390625 76.382812 262.457031 76.339844 C 262.523438 76.296875 262.597656 76.285156 262.675781 76.308594 L 292.4375 86.433594 C 292.535156 86.464844 292.601562 86.554688 292.601562 86.664062 L 292.601562 140.730469 C 292.601562 140.871094 292.492188 140.972656 292.363281 140.972656 Z M 262.839844 140.488281 L 292.121094 140.488281 L 292.121094 86.839844 L 262.839844 76.875 Z M 262.839844 140.488281 " fill-opacity="1" fill-rule="nonzero"></path>
  <path fill="#ffffff" d="M 262.597656 140.730469 L 213.832031 140.730469 L 213.832031 86.675781 L 262.597656 76.539062 Z M 262.597656 140.730469 " fill-opacity="1" fill-rule="nonzero"></path>
  <path fill="#000000" d="M 262.597656 140.972656 L 213.832031 140.972656 C 213.703125 140.972656 213.59375 140.863281 213.59375 140.730469 L 213.59375 86.675781 C 213.59375 86.566406 213.667969 86.464844 213.789062 86.433594 L 262.554688 76.308594 C 262.621094 76.296875 262.695312 76.308594 262.75 76.351562 C 262.804688 76.394531 262.839844 76.460938 262.839844 76.539062 L 262.839844 140.730469 C 262.839844 140.871094 262.730469 140.972656 262.597656 140.972656 Z M 214.074219 140.488281 L 262.359375 140.488281 L 262.359375 76.832031 L 214.074219 86.859375 Z M 214.074219 140.488281 " fill-opacity="1" fill-rule="nonzero"></path>
  <path fill="#e2eaff" d="M 217.285156 107.714844 L 217.285156 89.476562 L 259.15625 80.785156 L 259.15625 107.714844 Z M 217.285156 107.714844 " fill-opacity="1" fill-rule="nonzero"></path>
  <path fill="#e2eaff" d="M 259.15625 107.953125 L 217.285156 107.953125 C 217.15625 107.953125 217.046875 107.84375 217.046875 107.714844 L 217.046875 89.476562 C 217.046875 89.367188 217.121094 89.269531 217.242188 89.234375 L 259.113281 80.542969 C 259.179688 80.53125 259.253906 80.542969 259.308594 80.585938 C 259.363281 80.632812 259.398438 80.695312 259.398438 80.773438 L 259.398438 107.714844 C 259.398438 107.84375 259.289062 107.953125 259.15625 107.953125 Z M 217.527344 107.472656 L 258.917969 107.472656 L 258.917969 81.082031 L 217.527344 89.671875 Z M 217.527344 107.472656 " fill-opacity="1" fill-rule="nonzero"></path>
  <path fill="#ffffff" d="M 178.683594 140.730469 L 152.984375 140.730469 L 152.984375 86.675781 L 178.683594 76.539062 Z M 178.683594 140.730469 " fill-opacity="1" fill-rule="nonzero"></path>
  <path fill="#000000" d="M 178.683594 140.972656 L 152.984375 140.972656 C 152.851562 140.972656 152.742188 140.863281 152.742188 140.730469 L 152.742188 86.675781 C 152.742188 86.574219 152.808594 86.488281 152.894531 86.457031 L 178.59375 76.328125 C 178.671875 76.296875 178.746094 76.308594 178.8125 76.351562 C 178.878906 76.394531 178.921875 76.472656 178.921875 76.546875 L 178.921875 140.742188 C 178.921875 140.871094 178.8125 140.972656 178.683594 140.972656 Z M 153.222656 140.488281 L 178.441406 140.488281 L 178.441406 76.886719 L 153.222656 86.828125 Z M 153.222656 140.488281 " fill-opacity="1" fill-rule="nonzero"></path>
  <path fill="#e2eaff" d="M 156.425781 137.28125 L 156.425781 89.015625 L 175.230469 81.605469 L 175.230469 137.28125 Z M 156.425781 137.28125 " fill-opacity="1" fill-rule="nonzero"></path>
  <path fill="#e2eaff" d="M 175.230469 137.523438 L 156.425781 137.523438 C 156.292969 137.523438 156.183594 137.414062 156.183594 137.28125 L 156.183594 89.015625 C 156.183594 88.917969 156.25 88.832031 156.335938 88.796875 L 175.140625 81.386719 C 175.21875 81.355469 175.296875 81.363281 175.359375 81.410156 C 175.425781 81.453125 175.46875 81.527344 175.46875 81.605469 L 175.46875 137.28125 C 175.46875 137.414062 175.359375 137.523438 175.230469 137.523438 Z M 156.664062 137.042969 L 174.988281 137.042969 L 174.988281 81.957031 L 156.664062 89.179688 Z M 156.664062 137.042969 " fill-opacity="1" fill-rule="nonzero"></path>
  <path fill="#e2eaff" d="M 243.628906 130.175781 L 243.628906 112.09375 L 259.035156 112.09375 L 259.035156 130.132812 Z M 243.628906 130.175781 " fill-opacity="1" fill-rule="nonzero"></path>
  <path fill="#e2eaff" d="M 243.628906 130.417969 C 243.5625 130.417969 243.507812 130.394531 243.453125 130.351562 C 243.410156 130.308594 243.390625 130.242188 243.390625 130.175781 L 243.390625 112.09375 C 243.390625 111.960938 243.5 111.851562 243.628906 111.851562 L 259.035156 111.851562 C 259.167969 111.851562 259.277344 111.960938 259.277344 112.09375 L 259.277344 130.132812 C 259.277344 130.265625 259.167969 130.375 259.035156 130.375 Z M 243.871094 112.332031 L 243.871094 129.9375 L 258.796875 129.894531 L 258.796875 112.332031 Z M 243.871094 112.332031 " fill-opacity="1" fill-rule="nonzero"></path>
  <path fill="#e2eaff" d="M 217.230469 130.175781 L 217.230469 112.09375 L 225.503906 112.09375 L 225.503906 130.132812 Z M 217.230469 130.175781 " fill-opacity="1" fill-rule="nonzero"></path>
  <path fill="#e2eaff" d="M 217.230469 130.417969 C 217.164062 130.417969 217.109375 130.394531 217.054688 130.351562 C 217.011719 130.308594 216.992188 130.242188 216.992188 130.175781 L 216.992188 112.09375 C 216.992188 111.960938 217.101562 111.851562 217.230469 111.851562 L 225.503906 111.851562 C 225.632812 111.851562 225.742188 111.960938 225.742188 112.09375 L 225.742188 130.132812 C 225.742188 130.265625 225.632812 130.375 225.503906 130.375 Z M 217.472656 112.332031 L 217.472656 129.9375 L 225.261719 129.894531 L 225.261719 112.332031 Z M 217.472656 112.332031 " fill-opacity="1" fill-rule="nonzero"></path>
  <path fill="#ffffff" d="M 226.738281 135.179688 L 226.738281 110.933594 L 240.757812 110.933594 L 240.757812 135.125 Z M 226.738281 135.179688 " fill-opacity="1" fill-rule="nonzero"></path>
  <path fill="#000000" d="M 226.738281 135.421875 C 226.671875 135.421875 226.617188 135.398438 226.5625 135.355469 C 226.519531 135.3125 226.496094 135.246094 226.496094 135.179688 L 226.496094 110.933594 C 226.496094 110.800781 226.605469 110.691406 226.738281 110.691406 L 240.757812 110.691406 C 240.886719 110.691406 240.996094 110.800781 240.996094 110.933594 L 240.996094 135.113281 C 240.996094 135.246094 240.886719 135.355469 240.757812 135.355469 Z M 226.976562 111.171875 L 226.976562 134.9375 L 240.515625 134.882812 L 240.515625 111.171875 Z M 226.976562 111.171875 " fill-opacity="1" fill-rule="nonzero"></path>
  <path fill="#e2eaff" d="M 236.308594 141.15625 L 246.316406 141.15625 L 246.316406 134.546875 L 238.222656 134.546875 L 235.488281 136.679688 Z M 236.308594 141.15625 " fill-opacity="1" fill-rule="nonzero"></path>
  <path fill="#ffffff" d="M 220.769531 134.71875 L 238.40625 134.71875 L 238.40625 137.863281 L 220.769531 137.863281 Z M 220.769531 134.71875 " fill-opacity="1" fill-rule="nonzero"></path>
  <path fill="#000000" d="M 238.40625 138.101562 L 220.769531 138.101562 C 220.640625 138.101562 220.53125 137.992188 220.53125 137.863281 L 220.53125 134.71875 C 220.53125 134.589844 220.640625 134.480469 220.769531 134.480469 L 238.40625 134.480469 C 238.539062 134.480469 238.648438 134.589844 238.648438 134.71875 L 238.648438 137.863281 C 238.648438 137.992188 238.539062 138.101562 238.40625 138.101562 Z M 221.011719 137.621094 L 238.167969 137.621094 L 238.167969 134.960938 L 221.011719 134.960938 Z M 221.011719 137.621094 " fill-opacity="1" fill-rule="nonzero"></path>
  <path fill="#ffffff" d="M 218.671875 137.851562 L 236.308594 137.851562 L 236.308594 140.992188 L 218.671875 140.992188 Z M 218.671875 137.851562 " fill-opacity="1" fill-rule="nonzero"></path>
  <path fill="#000000" d="M 236.308594 141.234375 L 218.671875 141.234375 C 218.542969 141.234375 218.433594 141.125 218.433594 140.992188 L 218.433594 137.851562 C 218.433594 137.71875 218.542969 137.609375 218.671875 137.609375 L 236.308594 137.609375 C 236.441406 137.609375 236.550781 137.71875 236.550781 137.851562 L 236.550781 140.992188 C 236.550781 141.125 236.441406 141.234375 236.308594 141.234375 Z M 218.914062 140.753906 L 236.070312 140.753906 L 236.070312 138.09375 L 218.914062 138.09375 Z M 218.914062 140.753906 " fill-opacity="1" fill-rule="nonzero"></path>
  <path fill="#e2eaff" d="M 228.78125 112.792969 L 232.582031 112.792969 L 232.582031 121.167969 L 228.78125 121.167969 Z M 228.78125 112.792969 " fill-opacity="1" fill-rule="nonzero"></path>
  <path fill="#e2eaff" d="M 232.59375 121.398438 L 228.792969 121.398438 C 228.660156 121.398438 228.550781 121.289062 228.550781 121.15625 L 228.550781 112.78125 C 228.550781 112.652344 228.660156 112.542969 228.792969 112.542969 L 232.59375 112.542969 C 232.726562 112.542969 232.835938 112.652344 232.835938 112.78125 L 232.835938 121.15625 C 232.835938 121.300781 232.726562 121.398438 232.59375 121.398438 Z M 229.019531 120.917969 L 232.34375 120.917969 L 232.34375 113.023438 L 229.019531 113.023438 Z M 229.019531 120.917969 " fill-opacity="1" fill-rule="nonzero"></path>
  <path fill="#e2eaff" d="M 234.625 112.792969 L 238.429688 112.792969 L 238.429688 121.167969 L 234.625 121.167969 Z M 234.625 112.792969 " fill-opacity="1" fill-rule="nonzero"></path>
  <path fill="#e2eaff" d="M 238.441406 121.398438 L 234.636719 121.398438 C 234.507812 121.398438 234.398438 121.289062 234.398438 121.15625 L 234.398438 112.78125 C 234.398438 112.652344 234.507812 112.542969 234.636719 112.542969 L 238.441406 112.542969 C 238.570312 112.542969 238.679688 112.652344 238.679688 112.78125 L 238.679688 121.15625 C 238.679688 121.300781 238.570312 121.398438 238.441406 121.398438 Z M 234.867188 120.917969 L 238.1875 120.917969 L 238.1875 113.023438 L 234.867188 113.023438 Z M 234.867188 120.917969 " fill-opacity="1" fill-rule="nonzero"></path>
  <path fill="#ffffff" d="M 236.265625 123.007812 L 228.78125 123.007812 L 228.78125 132.34375 L 238.441406 132.34375 L 238.441406 123.007812 Z M 236.265625 123.007812 " fill-opacity="1" fill-rule="nonzero"></path>
  <path fill="#000000" d="M 238.441406 132.585938 L 228.792969 132.585938 C 228.660156 132.585938 228.550781 132.476562 228.550781 132.34375 L 228.550781 123.007812 C 228.550781 122.875 228.660156 122.765625 228.792969 122.765625 L 238.441406 122.765625 C 238.570312 122.765625 238.679688 122.875 238.679688 123.007812 L 238.679688 132.34375 C 238.679688 132.476562 238.570312 132.585938 238.441406 132.585938 Z M 229.019531 132.105469 L 238.1875 132.105469 L 238.1875 123.246094 L 229.019531 123.246094 Z M 229.019531 132.105469 " fill-opacity="1" fill-rule="nonzero"></path>
  <path fill="#ffffff" d="M 201.082031 135.160156 L 201.082031 110.910156 L 191.738281 110.910156 L 191.738281 135.105469 Z M 201.082031 135.160156 " fill-opacity="1" fill-rule="nonzero"></path>
  <path fill="#000000" d="M 201.082031 135.398438 L 191.738281 135.34375 C 191.609375 135.34375 191.5 135.234375 191.5 135.105469 L 191.5 110.910156 C 191.5 110.78125 191.609375 110.667969 191.738281 110.667969 L 201.082031 110.667969 C 201.210938 110.667969 201.320312 110.78125 201.320312 110.910156 L 201.320312 135.160156 C 201.320312 135.222656 201.300781 135.277344 201.257812 135.332031 C 201.203125 135.378906 201.148438 135.398438 201.082031 135.398438 Z M 191.980469 134.863281 L 200.839844 134.917969 L 200.839844 111.152344 L 191.980469 111.152344 Z M 191.980469 134.863281 " fill-opacity="1" fill-rule="nonzero"></path>
  <path fill="#e2eaff" d="M 194.699219 141.136719 L 188.035156 141.136719 L 188.035156 134.523438 L 193.433594 134.523438 L 195.246094 136.65625 Z M 194.699219 141.136719 " fill-opacity="1" fill-rule="nonzero"></path>
  <path fill="#ffffff" d="M 205.0625 137.832031 L 193.304688 137.832031 L 193.304688 134.6875 L 205.0625 134.6875 Z M 205.0625 137.832031 " fill-opacity="1" fill-rule="nonzero"></path>
  <path fill="#000000" d="M 205.058594 138.070312 L 193.300781 138.070312 C 193.171875 138.070312 193.0625 137.960938 193.0625 137.828125 L 193.0625 134.6875 C 193.0625 134.554688 193.171875 134.445312 193.300781 134.445312 L 205.058594 134.445312 C 205.191406 134.445312 205.300781 134.554688 205.300781 134.6875 L 205.300781 137.828125 C 205.300781 137.972656 205.191406 138.070312 205.058594 138.070312 Z M 193.542969 137.589844 L 204.820312 137.589844 L 204.820312 134.929688 L 193.542969 134.929688 Z M 193.542969 137.589844 " fill-opacity="1" fill-rule="nonzero"></path>
  <path fill="#ffffff" d="M 206.453125 140.960938 L 194.699219 140.960938 L 194.699219 137.816406 L 206.453125 137.816406 Z M 206.453125 140.960938 " fill-opacity="1" fill-rule="nonzero"></path>
  <path fill="#000000" d="M 206.457031 141.199219 L 194.699219 141.199219 C 194.570312 141.199219 194.460938 141.089844 194.460938 140.960938 L 194.460938 137.820312 C 194.460938 137.6875 194.570312 137.578125 194.699219 137.578125 L 206.457031 137.578125 C 206.589844 137.578125 206.699219 137.6875 206.699219 137.820312 L 206.699219 140.960938 C 206.699219 141.089844 206.589844 141.199219 206.457031 141.199219 Z M 194.941406 140.71875 L 206.21875 140.71875 L 206.21875 138.058594 L 194.941406 138.058594 Z M 194.941406 140.71875 " fill-opacity="1" fill-rule="nonzero"></path>
  <path fill="#ffffff" d="M 193.34375 113.210938 L 199.78125 113.210938 L 199.78125 132.324219 L 193.34375 132.324219 Z M 193.34375 113.210938 " fill-opacity="1" fill-rule="nonzero"></path>
  <path fill="#000000" d="M 199.78125 132.5625 L 193.34375 132.5625 C 193.214844 132.5625 193.105469 132.453125 193.105469 132.324219 L 193.105469 113.210938 C 193.105469 113.078125 193.214844 112.96875 193.34375 112.96875 L 199.78125 112.96875 C 199.914062 112.96875 200.023438 113.078125 200.023438 113.210938 L 200.023438 132.324219 C 200.023438 132.453125 199.914062 132.5625 199.78125 132.5625 Z M 193.585938 132.082031 L 199.542969 132.082031 L 199.542969 113.449219 L 193.585938 113.449219 Z M 193.585938 132.082031 " fill-opacity="1" fill-rule="nonzero"></path>
  <path fill="#ffffff" d="M 169.144531 139.21875 C 169.011719 139.21875 168.902344 139.109375 168.902344 138.980469 L 168.902344 82.699219 C 168.902344 82.570312 169.011719 82.460938 169.144531 82.460938 C 169.273438 82.460938 169.382812 82.570312 169.382812 82.699219 L 169.382812 138.980469 C 169.382812 139.109375 169.273438 139.21875 169.144531 139.21875 Z M 169.144531 139.21875 " fill-opacity="1" fill-rule="nonzero"></path>
  <path fill="#ffffff" d="M 162.171875 138.441406 C 162.042969 138.441406 161.933594 138.332031 161.933594 138.203125 L 161.933594 85 C 161.933594 84.867188 162.042969 84.757812 162.171875 84.757812 C 162.304688 84.757812 162.414062 84.867188 162.414062 85 L 162.414062 138.203125 C 162.414062 138.34375 162.304688 138.441406 162.171875 138.441406 Z M 162.171875 138.441406 " fill-opacity="1" fill-rule="nonzero"></path>
  <path fill="#ffffff" d="M 155.878906 98.726562 C 155.769531 98.726562 155.660156 98.640625 155.636719 98.53125 C 155.617188 98.398438 155.703125 98.277344 155.835938 98.257812 L 176.78125 94.589844 C 176.914062 94.566406 177.03125 94.65625 177.054688 94.785156 C 177.074219 94.917969 176.988281 95.039062 176.859375 95.058594 L 155.921875 98.726562 C 155.898438 98.726562 155.890625 98.726562 155.878906 98.726562 Z M 155.878906 98.726562 " fill-opacity="1" fill-rule="nonzero"></path>
  <path fill="#ffffff" d="M 176.53125 110.605469 L 155.582031 110.605469 C 155.453125 110.605469 155.34375 110.496094 155.34375 110.363281 C 155.34375 110.230469 155.453125 110.121094 155.582031 110.121094 L 176.53125 110.121094 C 176.660156 110.121094 176.769531 110.230469 176.769531 110.363281 C 176.769531 110.496094 176.660156 110.605469 176.53125 110.605469 Z M 176.53125 110.605469 " fill-opacity="1" fill-rule="nonzero"></path>
  <path fill="#ffffff" d="M 176.824219 124.671875 L 156.019531 124.671875 C 155.890625 124.671875 155.78125 124.5625 155.78125 124.429688 C 155.78125 124.300781 155.890625 124.1875 156.019531 124.1875 L 176.824219 124.1875 C 176.957031 124.1875 177.066406 124.300781 177.066406 124.429688 C 177.066406 124.5625 176.957031 124.671875 176.824219 124.671875 Z M 176.824219 124.671875 " fill-opacity="1" fill-rule="nonzero"></path>
  <path fill="#ffffff" d="M 176.148438 137.269531 C 176.015625 137.269531 175.90625 137.160156 175.90625 137.03125 L 175.90625 82.066406 C 175.90625 81.933594 176.015625 81.824219 176.148438 81.824219 C 176.277344 81.824219 176.386719 81.933594 176.386719 82.066406 L 176.386719 137.03125 C 176.386719 137.171875 176.277344 137.269531 176.148438 137.269531 Z M 176.148438 137.269531 " fill-opacity="1" fill-rule="nonzero"></path>
  <path fill="#e2eaff" d="M 90.679688 70.8125 L 158.195312 73.363281 L 205.988281 70.648438 L 132.59375 66.335938 Z M 90.679688 70.8125 " fill-opacity="1" fill-rule="nonzero"></path>
  <path fill="#ffffff" d="M 132.734375 66.367188 L 90.679688 70.8125 L 90.679688 52.945312 L 132.734375 45.730469 Z M 132.734375 66.367188 " fill-opacity="1" fill-rule="nonzero"></path>
  <path fill="#ffffff" d="M 90.679688 70.8125 L 90.679688 52.945312 L 132.234375 45.917969 Z M 90.679688 70.8125 " fill-opacity="1" fill-rule="nonzero"></path>
  <path fill="#000000" d="M 90.679688 71.050781 C 90.546875 71.050781 90.4375 70.941406 90.4375 70.8125 L 90.4375 52.945312 C 90.4375 52.824219 90.527344 52.726562 90.636719 52.707031 L 132.191406 45.675781 C 132.320312 45.65625 132.441406 45.742188 132.460938 45.875 C 132.484375 46.007812 132.398438 46.125 132.265625 46.148438 L 90.910156 53.144531 L 90.910156 70.8125 C 90.921875 70.941406 90.8125 71.050781 90.679688 71.050781 Z M 90.679688 71.050781 " fill-opacity="1" fill-rule="nonzero"></path>
  <path fill="#5479f7" d="M 206 70.648438 L 132.59375 66.378906 L 132.59375 45.546875 L 206.019531 49.773438 Z M 206 70.648438 " fill-opacity="1" fill-rule="nonzero"></path>
  <path fill="#ffffff" d="M 137.511719 60.3125 L 166.464844 62.328125 L 166.464844 53.164062 L 137.511719 51.171875 Z M 137.511719 60.3125 " fill-opacity="1" fill-rule="nonzero"></path>
  <path fill="#ffffff" d="M 172.105469 62.984375 L 201.070312 65 L 201.070312 55.847656 L 172.105469 53.84375 Z M 172.105469 62.984375 " fill-opacity="1" fill-rule="nonzero"></path>
  <path fill="#5479f7" d="M 203.191406 61.035156 C 203.179688 61.035156 203.179688 61.035156 203.167969 61.035156 L 135.378906 55.988281 C 135.25 55.980469 135.152344 55.871094 135.160156 55.726562 C 135.171875 55.59375 135.28125 55.496094 135.425781 55.507812 L 203.210938 60.554688 C 203.34375 60.566406 203.441406 60.675781 203.429688 60.816406 C 203.421875 60.9375 203.3125 61.035156 203.191406 61.035156 Z M 203.191406 61.035156 " fill-opacity="1" fill-rule="nonzero"></path>
  <path fill="#5479f7" d="M 160.804688 65.722656 C 160.675781 65.722656 160.566406 65.613281 160.566406 65.480469 L 160.566406 51.402344 C 160.566406 51.269531 160.675781 51.160156 160.804688 51.160156 C 160.9375 51.160156 161.046875 51.269531 161.046875 51.402344 L 161.046875 65.480469 C 161.046875 65.613281 160.9375 65.722656 160.804688 65.722656 Z M 160.804688 65.722656 " fill-opacity="1" fill-rule="nonzero"></path>
  <path fill="#5479f7" d="M 154.929688 64.648438 C 154.796875 64.648438 154.6875 64.539062 154.6875 64.40625 L 154.6875 50.339844 C 154.6875 50.210938 154.796875 50.101562 154.929688 50.101562 C 155.058594 50.101562 155.167969 50.210938 155.167969 50.339844 L 155.167969 64.417969 C 155.167969 64.539062 155.058594 64.648438 154.929688 64.648438 Z M 154.929688 64.648438 " fill-opacity="1" fill-rule="nonzero"></path>
  <path fill="#5479f7" d="M 143.171875 64.835938 C 143.039062 64.835938 142.929688 64.726562 142.929688 64.59375 L 142.929688 50.515625 C 142.929688 50.382812 143.039062 50.273438 143.171875 50.273438 C 143.300781 50.273438 143.410156 50.382812 143.410156 50.515625 L 143.410156 64.59375 C 143.410156 64.726562 143.300781 64.835938 143.171875 64.835938 Z M 143.171875 64.835938 " fill-opacity="1" fill-rule="nonzero"></path>
  <path fill="#5479f7" d="M 149.050781 64.746094 C 148.917969 64.746094 148.808594 64.636719 148.808594 64.507812 L 148.808594 50.429688 C 148.808594 50.296875 148.917969 50.1875 149.050781 50.1875 C 149.179688 50.1875 149.289062 50.296875 149.289062 50.429688 L 149.289062 64.507812 C 149.289062 64.636719 149.179688 64.746094 149.050781 64.746094 Z M 149.050781 64.746094 " fill-opacity="1" fill-rule="nonzero"></path>
  <path fill="#5479f7" d="M 195.410156 67.964844 C 195.28125 67.964844 195.171875 67.855469 195.171875 67.726562 L 195.171875 53.65625 C 195.171875 53.527344 195.28125 53.417969 195.410156 53.417969 C 195.542969 53.417969 195.652344 53.527344 195.652344 53.65625 L 195.652344 67.734375 C 195.652344 67.867188 195.542969 67.964844 195.410156 67.964844 Z M 195.410156 67.964844 " fill-opacity="1" fill-rule="nonzero"></path>
  <path fill="#5479f7" d="M 189.53125 66.902344 C 189.402344 66.902344 189.292969 66.792969 189.292969 66.664062 L 189.292969 52.585938 C 189.292969 52.453125 189.402344 52.34375 189.53125 52.34375 C 189.664062 52.34375 189.773438 52.453125 189.773438 52.585938 L 189.773438 66.664062 C 189.773438 66.792969 189.664062 66.902344 189.53125 66.902344 Z M 189.53125 66.902344 " fill-opacity="1" fill-rule="nonzero"></path>
  <path fill="#5479f7" d="M 177.773438 67.089844 C 177.644531 67.089844 177.535156 66.980469 177.535156 66.847656 L 177.535156 52.769531 C 177.535156 52.640625 177.644531 52.53125 177.773438 52.53125 C 177.90625 52.53125 178.015625 52.640625 178.015625 52.769531 L 178.015625 66.847656 C 178.015625 66.980469 177.90625 67.089844 177.773438 67.089844 Z M 177.773438 67.089844 " fill-opacity="1" fill-rule="nonzero"></path>
  <path fill="#5479f7" d="M 183.652344 66.992188 C 183.523438 66.992188 183.414062 66.882812 183.414062 66.75 L 183.414062 52.683594 C 183.414062 52.550781 183.523438 52.441406 183.652344 52.441406 C 183.785156 52.441406 183.894531 52.550781 183.894531 52.683594 L 183.894531 66.761719 C 183.894531 66.882812 183.785156 66.992188 183.652344 66.992188 Z M 183.652344 66.992188 " fill-opacity="1" fill-rule="nonzero"></path>
  <path fill="#ffffff" d="M 87.347656 195.882812 L 139.085938 195.882812 L 139.085938 176.035156 L 251.257812 176.035156 L 251.257812 195.882812 L 299.726562 195.882812 L 299.757812 241.890625 L 85.140625 241.890625 Z M 87.347656 195.882812 " fill-opacity="1" fill-rule="nonzero"></path>
  <path fill="#000000" d="M 299.507812 196.121094 L 251.246094 196.121094 C 251.113281 196.121094 251.003906 196.011719 251.003906 195.882812 L 251.003906 176.273438 L 139.324219 176.273438 L 139.324219 195.882812 C 139.324219 196.011719 139.214844 196.121094 139.085938 196.121094 L 104.097656 196.121094 C 103.964844 196.121094 103.855469 196.011719 103.855469 195.882812 C 103.855469 195.75 103.964844 195.640625 104.097656 195.640625 L 138.84375 195.640625 L 138.84375 176.035156 C 138.84375 175.902344 138.953125 175.792969 139.085938 175.792969 L 251.246094 175.792969 C 251.375 175.792969 251.484375 175.902344 251.484375 176.035156 L 251.484375 195.640625 L 299.507812 195.640625 C 299.640625 195.640625 299.75 195.75 299.75 195.882812 C 299.75 196.011719 299.648438 196.121094 299.507812 196.121094 Z M 299.507812 196.121094 " fill-opacity="1" fill-rule="nonzero"></path>
  <path fill="#000000" d="M 248.503906 196.054688 L 223.625 196.054688 C 223.492188 196.054688 223.382812 195.945312 223.382812 195.816406 C 223.382812 195.683594 223.492188 195.574219 223.625 195.574219 L 248.503906 195.574219 C 248.632812 195.574219 248.742188 195.683594 248.742188 195.816406 C 248.742188 195.957031 248.644531 196.054688 248.503906 196.054688 Z M 248.503906 196.054688 " fill-opacity="1" fill-rule="nonzero"></path>
  <path fill="#5479f7" d="M 183.863281 193.855469 L 241.652344 193.855469 C 242.339844 193.855469 242.886719 193.121094 242.886719 192.214844 L 242.886719 186.695312 C 242.886719 185.789062 242.328125 185.054688 241.652344 185.054688 L 183.863281 185.054688 L 183.863281 186.007812 C 183.863281 186.355469 184.058594 186.640625 184.320312 186.675781 L 184.867188 186.742188 L 186.59375 189.464844 L 184.867188 192.125 L 184.253906 192.289062 C 184.023438 192.355469 183.851562 192.628906 183.851562 192.949219 L 183.851562 193.855469 Z M 183.863281 193.855469 " fill-opacity="1" fill-rule="nonzero"></path>
  <path fill="#ffffff" d="M 184.867188 192.105469 L 212.609375 192.105469 C 213.15625 192.105469 213.59375 191.667969 213.59375 191.121094 L 213.59375 187.703125 C 213.59375 187.15625 213.15625 186.71875 212.609375 186.71875 L 184.867188 186.71875 Z M 184.867188 192.105469 " fill-opacity="1" fill-rule="nonzero"></path>
  <path fill="#5479f7" d="M 184.988281 191.710938 C 184.855469 191.710938 184.746094 191.601562 184.746094 191.46875 L 184.746094 187.132812 C 184.746094 187.003906 184.855469 186.894531 184.988281 186.894531 C 185.117188 186.894531 185.226562 187.003906 185.226562 187.132812 L 185.226562 191.46875 C 185.226562 191.601562 185.117188 191.710938 184.988281 191.710938 Z M 184.988281 191.710938 " fill-opacity="1" fill-rule="nonzero"></path>
  <path fill="#e2eaff" d="M 187.160156 185.042969 L 245.289062 185.042969 C 245.78125 185.042969 246.1875 184.507812 246.1875 183.851562 L 246.1875 180.9375 C 246.1875 180.28125 245.78125 179.746094 245.289062 179.746094 L 187.160156 179.746094 L 187.160156 180.097656 C 187.160156 180.425781 187.347656 180.6875 187.597656 180.707031 L 188.175781 180.753906 L 188.175781 183.980469 L 187.585938 184.058594 C 187.347656 184.089844 187.171875 184.355469 187.171875 184.671875 L 187.171875 185.042969 Z M 187.160156 185.042969 " fill-opacity="1" fill-rule="nonzero"></path>
  <path fill="#ffffff" d="M 188.167969 184.003906 L 216.292969 184.003906 C 216.621094 184.003906 216.890625 183.730469 216.890625 183.402344 L 216.890625 181.375 C 216.890625 181.046875 216.621094 180.773438 216.292969 180.773438 L 188.167969 180.773438 Z M 188.167969 184.003906 " fill-opacity="1" fill-rule="nonzero"></path>
  <path fill="#e2eaff" d="M 188.175781 183.925781 C 188.046875 183.925781 187.9375 183.816406 187.9375 183.6875 L 187.9375 181.082031 C 187.9375 180.949219 188.046875 180.839844 188.175781 180.839844 C 188.308594 180.839844 188.417969 180.949219 188.417969 181.082031 L 188.417969 183.6875 C 188.417969 183.828125 188.308594 183.925781 188.175781 183.925781 Z M 188.175781 183.925781 " fill-opacity="1" fill-rule="nonzero"></path>
  <path fill="#ffffff" d="M 128.945312 239.449219 L 214.511719 239.449219 L 214.511719 237.117188 C 214.511719 236.714844 214.183594 236.386719 213.777344 236.386719 L 129.675781 236.386719 C 129.273438 236.386719 128.945312 236.714844 128.945312 237.117188 Z M 128.945312 239.449219 " fill-opacity="1" fill-rule="nonzero"></path>
  <path fill="#000000" d="M 214.511719 239.691406 L 128.945312 239.691406 C 128.8125 239.691406 128.703125 239.582031 128.703125 239.449219 L 128.703125 237.117188 C 128.703125 236.582031 129.140625 236.144531 129.675781 236.144531 L 213.777344 236.144531 C 214.3125 236.144531 214.75 236.582031 214.75 237.117188 L 214.75 239.449219 C 214.75 239.582031 214.640625 239.691406 214.511719 239.691406 Z M 129.183594 239.210938 L 214.269531 239.210938 L 214.269531 237.117188 C 214.269531 236.84375 214.050781 236.625 213.777344 236.625 L 129.675781 236.625 C 129.402344 236.625 129.183594 236.84375 129.183594 237.117188 Z M 129.183594 239.210938 " fill-opacity="1" fill-rule="nonzero"></path>
  <path fill="#000000" d="M 192.273438 239.613281 C 192.144531 239.613281 192.035156 239.503906 192.035156 239.375 C 192.035156 236.898438 192.953125 236.320312 193.0625 236.265625 C 193.183594 236.199219 193.324219 236.242188 193.390625 236.363281 C 193.453125 236.472656 193.410156 236.625 193.300781 236.691406 C 193.28125 236.703125 192.527344 237.21875 192.527344 239.382812 C 192.515625 239.503906 192.40625 239.613281 192.273438 239.613281 Z M 192.273438 239.613281 " fill-opacity="1" fill-rule="nonzero"></path>
  <path fill="#000000" d="M 212.640625 238.167969 C 212.511719 238.167969 212.402344 238.058594 212.402344 237.929688 C 212.402344 237.796875 212.511719 237.6875 212.640625 237.6875 L 217.613281 237.6875 C 217.625 237.6875 220.246094 237.492188 221.632812 235.871094 C 222.289062 235.105469 222.574219 234.128906 222.476562 232.96875 C 222.34375 231.414062 221.65625 230.277344 220.445312 229.585938 C 217.84375 228.109375 213.472656 228.996094 210.511719 230.441406 C 206.589844 232.355469 203.15625 230.132812 199.167969 227.574219 C 198.328125 227.027344 197.453125 226.46875 196.546875 225.917969 C 186.757812 220.085938 176.125 230.210938 176.015625 230.308594 C 175.917969 230.398438 175.765625 230.398438 175.675781 230.296875 C 175.589844 230.199219 175.589844 230.046875 175.6875 229.960938 C 175.710938 229.9375 178.453125 227.300781 182.386719 225.449219 C 187.632812 222.984375 192.613281 222.996094 196.796875 225.492188 C 197.707031 226.039062 198.589844 226.597656 199.441406 227.144531 C 203.300781 229.632812 206.632812 231.777344 210.316406 229.992188 C 213.386719 228.492188 217.941406 227.59375 220.695312 229.160156 C 222.0625 229.9375 222.824219 231.195312 222.96875 232.914062 C 223.078125 234.207031 222.761719 235.300781 222.015625 236.175781 C 220.5 237.949219 217.765625 238.160156 217.65625 238.167969 Z M 212.640625 238.167969 " fill-opacity="1" fill-rule="nonzero"></path>
  <path fill="#000000" d="M 189.566406 236.460938 L 210.28125 190.910156 C 210.730469 189.925781 210.007812 188.796875 208.925781 188.796875 L 154.742188 188.796875 C 154.175781 188.796875 153.648438 189.128906 153.398438 189.628906 L 132.890625 231.414062 L 112.160156 231.414062 L 113.144531 236.484375 Z M 189.566406 236.460938 " fill-opacity="1" fill-rule="nonzero"></path>
  <path fill="#ffffff" d="M 187.367188 231 L 205.898438 191.46875 L 156.195312 191.46875 L 137.105469 230.714844 Z M 187.367188 231 " fill-opacity="1" fill-rule="nonzero"></path>
  <path fill="#ffffff" d="M 27.503906 78.246094 C 27.875 77.664062 28.257812 77.039062 28.410156 76.285156 C 28.574219 75.53125 28.453125 74.597656 27.984375 74.160156 C 27.65625 73.855469 27.21875 73.832031 26.902344 73.492188 C 26.476562 73.035156 26.421875 72.113281 26.617188 71.414062 C 26.8125 70.714844 27.21875 70.164062 27.578125 69.609375 C 28.582031 68.109375 29.457031 66.378906 29.851562 64.398438 C 30.246094 62.414062 30.113281 60.148438 29.238281 58.496094 C 28.367188 56.84375 26.695312 55.988281 25.359375 56.8125 C 24.367188 57.421875 23.722656 58.75 23.132812 60.019531 C 21.632812 63.214844 20.125 66.433594 18.992188 69.914062 C 17.855469 73.394531 17.089844 77.183594 17.15625 81.015625 C 17.175781 82.40625 17.320312 83.839844 17.800781 85.054688 C 18.269531 86.28125 19.132812 87.277344 20.117188 87.398438 C 21.710938 87.59375 22.324219 85.238281 23.339844 83.980469 C 24.8125 82.195312 26.203125 80.269531 27.503906 78.246094 Z M 27.503906 78.246094 " fill-opacity="1" fill-rule="nonzero"></path>
  <path fill="#000000" d="M 20.324219 87.671875 C 20.246094 87.671875 20.179688 87.671875 20.105469 87.660156 C 19.101562 87.539062 18.136719 86.574219 17.589844 85.164062 C 17.175781 84.078125 16.957031 82.777344 16.9375 81.035156 C 16.871094 77.554688 17.492188 73.789062 18.78125 69.847656 C 19.929688 66.34375 21.460938 63.082031 22.933594 59.917969 C 23.492188 58.738281 24.179688 57.269531 25.261719 56.601562 C 25.839844 56.253906 26.496094 56.152344 27.175781 56.339844 C 28.09375 56.589844 28.945312 57.335938 29.492188 58.375 C 30.332031 59.972656 30.5625 62.242188 30.125 64.441406 C 29.773438 66.214844 29.019531 67.945312 27.820312 69.738281 L 27.710938 69.902344 C 27.382812 70.386719 27.054688 70.878906 26.878906 71.480469 C 26.683594 72.179688 26.78125 72.980469 27.109375 73.328125 C 27.238281 73.472656 27.402344 73.546875 27.589844 73.625 C 27.773438 73.710938 27.992188 73.8125 28.179688 73.988281 C 28.746094 74.523438 28.835938 75.574219 28.671875 76.328125 C 28.507812 77.105469 28.136719 77.730469 27.730469 78.367188 C 26.421875 80.402344 25.023438 82.351562 23.558594 84.15625 C 23.273438 84.515625 23 84.976562 22.75 85.4375 C 22.105469 86.542969 21.472656 87.671875 20.324219 87.671875 Z M 26.484375 56.734375 C 26.136719 56.734375 25.808594 56.832031 25.503906 57.019531 C 24.542969 57.609375 23.886719 59.011719 23.359375 60.128906 C 21.886719 63.269531 20.367188 66.519531 19.230469 70 C 17.964844 73.886719 17.351562 77.597656 17.417969 81.027344 C 17.449219 82.699219 17.644531 83.960938 18.039062 84.988281 C 18.519531 86.234375 19.339844 87.078125 20.160156 87.175781 C 21.121094 87.296875 21.699219 86.28125 22.3125 85.195312 C 22.574219 84.726562 22.859375 84.234375 23.164062 83.851562 C 24.605469 82.066406 26.003906 80.128906 27.304688 78.101562 C 27.6875 77.511719 28.039062 76.921875 28.179688 76.230469 C 28.332031 75.484375 28.179688 74.675781 27.828125 74.335938 C 27.699219 74.214844 27.546875 74.140625 27.371094 74.0625 C 27.164062 73.976562 26.933594 73.867188 26.738281 73.65625 C 26.210938 73.101562 26.191406 72.070312 26.398438 71.347656 C 26.59375 70.679688 26.945312 70.144531 27.292969 69.628906 L 27.402344 69.476562 C 28.5625 67.726562 29.292969 66.050781 29.644531 64.34375 C 30.058594 62.242188 29.839844 60.09375 29.054688 58.59375 C 28.574219 57.6875 27.820312 57.019531 27.042969 56.800781 C 26.847656 56.765625 26.660156 56.734375 26.484375 56.734375 Z M 27.503906 78.246094 Z M 27.503906 78.246094 " fill-opacity="1" fill-rule="nonzero"></path>
  <path fill="#ffffff" d="M 10.050781 80.074219 C 8.761719 77.304688 8.652344 73.21875 10.347656 70.921875 C 11.035156 69.980469 12.074219 69.105469 11.953125 67.757812 C 11.910156 67.230469 11.679688 66.773438 11.429688 66.378906 C 10.542969 64.945312 9.363281 63.960938 8.390625 62.65625 C 7.417969 61.34375 6.644531 59.480469 6.9375 57.632812 C 7.191406 56.042969 8.226562 54.851562 9.363281 54.5 C 10.488281 54.152344 11.691406 54.523438 12.742188 55.210938 C 15.886719 57.28125 17.855469 61.976562 18.507812 66.785156 C 19.175781 71.589844 18.71875 76.546875 18.191406 81.386719 C 18.074219 82.46875 17.941406 83.597656 17.503906 84.507812 C 15.710938 88.195312 11.144531 82.4375 10.050781 80.074219 Z M 10.050781 80.074219 " fill-opacity="1" fill-rule="nonzero"></path>
  <path fill="#000000" d="M 15.886719 85.953125 C 15.875 85.953125 15.875 85.953125 15.867188 85.953125 C 13.679688 85.929688 10.730469 82.132812 9.824219 80.183594 C 8.566406 77.480469 8.347656 73.230469 10.152344 70.789062 C 10.292969 70.59375 10.457031 70.40625 10.609375 70.210938 C 11.222656 69.464844 11.800781 68.765625 11.714844 67.78125 C 11.667969 67.277344 11.429688 66.839844 11.234375 66.507812 C 10.730469 65.699219 10.117188 65.011719 9.515625 64.351562 C 9.078125 63.859375 8.621094 63.355469 8.207031 62.796875 C 7.625 62.019531 6.328125 59.953125 6.707031 57.585938 C 6.960938 56 8.007812 54.664062 9.296875 54.269531 C 10.378906 53.929688 11.613281 54.195312 12.871094 55.015625 C 15.8125 56.941406 18.007812 61.332031 18.75 66.75 C 19.417969 71.554688 18.980469 76.425781 18.433594 81.410156 C 18.324219 82.40625 18.191406 83.628906 17.710938 84.605469 C 17.285156 85.503906 16.675781 85.953125 15.886719 85.953125 Z M 10.261719 54.609375 C 9.988281 54.609375 9.714844 54.644531 9.441406 54.730469 C 8.316406 55.082031 7.410156 56.261719 7.179688 57.664062 C 6.828125 59.84375 8.054688 61.78125 8.589844 62.503906 C 8.992188 63.039062 9.441406 63.542969 9.867188 64.015625 C 10.480469 64.691406 11.113281 65.394531 11.636719 66.234375 C 11.867188 66.609375 12.140625 67.113281 12.195312 67.726562 C 12.292969 68.894531 11.59375 69.75 10.980469 70.496094 C 10.828125 70.679688 10.675781 70.867188 10.542969 71.050781 C 8.851562 73.339844 9.078125 77.378906 10.269531 79.953125 C 11.167969 81.878906 13.976562 85.425781 15.875 85.449219 C 16.464844 85.457031 16.9375 85.109375 17.285156 84.386719 C 17.722656 83.488281 17.84375 82.351562 17.953125 81.34375 C 18.488281 76.382812 18.925781 71.546875 18.269531 66.804688 C 17.539062 61.519531 15.429688 57.25 12.597656 55.398438 C 11.996094 55.027344 11.15625 54.609375 10.261719 54.609375 Z M 10.261719 54.609375 " fill-opacity="1" fill-rule="nonzero"></path>
  <path fill="#000000" d="M 14.816406 82.855469 C 14.738281 82.855469 14.675781 82.820312 14.628906 82.765625 C 12.902344 80.554688 12.925781 76.8125 13.089844 74.773438 C 13.167969 73.867188 13.277344 72.945312 13.394531 72.058594 C 13.625 70.230469 13.867188 68.328125 13.746094 66.464844 C 13.582031 63.859375 12.402344 60.90625 10.535156 60.566406 C 10.402344 60.542969 10.316406 60.414062 10.335938 60.28125 C 10.359375 60.148438 10.488281 60.0625 10.621094 60.082031 C 12.75 60.476562 14.050781 63.574219 14.226562 66.433594 C 14.347656 68.347656 14.105469 70.265625 13.867188 72.113281 C 13.757812 73 13.636719 73.910156 13.558594 74.808594 C 13.394531 76.777344 13.363281 80.378906 14.992188 82.46875 C 15.066406 82.578125 15.058594 82.722656 14.949219 82.808594 C 14.925781 82.84375 14.871094 82.855469 14.816406 82.855469 Z M 14.816406 82.855469 " fill-opacity="1" fill-rule="nonzero"></path>
  <path fill="#ffffff" d="M 15.703125 72.53125 C 16.191406 70.933594 16.9375 69.378906 16.9375 67.636719 C 16.9375 65.109375 15.417969 63.191406 14.347656 61.15625 C 12.421875 57.511719 11.800781 52.421875 13.132812 48.292969 C 14.464844 44.15625 17.863281 41.398438 21.011719 42.371094 C 22.148438 42.722656 23.273438 43.597656 23.820312 45.066406 C 24.441406 46.738281 24.167969 48.785156 23.765625 50.59375 C 23.359375 52.398438 22.835938 54.238281 23 56.121094 C 23.285156 59.460938 25.589844 61.824219 26.082031 65.121094 C 26.585938 68.535156 25 71.820312 23.351562 74.425781 C 22.421875 75.890625 21.4375 77.324219 20.683594 78.976562 C 19.808594 80.871094 19.710938 82.570312 19.40625 84.703125 C 19.078125 86.980469 17.996094 87.242188 16.9375 85.613281 C 15.929688 84.070312 15.363281 81.867188 15.121094 79.832031 C 14.828125 77.367188 15.003906 74.808594 15.703125 72.53125 Z M 15.703125 72.53125 " fill-opacity="1" fill-rule="nonzero"></path>
  <g clip-path="url(#832f5a28e5)">
    <path fill="#000000" d="M 18.246094 86.871094 C 17.863281 86.871094 17.339844 86.640625 16.738281 85.710938 C 15.515625 83.828125 15.058594 81.222656 14.882812 79.832031 C 14.574219 77.304688 14.785156 74.675781 15.472656 72.453125 C 15.59375 72.050781 15.734375 71.65625 15.875 71.261719 C 16.28125 70.101562 16.707031 68.894531 16.707031 67.625 C 16.707031 65.699219 15.777344 64.113281 14.882812 62.570312 C 14.628906 62.140625 14.378906 61.703125 14.140625 61.253906 C 12.097656 57.367188 11.605469 52.246094 12.914062 48.207031 C 14.324219 43.816406 17.917969 41.144531 21.097656 42.121094 C 22.464844 42.546875 23.546875 43.574219 24.058594 44.953125 C 24.738281 46.773438 24.386719 48.941406 24.015625 50.613281 C 23.960938 50.878906 23.894531 51.140625 23.839844 51.402344 C 23.492188 52.925781 23.121094 54.5 23.25 56.078125 C 23.394531 57.785156 24.070312 59.207031 24.792969 60.707031 C 25.4375 62.054688 26.09375 63.457031 26.332031 65.054688 C 26.878906 68.765625 25.023438 72.234375 23.570312 74.523438 C 23.414062 74.773438 23.25 75.027344 23.085938 75.265625 C 22.324219 76.460938 21.535156 77.6875 20.914062 79.042969 C 20.203125 80.597656 20.007812 82.03125 19.789062 83.695312 C 19.746094 84.023438 19.699219 84.363281 19.644531 84.703125 C 19.417969 86.300781 18.859375 86.738281 18.445312 86.839844 C 18.378906 86.859375 18.3125 86.871094 18.246094 86.871094 Z M 19.746094 42.40625 C 17.164062 42.40625 14.519531 44.78125 13.375 48.359375 C 12.105469 52.289062 12.578125 57.257812 14.566406 61.035156 C 14.792969 61.472656 15.046875 61.902344 15.296875 62.328125 C 16.226562 63.925781 17.1875 65.578125 17.1875 67.625 C 17.1875 68.984375 16.75 70.222656 16.335938 71.425781 C 16.203125 71.808594 16.0625 72.203125 15.941406 72.597656 C 15.273438 74.765625 15.066406 77.3125 15.363281 79.777344 C 15.648438 82.097656 16.28125 84.113281 17.144531 85.449219 C 17.570312 86.105469 18.007812 86.445312 18.335938 86.378906 C 18.71875 86.289062 19.023438 85.644531 19.164062 84.648438 C 19.207031 84.296875 19.261719 83.96875 19.296875 83.640625 C 19.515625 81.945312 19.710938 80.476562 20.453125 78.859375 C 21.089844 77.46875 21.886719 76.21875 22.660156 75.015625 C 22.824219 74.765625 22.980469 74.523438 23.140625 74.269531 C 24.550781 72.050781 26.355469 68.675781 25.839844 65.128906 C 25.613281 63.597656 24.96875 62.242188 24.34375 60.925781 C 23.644531 59.449219 22.914062 57.917969 22.761719 56.121094 C 22.617188 54.480469 23 52.859375 23.359375 51.304688 C 23.425781 51.042969 23.480469 50.777344 23.535156 50.527344 C 23.863281 49.039062 24.234375 46.859375 23.601562 45.128906 C 23.140625 43.894531 22.179688 42.960938 20.957031 42.589844 C 20.554688 42.46875 20.148438 42.40625 19.746094 42.40625 Z M 15.703125 72.53125 Z M 15.703125 72.53125 " fill-opacity="1" fill-rule="nonzero"></path>
  </g>
  <path fill="#000000" d="M 18.28125 84.738281 C 18.203125 84.738281 18.117188 84.691406 18.074219 84.628906 C 16.792969 82.558594 16.925781 79.472656 17.484375 77.269531 C 17.875 75.714844 18.464844 74.269531 19.046875 72.878906 C 19.363281 72.125 19.691406 71.335938 19.972656 70.550781 C 20.96875 67.800781 21.242188 65.394531 20.78125 63.402344 C 20.488281 62.097656 19.886719 61.023438 19.261719 59.886719 C 18.859375 59.152344 18.445312 58.386719 18.105469 57.566406 C 16.859375 54.433594 17.046875 50.230469 18.5625 47.339844 C 18.628906 47.222656 18.773438 47.175781 18.890625 47.242188 C 19.011719 47.308594 19.054688 47.449219 18.992188 47.570312 C 17.539062 50.339844 17.351562 54.378906 18.554688 57.390625 C 18.871094 58.191406 19.285156 58.933594 19.679688 59.65625 C 20.289062 60.773438 20.925781 61.921875 21.242188 63.292969 C 21.722656 65.382812 21.449219 67.878906 20.410156 70.714844 C 20.117188 71.511719 19.789062 72.300781 19.472656 73.066406 C 18.902344 74.445312 18.300781 75.871094 17.929688 77.390625 C 17.40625 79.492188 17.265625 82.4375 18.464844 84.386719 C 18.53125 84.496094 18.5 84.648438 18.390625 84.714844 C 18.367188 84.726562 18.324219 84.738281 18.28125 84.738281 Z M 18.28125 84.738281 " fill-opacity="1" fill-rule="nonzero"></path>
  <path fill="#e2eaff" d="M 27.839844 84.988281 L 9.964844 84.988281 L 11.1875 100.050781 L 26.617188 100.050781 Z M 27.839844 84.988281 " fill-opacity="1" fill-rule="nonzero"></path>
  <path fill="#000000" d="M 0.546875 122.328125 C 0.414062 122.328125 0.304688 122.21875 0.304688 122.085938 L 0.304688 100.050781 C 0.304688 99.917969 0.414062 99.808594 0.546875 99.808594 L 36.625 99.808594 C 36.757812 99.808594 36.867188 99.917969 36.867188 100.050781 C 36.867188 100.183594 36.757812 100.292969 36.625 100.292969 L 0.785156 100.292969 L 0.785156 122.085938 C 0.785156 122.21875 0.675781 122.328125 0.546875 122.328125 Z M 0.546875 122.328125 " fill-opacity="1" fill-rule="nonzero"></path>
  <path fill="#ffffff" d="M 150.339844 176.867188 C 151.191406 176.515625 152.175781 176.921875 152.535156 177.785156 L 167.546875 214.328125 L 168.007812 219.964844 L 164.445312 215.609375 L 149.433594 179.066406 C 149.070312 178.203125 149.488281 177.214844 150.339844 176.867188 Z M 150.339844 176.867188 " fill-opacity="1" fill-rule="nonzero"></path>
  <path fill="#000000" d="M 168.007812 220.207031 C 167.941406 220.207031 167.863281 220.171875 167.820312 220.117188 L 164.257812 215.761719 C 164.25 215.738281 164.226562 215.71875 164.226562 215.695312 L 149.214844 179.152344 C 149.015625 178.683594 149.015625 178.15625 149.214844 177.6875 C 149.410156 177.214844 149.78125 176.84375 150.25 176.648438 C 150.722656 176.449219 151.246094 176.449219 151.714844 176.648438 C 152.183594 176.84375 152.558594 177.214844 152.753906 177.6875 L 167.765625 214.226562 C 167.777344 214.25 167.777344 214.273438 167.789062 214.304688 L 168.246094 219.941406 C 168.257812 220.050781 168.191406 220.152344 168.09375 220.183594 C 168.0625 220.195312 168.039062 220.207031 168.007812 220.207031 Z M 164.652344 215.476562 L 167.699219 219.210938 L 167.308594 214.382812 L 152.316406 177.875 C 152.175781 177.511719 151.890625 177.238281 151.539062 177.097656 C 151.191406 176.953125 150.796875 176.941406 150.4375 177.097656 C 150.078125 177.238281 149.804688 177.523438 149.660156 177.875 C 149.507812 178.222656 149.507812 178.617188 149.660156 178.980469 Z M 150.339844 176.867188 Z M 150.339844 176.867188 " fill-opacity="1" fill-rule="nonzero"></path>
  <path fill="#ffffff" d="M 141.664062 198.222656 C 141.664062 198.222656 146.472656 195.136719 149.3125 193.035156 C 152.152344 190.933594 154.085938 188.679688 156.054688 188.796875 C 158.03125 188.917969 157.898438 191.613281 156.054688 194.074219 C 155.277344 195.082031 153.824219 196.351562 153.824219 196.351562 C 153.824219 196.351562 165.101562 190.441406 167.320312 191.183594 C 169.535156 191.929688 167.929688 193.898438 167.929688 193.898438 C 167.929688 193.898438 170.519531 193.023438 171.351562 194.328125 C 172.300781 195.804688 170.390625 197.664062 170.390625 197.664062 C 170.390625 197.664062 171.328125 198.890625 170.714844 200.621094 C 170.105469 202.351562 168.128906 204.375 168.128906 204.375 C 168.128906 204.375 169.152344 206.632812 166.3125 209.71875 C 163.472656 212.804688 148.46875 220.171875 148.46875 220.171875 Z M 141.664062 198.222656 " fill-opacity="1" fill-rule="nonzero"></path>
  <path fill="#000000" d="M 148.492188 220.425781 C 148.460938 220.425781 148.425781 220.414062 148.394531 220.402344 C 148.328125 220.371094 148.285156 220.316406 148.261719 220.25 L 141.433594 198.300781 C 141.402344 198.203125 141.445312 198.082031 141.53125 198.027344 C 141.574219 197.992188 146.371094 194.917969 149.167969 192.847656 C 149.933594 192.28125 150.632812 191.710938 151.300781 191.152344 C 153.113281 189.652344 154.546875 188.46875 156.074219 188.558594 C 156.761719 188.601562 157.277344 188.929688 157.539062 189.5 C 158.054688 190.617188 157.539062 192.507812 156.25 194.21875 C 155.964844 194.589844 155.59375 194.996094 155.234375 195.355469 C 158.46875 193.726562 165.570312 190.34375 167.394531 190.957031 C 168.09375 191.183594 168.53125 191.566406 168.683594 192.082031 C 168.835938 192.597656 168.664062 193.132812 168.464844 193.503906 C 169.339844 193.320312 170.902344 193.15625 171.570312 194.195312 C 172.464844 195.585938 171.164062 197.207031 170.714844 197.6875 C 170.96875 198.105469 171.480469 199.230469 170.957031 200.699219 C 170.410156 202.242188 168.847656 203.972656 168.421875 204.429688 C 168.609375 205.011719 169.035156 207.136719 166.511719 209.882812 C 163.679688 212.96875 149.214844 220.097656 148.601562 220.390625 C 148.570312 220.414062 148.523438 220.425781 148.492188 220.425781 Z M 141.945312 198.332031 L 148.632812 219.84375 C 150.613281 218.859375 163.582031 212.367188 166.148438 209.566406 C 168.847656 206.632812 167.929688 204.507812 167.917969 204.484375 C 167.875 204.398438 167.898438 204.289062 167.964844 204.222656 C 167.984375 204.199219 169.898438 202.21875 170.5 200.554688 C 171.066406 198.96875 170.214844 197.839844 170.214844 197.828125 C 170.136719 197.730469 170.148438 197.601562 170.234375 197.511719 C 170.257812 197.492188 171.996094 195.773438 171.164062 194.480469 C 170.445312 193.351562 168.039062 194.140625 168.019531 194.152344 C 167.917969 194.183594 167.808594 194.152344 167.746094 194.0625 C 167.679688 193.976562 167.691406 193.855469 167.753906 193.78125 C 167.765625 193.769531 168.421875 192.9375 168.226562 192.246094 C 168.128906 191.898438 167.800781 191.621094 167.253906 191.4375 C 165.515625 190.855469 157.058594 194.960938 153.945312 196.59375 C 153.835938 196.648438 153.703125 196.613281 153.636719 196.515625 C 153.574219 196.417969 153.582031 196.273438 153.683594 196.199219 C 153.691406 196.1875 155.136719 194.941406 155.878906 193.964844 C 157.035156 192.421875 157.539062 190.679688 157.113281 189.738281 C 156.925781 189.335938 156.566406 189.105469 156.054688 189.070312 C 154.71875 188.996094 153.34375 190.125 151.617188 191.558594 C 150.941406 192.117188 150.25 192.695312 149.464844 193.265625 C 146.929688 195.105469 142.800781 197.785156 141.945312 198.332031 Z M 141.945312 198.332031 " fill-opacity="1" fill-rule="nonzero"></path>
  <path fill="#000000" d="M 159.921875 198.597656 C 159.832031 198.597656 159.757812 198.550781 159.714844 198.476562 C 159.648438 198.355469 159.691406 198.214844 159.8125 198.148438 L 167.984375 193.648438 C 168.105469 193.582031 168.246094 193.625 168.3125 193.746094 C 168.378906 193.867188 168.335938 194.007812 168.214844 194.074219 L 160.042969 198.5625 C 159.996094 198.585938 159.964844 198.597656 159.921875 198.597656 Z M 159.921875 198.597656 " fill-opacity="1" fill-rule="nonzero"></path>
  <path fill="#000000" d="M 161.394531 204.082031 C 161.320312 204.082031 161.242188 204.046875 161.199219 203.972656 C 161.125 203.863281 161.15625 203.707031 161.265625 203.632812 L 170.269531 197.457031 C 170.378906 197.382812 170.53125 197.414062 170.609375 197.523438 C 170.683594 197.632812 170.652344 197.785156 170.542969 197.863281 L 161.539062 204.035156 C 161.496094 204.070312 161.449219 204.082031 161.394531 204.082031 Z M 161.394531 204.082031 " fill-opacity="1" fill-rule="nonzero"></path>
  <path fill="#000000" d="M 162.257812 208.734375 C 162.183594 208.734375 162.105469 208.699219 162.0625 208.632812 C 161.988281 208.523438 162.007812 208.371094 162.117188 208.296875 L 167.996094 204.167969 C 168.105469 204.089844 168.257812 204.113281 168.335938 204.222656 C 168.410156 204.332031 168.390625 204.484375 168.28125 204.5625 L 162.402344 208.6875 C 162.359375 208.722656 162.3125 208.734375 162.257812 208.734375 Z M 162.257812 208.734375 " fill-opacity="1" fill-rule="nonzero"></path>
  <path fill="#ffffff" d="M 155.988281 195.027344 L 149.433594 179.066406 C 149.082031 178.210938 149.488281 177.226562 150.351562 176.867188 C 151.203125 176.515625 152.183594 176.921875 152.546875 177.785156 L 159.035156 193.570312 Z M 155.988281 195.027344 " fill-opacity="1" fill-rule="nonzero"></path>
  <path fill="#000000" d="M 156.0625 195.445312 C 155.964844 195.445312 155.878906 195.386719 155.84375 195.289062 L 149.214844 179.152344 C 149.015625 178.683594 149.015625 178.15625 149.214844 177.6875 C 149.410156 177.214844 149.78125 176.84375 150.25 176.648438 C 150.722656 176.449219 151.246094 176.449219 151.714844 176.648438 C 152.183594 176.84375 152.558594 177.214844 152.753906 177.6875 L 159.296875 193.605469 C 159.351562 193.726562 159.289062 193.867188 159.167969 193.921875 C 159.046875 193.976562 158.90625 193.910156 158.851562 193.789062 L 152.304688 177.875 C 152 177.140625 151.160156 176.789062 150.425781 177.085938 C 150.066406 177.226562 149.792969 177.511719 149.648438 177.863281 C 149.496094 178.210938 149.496094 178.605469 149.648438 178.96875 L 156.28125 195.105469 C 156.335938 195.222656 156.273438 195.367188 156.152344 195.421875 C 156.117188 195.445312 156.085938 195.445312 156.0625 195.445312 Z M 156.0625 195.445312 " fill-opacity="1" fill-rule="nonzero"></path>
  <path fill="#ffffff" d="M 62.074219 144.757812 L 66.707031 126.203125 C 66.707031 126.203125 65.667969 118.507812 70.148438 114.917969 C 74.628906 111.328125 84.679688 110.890625 84.679688 110.890625 C 84.679688 110.890625 87.085938 116.472656 88.394531 129.289062 C 88.875 134.019531 88.1875 136.953125 78.847656 137.347656 L 77.546875 143.5 Z M 62.074219 144.757812 " fill-opacity="1" fill-rule="nonzero"></path>
  <path fill="#000000" d="M 62.074219 145 C 62.007812 145 61.933594 144.964844 61.886719 144.910156 C 61.832031 144.855469 61.824219 144.769531 61.832031 144.691406 L 66.457031 126.191406 C 66.367188 125.480469 65.59375 118.257812 69.984375 114.730469 C 74.476562 111.128906 84.242188 110.667969 84.660156 110.648438 C 84.757812 110.636719 84.855469 110.703125 84.886719 110.789062 C 84.910156 110.84375 87.3125 116.546875 88.625 129.257812 C 88.875 131.675781 88.789062 133.582031 87.578125 134.984375 C 86.234375 136.546875 83.511719 137.371094 79.019531 137.578125 L 77.765625 143.542969 C 77.742188 143.652344 77.65625 143.730469 77.546875 143.730469 L 62.085938 144.976562 C 62.097656 145 62.085938 145 62.074219 145 Z M 84.515625 111.140625 C 83.183594 111.21875 74.34375 111.863281 70.300781 115.101562 C 65.976562 118.574219 66.9375 126.09375 66.945312 126.171875 C 66.945312 126.203125 66.945312 126.238281 66.945312 126.257812 L 62.390625 144.484375 L 77.339844 143.269531 L 78.605469 137.292969 C 78.628906 137.183594 78.726562 137.105469 78.835938 137.105469 C 83.28125 136.921875 85.960938 136.144531 87.226562 134.664062 C 88.320312 133.394531 88.394531 131.601562 88.15625 129.3125 C 86.976562 117.839844 84.898438 112.125 84.515625 111.140625 Z M 84.515625 111.140625 " fill-opacity="1" fill-rule="nonzero"></path>
  <path fill="#000000" d="M 79.128906 136.375 C 79.109375 136.375 79.097656 136.375 79.074219 136.363281 C 78.945312 136.328125 78.867188 136.199219 78.902344 136.078125 L 79.882812 131.90625 C 79.917969 131.777344 80.046875 131.699219 80.167969 131.730469 C 80.300781 131.765625 80.375 131.894531 80.34375 132.015625 L 79.359375 136.1875 C 79.335938 136.296875 79.238281 136.375 79.128906 136.375 Z M 79.128906 136.375 " fill-opacity="1" fill-rule="nonzero"></path>
  <path fill="#000000" d="M 88.503906 106.566406 C 88.210938 105.789062 87.542969 105.21875 86.769531 105 C 86.988281 104.464844 87.007812 103.851562 86.625 103.355469 C 86.234375 102.855469 85.597656 102.699219 84.988281 102.667969 C 85.097656 101.738281 84.617188 100.75 83.828125 100.238281 C 83.226562 99.84375 82.386719 99.855469 81.828125 100.25 C 81.71875 100.074219 81.589844 99.898438 81.445312 99.734375 C 81.117188 99.328125 80.703125 99.066406 80.179688 99 C 79.347656 98.902344 78.648438 99.285156 78.027344 99.765625 C 78.003906 99.765625 77.984375 99.765625 77.960938 99.753906 C 77.820312 99.492188 77.621094 99.261719 77.382812 99.066406 C 77.152344 98.878906 76.890625 98.703125 76.59375 98.640625 C 76.277344 98.5625 75.996094 98.683594 75.699219 98.8125 C 75.480469 98.914062 75.273438 99.03125 75.078125 99.175781 C 74.726562 98.792969 74.214844 98.539062 73.644531 98.53125 C 72.792969 98.519531 72.082031 98.988281 71.632812 99.65625 C 71.371094 99.503906 71.097656 99.394531 70.792969 99.363281 C 70.367188 99.316406 69.929688 99.417969 69.558594 99.625 C 69.035156 99.910156 68.726562 100.378906 68.597656 100.90625 C 68.019531 100.390625 67.242188 100.0625 66.53125 100.324219 C 66.039062 100.511719 65.703125 100.9375 65.539062 101.417969 C 65.472656 101.617188 65.4375 101.8125 65.429688 102.023438 C 65.230469 101.988281 65.023438 101.976562 64.816406 102 C 63.84375 102.109375 63.035156 102.808594 62.914062 103.804688 C 62.902344 103.9375 62.894531 104.070312 62.914062 104.199219 C 62.621094 104.101562 62.3125 104.070312 61.996094 104.132812 C 61.460938 104.242188 61.023438 104.636719 60.730469 105.074219 C 60.414062 105.546875 60.261719 106.117188 60.335938 106.683594 C 60.183594 106.597656 60.03125 106.519531 59.855469 106.476562 C 59.34375 106.367188 58.839844 106.53125 58.445312 106.847656 C 58.054688 107.167969 57.824219 107.648438 57.78125 108.152344 C 57.453125 108.097656 57.125 108.121094 56.828125 108.328125 C 56.402344 108.621094 56.207031 109.136719 56.054688 109.609375 C 55.933594 109.96875 55.878906 110.363281 55.921875 110.734375 C 55.222656 110.921875 54.632812 111.457031 54.492188 112.203125 C 54.359375 112.859375 54.621094 113.539062 55.089844 113.988281 C 55.089844 113.988281 55.089844 113.988281 55.089844 113.996094 C 54.359375 114.390625 53.835938 115.125 53.769531 115.988281 C 53.714844 116.722656 54.054688 117.445312 54.601562 117.9375 C 54.601562 118.148438 54.609375 118.367188 54.621094 118.574219 C 54.164062 119.054688 53.867188 119.691406 53.902344 120.390625 C 53.933594 121.265625 54.492188 122.066406 55.265625 122.40625 C 55.265625 122.414062 55.265625 122.414062 55.277344 122.425781 C 54.828125 123.050781 54.644531 123.871094 54.90625 124.628906 C 55.199219 125.503906 56.019531 126.136719 56.917969 126.246094 C 56.925781 126.269531 56.9375 126.292969 56.960938 126.324219 C 56.808594 127.34375 56.808594 128.414062 57.5625 129.214844 C 58.019531 129.707031 58.707031 129.894531 59.320312 129.730469 C 59.34375 129.75 59.351562 129.773438 59.375 129.792969 C 59.386719 130.855469 59.789062 131.960938 60.785156 132.445312 C 61.289062 132.695312 61.886719 132.738281 62.421875 132.597656 C 62.554688 133.394531 62.980469 134.160156 63.757812 134.480469 C 64.421875 134.753906 65.230469 134.621094 65.746094 134.152344 C 66.171875 134.839844 66.882812 135.367188 67.734375 135.324219 C 68.226562 135.289062 68.707031 135.105469 69.054688 134.753906 C 69.242188 134.566406 69.371094 134.335938 69.460938 134.097656 C 69.492188 133.996094 69.503906 133.832031 69.546875 133.703125 C 70.3125 134.207031 71.339844 134.292969 72.160156 133.832031 C 72.988281 133.375 73.4375 132.445312 73.394531 131.523438 C 73.996094 131.347656 74.496094 130.890625 74.648438 130.265625 C 74.824219 129.585938 74.542969 128.863281 74.003906 128.4375 C 73.996094 128.414062 73.996094 128.382812 73.984375 128.359375 C 73.425781 127.890625 72.957031 127.332031 72.5625 126.71875 C 71.734375 125.4375 71.199219 123.9375 71.066406 122.414062 C 70.957031 121.101562 71.199219 119.644531 72.203125 118.703125 C 73.078125 117.882812 74.34375 117.644531 75.480469 117.992188 C 75.851562 118.113281 76.203125 118.277344 76.507812 118.484375 C 79.753906 124.15625 79.382812 118.519531 80.253906 116.570312 C 80.890625 116.84375 81.609375 116.910156 82.222656 116.570312 C 82.679688 116.308594 83.007812 115.847656 83.085938 115.332031 C 83.882812 115.542969 84.78125 115.519531 85.480469 115.058594 C 86.101562 114.65625 86.503906 113.964844 86.515625 113.242188 C 87.414062 113.132812 88.222656 112.53125 88.539062 111.675781 C 88.84375 110.84375 88.636719 109.871094 88.058594 109.214844 C 88.613281 108.503906 88.84375 107.453125 88.503906 106.566406 Z M 88.503906 106.566406 " fill-opacity="1" fill-rule="nonzero"></path>
  <path fill="#000000" d="M 75.839844 129.5625 C 75.339844 129.5625 74.835938 129.433594 74.410156 129.160156 C 74.300781 129.09375 74.257812 128.941406 74.332031 128.832031 C 74.398438 128.722656 74.550781 128.675781 74.660156 128.753906 C 75.261719 129.125 76.050781 129.191406 76.703125 128.90625 C 77.359375 128.632812 77.863281 128.019531 78.015625 127.332031 C 78.046875 127.199219 78.167969 127.125 78.300781 127.144531 C 78.429688 127.179688 78.507812 127.296875 78.484375 127.429688 C 78.300781 128.273438 77.6875 129.007812 76.902344 129.34375 C 76.5625 129.5 76.203125 129.5625 75.839844 129.5625 Z M 75.839844 129.5625 " fill-opacity="1" fill-rule="nonzero"></path>
  <path fill="#000000" d="M 77.546875 125.285156 C 77.457031 125.285156 77.382812 125.242188 77.339844 125.164062 C 76.824219 124.289062 76.050781 123.566406 75.140625 123.117188 C 75.023438 123.0625 74.976562 122.917969 75.03125 122.800781 C 75.085938 122.679688 75.230469 122.636719 75.351562 122.691406 C 76.34375 123.171875 77.195312 123.96875 77.753906 124.921875 C 77.820312 125.03125 77.785156 125.1875 77.667969 125.25 C 77.632812 125.273438 77.589844 125.285156 77.546875 125.285156 Z M 77.546875 125.285156 " fill-opacity="1" fill-rule="nonzero"></path>
  <path fill="#ffffff" d="M 57.527344 146.433594 C 57.527344 146.433594 58.445312 142.503906 59.5625 140.851562 C 60.664062 139.199219 76.386719 143.007812 78.234375 144.246094 C 80.082031 145.480469 80.8125 150.035156 80.8125 150.035156 Z M 57.527344 146.433594 " fill-opacity="1" fill-rule="nonzero"></path>
  <path fill="#000000" d="M 80.8125 150.265625 C 80.800781 150.265625 80.792969 150.265625 80.78125 150.265625 L 57.496094 146.664062 C 57.429688 146.652344 57.375 146.621094 57.332031 146.566406 C 57.300781 146.511719 57.277344 146.445312 57.300781 146.378906 C 57.332031 146.214844 58.25 142.394531 59.363281 140.71875 C 60.0625 139.679688 64.816406 140.421875 68.671875 141.234375 C 73.085938 142.152344 77.4375 143.421875 78.375 144.046875 C 80.289062 145.328125 81.03125 149.804688 81.0625 149.992188 C 81.074219 150.066406 81.054688 150.144531 81 150.199219 C 80.933594 150.242188 80.878906 150.265625 80.8125 150.265625 Z M 57.824219 146.226562 L 80.519531 149.730469 C 80.308594 148.679688 79.554688 145.414062 78.101562 144.429688 C 77.21875 143.839844 72.859375 142.582031 68.574219 141.683594 C 62.949219 140.5 60.097656 140.480469 59.769531 140.972656 C 58.839844 142.339844 58.042969 145.339844 57.824219 146.226562 Z M 57.824219 146.226562 " fill-opacity="1" fill-rule="nonzero"></path>
  <path fill="#5479f7" d="M 142.601562 196.878906 C 136.070312 199.515625 129.535156 202.164062 123.011719 204.804688 C 118.183594 190.398438 113.363281 175.980469 108.535156 161.574219 C 105.441406 156.054688 99.878906 152.390625 93.609375 151.730469 L 86.84375 151 C 85.785156 148.886719 84.253906 146.71875 82.277344 146.191406 C 78.148438 145.085938 58.445312 142.273438 54.929688 142.941406 C 51.59375 143.578125 51.398438 146.28125 51.148438 146.871094 L 50.042969 147.015625 C 41.214844 147.234375 32.210938 151.917969 28.484375 158.878906 C 22.070312 172.695312 21.644531 186.566406 20.410156 200.621094 C 42.589844 209.761719 64.785156 218.902344 86.964844 228.054688 C 88.964844 230.035156 94.558594 235.0625 103.496094 236.757812 C 112.6875 238.496094 119.90625 235.664062 122.453125 234.523438 C 132.277344 230.113281 142.101562 225.710938 151.921875 221.300781 C 151.738281 217.996094 151.09375 213.144531 148.917969 207.714844 C 146.996094 202.910156 144.546875 199.296875 142.601562 196.878906 Z M 142.601562 196.878906 " fill-opacity="1" fill-rule="nonzero"></path>
  <path fill="#000000" d="M 125.011719 210.453125 C 124.914062 210.453125 124.8125 210.386719 124.78125 210.289062 L 123.195312 205.527344 C 123.152344 205.394531 123.21875 205.261719 123.351562 205.21875 C 123.480469 205.175781 123.613281 205.242188 123.65625 205.371094 L 125.242188 210.132812 C 125.285156 210.265625 125.21875 210.398438 125.085938 210.441406 C 125.066406 210.441406 125.03125 210.453125 125.011719 210.453125 Z M 125.011719 210.453125 " fill-opacity="1" fill-rule="nonzero"></path>
  <path fill="#5479f7" d="M 107.179688 236.308594 L 107.496094 241.890625 L 85.195312 241.890625 L 16.074219 215.445312 L 20.410156 200.609375 L 75.503906 209.914062 Z M 107.179688 236.308594 " fill-opacity="1" fill-rule="nonzero"></path>
  <path fill="#000000" d="M 105.039062 236.285156 C 105.003906 236.285156 104.984375 236.285156 104.949219 236.265625 C 104.773438 236.199219 104.609375 236.121094 104.4375 236.058594 C 100.796875 234.511719 97.816406 231.625 96.042969 227.945312 L 81.761719 198.355469 C 81.707031 198.234375 81.753906 198.09375 81.871094 198.039062 C 81.992188 197.984375 82.136719 198.027344 82.191406 198.148438 L 96.472656 227.738281 C 98.195312 231.316406 101.09375 234.121094 104.621094 235.617188 C 104.785156 235.683594 104.949219 235.761719 105.125 235.828125 C 105.246094 235.871094 105.308594 236.011719 105.253906 236.144531 C 105.222656 236.230469 105.136719 236.285156 105.039062 236.285156 Z M 105.039062 236.285156 " fill-opacity="1" fill-rule="nonzero"></path>
  <path fill="#000000" d="M 85.585938 151.394531 C 85.578125 151.394531 85.566406 151.394531 85.554688 151.394531 L 54.632812 147.582031 C 54.5 147.570312 54.402344 147.453125 54.425781 147.308594 C 54.4375 147.179688 54.566406 147.078125 54.699219 147.101562 L 85.621094 150.910156 C 85.75 150.921875 85.851562 151.042969 85.828125 151.183594 C 85.804688 151.304688 85.707031 151.394531 85.585938 151.394531 Z M 85.585938 151.394531 " fill-opacity="1" fill-rule="nonzero"></path>
  <path fill="#ffffff" d="M 11.855469 241.890625 L 0.632812 169.464844 C 0 165.558594 3.015625 162.023438 6.960938 162.023438 L 59.460938 162.023438 C 62.378906 162.023438 64.9375 164.003906 65.667969 166.839844 L 85.105469 241.902344 L 11.855469 241.902344 Z M 11.855469 241.890625 " fill-opacity="1" fill-rule="nonzero"></path>
  <g clip-path="url(#2e605e1e2a)">
    <path fill="#000000" d="M 11.8125 242.132812 C 11.691406 242.132812 11.59375 242.042969 11.570312 241.925781 L 0.382812 169.5 C 0.078125 167.574219 0.621094 165.613281 1.878906 164.125 C 3.148438 162.636719 4.992188 161.78125 6.9375 161.78125 L 27.261719 161.78125 C 27.394531 161.78125 27.503906 161.890625 27.503906 162.023438 C 27.503906 162.152344 27.394531 162.261719 27.261719 162.261719 L 6.960938 162.261719 C 5.144531 162.261719 3.441406 163.050781 2.261719 164.441406 C 1.09375 165.820312 0.578125 167.636719 0.875 169.433594 L 12.0625 241.871094 C 12.085938 242 11.996094 242.121094 11.867188 242.144531 C 11.832031 242.132812 11.824219 242.132812 11.8125 242.132812 Z M 11.8125 242.132812 " fill-opacity="1" fill-rule="nonzero"></path>
  </g>
  <path fill="#000000" d="M 76.59375 239.15625 C 76.484375 239.15625 76.386719 239.078125 76.367188 238.96875 L 59.144531 170.726562 C 58.742188 169.136719 57.332031 168.03125 55.691406 168.03125 L 8.097656 168.03125 C 7.964844 168.03125 7.855469 167.921875 7.855469 167.792969 C 7.855469 167.660156 7.964844 167.550781 8.097656 167.550781 L 55.691406 167.550781 C 57.539062 167.550781 59.15625 168.808594 59.605469 170.605469 L 76.835938 238.847656 C 76.867188 238.980469 76.792969 239.109375 76.660156 239.144531 C 76.640625 239.15625 76.617188 239.15625 76.59375 239.15625 Z M 76.59375 239.15625 " fill-opacity="1" fill-rule="nonzero"></path>
  <path fill="#ffffff" d="M 242.886719 203.632812 L 286.625 203.632812 L 286.625 226.367188 L 242.886719 226.367188 Z M 242.886719 203.632812 " fill-opacity="1" fill-rule="nonzero"></path>
  <path fill="#000000" d="M 286.625 226.609375 L 242.886719 226.609375 C 242.753906 226.609375 242.644531 226.5 242.644531 226.367188 L 242.644531 203.632812 C 242.644531 203.5 242.753906 203.390625 242.886719 203.390625 L 286.625 203.390625 C 286.757812 203.390625 286.867188 203.5 286.867188 203.632812 L 286.867188 226.367188 C 286.867188 226.5 286.757812 226.609375 286.625 226.609375 Z M 243.128906 226.128906 L 286.386719 226.128906 L 286.386719 203.871094 L 243.128906 203.871094 Z M 243.128906 226.128906 " fill-opacity="1" fill-rule="nonzero"></path>
  <path fill="#000000" d="M 279.25 209.949219 L 266.421875 209.949219 C 266.292969 209.949219 266.183594 209.839844 266.183594 209.707031 C 266.183594 209.574219 266.292969 209.464844 266.421875 209.464844 L 279.25 209.464844 C 279.382812 209.464844 279.492188 209.574219 279.492188 209.707031 C 279.492188 209.839844 279.382812 209.949219 279.25 209.949219 Z M 279.25 209.949219 " fill-opacity="1" fill-rule="nonzero"></path>
  <path fill="#000000" d="M 258.28125 209.949219 L 250.273438 209.949219 C 250.140625 209.949219 250.03125 209.839844 250.03125 209.707031 C 250.03125 209.574219 250.140625 209.464844 250.273438 209.464844 L 258.28125 209.464844 C 258.414062 209.464844 258.523438 209.574219 258.523438 209.707031 C 258.523438 209.839844 258.414062 209.949219 258.28125 209.949219 Z M 258.28125 209.949219 " fill-opacity="1" fill-rule="nonzero"></path>
  <path fill="#000000" d="M 279.25 215.234375 L 275.03125 215.234375 C 274.902344 215.234375 274.792969 215.125 274.792969 214.996094 C 274.792969 214.863281 274.902344 214.753906 275.03125 214.753906 L 279.25 214.753906 C 279.382812 214.753906 279.492188 214.863281 279.492188 214.996094 C 279.492188 215.125 279.382812 215.234375 279.25 215.234375 Z M 279.25 215.234375 " fill-opacity="1" fill-rule="nonzero"></path>
  <path fill="#000000" d="M 269.832031 215.234375 L 250.261719 215.234375 C 250.132812 215.234375 250.023438 215.125 250.023438 214.996094 C 250.023438 214.863281 250.132812 214.753906 250.261719 214.753906 L 269.832031 214.753906 C 269.960938 214.753906 270.070312 214.863281 270.070312 214.996094 C 270.070312 215.125 269.972656 215.234375 269.832031 215.234375 Z M 269.832031 215.234375 " fill-opacity="1" fill-rule="nonzero"></path>
  <path fill="#000000" d="M 279.25 220.535156 L 265.527344 220.535156 C 265.394531 220.535156 265.285156 220.425781 265.285156 220.292969 C 265.285156 220.160156 265.394531 220.050781 265.527344 220.050781 L 279.25 220.050781 C 279.382812 220.050781 279.492188 220.160156 279.492188 220.292969 C 279.492188 220.425781 279.382812 220.535156 279.25 220.535156 Z M 279.25 220.535156 " fill-opacity="1" fill-rule="nonzero"></path>
  <path fill="#000000" d="M 259.460938 220.535156 L 250.273438 220.535156 C 250.140625 220.535156 250.03125 220.425781 250.03125 220.292969 C 250.03125 220.160156 250.140625 220.050781 250.273438 220.050781 L 259.460938 220.050781 C 259.59375 220.050781 259.703125 220.160156 259.703125 220.292969 C 259.703125 220.425781 259.59375 220.535156 259.460938 220.535156 Z M 259.460938 220.535156 " fill-opacity="1" fill-rule="nonzero"></path>
  <path fill="#ffffff" d="M 294.777344 195.902344 C 294.777344 196.664062 294.703125 197.414062 294.554688 198.160156 C 294.40625 198.90625 294.1875 199.628906 293.898438 200.332031 C 293.605469 201.03125 293.25 201.699219 292.828125 202.332031 C 292.40625 202.964844 291.929688 203.546875 291.390625 204.085938 C 290.855469 204.621094 290.269531 205.101562 289.640625 205.523438 C 289.007812 205.945312 288.34375 206.300781 287.640625 206.59375 C 286.9375 206.882812 286.214844 207.105469 285.472656 207.25 C 284.726562 207.398438 283.976562 207.472656 283.214844 207.472656 C 282.457031 207.472656 281.707031 207.398438 280.960938 207.25 C 280.21875 207.105469 279.492188 206.882812 278.792969 206.59375 C 278.089844 206.300781 277.425781 205.945312 276.792969 205.523438 C 276.164062 205.101562 275.578125 204.621094 275.042969 204.085938 C 274.503906 203.546875 274.027344 202.964844 273.605469 202.332031 C 273.183594 201.699219 272.828125 201.03125 272.535156 200.332031 C 272.246094 199.628906 272.027344 198.90625 271.878906 198.160156 C 271.730469 197.414062 271.65625 196.664062 271.65625 195.902344 C 271.65625 195.144531 271.730469 194.390625 271.878906 193.644531 C 272.027344 192.902344 272.246094 192.175781 272.535156 191.476562 C 272.828125 190.773438 273.183594 190.105469 273.605469 189.476562 C 274.027344 188.84375 274.503906 188.257812 275.042969 187.722656 C 275.578125 187.183594 276.164062 186.703125 276.792969 186.28125 C 277.425781 185.859375 278.089844 185.503906 278.792969 185.214844 C 279.492188 184.921875 280.21875 184.703125 280.960938 184.554688 C 281.707031 184.40625 282.457031 184.332031 283.214844 184.332031 C 283.976562 184.332031 284.726562 184.40625 285.472656 184.554688 C 286.214844 184.703125 286.9375 184.921875 287.640625 185.214844 C 288.34375 185.503906 289.007812 185.859375 289.640625 186.28125 C 290.269531 186.703125 290.855469 187.183594 291.390625 187.722656 C 291.929688 188.257812 292.40625 188.84375 292.828125 189.476562 C 293.25 190.105469 293.605469 190.773438 293.898438 191.476562 C 294.1875 192.175781 294.40625 192.902344 294.554688 193.644531 C 294.703125 194.390625 294.777344 195.144531 294.777344 195.902344 Z M 294.777344 195.902344 " fill-opacity="1" fill-rule="nonzero"></path>
  <path fill="#000000" d="M 283.214844 207.714844 C 276.703125 207.714844 271.417969 202.417969 271.417969 195.902344 C 271.417969 189.390625 276.714844 184.089844 283.214844 184.089844 C 289.730469 184.089844 295.015625 189.390625 295.015625 195.902344 C 295.015625 202.417969 289.730469 207.714844 283.214844 207.714844 Z M 283.214844 184.574219 C 276.976562 184.574219 271.898438 189.652344 271.898438 195.902344 C 271.898438 202.152344 276.976562 207.234375 283.214844 207.234375 C 289.457031 207.234375 294.535156 202.152344 294.535156 195.902344 C 294.535156 189.664062 289.457031 184.574219 283.214844 184.574219 Z M 283.214844 184.574219 " fill-opacity="1" fill-rule="nonzero"></path>
  <path fill="#5479f7" d="M 289.433594 194.390625 C 289.367188 194.390625 289.3125 194.390625 289.25 194.402344 C 289.09375 193.789062 288.855469 193.222656 288.539062 192.695312 C 288.582031 192.664062 288.636719 192.617188 288.679688 192.574219 C 289.269531 191.984375 289.269531 191.019531 288.679688 190.429688 C 288.089844 189.839844 287.128906 189.839844 286.539062 190.429688 C 286.496094 190.472656 286.449219 190.515625 286.417969 190.570312 C 285.894531 190.253906 285.324219 190.015625 284.714844 189.871094 C 284.722656 189.804688 284.722656 189.75 284.722656 189.683594 C 284.722656 188.851562 284.046875 188.175781 283.207031 188.175781 C 282.363281 188.175781 281.6875 188.851562 281.6875 189.683594 C 281.6875 189.75 281.6875 189.804688 281.699219 189.871094 C 281.085938 190.023438 280.519531 190.265625 279.992188 190.570312 C 279.960938 190.527344 279.917969 190.472656 279.875 190.429688 C 279.28125 189.839844 278.320312 189.839844 277.730469 190.429688 C 277.140625 191.019531 277.140625 191.984375 277.730469 192.574219 C 277.773438 192.617188 277.820312 192.664062 277.875 192.695312 C 277.558594 193.222656 277.316406 193.789062 277.164062 194.402344 C 277.097656 194.390625 277.042969 194.390625 276.976562 194.390625 C 276.136719 194.390625 275.457031 195.070312 275.457031 195.902344 C 275.457031 196.734375 276.136719 197.414062 276.976562 197.414062 C 277.042969 197.414062 277.097656 197.414062 277.164062 197.402344 C 277.316406 198.015625 277.558594 198.585938 277.875 199.109375 C 277.828125 199.144531 277.773438 199.1875 277.730469 199.230469 C 277.140625 199.820312 277.140625 200.785156 277.730469 201.375 C 278.320312 201.96875 279.28125 201.96875 279.875 201.375 C 279.917969 201.332031 279.960938 201.289062 279.992188 201.234375 C 280.519531 201.550781 281.085938 201.792969 281.699219 201.933594 C 281.6875 202 281.6875 202.054688 281.6875 202.121094 C 281.6875 202.953125 282.363281 203.632812 283.207031 203.632812 C 284.046875 203.632812 284.722656 202.953125 284.722656 202.121094 C 284.722656 202.054688 284.722656 202 284.714844 201.933594 C 285.324219 201.78125 285.894531 201.539062 286.417969 201.234375 C 286.449219 201.277344 286.496094 201.332031 286.539062 201.375 C 287.128906 201.96875 288.089844 201.96875 288.679688 201.375 C 289.269531 200.785156 289.269531 199.820312 288.679688 199.230469 C 288.636719 199.1875 288.59375 199.144531 288.539062 199.109375 C 288.855469 198.585938 289.09375 198.015625 289.25 197.402344 C 289.3125 197.414062 289.367188 197.414062 289.433594 197.414062 C 290.273438 197.414062 290.953125 196.734375 290.953125 195.902344 C 290.953125 195.070312 290.273438 194.390625 289.433594 194.390625 Z M 283.214844 198.714844 C 281.664062 198.714844 280.410156 197.457031 280.410156 195.902344 C 280.410156 194.347656 281.664062 193.089844 283.214844 193.089844 C 284.769531 193.089844 286.023438 194.347656 286.023438 195.902344 C 286.023438 197.457031 284.769531 198.714844 283.214844 198.714844 Z M 283.214844 198.714844 " fill-opacity="1" fill-rule="nonzero"></path>
  <path fill="#000000" d="M 238.308594 215.234375 L 206.894531 215.234375 C 206.761719 215.234375 206.652344 215.125 206.652344 214.996094 C 206.652344 214.863281 206.761719 214.753906 206.894531 214.753906 L 238.308594 214.753906 C 238.441406 214.753906 238.550781 214.863281 238.550781 214.996094 C 238.550781 215.125 238.441406 215.234375 238.308594 215.234375 Z M 238.308594 215.234375 " fill-opacity="1" fill-rule="nonzero"></path>
  <path fill="#000000" d="M 283.214844 181.320312 C 283.085938 181.320312 282.976562 181.210938 282.976562 181.082031 L 282.976562 159.539062 C 282.976562 159.40625 283.085938 159.296875 283.214844 159.296875 C 283.347656 159.296875 283.457031 159.40625 283.457031 159.539062 L 283.457031 181.082031 C 283.457031 181.210938 283.347656 181.320312 283.214844 181.320312 Z M 283.214844 181.320312 " fill-opacity="1" fill-rule="nonzero"></path>
</svg>
