<svg id="SvgjsSvg1001" width="256" height="256" xmlns="http://www.w3.org/2000/svg" version="1.1" xmlns:xlink="http://www.w3.org/1999/xlink" xmlns:svgjs="http://svgjs.com/svgjs"><defs id="SvgjsDefs1002"></defs><g id="SvgjsG1008"><svg xmlns="http://www.w3.org/2000/svg" viewBox="0 0 64 64" width="256" height="256"><path fill="#00a0c8" d="M52 49c0 1.66-1.34 3-3 3H11c-1.66 0-3-1.34-3-3s1.34-3 3-3h2a2 2 0 1 0 0 4h34c1.1 0 2-.9 2-2 0-1.093-.891-2-2-2h2c1.66 0 3 1.34 3 3zm-9-6c0 1.66-1.34 3-3 3H20a2.996 2.996 0 0 1-2.22-5.01c.07.01.15.01.22.01h1.27c-.17.29-.27.64-.27 1 0 1.1.9 2 2 2h16c1.1 0 2-.9 2-2l4 1zm3-6c0 1.66-1.34 3-3 3H17c-1.66 0-3-1.34-3-3s1.34-3 3-3h2c-1.1 0-2 .9-2 2 0 1.095.894 2 2 2h21c1.1 0 2-.9 2-2l4 1zm2-7c0 1.66-1.34 3-3 3H15c-1.66 0-3-1.34-3-3s1.34-3 3-3h2c-1.1 0-2 .9-2 2 0 1.095.894 2 2 2h27c1.1 0 4-1 4-1zm0 23c0 1.66-1.34 3-3 3H15c-1.66 0-3-1.34-3-3 .459.628 1.19 1 1.968 1H42c.74 0 1.38-.4 1.73-1H48zm8.62-17.62L50 42l3.31-6.62C54.154 33.692 55.229 28 50 28l2.14-.53c4.666-1.178 7.808 4.582 4.48 7.91z" class="color00A0C8 svgShape"></path><path fill="#c80a50" d="M27.981 27.974c-3.597.353-6.461-3.007-5.914-6.427.259-1.616 1.325-3.164 2.641-4.135 1.565-1.155 1.9-3.432.759-5.023L22 8c5.45 1.225 7.632 4.015 7.957 6.774.272 2.308-.755 4.744-2.533 6.158-1.425 1.133-1.822 3.276-.828 4.833l1.408 2.207-.023.002zm6.059-4.563a2.437 2.437 0 0 1 .572 3.516L31.997 30l2.058-.43c4.048-.956 5.413-6.126 2.031-8.623-2.509-1.852.037-4.111.797-4.948-3.855 0-5.324 2.415-4.794 4.667.244 1.032.906 2.029 1.951 2.745z" class="colorC80A50 svgShape"></path></svg></g></svg>